<svg id="Livello_1" data-name="Livello 1" xmlns="http://www.w3.org/2000/svg" viewBox="0 0 102.81 126.48"><path d="M46,3.88c-14.2,12-33.9,29-37.5,32.4-2.2,2-4.9,4.4-5.9,5.1C.7,42.78.7,43,2.3,45.18c4.1,5.9,13.4,16.4,14.5,16.4,1.3,0,11.2-8.2,24.7-20.4,4.9-4.4,9.3-8.1,9.8-8.1s8.2,6.5,17.4,14.5S85.6,62.08,86,62.08c1.4,0,15-16.9,14.9-18.7,0-1.1-9.3-9.8-23-21.8C65.2,10.58,54.1,1.08,53.2.38,51.8-.52,50.6,0,46,3.88Z"/><path d="M80,87.18c-9.2,10.9-21.9,16.1-34,14-8.4-1.5-15.4-5.5-22.5-12.8-6.4-6.6-5.3-6.8-16.7,2.4-4.7,3.7-6.8,6.1-6.8,7.6,0,2.9,12.7,15.2,20.6,20,10.7,6.4,17.2,8.1,31.4,8.1,11.2-.1,13.2-.3,19.5-2.8,9.4-3.6,16.6-8.5,24.8-16.8,4.9-4.9,6.7-7.5,6.5-9.1-.2-1.3-3.7-4.7-9.3-8.9-4.9-3.7-9-6.8-9.1-6.8S82.4,84.38,80,87.18Z"/></svg>