<svg id="Livello_2" data-name="Livello 2" xmlns="http://www.w3.org/2000/svg" viewBox="0 0 16.54 16.54"><path d="M8.27,0a8.27,8.27,0,1,0,8.27,8.27A8.27,8.27,0,0,0,8.27,0ZM2.67,6c.11-.07.43-.34.68-.56.42-.37,2.7-2.25,4.34-3.58.53-.43.67-.48.83-.38s1.39,1.12,2.86,2.34A21.22,21.22,0,0,1,14,6.26a9.42,9.42,0,0,1-1.73,2.07s-.93-.72-2-1.6-2-1.6-2-1.6A8.88,8.88,0,0,0,7.17,6,19.64,19.64,0,0,1,4.31,8.27,10.09,10.09,0,0,1,2.63,6.46C2.45,6.22,2.45,6.2,2.67,6ZM13.46,12.9a7.79,7.79,0,0,1-2.87,1.85,4.92,4.92,0,0,1-2.25.31,6.1,6.1,0,0,1-3.63-.89A7.34,7.34,0,0,1,2.32,12c0-.17.25-.43.79-.84,1.32-1,1.19-1,1.93-.27a4.73,4.73,0,0,0,2.6,1.42,4.36,4.36,0,0,0,3.93-1.55c.28-.31.5-.56.51-.56l1.05.75c.65.46,1.06.84,1.08,1S14,12.36,13.46,12.9Z" style="fill:#e2e2e2"/></svg>