<svg id="Livello_1" data-name="Livello 1" xmlns="http://www.w3.org/2000/svg" viewBox="0 0 18.07 21.99"><path d="M8.22,3.81C6.28,5.37,3.6,7.58,3.11,8c-.3.26-.67.58-.81.67s-.26.21,0,.49a12.21,12.21,0,0,0,2,2.14A24.49,24.49,0,0,0,7.6,8.66a10.69,10.69,0,0,1,1.34-1c.07,0,1.12.84,2.37,1.88s2.3,1.89,2.36,1.89A11.16,11.16,0,0,0,15.7,9a23.8,23.8,0,0,0-3.14-2.84L9.2,3.35C9,3.23,8.84,3.3,8.22,3.81Z" style="fill:#fff;stroke:#797979;stroke-miterlimit:10;stroke-width:0.9921259880065918px"/><path d="M12.85,14.65a5.12,5.12,0,0,1-4.63,1.82A5.6,5.6,0,0,1,5.15,14.8c-.87-.86-.72-.88-2.28.32-.64.48-.92.79-.92,1,0,.37,1.73,2,2.81,2.6A7.16,7.16,0,0,0,9,19.76a5.94,5.94,0,0,0,2.66-.36,9.13,9.13,0,0,0,3.38-2.19c.67-.64.91-1,.89-1.18s-.51-.61-1.27-1.16L13.45,14S13.18,14.28,12.85,14.65Z" style="fill:#fff;stroke:#797979;stroke-miterlimit:10;stroke-width:0.9921259880065918px"/></svg>