<?xml version="1.0" encoding="utf-8"?>
<!-- Generator: Adobe Illustrator 26.3.1, SVG Export Plug-In . SVG Version: 6.00 Build 0)  -->
<svg version="1.1" id="Livello_1" xmlns="http://www.w3.org/2000/svg" xmlns:xlink="http://www.w3.org/1999/xlink" x="0px" y="0px"
	 viewBox="0 0 103 128" style="enable-background:new 0 0 103 128;" xml:space="preserve">
<style type="text/css">
	.st0{fill:none;stroke:#000000;stroke-miterlimit:10;}
</style>
<g transform="translate(0.000000,128.000000) scale(0.100000,-0.100000)">
	<path class="st0" d="M460,1232C318,1112,121,942,85,908c-22-20-49-44-59-51c-19-14-19-16-3-38c41-59,134-164,145-164
		c13,0,112,82,247,204c49,44,93,81,98,81c4,0,82-65,174-145c91-80,169-145,173-145c14,0,150,169,149,187c0,11-93,98-230,218
		c-127,110-238,205-247,212C518,1276,506,1271,460,1232z"/>
	<path class="st0" d="M800,399c-92-109-219-161-340-140c-84,15-154,55-225,128c-64,66-53,68-167-24c-47-37-68-61-68-76
		c0-29,127-152,206-200C313,23,378,6,520,6c112,1,132,3,195,28c94,36,166,85,248,168c49,49,67,75,65,91c-2,13-37,47-93,89
		c-49,37-90,68-91,68C844,450,824,427,800,399z"/>
</g>
</svg>
