<svg xmlns="http://www.w3.org/2000/svg" viewBox="0 0 24 24" fill="currentColor">
  <path _ngcontent-ng-c1909134112="" fill-rule="evenodd" clip-rule="evenodd" style="color: inherit" d="M19 3a1 1 0 1 0-2 0v2h-2a1 1 0 1 0 0 2h2v2a1 1 0 1 0 2 0V7h2a1 1 0 1 0 0-2h-2V3Zm2 9.5c0-.369-.021-.733-.062-1.09a6.028 6.028 0 0 1-1.972 1.807 7.5 7.5 0 1 1-8.183-8.183 6.03 6.03 0 0 1 1.808-1.972A9.5 9.5 0 1 0 21 12.5ZM10 10a1 1 0 0 0-2 0v1.5a1 1 0 1 0 2 0V10Zm4-1a1 1 0 0 1 1 1v1.5a1 1 0 1 1-2 0V10a1 1 0 0 1 1-1Zm-6.055 5.168a1 1 0 0 1 1.397.29 2.84 2.84 0 0 0 .508.492 2.7 2.7 0 0 0 1.65.55 2.7 2.7 0 0 0 1.65-.55 2.84 2.84 0 0 0 .508-.492.609.609 0 0 0 .015-.02l-.002.002-.001.003h-.001v.001a1 1 0 0 1 1.663 1.11L14.5 15l.832.556h-.001l-.001.002-.003.004-.006.01-.018.024-.054.075a4.839 4.839 0 0 1-.899.88c-.63.47-1.585.949-2.85.949a4.701 4.701 0 0 1-2.85-.95 4.84 4.84 0 0 1-.899-.88 2.83 2.83 0 0 1-.054-.074l-.018-.025-.006-.01-.003-.003-.001-.002s-.001-.001.831-.556l-.832.555a1 1 0 0 1 .277-1.387Z" />
</svg>