<svg xmlns="http://www.w3.org/2000/svg" viewBox="0 0 24 24" fill="none">
  <path _ngcontent-ng-c1909134112="" fill="url('#cu3-icon-aiActionItems-paint0_linear_4403_785')" style="color: inherit" d="M10.471 5.806a.667.667 0 1 0-.942-.943L6 8.392 4.471 6.863a.667.667 0 1 0-.942.943l2 2c.26.26.682.26.942 0l4-4Z" />
  <path _ngcontent-ng-c1909134112="" fill="url('#cu3-icon-aiActionItems-paint0_linear_4403_785')" fill-rule="evenodd" clip-rule="evenodd" style="color: inherit" d="M7 .335a6.667 6.667 0 1 0 0 13.333A6.667 6.667 0 0 0 7 .335ZM1.667 7a5.333 5.333 0 1 1 10.666 0A5.333 5.333 0 0 1 1.667 7Z" />
</svg>