<svg xmlns="http://www.w3.org/2000/svg" viewBox="0 0 24 24" fill="none">
  <path _ngcontent-ng-c1909134112="" fill="url('#cu3-icon-aiCheckSelect-a')" style="color: inherit" d="m21.29 5.89-10 10a.994.994 0 0 1-1.41 0l-2.83-2.83a.998.998 0 0 1 1.41-1.41l2.12 2.12 9.29-9.29a.996.996 0 0 1 1.41 0c.4.39.4 1.02.01 1.41ZM12 20c-4.71 0-8.48-4.09-7.95-8.9.39-3.52 3.12-6.41 6.61-6.99 1.81-.3 3.53.02 4.99.78a1.004 1.004 0 0 0 .93-1.78c-1.47-.75-3.13-1.16-4.9-1.11-5.14.16-9.41 4.34-9.67 9.47C1.72 17.24 6.3 22 12 22c1.2 0 2.34-.21 3.41-.6.68-.25.87-1.13.35-1.65a.98.98 0 0 0-1.04-.23c-.85.31-1.77.48-2.72.48Z" />
  <path _ngcontent-ng-c1909134112="" fill="url('#cu3-icon-aiCheckSelect-b')" fill-rule="evenodd" clip-rule="evenodd" style="color: inherit" d="M20.3 11.845a.457.457 0 0 0-.886 0l-.172.651c-.372 1.404-.88 2.5-2.262 2.878l-.64.176c-.453.124-.453.776 0 .9l.64.175c1.382.378 1.89 1.475 2.262 2.879l.172.651c.122.46.764.46.886 0l.173-.651c.371-1.404.88-2.5 2.261-2.879l.641-.175c.453-.124.453-.776 0-.9l-.641-.176c-1.381-.378-1.89-1.474-2.261-2.878l-.173-.651Z" />
</svg>