<svg xmlns="http://www.w3.org/2000/svg" viewBox="0 0 24 24" fill="none">
  <path _ngcontent-ng-c1909134112="" style="color: inherit" d="M7 1.533A6.067 6.067 0 0 0 .953 8.085c.08 1.013 1.325 1.235 2.093.57C4.505 7.39 6.82 5.783 9.216 5.733c1.843-.038 2.703.866 3.097 1.845.137.341.754.39.754.022A6.067 6.067 0 0 0 7 1.533Z" />
  <path _ngcontent-ng-c1909134112="" fill="currentColor" fill-rule="evenodd" clip-rule="evenodd" style="color: inherit" d="M9.4 6.587c.236.1.347.374.247.612l-1.634 3.85a.467.467 0 1 1-.859-.365l1.633-3.85a.467.467 0 0 1 .612-.247Z" />
  <path _ngcontent-ng-c1909134112="" fill="currentColor" fill-rule="evenodd" clip-rule="evenodd" style="color: inherit" d="M1.7 10.59a.467.467 0 0 1-.621-.226 6.533 6.533 0 1 1 11.952-.247.467.467 0 0 1-.862-.36 5.6 5.6 0 1 0-10.245.211.467.467 0 0 1-.225.621Z" />
  <path _ngcontent-ng-c1909134112="" fill="currentColor" fill-rule="evenodd" clip-rule="evenodd" style="color: inherit" d="M3.033 8.199a.467.467 0 0 1-.466-.467c0-2.532 2.1-4.566 4.666-4.566a.467.467 0 1 1 0 .934C5.161 4.1 3.5 5.736 3.5 7.732a.467.467 0 0 1-.467.467Z" />
  <path _ngcontent-ng-c1909134112="" style="color: inherit" d="M8.4 12.266a1.4 1.4 0 1 1-2.8 0 1.4 1.4 0 0 1 2.8 0Z" />
  <path _ngcontent-ng-c1909134112="" fill="currentColor" fill-rule="evenodd" clip-rule="evenodd" style="color: inherit" d="M7 11.333A.933.933 0 1 0 7 13.2a.933.933 0 0 0 0-1.867Zm-1.866.933a1.867 1.867 0 1 1 3.733 0 1.867 1.867 0 0 1-3.733 0Z" />
</svg>