<svg xmlns="http://www.w3.org/2000/svg" viewBox="0 0 24 24" fill="none">
  <path _ngcontent-ng-c1909134112="" fill="url('#cu3-icon-aiSyncColored-paint0_linear_902_10878')" fill-rule="evenodd" clip-rule="evenodd" style="color: inherit" d="M5.03 2.757a1 1 0 0 1 1.213-.727l4 1a1 1 0 0 1 .727 1.213l-1 4a1 1 0 0 1-1.94-.486l.453-1.81A6.998 6.998 0 0 0 5 12a6.998 6.998 0 0 0 3.61 6.126 1 1 0 0 1-.971 1.748A8.998 8.998 0 0 1 3 12a8.993 8.993 0 0 1 4.263-7.654L5.757 3.97a1 1 0 0 1-.727-1.213Zm9.972 1.758a1 1 0 0 1 1.36-.39A8.998 8.998 0 0 1 21 12a8.993 8.993 0 0 1-4.263 7.654l1.506.376a1 1 0 1 1-.485 1.94l-4-1a1 1 0 0 1-.728-1.212l1-4a1 1 0 1 1 1.94.485l-.453 1.81A6.998 6.998 0 0 0 19 12a6.998 6.998 0 0 0-3.61-6.126 1 1 0 0 1-.388-1.36Z" />
</svg>