<svg xmlns="http://www.w3.org/2000/svg" viewBox="0 0 24 24" fill="none">
  <path _ngcontent-ng-c1909134112="" fill="url('#cu3-icon-aiTemplatesAltColored-paint0_linear_4403_1019')" fill-rule="evenodd" clip-rule="evenodd" style="color: inherit" d="M10.724 2.335c.52-.521 1.365-.521 1.885 0l1.058 1.057c.52.52.52 1.365 0 1.885l-8.391 8.391c-.52.52-1.365.52-1.886 0l-1.057-1.057a1.333 1.333 0 0 1 0-1.886l8.39-8.39Zm-.448 2.333 1.057 1.057 1.39-1.39-1.056-1.058-1.391 1.391Zm.114 2L9.333 5.611l-6.057 6.057 1.057 1.057 6.057-6.057Z" />
  <path _ngcontent-ng-c1909134112="" fill="url('#cu3-icon-aiTemplatesAltColored-paint0_linear_4403_1019')" style="color: inherit" d="M6.964 3.409c.05.098.19.098.239 0l.319-.639a.133.133 0 0 1 .06-.06l.638-.319a.133.133 0 0 0 0-.238l-.639-.32a.133.133 0 0 1-.06-.059l-.318-.638a.133.133 0 0 0-.239 0l-.32.638a.133.133 0 0 1-.059.06l-.638.319a.133.133 0 0 0 0 .238l.638.32a.133.133 0 0 1 .06.06l.32.638ZM3.474 5.85a.167.167 0 0 0 .298-.002l.573-1.169a.167.167 0 0 1 .075-.075l1.193-.597a.167.167 0 0 0-.002-.299l-1.189-.572a.167.167 0 0 1-.078-.078L3.772 1.87a.167.167 0 0 0-.299-.002L2.877 3.06a.167.167 0 0 1-.076.076l-1.168.573a.167.167 0 0 0-.003.298l1.173.597a.167.167 0 0 1 .073.073l.598 1.173Zm9.048 4.27a.167.167 0 0 0-.299-.002l-.596 1.192a.167.167 0 0 1-.076.075l-1.168.574a.167.167 0 0 0-.003.298l1.173.597a.166.166 0 0 1 .073.073l.598 1.173a.167.167 0 0 0 .298-.002l.573-1.168a.167.167 0 0 1 .075-.076l1.193-.597a.167.167 0 0 0-.002-.299l-1.189-.572a.167.167 0 0 1-.078-.078l-.572-1.188Z" />
</svg>