<svg xmlns="http://www.w3.org/2000/svg" viewBox="0 0 24 24" fill="currentColor">
  <path _ngcontent-ng-c1909134112="" fill-rule="evenodd" clip-rule="evenodd" style="color: inherit" d="M12 3a1 1 0 0 1 1 1v16a1 1 0 1 1-2 0V4a1 1 0 0 1 1-1ZM5.293 8.293a1 1 0 0 1 1.414 0l3 3a1 1 0 0 1 0 1.414l-3 3a1 1 0 0 1-1.414-1.414L6.586 13H2a1 1 0 1 1 0-2h4.586L5.293 9.707a1 1 0 0 1 0-1.414ZM15.5 6.5a1 1 0 1 0 0 2h3a1 1 0 1 0 0-2h-3Zm-1 5.5a1 1 0 0 1 1-1h6a1 1 0 1 1 0 2h-6a1 1 0 0 1-1-1Zm1 3.5a1 1 0 1 0 0 2h5a1 1 0 1 0 0-2h-5Z" />
</svg>