<svg xmlns="http://www.w3.org/2000/svg" viewBox="0 0 24 24" fill="none">
  <path _ngcontent-ng-c1909134112="" fill="url('#cu3-icon-appAddColored-paint0_linear_4118_50845')" fill-rule="evenodd" clip-rule="evenodd" style="color: inherit" d="M2 4a2 2 0 0 1 2-2h1.334a2 2 0 0 1 2 2v1.334a2 2 0 0 1-2 2H4.001a2 2 0 0 1-2-2V4Zm2-.666A.667.667 0 0 0 3.335 4v1.334c0 .368.298.666.667.666h1.333a.667.667 0 0 0 .667-.666V4a.667.667 0 0 0-.667-.666H4.001ZM8.668 4a2 2 0 0 1 2-2h1.334a2 2 0 0 1 2 2v1.334a2 2 0 0 1-2 2h-1.334a2 2 0 0 1-2-2V4Zm2-.666a.667.667 0 0 0-.666.666v1.334c0 .368.298.666.666.666h1.334a.667.667 0 0 0 .666-.666V4a.667.667 0 0 0-.666-.666h-1.334Zm-8.666 7.333a2 2 0 0 1 2-2h1.333a2 2 0 0 1 2 2v1.334a2 2 0 0 1-2 2H4.001a2 2 0 0 1-2-2v-1.334Zm2-.666a.667.667 0 0 0-.667.666v1.334c0 .368.298.666.667.666h1.333a.667.667 0 0 0 .667-.666v-1.334a.667.667 0 0 0-.667-.666H4.001Zm7.333-1.334c.368 0 .667.299.667.667v1.333h1.333a.667.667 0 1 1 0 1.334h-1.333v1.333a.667.667 0 0 1-1.334 0V12H9.334a.667.667 0 0 1 0-1.334h1.333V9.334c0-.368.299-.667.667-.667Z" />
</svg>