<svg xmlns="http://www.w3.org/2000/svg" viewBox="0 0 24 24" fill="none">
  <path _ngcontent-ng-c1909134112="" fill="currentColor" fill-rule="evenodd" clip-rule="evenodd" style="color: inherit" d="M8.057 2.418a1.44 1.44 0 0 1 0 2.02L4.82 7.715h12.121c1.872 0 3.668.753 4.992 2.092A7.186 7.186 0 0 1 24 14.857a7.186 7.186 0 0 1-2.067 5.05A7.017 7.017 0 0 1 16.94 22h-1.41a1.42 1.42 0 0 1-1.411-1.429 1.42 1.42 0 0 1 1.411-1.428h1.412a4.21 4.21 0 0 0 2.995-1.255 4.312 4.312 0 0 0 1.24-3.03 4.312 4.312 0 0 0-1.24-3.031 4.21 4.21 0 0 0-2.995-1.256H4.821l3.236 3.276a1.44 1.44 0 0 1 0 2.02 1.4 1.4 0 0 1-1.996 0L.413 10.153a1.44 1.44 0 0 1 0-2.02l5.648-5.715a1.4 1.4 0 0 1 1.996 0Z" />
</svg>