<svg xmlns="http://www.w3.org/2000/svg" viewBox="0 0 24 24" fill="currentColor">
  <path _ngcontent-ng-c1909134112="" fill-rule="evenodd" clip-rule="evenodd" style="color: inherit" d="m19.52 4.2-.196.974.196-.974a1 1 0 0 1-.393 1.961h-.002l-.006-.001a11.294 11.294 0 0 0-.964-.118 14.138 14.138 0 0 0-2.55.034c-2.051.215-4.551.945-6.567 2.961-2.017 2.017-2.747 4.517-2.962 6.568a14.137 14.137 0 0 0-.034 2.55 11.298 11.298 0 0 0 .118.964l.001.006a1 1 0 0 1-1.96.395l.98-.197-.98.196H4.2v-.003l-.002-.007-.004-.02a5.158 5.158 0 0 1-.05-.312 13.27 13.27 0 0 1-.096-.866 16.136 16.136 0 0 1 .04-2.915c.243-2.329 1.088-5.325 3.535-7.773 2.448-2.447 5.444-3.292 7.773-3.536a16.138 16.138 0 0 1 2.915-.04 13.285 13.285 0 0 1 1.11.135l.068.012.02.004.007.001h.003Z" />
</svg>