<svg xmlns="http://www.w3.org/2000/svg" viewBox="0 0 24 24" fill="none">
  <path _ngcontent-ng-c1909134112="" fill="var(--arrow-left-alt-icon-background-color, var(--cu-background-main-inverse))" fill-opacity=".055" fill-rule="evenodd" clip-rule="evenodd" style="color: inherit" d="M1.578 7.88c-.79.527-.79 1.69 0 2.217l9.98 6.664a1.333 1.333 0 0 0 2.074-1.109v-2.084h2.023c.736 0 1.333-.598 1.333-1.334v-6.49c0-.737-.597-1.334-1.333-1.334h-2.023V2.324c0-1.065-1.188-1.7-2.074-1.109L1.578 7.88Z" />
  <path _ngcontent-ng-c1909134112="" fill="currentColor" fill-rule="evenodd" clip-rule="evenodd" style="color: inherit" d="M12.299 13.568c0-.737.597-1.334 1.333-1.334h2.023v-6.49h-2.023A1.333 1.333 0 0 1 12.3 4.41V2.324l-9.98 6.664 9.98 6.664v-2.084Zm1.333 2.084c0 1.066-1.188 1.7-2.074 1.11l-9.98-6.665a1.333 1.333 0 0 1 0-2.218l9.98-6.664a1.333 1.333 0 0 1 2.074 1.11V4.41h2.023c.736 0 1.333.597 1.333 1.333v6.491c0 .736-.597 1.334-1.333 1.334h-2.023v2.084Z" />
</svg>