<svg xmlns="http://www.w3.org/2000/svg" viewBox="0 0 24 24" fill="none">
  <path _ngcontent-ng-c1909134112="" fill="currentColor" fill-rule="evenodd" clip-rule="evenodd" style="color: inherit" d="M3 15.88a1 1 0 0 1-1-1V9.12a1 1 0 1 1 2 0v5.76a1 1 0 0 1-1 1Zm3.6 3.6a1 1 0 0 1-1-1V5.52a1 1 0 1 1 2 0v12.96a1 1 0 0 1-1 1Zm3.6-2.88a1 1 0 0 1-1-1V8.4a1 1 0 1 1 2 0v7.2a1 1 0 0 1-1 1Zm3.6 5.4a1 1 0 0 1-1-1V3a1 1 0 1 1 2 0v18a1 1 0 0 1-1 1Zm3.6-3.24a1 1 0 0 1-1-1V6.24a1 1 0 1 1 2 0v11.52a1 1 0 0 1-1 1Zm3.6-3.6a1 1 0 0 1-1-1V9.84a1 1 0 1 1 2 0v4.32a1 1 0 0 1-1 1Z" />
</svg>