<svg xmlns="http://www.w3.org/2000/svg" viewBox="0 0 24 24" fill="none">
  <path _ngcontent-ng-c1909134112="" fill="currentColor" fill-rule="evenodd" clip-rule="evenodd" style="color: inherit" d="M13 2a1 1 0 1 0-2 0v1.055A9.004 9.004 0 0 0 3.055 11H2a1 1 0 1 0 0 2h1.055A9.004 9.004 0 0 0 11 20.945V22a1 1 0 1 0 2 0v-1.055A9.004 9.004 0 0 0 20.945 13H22a1 1 0 1 0 0-2h-4a1 1 0 1 0 0 2h.93A7.004 7.004 0 0 1 13 18.93V18a1 1 0 1 0-2 0v.93A7.004 7.004 0 0 1 5.07 13H6a1 1 0 1 0 0-2h-.93A7.005 7.005 0 0 1 11 5.07V6a1 1 0 1 0 2 0V2Zm-3 10a2 2 0 1 1 4 0 2 2 0 0 1-4 0Zm11-5.402a1 1 0 1 0 0-2h-1.268l.634-1.098a1 1 0 1 0-1.732-1L18 3.598 17.366 2.5a1 1 0 1 0-1.732 1l.634 1.098H15a1 1 0 1 0 0 2h1.268l-.634 1.098a1 1 0 1 0 1.732 1L18 7.598l.634 1.098a1 1 0 1 0 1.732-1l-.634-1.098H21Z" />
</svg>