<svg xmlns="http://www.w3.org/2000/svg" viewBox="0 0 24 24" fill="none">
  <path _ngcontent-ng-c1909134112="" fill="currentColor" style="color: inherit" d="M9.375 6.572c.23-.156.52-.283.861-.356V9.75a6.28 6.28 0 0 1-.145-.04c-.6-.175-.945-.384-1.129-.66-.344-.516-.416-1.004-.334-1.407.082-.408.334-.79.747-1.07Zm2.389 8.946V11.63l.048.011c.683.156 1.188.341 1.524.629.292.25.529.638.529 1.404 0 .563-.196.956-.49 1.235-.309.293-.778.505-1.378.585-.076.01-.154.018-.233.024Z" />
  <path _ngcontent-ng-c1909134112="" fill="currentColor" fill-rule="evenodd" clip-rule="evenodd" style="color: inherit" d="M11 22c6.075 0 11-4.925 11-11S17.075 0 11 0 0 4.925 0 11s4.925 11 11 11Zm0-18.639c.422 0 .764.342.764.764v.567c.858.14 1.774.49 2.702 1.08a.764.764 0 0 1-.82 1.289c-.68-.433-1.313-.69-1.882-.815v3.823c.13.026.26.054.387.083.724.165 1.543.414 2.178.957.68.58 1.063 1.42 1.063 2.565 0 .963-.354 1.764-.966 2.344-.598.567-1.395.88-2.227.99a5.42 5.42 0 0 1-.435.04v.827a.764.764 0 0 1-1.528 0v-.942a6.991 6.991 0 0 1-3.17-1.534.764.764 0 0 1 .994-1.16 5.455 5.455 0 0 0 2.176 1.128V11.32a9.413 9.413 0 0 1-.571-.145c-.708-.205-1.486-.548-1.974-1.28-.548-.82-.73-1.717-.561-2.555.168-.834.672-1.55 1.39-2.034a4.035 4.035 0 0 1 1.716-.642v-.54c0-.421.342-.763.764-.763Z" />
</svg>