<svg xmlns="http://www.w3.org/2000/svg" viewBox="0 0 24 24" fill="none">
  <path _ngcontent-ng-c1909134112="" fill="#2684FF" style="color: inherit" d="M1.766 2a.427.427 0 0 0-.427.495L3.154 13.5a.581.581 0 0 0 .568.485h8.698a.427.427 0 0 0 .427-.359L14.66 2.5a.426.426 0 0 0-.427-.496L1.766 2Zm7.633 7.95H6.623l-.751-3.928h4.2l-.673 3.929Z" />
  <path _ngcontent-ng-c1909134112="" fill="url('#cu3-icon-bitbucket-a')" style="color: inherit" d="M14.079 6.027H10.07L9.4 9.955H6.623l-3.277 3.888a.57.57 0 0 0 .374.14h8.7a.427.427 0 0 0 .427-.358l1.232-7.598Z" />
</svg>