<svg xmlns="http://www.w3.org/2000/svg" viewBox="0 0 24 24" fill="none">
  <path _ngcontent-ng-c1909134112="" fill="#0071F7" style="color: inherit" d="M12.746 9.246a3.884 3.884 0 0 0-3.431 2.058 3.884 3.884 0 0 0-3.431-2.057c-.874 0-1.68.288-2.33.774V6.758a.776.776 0 0 0-1.554 0v6.424h.002a3.878 3.878 0 0 0 3.882 3.808 3.884 3.884 0 0 0 3.43-2.057 3.884 3.884 0 0 0 3.432 2.057 3.878 3.878 0 0 0 3.884-3.872 3.878 3.878 0 0 0-3.884-3.873Zm-6.862 6.196a2.326 2.326 0 0 1-2.33-2.323 2.326 2.326 0 0 1 2.33-2.323c1.286 0 2.33 1.04 2.33 2.323a2.326 2.326 0 0 1-2.33 2.323Zm6.862 0a2.326 2.326 0 0 1-2.33-2.323 2.326 2.326 0 0 1 2.33-2.323c1.286 0 2.33 1.04 2.33 2.323a2.326 2.326 0 0 1-2.33 2.323Z" />
  <path _ngcontent-ng-c1909134112="" fill="#0071F7" style="color: inherit" d="m21.854 15.773-1.989-2.651 1.99-2.651h-.001a.774.774 0 0 0-.164-1.072.779.779 0 0 0-1.078.141l-1.717 2.288-1.717-2.288A.779.779 0 0 0 16.1 9.4a.773.773 0 0 0-.164 1.072l1.988 2.65-1.989 2.652a.773.773 0 0 0 .165 1.072.779.779 0 0 0 1.078-.142l1.717-2.288 1.716 2.288a.78.78 0 0 0 1.079.142.773.773 0 0 0 .164-1.072Z" />
</svg>