<svg xmlns="http://www.w3.org/2000/svg" viewBox="0 0 24 24" fill="currentColor">
  <path _ngcontent-ng-c1909134112="" fill-rule="evenodd" clip-rule="evenodd" style="color: inherit" d="M9.5 21a1 1 0 0 0 1 1h3a1 1 0 1 0 0-2h-3a1 1 0 0 0-1 1Zm-1-3a1 1 0 0 0 1 1h5a1 1 0 1 0 0-2h-5a1 1 0 0 0-1 1Zm.5-2a1 1 0 0 1-.962-.725C7.408 13.068 5 12 5 9a7 7 0 0 1 14 0c0 3-2.408 4.068-3.039 6.275A1 1 0 0 1 15 16H9Zm5.274-2H13v-3.465l1.055-.703a1 1 0 0 0-1.11-1.664l-.945.63-.945-.63a1 1 0 0 0-1.11 1.664l1.055.703V14H9.726C9.154 12.438 7 11 7 9a5 5 0 0 1 10 0c0 2-2.164 3.465-2.726 5Z" />
</svg>