<svg xmlns="http://www.w3.org/2000/svg" viewBox="0 0 24 24" fill="none">
  <path _ngcontent-ng-c1909134112="" fill="currentColor" fill-rule="evenodd" clip-rule="evenodd" style="color: inherit" d="M6.333 14c0 .369.299.667.667.667h2a.667.667 0 0 0 0-1.333H7a.667.667 0 0 0-.667.667Zm-.666-2c0 .369.298.667.667.667h3.333a.667.667 0 0 0 0-1.333H6.334a.667.667 0 0 0-.667.667ZM6 10.667a.667.667 0 0 1-.64-.483C4.938 8.712 3.332 8 3.332 6a4.667 4.667 0 1 1 9.334 0c0 2-1.605 2.711-2.026 4.183a.667.667 0 0 1-.64.483H6Z" />
</svg>