<svg xmlns="http://www.w3.org/2000/svg" viewBox="0 0 24 24" fill="currentColor">
  <path _ngcontent-ng-c1909134112="" fill-rule="evenodd" clip-rule="evenodd" style="color: inherit" d="M6 2a1 1 0 0 0-1 1v3h14V3a1 1 0 0 0-1-1H6Zm13 6H5v13a1 1 0 0 0 1 1h12a1 1 0 0 0 1-1V8ZM3 3a3 3 0 0 1 3-3h12a3 3 0 0 1 3 3v18a3 3 0 0 1-3 3H6a3 3 0 0 1-3-3V3Zm4 16a1 1 0 0 1 1-1h4a1 1 0 1 1 0 2H8a1 1 0 0 1-1-1Z" />
  <path _ngcontent-ng-c1909134112="" style="color: inherit" d="M17 19a1 1 0 1 1-2 0 1 1 0 0 1 2 0Zm0-4a1 1 0 1 1-2 0 1 1 0 0 1 2 0Zm0-4a1 1 0 1 1-2 0 1 1 0 0 1 2 0Zm-8 0a1 1 0 1 1-2 0 1 1 0 0 1 2 0Zm4 0a1 1 0 1 1-2 0 1 1 0 0 1 2 0Zm-4 4a1 1 0 1 1-2 0 1 1 0 0 1 2 0Zm4 0a1 1 0 1 1-2 0 1 1 0 0 1 2 0Z" />
</svg>