<svg xmlns="http://www.w3.org/2000/svg" viewBox="0 0 24 24" fill="none">
  <path _ngcontent-ng-c1909134112="" fill="currentColor" fill-rule="evenodd" clip-rule="evenodd" style="color: inherit" d="M1 6a4 4 0 0 1 4-4h14a4 4 0 0 1 4 4v12a4 4 0 0 1-4 4H5a4 4 0 0 1-4-4V6Zm4-2a2 2 0 0 0-2 2v12a2 2 0 0 0 2 2h14a2 2 0 0 0 2-2V6a2 2 0 0 0-2-2H5Zm.265 6.076A3 3 0 0 1 8.235 7.5h.459c1.418 0 2.576.974 2.906 2.25a1 1 0 1 1-1.937.5 1 1 0 0 0-.969-.75h-.46a1 1 0 0 0-.99.859l-.428 3a1 1 0 0 0 .99 1.141h.46a1 1 0 0 0 .866-.5 1 1 0 1 1 1.732 1 3 3 0 0 1-2.599 1.5h-.459a3 3 0 0 1-2.97-3.424l.429-3Zm7.5 0a3 3 0 0 1 2.97-2.576h.459c1.418 0 2.576.974 2.906 2.25a1 1 0 1 1-1.937.5 1 1 0 0 0-.969-.75h-.46a1 1 0 0 0-.99.859l-.428 3a1 1 0 0 0 .99 1.141h.46a1 1 0 0 0 .866-.5 1 1 0 1 1 1.732 1 3 3 0 0 1-2.599 1.5h-.459a3 3 0 0 1-2.97-3.424l.429-3Z" />
</svg>