<svg xmlns="http://www.w3.org/2000/svg" viewBox="0 0 24 24" fill="currentColor">
  <path _ngcontent-ng-c1909134112="" fill-rule="evenodd" clip-rule="evenodd" style="color: inherit" d="M14.132 3.504a1 1 0 0 1 1.064-.485l5 1a1 1 0 0 1 .79.817L20 5c.986-.164.986-.164.987-.163v.003l.001.007.003.02a4.9 4.9 0 0 1 .037.3c.02.197.041.476.05.824.017.695-.017 1.67-.218 2.808-.403 2.282-1.478 5.234-4.153 7.908-2.674 2.675-5.626 3.75-7.908 4.153a14.273 14.273 0 0 1-2.808.218A10.903 10.903 0 0 1 4.935 21a4.669 4.669 0 0 1-.067-.01l-.02-.003H4.84l-.002-.001h-.001L5 20l-.164.986a1 1 0 0 1-.817-.79l-1-5a1 1 0 0 1 .534-1.09l4-2A1 1 0 0 1 8.8 12.4l1.064 1.419c.116-.047.245-.102.384-.165.614-.282 1.384-.726 2.059-1.375.657-.632 1.092-1.385 1.364-1.997a7.2 7.2 0 0 0 .199-.498l-1.577-1.577a1 1 0 0 1-.161-1.203l2-3.5ZM15 9.5c.977.215.977.215.976.216v.005l-.003.009-.006.026a6.722 6.722 0 0 1-.105.377 8.934 8.934 0 0 1-.363.96c-.338.763-.904 1.76-1.806 2.628-.885.85-1.865 1.408-2.61 1.75a9.881 9.881 0 0 1-1.213.463l-.082.024-.025.007-.008.002h-.003l-.001.001L9.5 15l.25.968A1 1 0 0 1 8.7 15.6l-1-1.332-2.57 1.285.704 3.518a12.276 12.276 0 0 0 2.617-.181c1.968-.347 4.516-1.271 6.842-3.597 2.325-2.326 3.25-4.873 3.597-6.842a12.269 12.269 0 0 0 .181-2.617l-3.56-.712-1.264 2.211 1.46 1.46a1 1 0 0 1 .27.922L15 9.5Z" />
</svg>