<svg xmlns="http://www.w3.org/2000/svg" viewBox="0 0 24 24" fill="currentColor">
  <path _ngcontent-ng-c1909134112="" fill-rule="evenodd" clip-rule="evenodd" style="color: inherit" d="M20.366 5.902a1 1 0 1 0-1.732-1L18 6l-.634-1.098a1 1 0 1 0-1.732 1L16.268 7H15a1 1 0 1 0 0 2h1.268l-.634 1.098a1 1 0 1 0 1.732 1L18 10l.634 1.098a1 1 0 1 0 1.732-1L19.732 9H21a1 1 0 1 0 0-2h-1.268l.634-1.098Zm1.61 6.592A5 5 0 0 1 17 17H7A5 5 0 1 1 7 7h5.083a6.036 6.036 0 0 0 0 2H7a3 3 0 0 0 0 6h10c.962 0 1.818-.453 2.367-1.156a5.984 5.984 0 0 0 2.609-1.35ZM6 12a1 1 0 0 1 1-1h5v2H7a1 1 0 0 1-1-1Z" />
</svg>