<svg xmlns="http://www.w3.org/2000/svg" viewBox="0 0 24 24" fill="currentColor">
  <path _ngcontent-ng-c1909134112="" fill-rule="evenodd" clip-rule="evenodd" style="color: inherit" d="M14 2a1 1 0 1 0 0 2h1v16h-1a1 1 0 1 0 0 2h4a1 1 0 1 0 0-2h-1V4h1a1 1 0 1 0 0-2h-4ZM7 5h6v2H7a3 3 0 0 0-3 3v4a3 3 0 0 0 3 3h6v2H7a5 5 0 0 1-5-5v-4a5 5 0 0 1 5-5Zm13 9a2.99 2.99 0 0 1-1 2.236v2.348A5.001 5.001 0 0 0 22 14v-4a5.001 5.001 0 0 0-3-4.584v2.348c.614.55 1 1.347 1 2.236v4ZM7 9a1 1 0 0 0 0 2h1v3a1 1 0 1 0 2 0v-3h1a1 1 0 1 0 0-2H7Z" />
</svg>