<svg xmlns="http://www.w3.org/2000/svg" viewBox="0 0 24 24" fill="none">
  <path _ngcontent-ng-c1909134112="" fill-rule="evenodd" clip-rule="evenodd" opacity=".4" style="color: inherit" d="M5 21.748A11.946 11.946 0 0 0 12 24c6.627 0 12-5.373 12-12 0-2.612-.835-5.03-2.252-7A11.983 11.983 0 0 0 12 0 11.998 11.998 0 0 0 0 12c0 4.015 1.972 7.57 5 9.748ZM20.486 5H9a4 4 0 0 0-4 4v11.486A10.955 10.955 0 0 0 12 23c6.075 0 11-4.925 11-11 0-2.66-.944-5.098-2.514-7Z" />
  <path _ngcontent-ng-c1909134112="" fill-rule="evenodd" clip-rule="evenodd" opacity=".06" style="color: inherit" d="M20.486 5H9a4 4 0 0 0-4 4v11.486A10.955 10.955 0 0 0 12 23c3.13 0 5.954-1.307 7.957-3.405H13.27a.973.973 0 1 1 0-1.946h8.17c.454-.757.82-1.573 1.082-2.433H13.27a.973.973 0 1 1 0-1.946h9.657a11.11 11.11 0 0 0 .012-2.432H13.27a.973.973 0 1 1 0-1.946h9.285A10.974 10.974 0 0 0 20.486 5Zm-9.648 4.865a1.46 1.46 0 1 1-2.92.076 1.46 1.46 0 0 1 2.92-.076Zm0 4.378a1.461 1.461 0 1 1-2.922 0 1.461 1.461 0 0 1 2.922 0Zm0 4.379a1.461 1.461 0 1 1-2.922 0 1.461 1.461 0 0 1 2.922 0Z" />
  <path _ngcontent-ng-c1909134112="" opacity=".4" style="color: inherit" d="M22.555 8.892H13.27a.973.973 0 1 0 0 1.946h9.67c-.07-.668-.2-1.319-.385-1.946Zm.372 4.378H13.27a.973.973 0 1 0 0 1.946h9.252c.192-.627.329-1.277.405-1.946Zm-1.487 4.379h-8.17a.973.973 0 1 0 0 1.946h6.688a11.034 11.034 0 0 0 1.482-1.946Z" />
  <path _ngcontent-ng-c1909134112="" style="color: inherit" d="M10.838 9.865a1.46 1.46 0 1 1-2.92.076 1.46 1.46 0 0 1 2.92-.076Zm0 4.378a1.46 1.46 0 1 1-2.92 0 1.46 1.46 0 0 1 2.92 0Zm0 4.379a1.46 1.46 0 1 1-2.92 0 1.46 1.46 0 0 1 2.92 0Z" />
</svg>