<svg xmlns="http://www.w3.org/2000/svg" viewBox="0 0 24 24" fill="none">
  <path _ngcontent-ng-c1909134112="" opacity=".06" style="color: inherit" d="M12 0c4.015 0 7.57 1.972 9.748 5A11.946 11.946 0 0 1 24 12c0 6.627-5.373 12-12 12-2.612 0-5.03-.835-7-2.252A11.984 11.984 0 0 1 0 12C0 5.373 5.373 0 12 0ZM5 20.486A10.955 10.955 0 0 0 12 23c6.075 0 11-4.925 11-11 0-2.66-.944-5.098-2.514-7H9a4 4 0 0 0-4 4v11.486ZM12 0c4.015 0 7.57 1.972 9.748 5A11.946 11.946 0 0 1 24 12c0 6.627-5.373 12-12 12-2.612 0-5.03-.835-7-2.252A11.984 11.984 0 0 1 0 12C0 5.373 5.373 0 12 0Z" />
  <path _ngcontent-ng-c1909134112="" opacity=".4" style="color: inherit" d="M12 0c4.015 0 7.57 1.972 9.748 5A11.946 11.946 0 0 1 24 12c0 6.627-5.373 12-12 12-2.612 0-5.03-.835-7-2.252A11.984 11.984 0 0 1 0 12C0 5.373 5.373 0 12 0ZM5 20.486A10.955 10.955 0 0 0 12 23c6.075 0 11-4.925 11-11 0-2.66-.944-5.098-2.514-7H9a4 4 0 0 0-4 4v11.486Z" />
</svg>