<svg xmlns="http://www.w3.org/2000/svg" viewBox="0 0 24 24" fill="none">
  <path _ngcontent-ng-c1909134112="" fill="currentColor" fill-rule="evenodd" clip-rule="evenodd" style="color: inherit" d="M5.39 2.174C6.765 2.084 8.888 2 12.003 2c3.113 0 5.236.084 6.612.174 1.744.113 3.05 1.481 3.193 3.176.1 1.195.201 2.729.203 4.04.003 1.401-.11 3.056-.212 4.282-.129 1.53-1.227 2.848-2.834 3.074-1.306.184-3.31.373-6.135.404h-.02a29.814 29.814 0 0 1-2.393 2.353 29.454 29.454 0 0 1-2.185 1.742 20.274 20.274 0 0 1-.824.563l-.05.031-.014.01-.005.002h-.001v.001L6.813 21l.523.852a1 1 0 0 1-1.513-.989v-.001l.001-.009.005-.037.018-.15a20.827 20.827 0 0 0 .14-2.262 17.6 17.6 0 0 0-.073-1.552c-.306-.035-.586-.07-.839-.106-1.607-.226-2.709-1.544-2.84-3.074-.107-1.225-.223-2.879-.225-4.278-.002-1.313.096-2.848.193-4.043.138-1.695 1.442-3.064 3.186-3.177ZM7.98 18.93a27.826 27.826 0 0 0 3.576-3.377l.033-.04.008-.008.002-.002a1 1 0 0 1 .75-.35l.459-.003h.001c2.745-.03 4.663-.214 5.878-.385.596-.084 1.06-.573 1.119-1.26.101-1.211.207-2.798.205-4.111-.002-1.23-.098-2.7-.197-3.877-.063-.755-.62-1.301-1.329-1.347C17.16 4.083 15.081 4 12.003 4c-3.08 0-5.159.083-6.484.17-.707.046-1.26.59-1.321 1.342-.096 1.179-.189 2.65-.187 3.879.002 1.313.112 2.898.217 4.11.06.689.527 1.18 1.126 1.264.347.05.75.099 1.214.146.304.03.584.158.8.341.218.184.437.481.484.882.054.463.136 1.32.136 2.27 0 .178-.003.354-.008.526ZM6.68 7.5a1 1 0 0 1 1-1h8.64a1 1 0 1 1 0 2H7.68a1 1 0 0 1-1-1Zm0 3.6a1 1 0 0 1 1-1h5.04a1 1 0 1 1 0 2H7.68a1 1 0 0 1-1-1Z" />
</svg>