<svg xmlns="http://www.w3.org/2000/svg" viewBox="0 0 24 24" fill="currentColor">
  <path _ngcontent-ng-c1909134112="" fill-rule="evenodd" clip-rule="evenodd" style="color: inherit" d="M8.002 1.334c-2.077 0-3.492.056-4.409.116-1.162.076-2.032.988-2.123 2.118-.065.796-.13 1.82-.13 2.695.002.933.08 2.035.15 2.852.088 1.02.823 1.9 1.894 2.05.169.023.355.047.56.07.025.282.048.647.048 1.035a13.048 13.048 0 0 1-.105 1.608l-.004.025v.007a.667.667 0 0 0 1.009.659l.001-.001.003-.002.01-.006.033-.02a13.469 13.469 0 0 0 .55-.376 19.783 19.783 0 0 0 3.051-2.73h.013c1.883-.021 3.22-.147 4.09-.27 1.072-.15 1.804-1.03 1.89-2.049.068-.817.143-1.92.141-2.854a35.155 35.155 0 0 0-.136-2.693c-.094-1.13-.966-2.043-2.128-2.118-.918-.06-2.332-.116-4.408-.116Zm-3.46 12.667.35.568-.35-.568Zm.579-9.667a.667.667 0 0 0 0 1.333h5.76a.667.667 0 0 0 0-1.333H5.12Zm0 2.4a.667.667 0 1 0 0 1.333h3.36a.667.667 0 0 0 0-1.333H5.12Z" />
</svg>