<svg xmlns="http://www.w3.org/2000/svg" viewBox="0 0 24 24" fill="none">
  <path _ngcontent-ng-c1909134112="" fill-rule="evenodd" clip-rule="evenodd" opacity=".4" style="color: inherit" d="M12 0c6.627 0 12 5.373 12 12s-5.373 12-12 12S0 18.627 0 12 5.373 0 12 0Zm4.324 7.333h5.64A10.915 10.915 0 0 1 23 12c0 6.075-4.925 11-11 11-2.66 0-5.098-.944-7-2.514V7.666A2.667 2.667 0 0 1 7.667 5h4.895a2.8 2.8 0 0 1 2.508 1.556 1.4 1.4 0 0 0 1.254.777Z" />
  <path _ngcontent-ng-c1909134112="" style="color: inherit" d="M21.964 7.333h-5.64a1.4 1.4 0 0 1-1.254-.777A2.8 2.8 0 0 0 12.562 5H7.667A2.667 2.667 0 0 0 5 7.667v5.19A2.857 2.857 0 0 1 7.857 10H22.82a10.915 10.915 0 0 0-.855-2.667Z" />
  <path _ngcontent-ng-c1909134112="" opacity=".06" style="color: inherit" d="M22.819 10H7.857A2.857 2.857 0 0 0 5 12.857v7.629A10.955 10.955 0 0 0 12 23c6.075 0 11-4.925 11-11 0-.683-.062-1.351-.181-2Z" />
</svg>