<svg xmlns="http://www.w3.org/2000/svg" viewBox="0 0 24 24" fill="currentColor">
  <path _ngcontent-ng-c1909134112="" style="color: inherit" d="M8 12a1 1 0 0 1 1-1h12a1 1 0 1 1 0 2H9a1 1 0 0 1-1-1Zm0 7a1 1 0 0 1 1-1h12a1 1 0 1 1 0 2H9a1 1 0 0 1-1-1ZM8 5a1 1 0 0 1 1-1h12a1 1 0 1 1 0 2H9a1 1 0 0 1-1-1Z" />
  <path _ngcontent-ng-c1909134112="" fill-rule="evenodd" clip-rule="evenodd" style="color: inherit" d="M7.29 3.5a.9.9 0 0 1 0 1.273L4.71 7.35a.9.9 0 0 1-1.273 0L2.266 6.179A.9.9 0 0 1 3.54 4.906l.536.536L6.016 3.5a.9.9 0 0 1 1.273 0ZM7.289 10a.9.9 0 0 1 0 1.273L4.711 13.85a.9.9 0 0 1-1.273 0l-1.172-1.172a.9.9 0 0 1 1.273-1.273l.535.536L6.016 10a.9.9 0 0 1 1.273 0Zm0 6.649a.9.9 0 0 1 0 1.273L4.71 20.5a.9.9 0 0 1-1.273 0l-1.172-1.172a.9.9 0 1 1 1.273-1.273l.535.536 1.942-1.942a.9.9 0 0 1 1.273 0Z" />
</svg>