<svg xmlns="http://www.w3.org/2000/svg" viewBox="0 0 24 24" fill="none">
  <path _ngcontent-ng-c1909134112="" fill="currentColor" style="color: inherit" d="m21.29 5.89-10 10a.996.996 0 0 1-1.41 0l-2.83-2.83a.995.995 0 0 1 .705-1.702.997.997 0 0 1 .705.292l2.12 2.12 9.29-9.29a.996.996 0 0 1 1.41 0c.4.39.4 1.02.01 1.41ZM12 20c-4.71 0-8.48-4.09-7.95-8.9.39-3.52 3.12-6.41 6.61-6.99 1.81-.3 3.53.02 4.99.78a1.004 1.004 0 0 0 .93-1.78c-1.47-.75-3.13-1.16-4.9-1.11-5.14.16-9.41 4.34-9.67 9.47C1.72 17.24 6.3 22 12 22c1.2 0 2.34-.21 3.41-.6.68-.25.87-1.13.35-1.65a.98.98 0 0 0-1.04-.23c-.85.31-1.77.48-2.72.48Zm6.586-6.829L20 14.587l1.414-1.415a1.003 1.003 0 0 1 1.414 0 1.003 1.003 0 0 1 0 1.415L21.414 16l1.414 1.414a1.003 1.003 0 0 1 0 1.414 1.003 1.003 0 0 1-1.414 0L20 17.414l-1.414 1.414a1.003 1.003 0 0 1-1.414 0 1.003 1.003 0 0 1 0-1.414L18.586 16l-1.414-1.414a1.003 1.003 0 0 1 0-1.415 1.003 1.003 0 0 1 1.414 0Z" />
</svg>