<svg xmlns="http://www.w3.org/2000/svg" viewBox="0 0 24 24" fill="none">
  <path _ngcontent-ng-c1909134112="" fill="currentColor" fill-rule="evenodd" clip-rule="evenodd" style="color: inherit" d="M11 2.998A1 1 0 0 1 12.002 2a10 10 0 0 1 3.822.767 1 1 0 0 1-.768 1.846A8 8 0 0 0 11.998 4 1 1 0 0 1 11 2.998Zm-1.516.31a1 1 0 0 1-.541 1.306 8 8 0 0 0-2.596 1.733 1 1 0 1 1-1.414-1.414 10 10 0 0 1 3.245-2.167 1 1 0 0 1 1.306.541Zm8.169 1.625a1 1 0 0 1 1.414 0 10 10 0 0 1 2.167 3.245 1 1 0 0 1-1.848.765 7.999 7.999 0 0 0-1.733-2.596 1 1 0 0 1 0-1.414ZM4.074 7.637a1 1 0 0 1 .54 1.307A8 8 0 0 0 4 12.002a1 1 0 1 1-2-.004 10 10 0 0 1 .767-3.822 1 1 0 0 1 1.307-.54ZM21.002 11A1 1 0 0 1 22 12.002a9.998 9.998 0 0 1-.767 3.822 1 1 0 1 1-1.846-.768c.403-.97.611-2.008.613-3.058A1 1 0 0 1 21.002 11ZM3.307 14.516a1 1 0 0 1 1.307.541 8 8 0 0 0 1.733 2.596 1 1 0 1 1-1.414 1.414 10 10 0 0 1-2.167-3.245 1 1 0 0 1 .541-1.306Zm15.76 3.137a1 1 0 0 1 0 1.414 10 10 0 0 1-3.245 2.167 1 1 0 0 1-.765-1.848 7.999 7.999 0 0 0 2.596-1.733 1 1 0 0 1 1.414 0Zm-11.43 2.273a1 1 0 0 1 1.307-.54c.97.404 2.008.612 3.058.614a1 1 0 1 1-.004 2 9.998 9.998 0 0 1-3.822-.767 1 1 0 0 1-.54-1.307Z" />
</svg>