<svg xmlns="http://www.w3.org/2000/svg" viewBox="0 0 24 24" fill="none">
  <path _ngcontent-ng-c1909134112="" fill="url('#cu3-icon-clickupAddColor-clickupAddColor_a')" fill-rule="evenodd" clip-rule="evenodd" style="color: inherit" d="M11.998 9.21c.368 0 .667.3.667.668v1.333h1.333a.667.667 0 0 1 0 1.333h-1.333v1.333a.667.667 0 0 1-1.334 0v-1.333H9.998a.667.667 0 0 1 0-1.333h1.333V9.878c0-.369.299-.667.667-.667Zm-7.74 1.624c.214.222.502.486.854.736.632.45 1.51.879 2.567.879a.667.667 0 0 0 0-1.333c-.688 0-1.3-.28-1.795-.632a4.85 4.85 0 0 1-.95-.896.77.77 0 0 0-1.077-.131l-1.475 1.146a.973.973 0 0 0-.18 1.368c.566.728 2.437 2.806 5.477 2.806a.667.667 0 0 0 0-1.333c-2.105 0-3.537-1.27-4.192-2.011l.77-.599Z" />
  <path _ngcontent-ng-c1909134112="" fill="url('#cu3-icon-clickupAddColor-clickupAddColor_b')" fill-rule="evenodd" clip-rule="evenodd" style="color: inherit" d="M7.024 1.353a1 1 0 0 1 1.309 0l4.52 3.912a.999.999 0 0 1 .084 1.428l-1.219 1.34a1 1 0 0 1-1.386.089L7.678 5.869 5.025 8.122a1 1 0 0 1-1.387-.09L2.42 6.694a.999.999 0 0 1 .085-1.428l4.52-3.912Zm.654 1.197-4.042 3.5.772.847 2.796-2.374a.733.733 0 0 1 .949 0l2.796 2.374.772-.848L7.678 2.55Z" />
</svg>