<svg xmlns="http://www.w3.org/2000/svg" viewBox="0 0 24 24" fill="currentColor">
  <path _ngcontent-ng-c1909134112="" fill-rule="evenodd" clip-rule="evenodd" style="color: inherit" d="M11.018 2.028a1.5 1.5 0 0 1 1.964 0l6.786 5.881a1.5 1.5 0 0 1 .127 2.143l-1.83 2.013a1.5 1.5 0 0 1-2.081.134L12 8.812 8.016 12.2a1.5 1.5 0 0 1-2.081-.134l-1.83-2.013a1.5 1.5 0 0 1 .127-2.143l6.786-5.88ZM12 3.823 5.929 9.085l1.16 1.277 4.199-3.569a1.1 1.1 0 0 1 1.424 0l4.199 3.569 1.16-1.277L12 3.823Zm-5.136 12.45-1.16.901C6.688 18.29 8.839 20.2 12 20.2c3.162 0 5.313-1.91 6.296-3.026l-1.16-.901a9.29 9.29 0 0 1-1.282 1.107c-.948.674-2.268 1.32-3.854 1.32-1.586 0-2.906-.646-3.854-1.32a9.297 9.297 0 0 1-1.282-1.107Zm-.601-2.066a1.157 1.157 0 0 1 1.615.196c.182.229.686.82 1.428 1.347.742.528 1.661.95 2.694.95s1.952-.422 2.694-.95a7.29 7.29 0 0 0 1.428-1.347 1.157 1.157 0 0 1 1.615-.197l2.216 1.724c.603.469.795 1.375.27 2.052-.85 1.094-3.658 4.218-8.223 4.218-4.565 0-7.374-3.124-8.223-4.218-.525-.677-.333-1.583.27-2.052l2.216-1.723Z" />
</svg>