<svg xmlns="http://www.w3.org/2000/svg" viewBox="0 0 24 24" fill="currentColor">
  <path _ngcontent-ng-c1909134112="" fill-rule="evenodd" clip-rule="evenodd" style="color: inherit" d="M10.539 2.036a1.5 1.5 0 0 1 1.963 0l6.78 5.868c.637.552.695 1.52.128 2.142l-1.83 2.01a1.5 1.5 0 0 1-2.079.133l-3.98-3.379-3.98 3.38a1.5 1.5 0 0 1-2.08-.134l-1.83-2.01a1.499 1.499 0 0 1 .128-2.142l6.78-5.868Zm.982 1.795-6.064 5.25 1.157 1.27 4.195-3.56a1.1 1.1 0 0 1 1.424 0l4.194 3.56 1.157-1.27-6.063-5.25ZM18 13.82a1 1 0 0 1 1 1v2h2a1 1 0 1 1 0 2h-2v2a1 1 0 1 1-2 0v-2h-2a1 1 0 1 1 0-2h2v-2a1 1 0 0 1 1-1ZM6.389 16.255c.322.332.753.73 1.281 1.105.948.673 2.266 1.317 3.85 1.317a1 1 0 0 0 0-2c-1.032 0-1.95-.42-2.691-.948a7.28 7.28 0 0 1-1.426-1.344 1.156 1.156 0 0 0-1.615-.196l-2.214 1.72c-.603.468-.795 1.374-.27 2.051.85 1.093 3.656 4.21 8.217 4.21a1 1 0 1 0 0-2c-3.158 0-5.306-1.904-6.288-3.017l1.156-.898Z" />
</svg>