<svg xmlns="http://www.w3.org/2000/svg" viewBox="0 0 24 24" fill="none">
  <path _ngcontent-ng-c1909134112="" fill="currentColor" fill-rule="evenodd" clip-rule="evenodd" style="color: inherit" d="m14.816 8.874 4.596-4.595 1.312 1.314-4.595 4.595-1.313-1.314Zm-1.863 4.696a1.63 1.63 0 0 1-1.628-1.635c0-.902.73-1.634 1.625-1.634a1.63 1.63 0 0 1 1.625 1.634 1.632 1.632 0 0 1-1.628 1.635h.006Zm7.796 4.742-1.313 1.313-4.595-4.595 1.312-1.313 4.596 4.595Z" />
  <path _ngcontent-ng-c1909134112="" fill="#03A9F4" fill-rule="evenodd" clip-rule="evenodd" style="color: inherit" d="M13.001 19c.927 0 1.813-.188 2.618-.513l2.245 2.245A9.92 9.92 0 0 1 13 22C7.478 22 3 17.523 3 12 3 6.478 7.478 2 13.001 2a9.953 9.953 0 0 1 4.82 1.239l-2.207 2.208a6.953 6.953 0 0 0-2.612-.512c-3.868 0-7.004 3.15-7.004 7.032S9.133 19 13.001 19Z" />
</svg>