<svg xmlns="http://www.w3.org/2000/svg" viewBox="0 0 24 24" fill="currentColor">
  <path _ngcontent-ng-c1909134112="" style="color: inherit" d="M12.603 12.787a1.111 1.111 0 0 1 1.572-1.571l2.748 2.748a1.111 1.111 0 0 1-1.571 1.571l-2.749-2.748Z" />
  <path _ngcontent-ng-c1909134112="" style="color: inherit" d="M15.35 8.47a1.111 1.111 0 0 1 1.57 1.571l-2.745 2.746a1.111 1.111 0 0 1-1.572-1.571L15.35 8.47Z" />
  <path _ngcontent-ng-c1909134112="" fill-rule="evenodd" clip-rule="evenodd" style="color: inherit" d="M5 2h14a3 3 0 0 1 3 3v14a3 3 0 0 1-3 3H5a3 3 0 0 1-3-3V5a3 3 0 0 1 3-3Zm0 2a1 1 0 0 0-1 1v14a1 1 0 0 0 1 1h14a1 1 0 0 0 1-1V5a1 1 0 0 0-1-1H5Z" />
  <path _ngcontent-ng-c1909134112="" style="color: inherit" d="M8 4h2v16H8V4Z" />
</svg>