<svg xmlns="http://www.w3.org/2000/svg" viewBox="0 0 24 24" fill="currentColor">
  <path _ngcontent-ng-c1909134112="" fill-rule="evenodd" clip-rule="evenodd" style="color: inherit" d="M5.293 18.707a1 1 0 0 1 0-1.414l6-6a1 1 0 0 1 1.414 0l6 6a1 1 0 0 1-1.414 1.414L12 13.414l-5.293 5.293a1 1 0 0 1-1.414 0Z" />
  <path _ngcontent-ng-c1909134112="" fill-rule="evenodd" clip-rule="evenodd" style="color: inherit" d="M5.293 12.707a1 1 0 0 1 0-1.414l6-6a1 1 0 0 1 1.414 0l6 6a1 1 0 0 1-1.414 1.414L12 7.414l-5.293 5.293a1 1 0 0 1-1.414 0Z" />
</svg>