<svg xmlns="http://www.w3.org/2000/svg" viewBox="0 0 24 24" fill="none">
  <path _ngcontent-ng-c1909134112="" fill="currentColor" style="color: inherit" d="M9.707 8.293a1 1 0 0 0-1.414 1.414L10.586 12l-2.293 2.293a1 1 0 1 0 1.414 1.414L12 13.414l2.293 2.293a1 1 0 0 0 1.414-1.414L13.414 12l2.293-2.293a1 1 0 0 0-1.414-1.414L12 10.586 9.707 8.293Z" />
  <path _ngcontent-ng-c1909134112="" fill="currentColor" fill-rule="evenodd" clip-rule="evenodd" style="color: inherit" d="M12 2C6.477 2 2 6.477 2 12s4.477 10 10 10 10-4.477 10-10S17.523 2 12 2ZM4 12a8 8 0 1 1 16 0 8 8 0 0 1-16 0Z" />
</svg>