<svg xmlns="http://www.w3.org/2000/svg" viewBox="0 0 24 24" fill="currentColor">
  <path _ngcontent-ng-c1909134112="" fill-rule="evenodd" clip-rule="evenodd" style="color: inherit" d="M18.707 18.707a1 1 0 0 1-1.414 0l-6-6a1 1 0 0 1 0-1.414l6-6a1 1 0 1 1 1.414 1.414L13.414 12l5.293 5.293a1 1 0 0 1 0 1.414Z" />
  <path _ngcontent-ng-c1909134112="" fill-rule="evenodd" clip-rule="evenodd" style="color: inherit" d="M12.707 18.707a1 1 0 0 1-1.414 0l-6-6a1 1 0 0 1 0-1.414l6-6a1 1 0 1 1 1.414 1.414L7.414 12l5.293 5.293a1 1 0 0 1 0 1.414Z" />
</svg>