<svg xmlns="http://www.w3.org/2000/svg" viewBox="0 0 24 24" fill="currentColor">
  <path _ngcontent-ng-c1909134112="" fill-rule="evenodd" clip-rule="evenodd" style="color: inherit" d="M15 4a1 1 0 0 1 1-1h2a3 3 0 0 1 3 3v12a3 3 0 0 1-3 3H6a3 3 0 0 1-3-3v-5a1 1 0 1 1 2 0v5a1 1 0 0 0 1 1h12a1 1 0 0 0 1-1V6a1 1 0 0 0-1-1h-2a1 1 0 0 1-1-1Zm-9.799-.204a1 1 0 0 0-1.405.156l-1.577 1.97a1 1 0 0 0 0 1.25l1.577 1.97a1 1 0 1 0 1.561-1.25L4.281 6.548l1.076-1.346a1 1 0 0 0-.156-1.405Z" />
  <path _ngcontent-ng-c1909134112="" fill-rule="evenodd" clip-rule="evenodd" style="color: inherit" d="M10.585 3.796a1 1 0 0 1 1.406.156l1.576 1.97a1 1 0 0 1 0 1.25l-1.576 1.97a1 1 0 1 1-1.562-1.25l1.077-1.345-1.077-1.346a1 1 0 0 1 .156-1.405ZM9.092 2.138a1 1 0 0 1 .703 1.227l-1.872 6.888a1 1 0 1 1-1.93-.525l1.872-6.887a1 1 0 0 1 1.227-.703Z" />
</svg>