<svg xmlns="http://www.w3.org/2000/svg" viewBox="0 0 24 24" fill="currentColor">
  <path _ngcontent-ng-c1909134112="" fill-rule="evenodd" clip-rule="evenodd" style="color: inherit" d="M19.71 4.293a1 1 0 0 0-1.414 0L15.19 7.399V5.875a1 1 0 1 0-2 0v3.939a1 1 0 0 0 1 1h3.938a1 1 0 1 0 0-2h-1.524l3.107-3.107a1 1 0 0 0 0-1.414ZM5.707 19.71a1 1 0 0 1-1.414-1.415l3.106-3.106H5.875a1 1 0 1 1 0-2h3.939a1 1 0 0 1 1 1v3.938a1 1 0 1 1-2 0v-1.524L5.707 19.71Zm12.59 0a1 1 0 0 0 1.413-1.415l-3.106-3.106h1.524a1 1 0 1 0 0-2H14.19a1 1 0 0 0-1 1v3.938a1 1 0 0 0 2 0v-1.524l3.106 3.107ZM5.706 4.293a1 1 0 0 0-1.414 1.414l3.106 3.107H5.875a1 1 0 0 0 0 2h3.939a1 1 0 0 0 1-1V5.875a1 1 0 1 0-2 0V7.4L5.707 4.293Z" />
</svg>