<svg xmlns="http://www.w3.org/2000/svg" viewBox="0 0 24 24" fill="currentColor">
  <path _ngcontent-ng-c1909134112="" fill-rule="evenodd" clip-rule="evenodd" style="color: inherit" d="M2 5a4 4 0 1 1 8 0v4a5 5 0 0 1-5 5H4a1 1 0 1 1 0-2h1a3 3 0 0 0 3-3V5a2 2 0 1 0-4 0v3.5a.5.5 0 0 0 1 0V5a1 1 0 0 1 2 0v3.5a2.5 2.5 0 0 1-5 0V5Zm9-2a1 1 0 0 1 1-1c5.523 0 10 4.477 10 10a9.965 9.965 0 0 1-.951 4.262l.93 4.537a1 1 0 0 1-1.238 1.167l-4.111-1.1A9.961 9.961 0 0 1 12 22a10 10 0 0 1-8.888-5.414 1 1 0 1 1 1.776-.918A8 8 0 0 0 12 20a7.96 7.96 0 0 0 4-1.07 1 1 0 0 1 .759-.1l2.936.786-.675-3.288a1 1 0 0 1 .092-.66A8 8 0 0 0 12 4a1 1 0 0 1-1-1Z" />
</svg>