<svg xmlns="http://www.w3.org/2000/svg" viewBox="0 0 24 24" fill="currentColor">
  <path _ngcontent-ng-c1909134112="" fill-rule="evenodd" clip-rule="evenodd" style="color: inherit" d="M4 12a8 8 0 0 0 8 8 7.96 7.96 0 0 0 3.53-.819 2.1 2.1 0 0 1 1.29-.185c.92.16 1.84.328 2.657.481a223.22 223.22 0 0 1-.481-2.657 2.1 2.1 0 0 1 .185-1.29A7.96 7.96 0 0 0 20 12a8 8 0 1 0-16 0Zm17.589 7.88c-.186-.977-.411-2.19-.623-3.403a.1.1 0 0 1 .01-.062A9.96 9.96 0 0 0 22 12c0-5.523-4.477-10-10-10S2 6.477 2 12s4.477 10 10 10a9.96 9.96 0 0 0 4.415-1.025.1.1 0 0 1 .062-.009c1.214.212 2.426.437 3.404.623l.109.02a274.083 274.083 0 0 1 1.864.362.1.1 0 0 0 .117-.117l-.047-.236c-.069-.352-.18-.925-.315-1.628l-.02-.11Z" />
  <path _ngcontent-ng-c1909134112="" style="color: inherit" d="M15.143 8.857a.889.889 0 0 1 0 1.258L13.257 12l1.886 1.886a.889.889 0 0 1-1.257 1.257L12 13.257l-1.886 1.886a.889.889 0 0 1-1.257-1.257L10.743 12l-1.886-1.886a.889.889 0 1 1 1.258-1.257L12 10.743l1.886-1.886a.889.889 0 0 1 1.257 0Z" />
</svg>