<svg xmlns="http://www.w3.org/2000/svg" viewBox="0 0 24 24" fill="currentColor">
  <path _ngcontent-ng-c1909134112="" fill-rule="evenodd" clip-rule="evenodd" style="color: inherit" d="M12 20a8 8 0 1 1 8-8 7.96 7.96 0 0 1-.819 3.53 2.1 2.1 0 0 0-.185 1.29c.16.92.328 1.84.481 2.657a223.22 223.22 0 0 0-2.657-.481 2.1 2.1 0 0 0-1.29.185A7.96 7.96 0 0 1 12 20Zm8.966-3.523c.212 1.214.437 2.426.623 3.404l.02.109c.134.703.246 1.276.315 1.628l.047.236a.099.099 0 0 1-.117.117l-.236-.047c-.352-.069-.925-.18-1.628-.315l-.11-.02c-.977-.186-2.19-.411-3.403-.623a.1.1 0 0 0-.062.01A9.96 9.96 0 0 1 12 22C6.477 22 2 17.523 2 12S6.477 2 12 2s10 4.477 10 10a9.96 9.96 0 0 1-1.025 4.415.1.1 0 0 0-.009.062Z" />
  <path _ngcontent-ng-c1909134112="" style="color: inherit" d="M17.21 10.207a1 1 0 1 0-1.415-1.415l-5.293 5.293-2.292-2.293a1 1 0 0 0-1.415 1.415l3 3a1 1 0 0 0 1.415 0l6-6Z" />
</svg>