<svg xmlns="http://www.w3.org/2000/svg" viewBox="0 0 24 24" fill="none">
  <path _ngcontent-ng-c1909134112="" fill="url('#cu3-icon-confluence-cu-icon-conflunce-a')" style="color: inherit" d="M2.725 17.06c-.207.338-.439.73-.636 1.041a.636.636 0 0 0 .213.866l4.137 2.546a.637.637 0 0 0 .881-.217l.611-1.021c1.64-2.705 3.288-2.374 6.26-.955l4.102 1.951a.637.637 0 0 0 .856-.318l1.97-4.456a.636.636 0 0 0-.318-.833 499.774 499.774 0 0 1-4.137-1.967C11.088 10.99 6.35 11.164 2.725 17.061Z" />
  <path _ngcontent-ng-c1909134112="" fill="url('#cu3-icon-confluence-cu-icon-conflunce-b')" style="color: inherit" d="M21.275 6.95c.207-.337.439-.728.636-1.04a.636.636 0 0 0-.213-.866L17.561 2.5a.637.637 0 0 0-.907.21l-.61 1.021c-1.64 2.705-3.288 2.374-6.26.955l-4.09-1.941a.637.637 0 0 0-.856.318l-1.97 4.455a.636.636 0 0 0 .319.834c.865.407 2.587 1.219 4.137 1.966 5.588 2.705 10.326 2.524 13.95-3.366Z" />
</svg>