<svg xmlns="http://www.w3.org/2000/svg" viewBox="0 0 24 24" fill="none">
  <path _ngcontent-ng-c1909134112="" fill="currentColor" fill-rule="evenodd" clip-rule="evenodd" style="color: inherit" d="M16.707 2.293a1 1 0 0 1 0 1.414l-3.01 3.01 4.586 4.586 3.01-3.01a1 1 0 1 1 1.414 1.414l-3.01 3.01.537.536a2.5 2.5 0 0 1 0 3.536l-.708.707a2.501 2.501 0 0 1-3.146.318l-1.022 1.021a3 3 0 0 1-1.533.82l-2.679.537a.996.996 0 0 0-.25.086l-1.3.65a3 3 0 0 1-3.463-.563l-.042-.041-2.384 2.383a1 1 0 1 1-1.414-1.414l2.384-2.383-.041-.041a3 3 0 0 1-.562-3.463l.65-1.3a1 1 0 0 0 .086-.251l.536-2.68a3 3 0 0 1 .82-1.532L7.187 8.62a2.5 2.5 0 0 1 .319-3.146l.707-.707a2.5 2.5 0 0 1 3.535 0l.535.535 3.01-3.01a1 1 0 0 1 1.414 0Zm-6.373 3.889a.5.5 0 0 0-.707 0l-.707.707a.5.5 0 0 0 0 .707l8.485 8.485a.5.5 0 0 0 .707 0l.707-.707a.5.5 0 0 0 0-.707l-8.485-8.485Zm-1.768 3.89-.986.985a1 1 0 0 0-.273.511l-.536 2.68a3 3 0 0 1-.259.753l-.65 1.299a1 1 0 0 0 .188 1.154l1.497 1.497a1 1 0 0 0 1.154.188l1.3-.65c.238-.12.492-.206.753-.259l2.68-.535a1 1 0 0 0 .51-.274l.986-.986-6.364-6.364Zm.354 5.302a1 1 0 1 1 1.414-1.414l.707.707a1 1 0 0 1-1.414 1.414l-.707-.707Z" />
</svg>