<svg xmlns="http://www.w3.org/2000/svg" viewBox="0 0 24 24" fill="none">
  <path _ngcontent-ng-c1909134112="" fill="currentColor" style="color: inherit" d="M16.546 12.909a.909.909 0 1 0 0-1.818.909.909 0 0 0 0 1.818Z" />
  <path _ngcontent-ng-c1909134112="" fill="currentColor" fill-rule="evenodd" clip-rule="evenodd" style="color: inherit" d="M15.26 10.714a1.818 1.818 0 1 1 2.57 2.571 1.818 1.818 0 0 1-2.57-2.57Z" />
  <path _ngcontent-ng-c1909134112="" fill="currentColor" fill-rule="evenodd" clip-rule="evenodd" style="color: inherit" d="M7.455 8.364a3.636 3.636 0 0 0 0 7.272h9.09a3.637 3.637 0 0 0 0-7.272h-9.09Zm-3.857-.221a5.455 5.455 0 0 1 3.857-1.598h9.09a5.454 5.454 0 0 1 0 10.91h-9.09a5.455 5.455 0 0 1-3.857-9.312Z" />
</svg>