<svg xmlns="http://www.w3.org/2000/svg" viewBox="0 0 24 24" fill="currentColor">
  <path _ngcontent-ng-c1909134112="" fill-rule="evenodd" clip-rule="evenodd" style="color: inherit" d="M7 7a3 3 0 0 1 3-3h4a3 3 0 0 1 3 3v.5a1 1 0 1 0 2 0V7a5 5 0 0 0-5-5h-4a5 5 0 0 0-5 5v3.086L3.707 8.793a1 1 0 0 0-1.414 1.414l3 3a1 1 0 0 0 1.414 0l3-3a1 1 0 0 0-1.414-1.414L7 10.086V7Zm10 10a3 3 0 0 1-3 3h-4a3 3 0 0 1-3-3v-.5a1 1 0 1 0-2 0v.5a5 5 0 0 0 5 5h4a5 5 0 0 0 5-5v-3.086l1.293 1.293a1 1 0 0 0 1.414-1.414l-3-3a1 1 0 0 0-1.414 0l-3 3a1 1 0 0 0 1.414 1.414L17 13.914V17Z" />
</svg>