<svg xmlns="http://www.w3.org/2000/svg" viewBox="0 0 24 24" fill="currentColor">
  <path _ngcontent-ng-c1909134112="" fill-rule="evenodd" clip-rule="evenodd" style="color: inherit" d="M21.868 17.295a1 1 0 0 1-1 1h-2.573v3a1 1 0 0 1-2 0v-3H7.573a2 2 0 0 1-2-2V8H3a1 1 0 1 1 0-2h2.573V3a1 1 0 1 1 2 0v13.295h13.295a1 1 0 0 1 1 1ZM10.29 6a1 1 0 1 0 0 2h6.005v6a1 1 0 1 0 2 0V8a2 2 0 0 0-2-2H10.29Z" />
  <path _ngcontent-ng-c1909134112="" fill-rule="evenodd" clip-rule="evenodd" style="color: inherit" d="M21.868 17.295a1 1 0 0 1-1 1h-2.573v3a1 1 0 0 1-2 0v-3H7.573a2 2 0 0 1-2-2V8H3a1 1 0 1 1 0-2h2.573V3a1 1 0 1 1 2 0v13.295h13.295a1 1 0 0 1 1 1ZM10.29 6a1 1 0 1 0 0 2h6.005v6a1 1 0 1 0 2 0V8a2 2 0 0 0-2-2H10.29Z" />
</svg>