<svg xmlns="http://www.w3.org/2000/svg" viewBox="0 0 24 24" fill="currentColor">
  <path _ngcontent-ng-c1909134112="" fill-rule="evenodd" clip-rule="evenodd" style="color: inherit" d="M16.232 2.768 10 9a3.536 3.536 0 1 0 5 5l6.232-6.232a2.5 2.5 0 0 0 0-3.536l-1.464-1.464a2.5 2.5 0 0 0-3.536 0Zm2.122 1.414 1.464 1.465a.5.5 0 0 1 0 .707l-6.232 6.232a1.536 1.536 0 1 1-2.172-2.172l6.232-6.232a.5.5 0 0 1 .708 0Z" />
  <path _ngcontent-ng-c1909134112="" style="color: inherit" d="M7 3h5.515l-2 2H7a2 2 0 0 0-2 2v10a2 2 0 0 0 2 2h10a2 2 0 0 0 2-2v-3.515l2-2V17a4 4 0 0 1-4 4H7a4 4 0 0 1-4-4V7a4 4 0 0 1 4-4Z" />
</svg>