<svg xmlns="http://www.w3.org/2000/svg" viewBox="0 0 24 24" fill="currentColor">
  <path _ngcontent-ng-c1909134112="" fill-rule="evenodd" clip-rule="evenodd" style="color: inherit" d="M10.822 1.845 6.667 6A2.357 2.357 0 0 0 8.98 9.933c.264-.232.57-.392.89-.48.044-.038.087-.078.129-.12l4.155-4.155c.65-.65.65-1.706 0-2.357l-.976-.976a1.667 1.667 0 0 0-2.357 0ZM4.667 12.667h3.806c.103.196.237.381.402.547l.786.786H4.667A2.667 2.667 0 0 1 2 11.333V4.667A2.667 2.667 0 0 1 4.667 2h3.676L7.01 3.333H4.667c-.737 0-1.334.597-1.334 1.334v6.666c0 .737.597 1.334 1.334 1.334ZM13 10.327a.75.75 0 0 1 1.061 1.06l-.064.064-1.851 1.852a.75.75 0 0 1-1.061 0l-.53-.531-.106-.105-.513-.514a.75.75 0 0 1 1.061-1.06l.619.619 1.05-1.051.334-.334Zm-.764-7.54.976.977c.13.13.13.341 0 .472L9.057 8.39A1.024 1.024 0 0 1 7.61 6.943l4.155-4.155c.13-.13.341-.13.472 0Z" />
</svg>