<svg xmlns="http://www.w3.org/2000/svg" viewBox="0 0 24 24" fill="currentColor">
  <path _ngcontent-ng-c1909134112="" fill-rule="evenodd" clip-rule="evenodd" style="color: inherit" d="M11.32 1.845 7.165 6a2.357 2.357 0 0 0 2.141 3.976c.11-.253.268-.49.475-.696a2.241 2.241 0 0 1 1.423-.652l3.45-3.45c.65-.65.65-1.706 0-2.357l-.977-.976a1.667 1.667 0 0 0-2.357 0ZM5.165 12.667h3.943A2.26 2.26 0 0 0 9.177 14H5.165A2.667 2.667 0 0 1 2.5 11.333V4.667A2.667 2.667 0 0 1 5.165 2h3.677L7.508 3.333H5.165c-.736 0-1.333.597-1.333 1.334v6.666c0 .737.597 1.334 1.333 1.334Zm7.57-9.88.976.977c.13.13.13.341 0 .472L9.556 8.39a1.024 1.024 0 0 1-1.448-1.447l4.155-4.155c.13-.13.341-.13.471 0Zm1.517 7.473a.75.75 0 0 1 0 1.06l-.686.686.604.604a.75.75 0 1 1-1.06 1.061l-.605-.604-.686.686a.75.75 0 1 1-1.06-1.06l.685-.687-.604-.604a.75.75 0 1 1 1.062-1.06l.603.603.687-.686a.75.75 0 0 1 1.06 0Z" />
</svg>