<svg xmlns="http://www.w3.org/2000/svg" viewBox="0 0 24 24" fill="currentColor">
  <path _ngcontent-ng-c1909134112="" fill-rule="evenodd" clip-rule="evenodd" style="color: inherit" d="M8.483 4.638a2.04 2.04 0 1 0-2.885 2.885 2.04 2.04 0 0 0 2.885-2.885ZM4.155 3.195a4.08 4.08 0 0 1 6.397 4.965c.033.026.064.054.095.084l2.313 2.313 6.342-6.342a1.02 1.02 0 0 1 1.443 1.443L14.402 12l6.343 6.342a1.02 1.02 0 1 1-1.443 1.443l-6.342-6.342-2.313 2.313a1.01 1.01 0 0 1-.095.084 4.082 4.082 0 0 1-6.397 4.965 4.08 4.08 0 0 1 4.965-6.397c.026-.033.054-.064.084-.095L11.517 12 9.204 9.687a1.03 1.03 0 0 1-.084-.095 4.082 4.082 0 0 1-4.965-6.397Zm1.443 13.282a2.04 2.04 0 1 0 2.885 2.885 2.04 2.04 0 0 0-2.885-2.885Z" />
</svg>