<svg xmlns="http://www.w3.org/2000/svg" viewBox="0 0 24 24" fill="currentColor">
  <path _ngcontent-ng-c1909134112="" fill-rule="evenodd" clip-rule="evenodd" style="color: inherit" d="M10 4H5.5A3.5 3.5 0 0 0 2 7.5v9A3.5 3.5 0 0 0 5.5 20h13a3.5 3.5 0 0 0 3.5-3.5v-9A3.5 3.5 0 0 0 18.5 4H10Zm1 3a1 1 0 0 1 1-1h6.5A1.5 1.5 0 0 1 20 7.5v9a1.5 1.5 0 0 1-1.5 1.5H12a1 1 0 0 1-1-1V7ZM4 8a1 1 0 0 1 1-1h3a1 1 0 1 1 0 2H5a1 1 0 0 1-1-1Zm1 2a1 1 0 1 0 0 2h3a1 1 0 1 0 0-2H5Zm-1 4a1 1 0 0 1 1-1h2a1 1 0 1 1 0 2H5a1 1 0 0 1-1-1Z" />
</svg>