<svg xmlns="http://www.w3.org/2000/svg" viewBox="0 0 24 24" fill="none">
  <path _ngcontent-ng-c1909134112="" fill="currentColor" fill-rule="evenodd" clip-rule="evenodd" style="color: inherit" d="M4.357 12.84c.26.26.26.683 0 .943l-1.886 1.886a.667.667 0 1 1-.942-.943l1.885-1.886c.26-.26.683-.26.943 0Zm5.186-5.185c.26.26.26.682 0 .942l-1.886 1.886a.667.667 0 0 1-.943-.943L8.6 7.655c.26-.26.682-.26.943 0Zm5.185-5.185c.26.26.26.682 0 .942l-1.886 1.886a.667.667 0 1 1-.943-.943l1.886-1.885c.26-.26.682-.26.943 0Z" />
</svg>