<svg xmlns="http://www.w3.org/2000/svg" viewBox="0 0 24 24" fill="currentColor">
  <path _ngcontent-ng-c1909134112="" fill-rule="evenodd" clip-rule="evenodd" style="color: inherit" d="M5 3a2 2 0 0 0-2 2v6a2 2 0 0 0 2 2h6a2 2 0 0 0 2-2V5a2 2 0 0 0-2-2H5Zm0 8V5h6v6H5Zm0 3a2 2 0 0 0-2 2v3a2 2 0 0 0 2 2h3a2 2 0 0 0 2-2v-3a2 2 0 0 0-2-2H5Zm0 5v-3h3v3H5Zm8-5a2 2 0 0 0-2 2v3a2 2 0 0 0 2 2h6a2 2 0 0 0 2-2v-3a2 2 0 0 0-2-2h-6Zm0 5v-3h6v3h-6Zm3-16a2 2 0 0 0-2 2v6a2 2 0 0 0 2 2h3a2 2 0 0 0 2-2V5a2 2 0 0 0-2-2h-3Zm0 8V5h3v6h-3Z" />
</svg>