<svg xmlns="http://www.w3.org/2000/svg" viewBox="0 0 24 24" fill="currentColor">
  <path _ngcontent-ng-c1909134112="" fill-rule="evenodd" clip-rule="evenodd" style="color: inherit" d="M6 0a1 1 0 0 1 1 1v1h8V1a1 1 0 1 1 2 0v1.126c1.725.444 3 2.01 3 3.874v3a1 1 0 1 1-2 0H4v7a2 2 0 0 0 2 2h4a1 1 0 1 1 0 2H6a4 4 0 0 1-4-4V6a4.002 4.002 0 0 1 3-3.874V1a1 1 0 0 1 1-1ZM4 7h14V6a2 2 0 0 0-2-2H6a2 2 0 0 0-2 2v1Zm8 9.5a5.5 5.5 0 1 1 11 0 5.5 5.5 0 0 1-11 0Zm5.5-3.5a3.5 3.5 0 1 0 0 7 3.5 3.5 0 0 0 0-7Zm0 1a1 1 0 0 1 1 1v.78l.816.271a1 1 0 0 1-.632 1.898l-1.5-.5a1 1 0 0 1-.684-.949V15a1 1 0 0 1 1-1Z" />
</svg>