<svg xmlns="http://www.w3.org/2000/svg" viewBox="0 0 24 24" fill="none">
  <path _ngcontent-ng-c1909134112="" fill="currentColor" fill-rule="evenodd" clip-rule="evenodd" style="color: inherit" d="M12 3a1 1 0 0 1 1 1v1.9a1 1 0 1 1-2 0V4a1 1 0 0 1 1-1ZM4.643 6.143a1 1 0 0 1 1.414 0l1.344 1.343a1 1 0 0 1-1.415 1.415L4.643 7.557a1 1 0 0 1 0-1.414Zm15.108 0a1 1 0 0 1 0 1.414l-1.344 1.344a1 1 0 1 1-1.414-1.415l1.344-1.343a1 1 0 0 1 1.414 0ZM7.934 10.684a5.75 5.75 0 0 1 9.816 4.066 1 1 0 1 1-2 0 3.75 3.75 0 0 0-7.5 0 1 1 0 1 1-2 0 5.75 5.75 0 0 1 1.684-4.066ZM1.5 13.5a1 1 0 0 1 1-1h1.9a1 1 0 1 1 0 2H2.5a1 1 0 0 1-1-1Zm17.1 0a1 1 0 0 1 1-1h1.9a1 1 0 1 1 0 2h-1.9a1 1 0 0 1-1-1Zm2.9 4.5a1 1 0 0 1-1 1h-17a1 1 0 1 1 0-2h17a1 1 0 0 1 1 1Z" />
</svg>