<svg xmlns="http://www.w3.org/2000/svg" viewBox="0 0 24 24" fill="none">
  <path _ngcontent-ng-c1909134112="" fill="currentColor" fill-rule="evenodd" clip-rule="evenodd" style="color: inherit" d="M7 1a1 1 0 0 1 1 1v1h8V2a1 1 0 1 1 2 0v1.126c1.725.444 3 2.01 3 3.874v5a1 1 0 1 1-2 0v-2H5v7a2 2 0 0 0 2 2h2a1 1 0 1 1 0 2H7a4 4 0 0 1-4-4V7a4.002 4.002 0 0 1 3-3.874V2a1 1 0 0 1 1-1ZM5 8h14V7a2 2 0 0 0-2-2H7a2 2 0 0 0-2 2v1Zm12 5.5a1 1 0 0 1 1 1V17h2.5a1 1 0 1 1 0 2H18v2.5a1 1 0 1 1-2 0V19h-2.5a1 1 0 1 1 0-2H16v-2.5a1 1 0 0 1 1-1Z" />
</svg>