<svg xmlns="http://www.w3.org/2000/svg" viewBox="0 0 24 24" fill="none">
  <path _ngcontent-ng-c1909134112="" fill="var(--cu-background-main-inverse)" fill-opacity=".055" style="color: inherit" d="M9.879 1.121a3 3 0 0 1 4.242 0L22.88 9.88a3 3 0 0 1 0 4.242L14.12 22.88a3 3 0 0 1-4.242 0L1.12 14.12a3 3 0 0 1 0-4.242L9.88 1.12Z" />
  <path _ngcontent-ng-c1909134112="" fill="currentColor" fill-rule="evenodd" clip-rule="evenodd" style="color: inherit" d="m21.465 11.293-8.758-8.757a1 1 0 0 0-1.414 0l-8.757 8.757a1 1 0 0 0 0 1.414l8.757 8.758a1 1 0 0 0 1.414 0l8.758-8.758a1 1 0 0 0 0-1.414ZM14.12 1.12a3 3 0 0 0-4.242 0L1.12 9.88a3 3 0 0 0 0 4.242L9.88 22.88a3 3 0 0 0 4.242 0l8.758-8.758a3 3 0 0 0 0-4.242L14.12 1.12Z" />
</svg>