<svg xmlns="http://www.w3.org/2000/svg" viewBox="0 0 24 24" fill="none">
  <path _ngcontent-ng-c1909134112="" fill="var(--dismiss-box-alt-icon-background-color, var(--cu-background-main-inverse))" fill-opacity=".055" style="color: inherit" d="M.667 2.667a2 2 0 0 1 2-2h10.666a2 2 0 0 1 2 2v10.666a2 2 0 0 1-2 2H2.667a2 2 0 0 1-2-2V2.667Z" />
  <path _ngcontent-ng-c1909134112="" fill="currentColor" fill-rule="evenodd" clip-rule="evenodd" style="color: inherit" d="M13.333 2H2.667A.667.667 0 0 0 2 2.667v10.666c0 .368.298.667.667.667h10.666a.667.667 0 0 0 .667-.667V2.667A.667.667 0 0 0 13.333 2ZM2.667.667a2 2 0 0 0-2 2v10.666a2 2 0 0 0 2 2h10.666a2 2 0 0 0 2-2V2.667a2 2 0 0 0-2-2H2.667Z" />
  <path _ngcontent-ng-c1909134112="" fill="currentColor" fill-rule="evenodd" clip-rule="evenodd" style="color: inherit" d="M4.033 3.034a.667.667 0 1 0-.943.942l4.077 4.078-3.936 3.936a.667.667 0 0 0 .942.943L8.11 8.996l3.937 3.937a.667.667 0 0 0 .943-.943L9.053 8.054l4.077-4.078a.667.667 0 0 0-.943-.942L8.11 7.11 4.033 3.034Z" />
</svg>