<svg xmlns="http://www.w3.org/2000/svg" viewBox="0 0 24 24" fill="currentColor">
  <path _ngcontent-ng-c1909134112="" fill-rule="evenodd" clip-rule="evenodd" style="color: inherit" d="M6 5a1 1 0 0 1 1-1h6.172a1 1 0 0 1 .707.293l3.828 3.828a1 1 0 0 1 .293.707V19a1 1 0 0 1-1 1H7a1 1 0 0 1-1-1V5Zm1-3a3 3 0 0 0-3 3v14a3 3 0 0 0 3 3h10a3 3 0 0 0 3-3V8.828a3 3 0 0 0-.879-2.12l-3.828-3.83A3 3 0 0 0 13.172 2H7Zm5 8a1 1 0 0 1 1 1v2h2a1 1 0 1 1 0 2h-2v2a1 1 0 1 1-2 0v-2H9a1 1 0 1 1 0-2h2v-2a1 1 0 0 1 1-1Z" />
</svg>