<svg xmlns="http://www.w3.org/2000/svg" viewBox="0 0 24 24" fill="currentColor">
  <path _ngcontent-ng-c1909134112="" fill-rule="evenodd" clip-rule="evenodd" style="color: inherit" d="M8 2a3 3 0 0 0-3 3v6a1 1 0 1 0 2 0V5a1 1 0 0 1 1-1h6.172a1 1 0 0 1 .707.293l3.828 3.828a1 1 0 0 1 .293.707V19c0 .553-.447 1-.998 1H12a1 1 0 1 0 0 2h6.002A2.999 2.999 0 0 0 21 19V8.828a3 3 0 0 0-.879-2.12l-3.828-3.83A3 3 0 0 0 14.172 2H8ZM6 14a1 1 0 0 1 1 1v2h2a1 1 0 1 1 0 2H7v2a1 1 0 1 1-2 0v-2H3a1 1 0 1 1 0-2h2v-2a1 1 0 0 1 1-1Z" />
</svg>