<svg xmlns="http://www.w3.org/2000/svg" viewBox="0 0 24 24" fill="none">
  <path _ngcontent-ng-c1909134112="" fill="currentColor" fill-rule="evenodd" clip-rule="evenodd" style="color: inherit" d="m11.662 4 2.129.71A2.5 2.5 0 0 1 15.5 7.08v14.082a2 2 0 0 1-2.564 1.92L5.856 21H3a1 1 0 1 1 0-2h2V4.5A2.5 2.5 0 0 1 7.5 2h9A2.5 2.5 0 0 1 19 4.5V19h2a1 1 0 1 1 0 2h-3a1 1 0 0 1-1-1V4.5a.5.5 0 0 0-.5-.5h-4.838ZM7 19.252l6.5 1.912V7.08a.5.5 0 0 0-.342-.474L7 4.554v14.698Zm4.5-5.752a1 1 0 0 1 1 1v1a1 1 0 1 1-2 0v-1a1 1 0 0 1 1-1Z" />
</svg>