<svg xmlns="http://www.w3.org/2000/svg" viewBox="0 0 24 24" fill="currentColor">
  <path _ngcontent-ng-c1909134112="" fill-rule="evenodd" clip-rule="evenodd" style="color: inherit" d="M11.411 2.126c.12-.047.34-.126.589-.126.248 0 .468.079.589.126.148.059.303.136.458.222.31.172.676.412 1.072.705a19.17 19.17 0 0 1 2.683 2.444c1.833 2.011 3.698 4.905 3.698 8.14C20.5 18.272 16.677 22 12 22s-8.5-3.727-8.5-8.364c0-3.234 1.865-6.128 3.698-8.14a19.173 19.173 0 0 1 2.683-2.443c.396-.293.762-.533 1.072-.705.155-.086.31-.163.458-.222ZM8.677 6.844C6.968 8.719 5.5 11.144 5.5 13.636 5.5 17.134 8.393 20 12 20s6.5-2.866 6.5-6.364c0-2.492-1.468-4.917-3.177-6.792a17.18 17.18 0 0 0-2.395-2.184A8.153 8.153 0 0 0 12 4.055a8.143 8.143 0 0 0-.928.605 17.173 17.173 0 0 0-2.395 2.184Zm3.495-2.867Zm-.332.004ZM16 12.5a1 1 0 0 1 1 1 5 5 0 0 1-5 5 1 1 0 1 1 0-2 3 3 0 0 0 3-3 1 1 0 0 1 1-1Z" />
</svg>