<svg xmlns="http://www.w3.org/2000/svg" viewBox="0 0 24 24" fill="currentColor">
  <path _ngcontent-ng-c1909134112="" fill-rule="evenodd" clip-rule="evenodd" style="color: inherit" d="M14.793 6.121a1 1 0 0 1 1.414 0l1.672 1.672a1 1 0 0 1 0 1.414L16.5 10.586 13.414 7.5l1.379-1.379ZM12 8.914 15.086 12l-6.54 6.54-3.43.343.344-3.428L12 8.915Zm5.621-4.207a3 3 0 0 0-4.242 0L4.045 14.04a2 2 0 0 0-.575 1.216L3.005 19.9A1 1 0 0 0 4.1 20.995l4.644-.465a2 2 0 0 0 1.216-.575l9.333-9.334a3 3 0 0 0 0-4.242l-1.672-1.672Z" />
</svg>