<svg xmlns="http://www.w3.org/2000/svg" viewBox="0 0 24 24" fill="currentColor">
  <path _ngcontent-ng-c1909134112="" fill-rule="evenodd" clip-rule="evenodd" style="color: inherit" d="M16.503 4.413a1.41 1.41 0 0 1 1.994 0l1.092 1.092c.55.55.55 1.443 0 1.994L18.5 8.588l-3.086-3.086 1.089-1.089ZM14 6.916l3.086 3.086-9.54 9.54-3.43.343.343-3.429L14 6.916Zm5.911-3.917a3.41 3.41 0 0 0-4.822 0L3.045 15.042a2 2 0 0 0-.576 1.215l-.464 4.645a1 1 0 0 0 1.094 1.095l4.645-.465a2 2 0 0 0 1.215-.576L21.003 8.913a3.41 3.41 0 0 0 0-4.822L19.91 2.999Z" />
</svg>