<svg xmlns="http://www.w3.org/2000/svg" viewBox="0 0 24 24" fill="currentColor">
  <path _ngcontent-ng-c1909134112="" fill-rule="evenodd" clip-rule="evenodd" style="color: inherit" d="M14.242 3.03a1 1 0 0 1 .728 1.213l-4 16a1 1 0 1 1-1.94-.485l4-16a1 1 0 0 1 1.213-.728ZM7.564 7.436a1 1 0 0 1 0 1.414L4.414 12l3.15 3.15a1 1 0 1 1-1.414 1.414l-3.857-3.857a1 1 0 0 1 0-1.414L6.15 7.436a1 1 0 0 1 1.414 0Zm8.872 0a1 1 0 0 1 1.414 0l3.857 3.857a1 1 0 0 1 0 1.414l-3.857 3.857a1 1 0 0 1-1.414-1.414l3.15-3.15-3.15-3.15a1 1 0 0 1 0-1.414Z" />
</svg>