<svg xmlns="http://www.w3.org/2000/svg" viewBox="0 0 24 24" fill="none">
  <path _ngcontent-ng-c1909134112="" fill="currentColor" style="color: inherit" d="M10.368 9.368a1 1 0 1 0-2 0v1.58a1 1 0 1 0 2 0v-1.58Zm4.264-1a1 1 0 0 1 1 1v1.58a1 1 0 1 1-2 0v-1.58a1 1 0 0 1 1-1ZM8.288 13.8a1 1 0 0 1 1.381.27l.018.023a3.037 3.037 0 0 0 .545.528c.397.298.981.59 1.768.59s1.371-.292 1.768-.59a3.038 3.038 0 0 0 .545-.528 1 1 0 1 1 1.677 1.093l-.832-.554.832.554-.001.002-.001.002-.003.004-.006.009-.018.026-.057.076a5.03 5.03 0 0 1-.936.916c-.655.492-1.65.99-2.968.99a4.896 4.896 0 0 1-2.968-.99 5.037 5.037 0 0 1-.936-.916 2.904 2.904 0 0 1-.056-.076l-.018-.026-.007-.01-.003-.003v-.002c-.001 0-.002-.002.83-.556l-.832.554a1 1 0 0 1 .278-1.386Z" />
  <path _ngcontent-ng-c1909134112="" fill="currentColor" fill-rule="evenodd" clip-rule="evenodd" style="color: inherit" d="M12 2.053c-5.494 0-9.947 4.453-9.947 9.947 0 5.494 4.453 9.947 9.947 9.947 5.494 0 9.948-4.453 9.948-9.947 0-5.494-4.454-9.947-9.948-9.947ZM4.053 12a7.947 7.947 0 1 1 15.894 0 7.947 7.947 0 0 1-15.894 0Z" />
</svg>