<svg xmlns="http://www.w3.org/2000/svg" viewBox="0 0 24 24" fill="currentColor">
  <path _ngcontent-ng-c1909134112="" style="color: inherit" d="M5.207 3.293a1 1 0 0 0-1.414 1.414L5.195 6.11c-.18.209-.352.426-.513.65a1 1 0 1 0 1.625 1.166c.098-.136.2-.268.307-.397l9.858 9.858a6.87 6.87 0 0 1-.397.306 1 1 0 0 0 1.165 1.626c.225-.161.442-.333.65-.513l1.403 1.402a1 1 0 0 0 1.414-1.414l-15.5-15.5Zm5.917 1.761a6.62 6.62 0 0 1 1.347-.03 1 1 0 1 0 .159-1.994 8.618 8.618 0 0 0-1.754.04 1 1 0 1 0 .248 1.984Zm5.846-.467a1 1 0 0 0-1.132 1.649 7.448 7.448 0 0 1 1.924 1.926 1 1 0 0 0 1.65-1.131 9.45 9.45 0 0 0-2.442-2.444ZM5.1 10.818a1 1 0 1 0-1.972-.335 9.053 9.053 0 0 0-.002 3.024 1 1 0 0 0 1.972-.333 7.054 7.054 0 0 1 .001-2.356Zm15.869.552a1 1 0 0 0-1.994.16 6.59 6.59 0 0 1-.03 1.346 1 1 0 1 0 1.985.248c.074-.593.085-1.18.039-1.755ZM6.29 16.05a1 1 0 0 0-1.63 1.159 9.045 9.045 0 0 0 2.13 2.131 1 1 0 1 0 1.159-1.63 7.046 7.046 0 0 1-1.66-1.66Zm7.227 4.822a1 1 0 1 0-.335-1.971 7.052 7.052 0 0 1-2.356.001 1 1 0 0 0-.333 1.972 9.054 9.054 0 0 0 3.024-.002Z" />
</svg>