<svg xmlns="http://www.w3.org/2000/svg" viewBox="0 0 24 24" fill="currentColor">
  <path _ngcontent-ng-c1909134112="" fill-rule="evenodd" clip-rule="evenodd" style="color: inherit" d="M17 2a1 1 0 0 0 0 2h1.586L14.29 8.3a.995.995 0 0 0 0 1.41c.39.39 1.02.39 1.41 0L20 5.414V7a1 1 0 0 0 2 0V3a1 1 0 0 0-1-1h-4Zm-2.826 2c.13.372.333.71.59.998l-1 1.002H6v2.5c0 1.837 1.69 3.5 4 3.5 1.108 0 2.072-.382 2.777-.982l.101.106a2.985 2.985 0 0 0 1.77.858 5.883 5.883 0 0 1-1.267 1.06A5.994 5.994 0 0 1 16 18v2h1a1 1 0 1 1 0 2H3a1 1 0 0 1 0-2h1v-2a5.994 5.994 0 0 1 2.62-4.957C5.056 12.068 4 10.43 4 8.5V6H3a1 1 0 1 1 0-2h11.174ZM14 20v-2a4 4 0 1 0-8 0v2h8Z" />
</svg>