<svg xmlns="http://www.w3.org/2000/svg" viewBox="0 0 24 24" fill="none">
  <path _ngcontent-ng-c1909134112="" fill="currentColor" style="color: inherit" d="M12 20.438a8.437 8.437 0 1 0 0-16.875 8.437 8.437 0 0 0 0 16.875ZM12 22C6.477 22 2 17.523 2 12S6.477 2 12 2s10 4.477 10 10-4.477 10-10 10Z" />
  <path _ngcontent-ng-c1909134112="" fill="currentColor" style="color: inherit" d="M12 8.042a1.042 1.042 0 1 0 0-2.084 1.042 1.042 0 0 0 0 2.084Zm5 5a1.042 1.042 0 1 0 0-2.084 1.042 1.042 0 0 0 0 2.084Zm-1.464 3.536a1.042 1.042 0 1 0 0-2.084 1.042 1.042 0 0 0 0 2.084ZM12 18.042a1.042 1.042 0 1 0 0-2.084 1.042 1.042 0 0 0 0 2.084Zm-3.536-1.464a1.042 1.042 0 1 0 0-2.084 1.042 1.042 0 0 0 0 2.084ZM7 13.042a1.042 1.042 0 1 0 0-2.084 1.042 1.042 0 0 0 0 2.084Zm1.464-3.536a1.042 1.042 0 1 0 0-2.083 1.042 1.042 0 0 0 0 2.083Zm2.801 1.756-.002.001a1.042 1.042 0 0 0 1.474 1.474l.001-.002c.05-.05.095-.105.134-.165l2.704-3.333a.578.578 0 0 0-.813-.813l-3.332 2.703c-.06.04-.116.085-.166.135Z" />
</svg>