<svg xmlns="http://www.w3.org/2000/svg" viewBox="0 0 24 24" fill="currentColor">
  <path _ngcontent-ng-c1909134112="" fill-rule="evenodd" clip-rule="evenodd" style="color: inherit" d="M17.657 7.757a1 1 0 0 0 0 1.415L19.485 11h-4.657a1 1 0 1 0 0 2h4.657l-1.828 1.828a1 1 0 1 0 1.414 1.415l3.536-3.536a1 1 0 0 0 0-1.414L19.07 7.757a1 1 0 0 0-1.414 0Zm-16.264 4.95 3.536 3.536a1 1 0 1 0 1.414-1.415L4.515 13h4.657a1 1 0 1 0 0-2H4.515l1.828-1.828A1 1 0 0 0 4.93 7.757l-3.536 3.536a1 1 0 0 0 0 1.414Z" />
</svg>