<svg xmlns="http://www.w3.org/2000/svg" viewBox="0 0 24 24" fill="currentColor">
  <path _ngcontent-ng-c1909134112="" fill-rule="evenodd" clip-rule="evenodd" style="color: inherit" d="M12 4a8 8 0 0 0-7.169 11.555 1 1 0 1 1-1.791.89A9.963 9.963 0 0 1 2 12C2 6.477 6.477 2 12 2s10 4.477 10 10a9.963 9.963 0 0 1-1.04 4.445 1 1 0 0 1-1.791-.89A8 8 0 0 0 12 4Zm-4.207 6.793a1 1 0 0 1 1.414 0L12 13.586l2.793-2.793a1 1 0 0 1 1.414 1.414l-3.5 3.5a1 1 0 0 1-1.414 0l-3.5-3.5a1 1 0 0 1 0-1.414Zm0 6a1 1 0 0 1 1.414 0L12 19.586l2.793-2.793a1 1 0 0 1 1.414 1.414l-3.5 3.5a1 1 0 0 1-1.414 0l-3.5-3.5a1 1 0 0 1 0-1.414Z" />
</svg>