<svg xmlns="http://www.w3.org/2000/svg" viewBox="0 0 24 24" fill="none">
  <path _ngcontent-ng-c1909134112="" fill="currentColor" fill-rule="evenodd" clip-rule="evenodd" style="color: inherit" d="m13 8 .874-.486L13 8Zm.874-.486c.167.302.168.67 0 .972L13 8c.874.486.873.487.873.487v.002l-.003.005-.007.012-.022.037c-.018.03-.043.072-.075.122a8.04 8.04 0 0 1-1.347 1.578C11.466 11.101 9.989 12 8 12c-1.988 0-3.466-.9-4.419-1.757a8.035 8.035 0 0 1-1.347-1.578 4.656 4.656 0 0 1-.097-.159l-.007-.012-.002-.005-.001-.002-.001-.001L2.998 8l-.763.424-.11.06a1 1 0 0 1 0-.97L3 8a64.494 64.494 0 0 1-.873-.487V7.51l.003-.005.007-.012a3.003 3.003 0 0 1 .097-.159A8.035 8.035 0 0 1 3.58 5.757C4.534 4.899 6.011 4 8 4c1.988 0 3.466.9 4.419 1.757a8.039 8.039 0 0 1 1.347 1.578c.032.05.057.091.075.122l.022.037.007.012.002.005.002.003Zm-7.207.489a1.333 1.333 0 1 1 2.666 0 1.333 1.333 0 0 1-2.666 0ZM8 5.336a2.667 2.667 0 1 0 0 5.333 2.667 2.667 0 0 0 0-5.333Z" />
</svg>