<svg xmlns="http://www.w3.org/2000/svg" viewBox="0 0 24 24" fill="none">
  <path _ngcontent-ng-c1909134112="" fill="#1ABCFE" style="color: inherit" d="M19 28.5a9.5 9.5 0 1 1 19 0 9.5 9.5 0 0 1-19 0z" />
  <path _ngcontent-ng-c1909134112="" fill="#0ACF83" style="color: inherit" d="M0 47.5A9.5 9.5 0 0 1 9.5 38H19v9.5a9.5 9.5 0 0 1-19 0z" />
  <path _ngcontent-ng-c1909134112="" fill="#FF7262" style="color: inherit" d="M19 0v19h9.5a9.5 9.5 0 0 0 0-19H19z" />
  <path _ngcontent-ng-c1909134112="" fill="#F24E1E" style="color: inherit" d="M0 9.5A9.5 9.5 0 0 0 9.5 19H19V0H9.5A9.5 9.5 0 0 0 0 9.5z" />
  <path _ngcontent-ng-c1909134112="" fill="#A259FF" style="color: inherit" d="M0 28.5A9.5 9.5 0 0 0 9.5 38H19V19H9.5A9.5 9.5 0 0 0 0 28.5z" />
</svg>