<svg xmlns="http://www.w3.org/2000/svg" viewBox="0 0 24 24" fill="none">
  <path _ngcontent-ng-c1909134112="" fill="#1ABCFE" style="color: inherit" d="M12 12c0-.884.369-1.732 1.025-2.357a3.59 3.59 0 0 1 2.475-.976 3.59 3.59 0 0 1 2.475.976A3.255 3.255 0 0 1 19 12c0 .884-.369 1.732-1.025 2.357a3.59 3.59 0 0 1-2.475.976 3.59 3.59 0 0 1-2.475-.976A3.255 3.255 0 0 1 12 12Z" />
  <path _ngcontent-ng-c1909134112="" fill="#0ACF83" style="color: inherit" d="M5 18.667c0-.884.369-1.732 1.025-2.357a3.59 3.59 0 0 1 2.475-.977H12v3.334c0 .884-.369 1.732-1.025 2.357A3.591 3.591 0 0 1 8.5 22a3.59 3.59 0 0 1-2.475-.976A3.255 3.255 0 0 1 5 18.667Z" />
  <path _ngcontent-ng-c1909134112="" fill="#FF7262" style="color: inherit" d="M12 2v6.667h3.5a3.59 3.59 0 0 0 2.475-.977A3.255 3.255 0 0 0 19 5.333c0-.884-.369-1.732-1.025-2.357A3.59 3.59 0 0 0 15.5 2H12Z" />
  <path _ngcontent-ng-c1909134112="" fill="#F24E1E" style="color: inherit" d="M5 5.333c0 .884.369 1.732 1.025 2.357a3.59 3.59 0 0 0 2.475.977H12V2H8.5a3.59 3.59 0 0 0-2.475.976A3.255 3.255 0 0 0 5 5.333Z" />
  <path _ngcontent-ng-c1909134112="" fill="#A259FF" style="color: inherit" d="M5 12c0 .884.369 1.732 1.025 2.357a3.59 3.59 0 0 0 2.475.976H12V8.667H8.5a3.59 3.59 0 0 0-2.475.976A3.255 3.255 0 0 0 5 12Z" />
</svg>