<svg xmlns="http://www.w3.org/2000/svg" viewBox="0 0 24 24" fill="currentColor">
  <path _ngcontent-ng-c1909134112="" fill-rule="evenodd" clip-rule="evenodd" style="color: inherit" d="M5.352 2.05a1 1 0 0 0-1.668 1.103L5.303 5.6H3a1 1 0 1 0 0 2h3.5c.04 0 .08-.002.12-.007l2.403 3.631H6.376a1 1 0 1 0 0 2h3.812c.052 0 .102-.004.152-.011l2.405 3.636H9.75a1 1 0 1 0 0 2h4.319l1.777 2.687a1 1 0 1 0 1.668-1.104L5.352 2.05ZM11.4 5.6a1 1 0 1 0 0 2h9.599a1 1 0 1 0 0-2H11.4Zm3.6 5.624a1 1 0 1 0 0 2h2.625a1 1 0 1 0 0-2H15Z" />
  <path _ngcontent-ng-c1909134112="" fill-rule="evenodd" clip-rule="evenodd" style="color: inherit" d="M5.352 2.05a1 1 0 0 0-1.668 1.103L5.303 5.6H3a1 1 0 1 0 0 2h3.5c.04 0 .08-.002.12-.007l2.403 3.631H6.376a1 1 0 1 0 0 2h3.812c.052 0 .102-.004.152-.011l2.405 3.636H9.75a1 1 0 1 0 0 2h4.319l1.777 2.687a1 1 0 1 0 1.668-1.104L5.352 2.05ZM11.4 5.6a1 1 0 1 0 0 2h9.599a1 1 0 1 0 0-2H11.4Zm3.6 5.624a1 1 0 1 0 0 2h2.625a1 1 0 1 0 0-2H15Z" />
</svg>