<svg xmlns="http://www.w3.org/2000/svg" viewBox="0 0 24 24" fill="none">
  <path _ngcontent-ng-c1909134112="" fill="currentColor" fill-rule="evenodd" clip-rule="evenodd" style="color: inherit" d="M7 1a1 1 0 0 1 1 1H6a1 1 0 0 1 1-1Zm1 2.045V2H6v19a1 1 0 1 0 2 0v-4.64c.827-.97 1.574-1.489 2.275-1.81.73-.334 1.446-.476 2.316-.649l.23-.045c.955-.191 2.04-.432 3.22-1.048 1.184-.618 2.408-1.585 3.727-3.168A1 1 0 0 0 19 8c-2.628 0-3.893-1.046-5.36-2.268l-.013-.011C12.257 4.579 10.722 3.3 8 3.045Zm0 2.01V13.6c.48-.365.96-.646 1.443-.868.954-.436 1.896-.622 2.735-.787l.25-.05c.921-.184 1.773-.38 2.687-.858a8.48 8.48 0 0 0 1.766-1.254c-2.047-.452-3.337-1.527-4.508-2.503l-.013-.01C11.092 6.211 9.976 5.287 8 5.055Z" />
</svg>