<svg xmlns="http://www.w3.org/2000/svg" viewBox="0 0 24 24" fill="none">
  <path _ngcontent-ng-c1909134112="" fill="currentColor" style="color: inherit" d="M2 17a3 3 0 0 0 3 3h6a1 1 0 1 0 0-2H5a1 1 0 0 1-1-1V7a1 1 0 0 1 1-1h4.586l1.707 1.707A1 1 0 0 0 12 8h7a1 1 0 0 1 1 1v3a1 1 0 1 0 2 0V9a3 3 0 0 0-3-3h-6.586l-1.707-1.707A1 1 0 0 0 10 4H5a3 3 0 0 0-3 3v10Z" />
  <path _ngcontent-ng-c1909134112="" fill="currentColor" style="color: inherit" d="M18.983 14.818a.523.523 0 0 0-.483-.318.523.523 0 0 0-.483.318l-.983 2.334-2.553.202a.521.521 0 0 0-.455.355.512.512 0 0 0 .157.551l1.945 1.645-.595 2.46a.512.512 0 0 0 .202.536c.17.123.4.132.58.023l2.185-1.317 2.186 1.317c.18.109.409.1.58-.023a.512.512 0 0 0 .2-.537l-.594-2.459 1.945-1.645a.512.512 0 0 0 .157-.55.521.521 0 0 0-.455-.356l-2.553-.202-.983-2.334Z" />
</svg>