<svg xmlns="http://www.w3.org/2000/svg" viewBox="0 0 24 24" fill="none">
  <path _ngcontent-ng-c1909134112="" fill="currentColor" style="color: inherit" d="M10.999 2.666a.667.667 0 1 1 0 1.334.667.667 0 0 1 0-1.334Z" />
  <path _ngcontent-ng-c1909134112="" fill="currentColor" fill-rule="evenodd" clip-rule="evenodd" style="color: inherit" d="M9.087 5.997c.118.208.34.336.579.336h2.666c.24 0 .46-.128.579-.336l1.333-2.333a.667.667 0 0 0 0-.662L12.911.67a.667.667 0 0 0-.579-.336H9.666c-.24 0-.46.128-.58.336L7.755 3.002a.667.667 0 0 0 0 .662l1.333 2.333ZM10.052 5 9.1 3.333l.952-1.667h1.893l.953 1.667L11.945 5h-1.893Z" />
  <path _ngcontent-ng-c1909134112="" fill="currentColor" style="color: inherit" d="M3 13.665A2.666 2.666 0 0 1 .332 11V4.333a2.666 2.666 0 0 1 2.666-2.667h3.334a.667.667 0 0 1 0 1.334H2.999c-.736 0-1.333.597-1.333 1.333v6.666c0 .736.597 1.333 1.333 1.333h6.667c.736 0 1.333-.597 1.333-1.333V7.666a.667.667 0 1 1 1.333 0v3.333a2.666 2.666 0 0 1-2.666 2.666H2.999Z" />
  <path _ngcontent-ng-c1909134112="" fill="currentColor" style="color: inherit" d="M5.64 6.492a.667.667 0 0 0-.876.121l-1.85 2.159a.667.667 0 0 0 1.011.867l1.467-1.71 1.36.906c.27.18.63.14.853-.097l1.212-1.28a.667.667 0 0 0-.97-.917l-.824.873-1.383-.922Z" />
</svg>