<svg xmlns="http://www.w3.org/2000/svg" viewBox="0 0 24 24" fill="currentColor">
  <path _ngcontent-ng-c1909134112="" fill-rule="evenodd" clip-rule="evenodd" style="color: inherit" d="m14.85 10.406 3.372-3.371v1.854a.889.889 0 0 0 1.778 0v-4A.889.889 0 0 0 19.111 4h-4a.889.889 0 0 0 0 1.778h1.854l-3.371 3.371a.889.889 0 1 0 1.257 1.257Zm-9.072 6.56 3.371-3.372a.889.889 0 1 1 1.257 1.257l-3.371 3.371h1.854a.889.889 0 0 1 0 1.778h-4A.889.889 0 0 1 4 19.111v-4a.889.889 0 0 1 1.778 0v1.854Zm7.816-2.115 3.371 3.371h-1.854a.889.889 0 0 0 0 1.778h4a.889.889 0 0 0 .889-.889v-4a.889.889 0 0 0-1.778 0v1.854l-3.371-3.371a.889.889 0 1 0-1.257 1.257Zm-4.445-4.445a.889.889 0 0 0 1.257-1.257L7.035 5.778h1.854a.889.889 0 0 0 0-1.778h-4A.889.889 0 0 0 4 4.889v4a.889.889 0 0 0 1.778 0V7.035l3.371 3.371Z" />
</svg>