<svg xmlns="http://www.w3.org/2000/svg" viewBox="0 0 24 24" fill="none">
  <path _ngcontent-ng-c1909134112="" fill="#000" style="color: inherit" d="M22 12c0 5.523-4.477 10-10 10S2 17.523 2 12 6.477 2 12 2s10 4.477 10 10Z" />
  <path _ngcontent-ng-c1909134112="" fill="#0F9" style="color: inherit" d="m7.154 7.304 1.215.003-.024 9.37-1.214-.003.023-9.37Z" />
  <path _ngcontent-ng-c1909134112="" fill="#93F" style="color: inherit" d="m15.653 9.726 1.216.003-.018 6.974-1.216-.003.018-6.974Z" />
  <path _ngcontent-ng-c1909134112="" fill="#0CF" style="color: inherit" d="m7.131 16.672 9.72.023-.002 1.202-9.72-.023.002-1.202Z" />
  <path _ngcontent-ng-c1909134112="" fill="#FF9" style="color: inherit" d="m7.157 6.103 6.075.014-.003 1.202-6.075-.015.003-1.201Z" />
  <path _ngcontent-ng-c1909134112="" fill="#F66" style="color: inherit" d="m14.446 7.32.003-1.2-1.217-.003-.009 3.604 3.646.008.003-1.2-1.217-.003.003-1.201-1.212-.004Z" />
  <path _ngcontent-ng-c1909134112="" fill="#4C197F" style="color: inherit" d="m15.655 9.726 1.216.003-.004 1.202-1.216-.003.004-1.202Z" />
</svg>