<svg xmlns="http://www.w3.org/2000/svg" viewBox="0 0 24 24" fill="none">
  <path _ngcontent-ng-c1909134112="" fill="currentColor" fill-rule="evenodd" clip-rule="evenodd" style="color: inherit" d="M15 4c0-.552.449-1.001 1.001-1.001H18a3 3 0 0 1 3 3v12a3 3 0 0 1-3 3H6a3 3 0 0 1-3-3V13a1.001 1.001 0 0 1 1.999 0v5c0 .552.449 1.001 1.001 1.001h12A1.001 1.001 0 0 0 19.001 18V6A1.001 1.001 0 0 0 18 5h-1.999A1.001 1.001 0 0 1 15 4Zm-9.8-.205a1.001 1.001 0 0 0-1.405.158L2.22 5.922a1.001 1.001 0 0 0 0 1.249l1.575 1.971a1.001 1.001 0 1 0 1.563-1.249L4.281 6.548l1.075-1.345A1.001 1.001 0 0 0 5.2 3.798Z" />
  <path _ngcontent-ng-c1909134112="" fill="currentColor" fill-rule="evenodd" clip-rule="evenodd" style="color: inherit" d="M10.585 3.795a1.001 1.001 0 0 1 1.405.158l1.575 1.97a1.001 1.001 0 0 1 0 1.249L11.99 9.143a1.001 1.001 0 0 1-1.561-1.249l1.075-1.345-1.075-1.345a1.001 1.001 0 0 1 .156-1.405ZM9.091 2.138a1.001 1.001 0 0 1 .704 1.228l-1.872 6.886a1.001 1.001 0 1 1-1.93-.525l1.872-6.886a1.001 1.001 0 0 1 1.227-.704Z" />
</svg>