<svg xmlns="http://www.w3.org/2000/svg" viewBox="0 0 24 24" fill="none">
  <path _ngcontent-ng-c1909134112="" fill="#E24329" style="color: inherit" d="m21.667 9.624-.028-.072-2.722-7.104a.71.71 0 0 0-.704-.446.729.729 0 0 0-.41.153.729.729 0 0 0-.241.367l-1.838 5.623H8.281L6.443 2.522a.714.714 0 0 0-.241-.368.729.729 0 0 0-.833-.044.715.715 0 0 0-.28.337L2.36 9.548l-.027.072a5.055 5.055 0 0 0 1.677 5.842l.009.007.025.018 4.147 3.106 2.051 1.552 1.25.944a.84.84 0 0 0 1.016 0l1.25-.944 2.051-1.552 4.172-3.125.01-.008a5.057 5.057 0 0 0 1.675-5.836Z" />
  <path _ngcontent-ng-c1909134112="" fill="#FC6D26" style="color: inherit" d="m21.667 9.624-.028-.072a9.196 9.196 0 0 0-3.66 1.646L12 15.718l3.808 2.879 4.172-3.124.01-.009a5.056 5.056 0 0 0 1.677-5.84Z" />
  <path _ngcontent-ng-c1909134112="" fill="#FCA326" style="color: inherit" d="m8.192 18.597 2.051 1.552 1.25.944a.84.84 0 0 0 1.016 0l1.25-.944 2.051-1.552s-1.774-1.343-3.81-2.879c-2.036 1.536-3.808 2.879-3.808 2.879Z" />
  <path _ngcontent-ng-c1909134112="" fill="#FC6D26" style="color: inherit" d="M6.02 11.198a9.185 9.185 0 0 0-3.659-1.65l-.027.072a5.055 5.055 0 0 0 1.677 5.842l.009.007.025.018 4.147 3.106L12 15.714l-5.98-4.516Z" />
</svg>