<svg xmlns="http://www.w3.org/2000/svg" viewBox="0 0 24 24" fill="none">
  <path _ngcontent-ng-c1909134112="" fill="currentColor" fill-rule="evenodd" clip-rule="evenodd" style="color: inherit" d="M6.5 3.5a1.5 1.5 0 1 0 0 3 1.5 1.5 0 0 0 0-3ZM3 5a3.5 3.5 0 1 1 4.577 3.331A4.501 4.501 0 0 0 12 12h2.145A3.502 3.502 0 0 1 21 13a3.5 3.5 0 0 1-6.855 1H12a6.478 6.478 0 0 1-4.5-1.81v3.455a3.502 3.502 0 0 1-1 6.855 3.5 3.5 0 0 1-1-6.855v-7.29A3.502 3.502 0 0 1 3 5Zm14.5 6.5a1.5 1.5 0 1 0 0 3 1.5 1.5 0 0 0 0-3Zm-11 6a1.5 1.5 0 1 0 0 3 1.5 1.5 0 0 0 0-3Z" />
</svg>