<svg xmlns="http://www.w3.org/2000/svg" viewBox="0 0 24 24" fill="none">
  <path _ngcontent-ng-c1909134112="" fill="currentColor" fill-rule="evenodd" clip-rule="evenodd" style="color: inherit" d="M5.5 3.5a1.5 1.5 0 1 0 0 3 1.5 1.5 0 0 0 0-3ZM2 5a3.5 3.5 0 1 1 4.5 3.355v7.29a3.502 3.502 0 0 1-1 6.855 3.5 3.5 0 0 1-1-6.855v-7.29A3.502 3.502 0 0 1 2 5Zm13.293-3.207a1 1 0 0 1 1.414 0L18.5 3.586l1.793-1.793a1 1 0 1 1 1.414 1.414L19.914 5l1.793 1.793a1 1 0 0 1-1.414 1.414L18.5 6.414l-1.793 1.793a1 1 0 1 1-1.414-1.414L17.086 5l-1.793-1.793a1 1 0 0 1 0-1.414ZM17.5 10.5a1 1 0 1 1 2 0v5.145a3.502 3.502 0 0 1-1 6.855 3.5 3.5 0 0 1-1-6.855V10.5Zm-12 7a1.5 1.5 0 1 0 0 3 1.5 1.5 0 0 0 0-3Zm13 0a1.5 1.5 0 1 0 0 3 1.5 1.5 0 0 0 0-3Z" />
</svg>