<svg xmlns="http://www.w3.org/2000/svg" viewBox="0 0 24 24" fill="none">
  <path _ngcontent-ng-c1909134112="" fill="#4285F4" style="color: inherit" d="M3.364 19.004h3.181v-7.727L2 7.867v9.773c0 .755.611 1.364 1.364 1.364Z" />
  <path _ngcontent-ng-c1909134112="" fill="#34A853" style="color: inherit" d="M17.454 19.004h3.182c.755 0 1.364-.612 1.364-1.364V7.868l-4.546 3.409" />
  <path _ngcontent-ng-c1909134112="" fill="#FBBC04" style="color: inherit" d="M17.454 5.367v5.91L22 7.867V6.05c0-1.686-1.925-2.647-3.273-1.636" />
  <path _ngcontent-ng-c1909134112="" fill="#EA4335" style="color: inherit" d="M6.545 11.277v-5.91L12 9.459l5.454-4.09v5.909L12 15.367" />
  <path _ngcontent-ng-c1909134112="" fill="#C5221F" style="color: inherit" d="M2 6.05v1.818l4.545 3.409v-5.91l-1.272-.954C3.923 3.402 2 4.363 2 6.049Z" />
</svg>