<svg xmlns="http://www.w3.org/2000/svg" viewBox="0 0 24 24" fill="none">
  <path _ngcontent-ng-c1909134112="" fill="#ffc107" style="color: inherit" d="M37 45H11a3 3 0 0 1-3-3V6a3 3 0 0 1 3-3h19l10 10v29a3 3 0 0 1-3 3z" />
  <path _ngcontent-ng-c1909134112="" fill="#ffecb3" style="color: inherit" d="M40 13H30V3z" />
  <path _ngcontent-ng-c1909134112="" fill="#ffa000" style="color: inherit" d="m30 13 10 10V13z" />
  <path _ngcontent-ng-c1909134112="" fill="#fff" style="color: inherit" d="M30 22H18c-1.1 0-2 .9-2 2v12c0 1.1.9 2 2 2h12c1.1 0 2-.9 2-2V24c0-1.1-.9-2-2-2zm0 4v8H18v-8h12z" />
</svg>