<svg xmlns="http://www.w3.org/2000/svg" viewBox="0 0 24 24" fill="none">
  <path _ngcontent-ng-c1909134112="" fill="#fff" style="color: inherit" d="M16.737 7.263H7.263v9.474h9.474V7.263Z" />
  <path _ngcontent-ng-c1909134112="" fill="#EA4335" style="color: inherit" d="M16.737 21 21 16.737h-4.263V21Z" />
  <path _ngcontent-ng-c1909134112="" fill="#FBBC04" style="color: inherit" d="M21 7.263h-4.263v9.474H21V7.263Z" />
  <path _ngcontent-ng-c1909134112="" fill="#34A853" style="color: inherit" d="M16.737 16.737H7.263V21h9.474v-4.263Z" />
  <path _ngcontent-ng-c1909134112="" fill="#188038" style="color: inherit" d="M3 16.737v2.842A1.42 1.42 0 0 0 4.421 21h2.842v-4.263H3Z" />
  <path _ngcontent-ng-c1909134112="" fill="#1967D2" style="color: inherit" d="M21 7.263V4.421A1.42 1.42 0 0 0 19.579 3h-2.842v4.263H21Z" />
  <path _ngcontent-ng-c1909134112="" fill="#4285F4" style="color: inherit" d="M16.737 3H4.42A1.42 1.42 0 0 0 3 4.421v12.316h4.263V7.263h9.474V3Z" />
  <path _ngcontent-ng-c1909134112="" fill="#4285F4" style="color: inherit" d="M9.206 14.612c-.354-.239-.599-.588-.733-1.05l.822-.339c.075.284.205.505.391.661.185.156.41.233.673.233.268 0 .5-.081.693-.245a.783.783 0 0 0 .29-.624.774.774 0 0 0-.306-.632c-.204-.164-.46-.245-.765-.245h-.475v-.814h.427c.262 0 .484-.07.664-.213a.703.703 0 0 0 .27-.584c0-.22-.08-.395-.242-.527a.936.936 0 0 0-.612-.198c-.242 0-.433.064-.575.193-.142.13-.25.293-.31.475l-.814-.338c.107-.306.305-.576.595-.81.29-.232.661-.35 1.111-.35.333 0 .633.064.898.193.265.13.473.308.624.536.15.228.225.484.225.768 0 .29-.07.535-.21.737-.14.201-.311.355-.515.463v.048c.263.109.492.287.66.515.173.231.26.507.26.83 0 .322-.083.61-.246.861-.164.253-.39.452-.676.596a2.132 2.132 0 0 1-.97.218c-.416.001-.8-.118-1.154-.358Zm5.049-4.078-.903.652-.45-.684 1.618-1.168h.62v5.508h-.885v-4.308Z" />
</svg>