<svg xmlns="http://www.w3.org/2000/svg" viewBox="0 0 24 24" fill="none">
  <path _ngcontent-ng-c1909134112="" fill="#1A73E8" style="color: inherit" d="M13.995 1.358A7.683 7.683 0 0 0 11.677 1 7.658 7.658 0 0 0 5.8 3.741l3.626 3.05 4.57-5.433Z" />
  <path _ngcontent-ng-c1909134112="" fill="#EA4335" style="color: inherit" d="M5.798 3.741A7.645 7.645 0 0 0 4 8.675c0 1.444.288 2.613.76 3.661l4.664-5.544-3.626-3.05Z" />
  <path _ngcontent-ng-c1909134112="" fill="#4285F4" style="color: inherit" d="M11.677 5.74a2.935 2.935 0 0 1 2.242 4.831s2.319-2.758 4.57-5.432a7.69 7.69 0 0 0-4.492-3.781L9.424 6.792a2.928 2.928 0 0 1 2.253-1.051Z" />
  <path _ngcontent-ng-c1909134112="" fill="#FBBC04" style="color: inherit" d="M11.677 11.61a2.935 2.935 0 0 1-2.253-4.82L4.76 12.336c.797 1.768 2.123 3.187 3.488 4.975l5.67-6.74a2.927 2.927 0 0 1-2.241 1.04Z" />
  <path _ngcontent-ng-c1909134112="" fill="#34A853" style="color: inherit" d="M13.806 19.15c2.56-4.003 5.545-5.821 5.545-10.475a7.638 7.638 0 0 0-.863-3.536L8.25 17.31a27.3 27.3 0 0 1 1.3 1.842C11.105 21.558 10.672 23 11.677 23c1.002 0 .57-1.444 2.128-3.85Z" />
</svg>