<svg xmlns="http://www.w3.org/2000/svg" viewBox="0 0 24 24" fill="none">
  <path _ngcontent-ng-c1909134112="" fill="#ea4335" style="color: inherit" d="m13.667 12.267.867 3 2.267 2.467a2.067 2.067 0 0 0 .733-.733l2.067-3.667a2.067 2.067 0 0 0 .267-1l-3.2-.6-3 .6Z" />
  <path _ngcontent-ng-c1909134112="" fill="#188038" style="color: inherit" d="M13.133.533a2.067 2.067 0 0 0-1-.267h-4.2a2.067 2.067 0 0 0-1 .267L7.866 3.6l2.2 2.333 2.2-2.4.867-3Z" />
  <path _ngcontent-ng-c1909134112="" fill="#1967d2" style="color: inherit" d="m6.333 12.267-3.2-.733-3 .733c0 .333.067.733.267 1l2.067 3.667c.2.333.467.6.733.733L5.4 15.4l.867-3.133Z" />
  <path _ngcontent-ng-c1909134112="" fill="#fbbc04" style="color: inherit" d="m17.4 6.267-2.867-5c-.2-.333-.4-.6-.733-.733l-3.133 5.399 3.667 6.333h6.267c0-.333-.067-.733-.267-1l-2.867-5Z" />
  <path _ngcontent-ng-c1909134112="" fill="#4285f4" style="color: inherit" d="M13.667 12.267H6.334l-3.133 5.4c.333.2.667.267 1 .267h11.533a2.067 2.067 0 0 0 1-.267l-3.133-5.4Z" />
  <path _ngcontent-ng-c1909134112="" fill="#34a853" style="color: inherit" d="M10 5.933 6.867.533a2.067 2.067 0 0 0-.733.733l-5.8 10a2.067 2.067 0 0 0-.267 1h6.267L10 5.933Z" />
</svg>