<svg xmlns="http://www.w3.org/2000/svg" viewBox="0 0 24 24" fill="none">
  <path _ngcontent-ng-c1909134112="" fill="currentColor" style="color: inherit" d="M4 0h4a4 4 0 0 1 4 4v4a4 4 0 0 1-4 4H4a4 4 0 0 1-4-4V4a4 4 0 0 1 4-4Z" />
  <path _ngcontent-ng-c1909134112="" fill="var(--cu-avatar-user-offline)" fill-rule="evenodd" clip-rule="evenodd" style="color: inherit" d="M4 3.501a.5.5 0 0 0-.5.5V8a.5.5 0 0 0 .5.5h4a.5.5 0 0 0 .5-.5V4.004a.5.5 0 0 0-.5-.5l-4-.003Zm-2 .5a2 2 0 0 1 2.002-2l4 .003a2 2 0 0 1 1.998 2V8a2 2 0 0 1-2 2H4a2 2 0 0 1-2-2V4.001Z" />
</svg>