<svg xmlns="http://www.w3.org/2000/svg" viewBox="0 0 24 24" fill="none">
  <path _ngcontent-ng-c1909134112="" fill="currentColor" style="color: inherit" d="M4 3h4a4 4 0 0 1 4 4v4a4 4 0 0 1-4 4H4a4 4 0 0 1-4-4V7a4 4 0 0 1 4-4Z" />
  <path _ngcontent-ng-c1909134112="" fill="var(--cu-avatar-user-online)" style="color: inherit" d="M2 7a2 2 0 0 1 2-2h4a2 2 0 0 1 2 2v4a2 2 0 0 1-2 2H4a2 2 0 0 1-2-2V7Z" />
  <path _ngcontent-ng-c1909134112="" fill="currentColor" style="color: inherit" d="m14.2 4.65-.283.378A2.75 2.75 0 0 1 12 9.75H9a2.75 2.75 0 0 1-2.45-1.5l-.02-.04a2.75 2.75 0 0 1 .27-2.86l.283-.378A2.75 2.75 0 0 1 9 .25h3c1.034 0 1.98.58 2.45 1.5l.02.04a2.75 2.75 0 0 1-.27 2.86Z" />
  <path _ngcontent-ng-c1909134112="" fill="var(--cu-avatar-user-online)" fill-rule="evenodd" clip-rule="evenodd" style="color: inherit" d="M8.25 3A.75.75 0 0 1 9 2.25h3a.75.75 0 0 1 .6 1.2l-2.1 2.8H12a.75.75 0 0 1 0 1.5H9a.75.75 0 0 1-.6-1.2l2.1-2.8H9A.75.75 0 0 1 8.25 3Z" />
</svg>