<svg xmlns="http://www.w3.org/2000/svg" viewBox="0 0 24 24" fill="none">
  <path _ngcontent-ng-c1909134112="" fill="var(--cu-background-main-inverse)" fill-opacity=".055" fill-rule="evenodd" clip-rule="evenodd" style="color: inherit" d="M7.995 3.479C6.663 1.921 4.44 1.502 2.77 2.929 1.1 4.355.865 6.74 2.176 8.429c1.09 1.403 4.39 4.362 5.472 5.32.121.107.182.16.252.182a.338.338 0 0 0 .19 0c.071-.021.132-.075.253-.182 1.081-.958 4.381-3.917 5.472-5.32 1.311-1.688 1.105-4.089-.594-5.5-1.699-1.412-3.893-1.008-5.226.55Z" />
  <path _ngcontent-ng-c1909134112="" fill="currentColor" fill-rule="evenodd" clip-rule="evenodd" style="color: inherit" d="M7.995 2.533C6.435 1.17 4.128.891 2.337 2.422.399 4.077.117 6.866 1.65 8.838c.581.748 1.717 1.873 2.808 2.903a123.437 123.437 0 0 0 2.748 2.507l.01.01c.051.045.115.1.176.147a.999.999 0 0 0 .318.165c.186.055.385.055.571 0a.999.999 0 0 0 .318-.165c.06-.046.124-.102.175-.148l.01-.009c.544-.48 1.645-1.465 2.75-2.507 1.09-1.03 2.225-2.155 2.807-2.903 1.527-1.965 1.289-4.775-.694-6.422-1.811-1.506-4.094-1.247-5.652.117Zm-.506 1.38c-1.137-1.33-2.944-1.625-4.286-.478-1.402 1.198-1.591 3.181-.5 4.585.508.654 1.568 1.711 2.67 2.751a121.24 121.24 0 0 0 2.622 2.395 121.14 121.14 0 0 0 2.623-2.395c1.102-1.04 2.162-2.097 2.67-2.751 1.097-1.411.922-3.403-.493-4.579-1.378-1.145-3.161-.852-4.293.471a.667.667 0 0 1-1.013 0Z" />
</svg>