<svg xmlns="http://www.w3.org/2000/svg" viewBox="0 0 24 24" fill="none">
  <path _ngcontent-ng-c1909134112="" fill="var(--cu-background-main-inverse)" fill-opacity=".055" style="color: inherit" d="M10.5.866a3 3 0 0 1 3 0l7.392 4.268a3 3 0 0 1 1.5 2.598v8.536a3 3 0 0 1-1.5 2.598L13.5 23.134a3 3 0 0 1-3 0l-7.392-4.268a3 3 0 0 1-1.5-2.598V7.732a3 3 0 0 1 1.5-2.598L10.5.866Z" />
  <path _ngcontent-ng-c1909134112="" fill="currentColor" fill-rule="evenodd" clip-rule="evenodd" style="color: inherit" d="M19.892 6.866 12.5 2.598a1 1 0 0 0-1 0L4.108 6.866a1 1 0 0 0-.5.866v8.536a1 1 0 0 0 .5.866l7.392 4.268a1 1 0 0 0 1 0l7.392-4.268a1 1 0 0 0 .5-.866V7.732a1 1 0 0 0-.5-.866Zm-6.392-6a3 3 0 0 0-3 0L3.108 5.134a3 3 0 0 0-1.5 2.598v8.536a3 3 0 0 0 1.5 2.598l7.392 4.268a3 3 0 0 0 3 0l7.392-4.268a3 3 0 0 0 1.5-2.598V7.732a3 3 0 0 0-1.5-2.598L13.5.866Z" />
</svg>