<svg xmlns="http://www.w3.org/2000/svg" viewBox="0 0 24 24" fill="none">
  <path _ngcontent-ng-c1909134112="" fill="var(--cu-background-main-inverse)" fill-opacity=".055" style="color: inherit" d="M7 1.518a2 2 0 0 1 2 0l4.928 2.846a2 2 0 0 1 1 1.732v5.69a2 2 0 0 1-1 1.732L9 16.364a2 2 0 0 1-2 0l-4.928-2.846a2 2 0 0 1-1-1.732v-5.69a2 2 0 0 1 1-1.732L7 1.518Z" />
  <path _ngcontent-ng-c1909134112="" fill="currentColor" fill-rule="evenodd" clip-rule="evenodd" style="color: inherit" d="M13.261 5.518 8.334 2.673a.667.667 0 0 0-.666 0L2.738 5.518a.667.667 0 0 0-.333.578v5.69c0 .239.127.459.333.578l4.929 2.845c.206.12.46.12.666 0l4.928-2.845a.666.666 0 0 0 .334-.578v-5.69a.667.667 0 0 0-.334-.578ZM9 1.518a2 2 0 0 0-2 0L2.072 4.364a2 2 0 0 0-1 1.732v5.69a2 2 0 0 0 1 1.732L7 16.364a2 2 0 0 0 2 0l4.928-2.846a2 2 0 0 0 1-1.732v-5.69a2 2 0 0 0-1-1.732L9 1.518Z" />
</svg>