<svg xmlns="http://www.w3.org/2000/svg" viewBox="0 0 24 24" fill="none">
  <path _ngcontent-ng-c1909134112="" fill="currentColor" fill-rule="evenodd" clip-rule="evenodd" style="color: inherit" d="M18.218 4.133a1.41 1.41 0 0 0-1.802-.16l-8.864 6.165 6.31 6.31 6.166-8.864a1.41 1.41 0 0 0-.16-1.802l-1.65-1.65Zm-6.246 13.253-5.358-5.358-.529 2.643 3.244 3.244 2.643-.53ZM9.41 19.913a1.99 1.99 0 0 0 .31-.037l4.476-.895a1 1 0 0 0 .625-.41l6.848-9.845a3.41 3.41 0 0 0-.387-4.359l-1.65-1.649a3.41 3.41 0 0 0-4.358-.388L5.429 9.18a1 1 0 0 0-.41.624l-.973 4.869-1.94 3.88-.448.894.895.447 2.552 1.277a2 2 0 0 0 1.79 0l2.515-1.258Zm-2.098-1.187-2.038-2.038-.933 1.865L6 19.382l1.312-.656Z" />
</svg>