<svg xmlns="http://www.w3.org/2000/svg" viewBox="0 0 24 24" fill="none">
  <path _ngcontent-ng-c1909134112="" fill="currentColor" fill-rule="evenodd" clip-rule="evenodd" style="color: inherit" d="M10.299 2.955a3 3 0 0 1 3.4 0l6 4.125a3 3 0 0 1 1.3 2.472V18a3 3 0 0 1-3 3h-12a3 3 0 0 1-3-3V9.552a3 3 0 0 1 1.3-2.472l6-4.125Zm2.266 1.648a1 1 0 0 0-1.133 0l-6 4.125a1 1 0 0 0-.433.824V18a1 1 0 0 0 1 1h2v-3a4 4 0 0 1 8 0v3h2a1 1 0 0 0 1-1V9.552a1 1 0 0 0-.434-.824l-6-4.125ZM14 19v-3a2 2 0 1 0-4 0v3h4Z" />
</svg>