<svg xmlns="http://www.w3.org/2000/svg" viewBox="0 0 24 24" fill="none">
  <path _ngcontent-ng-c1909134112="" fill="#294DFF" style="color: inherit" d="m4.316 19.464 4.47 2.588a.603.603 0 0 0 .753-.14 3.083 3.083 0 0 1 2.369-1.115c.957 0 1.804.44 2.369 1.114.188.22.502.298.752.141l4.487-2.604a.597.597 0 0 0 .188-.847c-.22-.33-.455-.627-.706-.925-.674-.784-1.49-1.412-2.384-1.93l-.596-.345-.032-.015a.623.623 0 0 0-.11-.047.48.48 0 0 0-.548.11 4.63 4.63 0 0 1-3.42 1.505 4.63 4.63 0 0 1-3.42-1.506.462.462 0 0 0-.533-.11l-.706.408a9.352 9.352 0 0 0-2.886 2.542l-.236.329a.58.58 0 0 0 .189.847Z" />
  <path _ngcontent-ng-c1909134112="" fill="#1F95FF" style="color: inherit" d="M5.037 4.735a.58.58 0 0 0-.25.721 3.038 3.038 0 0 1-.22 2.62 3.058 3.058 0 0 1-2.165 1.49.59.59 0 0 0-.502.58v5.145c0 .33.282.612.627.58a9.286 9.286 0 0 0 3.765-1.066l.55-.313c.14-.095.297-.189.438-.283a.477.477 0 0 0 .189-.518 4.602 4.602 0 0 1 .423-3.67 4.683 4.683 0 0 1 2.996-2.196.467.467 0 0 0 .361-.408l.047-.722v-.36a9.337 9.337 0 0 0-.925-3.906c-.142-.298-.534-.408-.816-.251L5.037 4.735Z" />
  <path _ngcontent-ng-c1909134112="" fill="#5FBBFF" style="color: inherit" d="M19.233 8.076a3.038 3.038 0 0 1-.22-2.62c.095-.267 0-.58-.25-.721L14.26 2.162a.571.571 0 0 0-.816.251 9.158 9.158 0 0 0-.925 3.906v.36c0 .236.015.471.047.722a.466.466 0 0 0 .36.408 4.543 4.543 0 0 1 2.997 2.196 4.609 4.609 0 0 1 .423 3.67.454.454 0 0 0 .188.518c.142.095.283.189.44.283l.549.313a9.285 9.285 0 0 0 3.764 1.067.586.586 0 0 0 .612-.58V10.13a.588.588 0 0 0-.502-.58 3.052 3.052 0 0 1-2.165-1.475Z" />
</svg>