<svg xmlns="http://www.w3.org/2000/svg" viewBox="0 0 24 24" fill="none">
  <path _ngcontent-ng-c1909134112="" fill="#fff" style="color: inherit" d="M3 9.374c0-2.231 0-3.347.434-4.199a3.984 3.984 0 0 1 1.741-1.74C6.027 3 7.143 3 9.374 3h5.252c2.231 0 3.347 0 4.199.434.75.382 1.359.991 1.74 1.741C21 6.027 21 7.143 21 9.374v5.252c0 2.231 0 3.347-.434 4.199a3.984 3.984 0 0 1-1.741 1.74c-.852.435-1.968.435-4.199.435H9.374c-2.231 0-3.347 0-4.199-.434a3.984 3.984 0 0 1-1.74-1.741C3 17.973 3 16.857 3 14.626V9.374Z" />
  <path _ngcontent-ng-c1909134112="" fill="#FE3C3B" style="color: inherit" d="M7.82 7.717h.46V6.049h.014l.666 1.668h.325l.665-1.668h.015v1.668h.46V5.25H9.83l-.701 1.772h-.01L8.417 5.25h-.596v2.466Zm4.303.043c.733 0 1.19-.491 1.19-1.275V6.48c0-.783-.459-1.273-1.19-1.273-.73 0-1.19.489-1.19 1.273v.004c0 .784.457 1.275 1.19 1.275Zm0-.438c-.405 0-.663-.321-.663-.837V6.48c0-.516.26-.836.663-.836.405 0 .663.322.663.836v.004c0 .51-.253.837-.663.837Zm1.697.395h.515V6.102h.01l1.118 1.615h.448V5.25h-.515v1.603h-.01L14.272 5.25h-.452v2.466Z" />
  <path _ngcontent-ng-c1909134112="" fill="#262626" style="color: inherit" d="M9.747 17.912c1.58 0 2.74-.973 2.74-2.291v-.011c0-1.121-.782-1.838-1.93-1.936v-.022c.984-.208 1.673-.875 1.673-1.849v-.01c0-1.198-.99-2.035-2.494-2.035-1.477 0-2.494.859-2.62 2.144l-.005.055h.946l.006-.055c.082-.799.743-1.29 1.673-1.29.962 0 1.504.475 1.504 1.3v.012c0 .787-.656 1.367-1.597 1.367h-.946v.831h.99c1.104 0 1.799.542 1.799 1.51v.01c0 .837-.705 1.417-1.739 1.417-1.05 0-1.761-.536-1.843-1.313l-.005-.054h-.947l.006.065c.104 1.247 1.16 2.155 2.789 2.155Zm5.958-.132h.951V9.89h-.962l-2.1 1.509v.99l2.089-1.455h.022v6.847Z" />
</svg>