<svg xmlns="http://www.w3.org/2000/svg" viewBox="0 0 24 24" fill="none">
  <path _ngcontent-ng-c1909134112="" fill="currentColor" fill-rule="evenodd" clip-rule="evenodd" style="color: inherit" d="M3.853 1.746C4.643.959 5.728.43 6.88.43c1.152 0 2.236.53 3.027 1.316.79.787 1.323 1.867 1.323 3.015 0 1.198-.44 1.924-.859 2.53l-.112.16c-.363.52-.639.914-.705 1.538-.025.24-.09.546-.241.817-1.77.136-3.037.149-4.852-.013a2.226 2.226 0 0 1-.24-.805c-.07-.598-.342-.988-.703-1.504l-.128-.183c-.422-.612-.86-1.347-.86-2.54 0-1.148.533-2.228 1.323-3.015Zm.76 8.95c.638.066 1.644.154 2.387.154.654 0 1.512-.069 2.143-.13-.018.195-.037.433-.054.717-.025.423-.096.74-.19.98-.168.42-.524.736-.879.91-.274.135-.646.236-1.14.236-.465 0-.823-.086-1.092-.209-.39-.176-.78-.518-.957-.967a3.012 3.012 0 0 1-.182-.954c-.014-.273-.02-.43-.024-.531-.004-.086-.006-.133-.01-.179l-.001-.026Zm2.181-7.348a.5.5 0 0 1 .575-.412l-.081.494c.081-.494.083-.494.083-.494l.004.001.006.001.02.004.055.013a1.978 1.978 0 0 1 .685.326c.392.292.755.802.755 1.615a.5.5 0 0 1-1 0c0-.47-.191-.693-.353-.813a.978.978 0 0 0-.343-.161.5.5 0 0 1-.406-.574Z" />
</svg>