<svg xmlns="http://www.w3.org/2000/svg" viewBox="0 0 24 24" fill="currentColor">
  <path _ngcontent-ng-c1909134112="" fill-rule="evenodd" clip-rule="evenodd" style="color: inherit" d="M3.85 7.566A2 2 0 0 1 5.802 6h12.396a2 2 0 0 1 1.952 1.566l1.826 8.217A.988.988 0 0 1 22 16v4a2 2 0 0 1-2 2H4a2 2 0 0 1-2-2v-4a1 1 0 0 1 .024-.217L3.85 7.566ZM18.198 8H5.802l-1.555 7h3.517a2 2 0 0 1 .894.211l1.578.789h3.528l1.578-.789c.277-.139.584-.211.894-.211h3.517l-1.555-7ZM20 17h-3.764l-1.578.789a2.001 2.001 0 0 1-.894.211h-3.528a2 2 0 0 1-.894-.211L7.764 17H4v3h16v-3Z" />
</svg>