<svg xmlns="http://www.w3.org/2000/svg" viewBox="0 0 24 24" fill="currentColor">
  <path _ngcontent-ng-c1909134112="" fill-rule="evenodd" clip-rule="evenodd" style="color: inherit" d="M11.029 3.684a2 2 0 0 1 1.942 0l6 3.333a2 2 0 0 1 .347.244L12 12.75 4.682 7.261a2 2 0 0 1 .347-.244l6-3.333ZM4 9.25V16a2 2 0 0 0 2 2h12a2 2 0 0 0 2-2V9.25l-7.4 5.55a1 1 0 0 1-1.2 0L4 9.25Zm9.943-7.315a4 4 0 0 0-3.886 0l-6 3.334A4 4 0 0 0 2 8.765V16a4 4 0 0 0 4 4h12a4 4 0 0 0 4-4V8.765a4 4 0 0 0-2.057-3.496l-6-3.334Z" />
</svg>