<svg xmlns="http://www.w3.org/2000/svg" viewBox="0 0 24 24" fill="currentColor">
  <path _ngcontent-ng-c1909134112="" fill-rule="evenodd" clip-rule="evenodd" style="color: inherit" d="M11.333 5.88C10.26 4.096 7.848 3.456 5.948 4.51 4.07 5.55 3.46 7.82 4.518 9.579a3.834 3.834 0 0 0 1.724 1.519 1 1 0 0 1-.82 1.824 5.834 5.834 0 0 1-2.618-2.313l.857-.515-.857.515C1.142 7.844 2.145 4.33 4.978 2.76c2.81-1.558 6.422-.649 8.069 2.09a5.553 5.553 0 0 1 .782 3.367 1 1 0 0 1-1.993-.178 3.553 3.553 0 0 0-.503-2.159Zm-4.244.39c1.128-.626 2.588-.27 3.263.853l1.77 2.944 5.904-.816a2.426 2.426 0 0 1 2.413 1.136l.565.94c2.058 3.423.82 7.78-2.7 9.73a7.59 7.59 0 0 1-7.05.146l-3.989-1.996c-1.022-.512-1.572-1.663-1.259-2.786.412-1.476 2.062-2.165 3.413-1.566l-3.218-5.35c-.69-1.149-.263-2.598.888-3.236Zm1.55 1.884c-.102-.17-.363-.256-.58-.135-.196.108-.23.311-.144.455l4.925 8.19a1 1 0 0 1-1.286 1.418l-2.933-1.393c-.309-.146-.624.038-.688.27-.045.16.023.358.228.46l3.988 1.996a5.59 5.59 0 0 0 5.186-.107c2.564-1.421 3.409-4.532 1.955-6.95l-.565-.94a.428.428 0 0 0-.426-.186l-6.556.907a1 1 0 0 1-.994-.476l-2.11-3.51Z" />
</svg>