<svg xmlns="http://www.w3.org/2000/svg" viewBox="0 0 24 24" fill="none">
  <path _ngcontent-ng-c1909134112="" fill="#1F8DED" style="color: inherit" d="M18.6 12.896a.6.6 0 0 1-1.2 0V7.5a.6.6 0 0 1 1.2 0v5.396Zm-.21 3.756c-.092.08-2.315 1.944-6.39 1.944-4.075 0-6.298-1.865-6.39-1.944a.6.6 0 0 1 .78-.912c.034.03 2.02 1.656 5.61 1.656 3.636 0 5.59-1.639 5.61-1.655a.6.6 0 0 1 .78.91ZM5.4 7.5a.6.6 0 0 1 1.2 0v5.396a.6.6 0 0 1-1.2 0V7.5Zm3-1.2a.6.6 0 0 1 1.2 0v8.016a.6.6 0 0 1-1.2 0V6.3Zm3-.304a.6.6 0 1 1 1.2 0v8.7a.6.6 0 0 1-1.2 0v-8.7Zm3 .304a.6.6 0 0 1 1.2 0v8.016a.6.6 0 0 1-1.2 0V6.3ZM18.75 3H5.25A2.25 2.25 0 0 0 3 5.25v13.5A2.25 2.25 0 0 0 5.25 21h13.5A2.25 2.25 0 0 0 21 18.75V5.25A2.25 2.25 0 0 0 18.75 3Z" />
</svg>