<svg xmlns="http://www.w3.org/2000/svg" viewBox="0 0 24 24" fill="none">
  <path _ngcontent-ng-c1909134112="" fill="currentColor" fill-rule="evenodd" clip-rule="evenodd" style="color: inherit" d="M15.089 2.997a3.41 3.41 0 0 1 4.822 0l1.092 1.092a3.41 3.41 0 0 1 0 4.822L14.414 15.5a2 2 0 0 1-2.828 0l-.836-.836-2.041 2.041a1 1 0 1 1-1.414-1.414l2.04-2.041-.835-.836a2 2 0 0 1 0-2.829l6.589-6.588Zm3.408 1.414a1.41 1.41 0 0 0-1.994 0L15.414 5.5 18.5 8.586l1.089-1.089a1.41 1.41 0 0 0 0-1.994l-1.092-1.092ZM17.086 10 14 6.914 9.915 11 13 14.086 17.086 10Z" />
  <path _ngcontent-ng-c1909134112="" fill="currentColor" style="color: inherit" d="M11.707 18.293a1 1 0 0 0-1.414 1.414l1 1a1 1 0 0 0 1.414-1.414l-1-1ZM5.708 18.302a1 1 0 0 1 0 1.414l-1 1a1 1 0 1 1-1.414-1.414l1-1a1 1 0 0 1 1.414 0ZM4.422 16.989a1 1 0 1 0 0-2H3.008a1 1 0 1 0 0 2h1.414ZM5.707 13.71a1 1 0 0 1-1.414 0l-1-1a1 1 0 1 1 1.414-1.415l1 1a1 1 0 0 1 0 1.414ZM8.997 19.576a1 1 0 1 0-2 0v1.414a1 1 0 1 0 2 0v-1.414Z" />
</svg>