<svg xmlns="http://www.w3.org/2000/svg" viewBox="0 0 24 24" fill="currentColor">
  <path _ngcontent-ng-c1909134112="" style="color: inherit" d="m8.368 4.79-.317.949a1 1 0 0 0 1.024-1.656l-.707.707Zm-2.736-.913.317-.949h-.001l-.316.949ZM3 5.775h1-1Zm0 11.783h1-1Zm1.368 1.898.316-.949-.316.949Zm4 1.333-.316.949.316-.949Zm1.264 0 .316.949-.316-.949Zm4.736-1.578-.316-.949.316.949Zm1.264 0 .316-.949-.316.949Zm2.736.912-.316.949.316-.949ZM21 18.224h-1 1Zm0-11.782h-1 1Zm-1.367-1.898.317-.949-.317.949Zm-4-1.333-.316.949.316-.949Zm-1.265 0 .316.949-.316-.949ZM9.631 4.789l.316.949-.316-.949Zm-1.264 0 .316-.949A1 1 0 0 0 7.66 5.496l.707-.707Zm.318-.948-2.736-.913-.634 1.898 2.736.913.634-1.898Zm-2.737-.913a3 3 0 0 0-1.401-.12l.302 1.978a1 1 0 0 1 .467.04l.632-1.898Zm-1.401-.12a3 3 0 0 0-1.302.533l1.17 1.622a1 1 0 0 1 .434-.177l-.302-1.977Zm-1.302.533a3 3 0 0 0-.916 1.067l1.78.911a1 1 0 0 1 .306-.356l-1.17-1.622ZM2.33 4.408A3 3 0 0 0 2 5.775h2a1 1 0 0 1 .11-.456l-1.78-.91ZM2 5.775v11.783h2V5.775H2Zm0 11.783a3 3 0 0 0 .566 1.755l1.623-1.17A1 1 0 0 1 4 17.558H2Zm.566 1.755a3 3 0 0 0 1.486 1.092l.632-1.898a1 1 0 0 1-.495-.364l-1.623 1.17Zm1.486 1.092 4 1.333.632-1.898-4-1.333-.632 1.898Zm4 1.333a3 3 0 0 0 1.896 0l-.632-1.898a.999.999 0 0 1-.632 0l-.632 1.898Zm1.896 0 4.736-1.578-.632-1.898-4.736 1.578.632 1.898Zm4.736-1.578a.999.999 0 0 1 .632 0l.632-1.898a3 3 0 0 0-1.896 0l.632 1.898Zm.632 0 2.736.912.632-1.898-2.736-.912-.632 1.898Zm2.736.912a3 3 0 0 0 1.401.119l-.302-1.977a1 1 0 0 1-.467-.04l-.632 1.898Zm1.401.119a3 3 0 0 0 1.302-.533l-1.17-1.622a1 1 0 0 1-.434.178l.302 1.977Zm1.302-.533a3 3 0 0 0 .916-1.067l-1.78-.91a1 1 0 0 1-.306.355l1.17 1.622Zm.916-1.067A3 3 0 0 0 22 18.223l-2 .002a1 1 0 0 1-.11.456l1.781.91ZM22 18.224V6.442h-2v11.782h2Zm0-11.782a3 3 0 0 0-.566-1.754l-1.623 1.169a1 1 0 0 1 .189.585h2Zm-.566-1.754a3 3 0 0 0-1.485-1.093l-.633 1.898a1 1 0 0 1 .495.364l1.623-1.17ZM19.95 3.595l-4-1.333-.632 1.898 4 1.333.632-1.898Zm-4-1.333a3 3 0 0 0-1.897 0l.632 1.898a1 1 0 0 1 .633 0l.632-1.898Zm-1.897 0L9.315 3.84l.632 1.898 4.737-1.578-.632-1.898ZM9.315 3.84a1 1 0 0 1-.632 0l-.632 1.898a3 3 0 0 0 1.896 0L9.315 3.84ZM7.66 5.496l.001.001 1.414-1.414-.001-.001L7.66 5.496ZM8 5v16h2V5H8Zm6-2v16h2V3h-2Z" />
</svg>