<svg xmlns="http://www.w3.org/2000/svg" viewBox="0 0 24 24" fill="none">
  <path _ngcontent-ng-c1909134112="" fill="currentColor" fill-rule="evenodd" clip-rule="evenodd" style="color: inherit" d="M18 20a2 2 0 0 0 2-2V6a2 2 0 0 0-2-2H6a2 2 0 0 0-2 2v12a2 2 0 0 0 2 2h12Zm4-2a4 4 0 0 1-4 4H6a4 4 0 0 1-4-4V6a4 4 0 0 1 4-4h12a4 4 0 0 1 4 4v12Zm-8.212-6.33 2.336-2.669a.5.5 0 0 1 .876.33v5.338a.5.5 0 0 1-.876.33l-2.336-2.67a.5.5 0 0 1 0-.658ZM7.876 9.002l2.336 2.67a.5.5 0 0 1 0 .658L7.876 15A.5.5 0 0 1 7 14.67V9.331A.5.5 0 0 1 7.876 9Z" />
</svg>