<svg xmlns="http://www.w3.org/2000/svg" viewBox="0 0 24 24" fill="none">
  <path _ngcontent-ng-c1909134112="" fill="currentColor" fill-rule="evenodd" clip-rule="evenodd" style="color: inherit" d="M22 7a1 1 0 0 1-1 1H3a1 1 0 0 1-1-1V6a1 1 0 0 1 1-1h18a1 1 0 0 1 1 1v1Zm0 6a1 1 0 0 1-1 1H3a1 1 0 0 1-1-1v-.5a1 1 0 0 1 1-1h18a1 1 0 0 1 1 1v.5Zm0 5.25a.75.75 0 0 1-.75.75H2.75a.75.75 0 0 1 0-1.5h18.5a.75.75 0 0 1 .75.75Z" />
  <path _ngcontent-ng-c1909134112="" fill="currentColor" fill-rule="evenodd" clip-rule="evenodd" style="color: inherit" d="M22 7a1 1 0 0 1-1 1H3a1 1 0 0 1-1-1V6a1 1 0 0 1 1-1h18a1 1 0 0 1 1 1v1Zm0 6a1 1 0 0 1-1 1H3a1 1 0 0 1-1-1v-.5a1 1 0 0 1 1-1h18a1 1 0 0 1 1 1v.5Zm0 5.25a.75.75 0 0 1-.75.75H2.75a.75.75 0 0 1 0-1.5h18.5a.75.75 0 0 1 .75.75Z" />
</svg>