<svg xmlns="http://www.w3.org/2000/svg" viewBox="0 0 24 24" fill="currentColor">
  <path _ngcontent-ng-c1909134112="" fill-rule="evenodd" clip-rule="evenodd" style="color: inherit" d="M15 6.803A5.972 5.972 0 0 0 12 6a5.972 5.972 0 0 0-3 .803l1.2 2.077A3.572 3.572 0 0 1 12 8.4c.66 0 1.271.175 1.799.48L15 6.803ZM6.804 9l2.076 1.2A3.572 3.572 0 0 0 8.4 12c0 .66.175 1.271.48 1.799L6.803 15A5.972 5.972 0 0 1 6 12c0-1.093.292-2.118.803-3ZM9 17.197l1.2-2.077c.528.305 1.14.48 1.799.48.66 0 1.271-.175 1.799-.48L15 17.197A5.972 5.972 0 0 1 12 18a5.972 5.972 0 0 1-3-.803Zm8.197-2.196c.51-.883.803-1.908.803-3.001a5.972 5.972 0 0 0-.803-3l-2.077 1.2c.305.528.48 1.14.48 1.799 0 .66-.175 1.271-.48 1.799L17.197 15Z" />
</svg>