<svg xmlns="http://www.w3.org/2000/svg" viewBox="0 0 24 24" fill="none">
  <path _ngcontent-ng-c1909134112="" fill="#6C00CB" style="color: inherit" d="M22.471 19.801h-3.83a.536.536 0 0 1-.528-.542V4.744c0-.3.238-.542.528-.542h3.83c.293 0 .529.242.529.542V19.26a.536.536 0 0 1-.529.542Zm-17.048-.187 6.35-12.969a.549.549 0 0 0-.235-.729L8.116 4.15a.522.522 0 0 0-.71.241L1.056 17.36a.55.55 0 0 0 .235.729l3.422 1.765a.525.525 0 0 0 .71-.24Zm9.398-.052 2.716-14.135a.542.542 0 0 0-.414-.638l-3.755-.778a.531.531 0 0 0-.624.425v.002l-2.717 14.135a.542.542 0 0 0 .415.638l3.755.778a.531.531 0 0 0 .624-.425v-.002Z" />
</svg>