<svg xmlns="http://www.w3.org/2000/svg" viewBox="0 0 24 24" fill="none">
  <path _ngcontent-ng-c1909134112="" fill="currentColor" fill-rule="evenodd" clip-rule="evenodd" style="color: inherit" d="M22.9 1.707a3 3 0 0 0-4.243 0l-4.324 4.324a2 2 0 0 0-.572 1.179l-.19 1.604a2 2 0 0 0 2.222 2.222l1.604-.19a2 2 0 0 0 1.179-.572L22.9 5.95a3 3 0 0 0 0-4.243Zm-2.83 1.414a1 1 0 1 1 1.414 1.414L17.162 8.86l-1.605.19.19-1.604 4.324-4.324ZM13 3a1 1 0 1 0-2 0v1.055A9.004 9.004 0 0 0 3.055 12H2a1 1 0 1 0 0 2h1.055A9.004 9.004 0 0 0 11 21.945V23a1 1 0 1 0 2 0v-1.055A9.004 9.004 0 0 0 20.945 14H22a1 1 0 1 0 0-2h-4a1 1 0 1 0 0 2h.93A7.004 7.004 0 0 1 13 19.929v-.93a1 1 0 1 0-2 0v.93a7.004 7.004 0 0 1-5.93-5.93H6a1 1 0 1 0 0-2h-.93A7.005 7.005 0 0 1 11 6.072V7a1 1 0 1 0 2 0V3Zm-3 10a2 2 0 1 1 4 0 2 2 0 0 1-4 0Z" />
</svg>