<svg xmlns="http://www.w3.org/2000/svg" viewBox="0 0 24 24" fill="none">
  <path _ngcontent-ng-c1909134112="" fill="currentColor" style="color: inherit" d="M14.703 19.735a.746.746 0 0 1 .209-.375l3.818-3.735a.259.259 0 0 1 .362 0l1.662 1.628a.248.248 0 0 1 0 .352l-3.807 3.724a.772.772 0 0 1-.411.209l-1.859.314a.314.314 0 0 1-.273-.088.297.297 0 0 1-.08-.271l.38-1.756v-.002Zm5.218-4.921a.248.248 0 0 1 0-.354l.76-.743a.82.82 0 0 1 .578-.235.834.834 0 0 1 .579.235l.866.849a.8.8 0 0 1 .24.566.785.785 0 0 1-.24.565l-.759.742a.26.26 0 0 1-.36 0l-1.664-1.626Z" />
  <path _ngcontent-ng-c1909134112="" fill="currentColor" fill-rule="evenodd" clip-rule="evenodd" style="color: inherit" d="M11.853 4C9.82 4 7.87 4.79 6.432 6.197A7.418 7.418 0 0 0 4.186 11.5c0 1.99.808 3.897 2.246 5.303A7.754 7.754 0 0 0 11.853 19c.264.01.514.12.697.306a.99.99 0 0 1 0 1.387 1.033 1.033 0 0 1-.697.306 9.87 9.87 0 0 1-5.344-1.567 9.554 9.554 0 0 1-3.58-4.187 9.31 9.31 0 0 1-.634-5.423 9.426 9.426 0 0 1 2.522-4.869A9.765 9.765 0 0 1 9.66 2.246a9.915 9.915 0 0 1 5.569.347 9.692 9.692 0 0 1 4.453 3.288 9.37 9.37 0 0 1 1.868 5.143.988.988 0 0 1-.272.707 1.037 1.037 0 0 1-1.428.07.992.992 0 0 1-.342-.678 7.431 7.431 0 0 0-2.373-5.057A7.759 7.759 0 0 0 11.853 4Z" />
  <path _ngcontent-ng-c1909134112="" fill="currentColor" fill-rule="evenodd" clip-rule="evenodd" style="color: inherit" d="M11.838 5.763c.564 0 1.024.445 1.026.997l.012 4.767a.985.985 0 0 1-.154.53c-.101.16-.246.287-.418.37l-3.869 1.86a1.043 1.043 0 0 1-1.127-.147 1.004 1.004 0 0 1-.346-.687.981.981 0 0 1 .253-.726c.089-.098.197-.179.317-.237l3.297-1.584-.013-4.142c0-.551.457-1.002 1.022-1.002Z" />
</svg>