<svg xmlns="http://www.w3.org/2000/svg" viewBox="0 0 24 24" fill="currentColor">
  <path _ngcontent-ng-c1909134112="" fill-rule="evenodd" clip-rule="evenodd" style="color: inherit" d="M13.772 2.692a1 1 0 0 1 1.366.366l6.728 11.654a1 1 0 1 1-1.732 1L13.406 4.058a1 1 0 0 1 .366-1.366Z" />
  <path _ngcontent-ng-c1909134112="" fill-rule="evenodd" clip-rule="evenodd" style="color: inherit" d="M15.311 3.442a1 1 0 0 1 .048 1.414L4.237 16.752l.32.557 15.865-3.684a1 1 0 0 1 .452 1.948l-6.702 1.557a3.472 3.472 0 0 1-.018 1.711 3.492 3.492 0 0 1-1.627 2.127 3.525 3.525 0 0 1-2.656.36 3.508 3.508 0 0 1-2.139-1.615l-.002-.004-.555-.955-2.887.67a1 1 0 0 1-1.092-.473l-1.062-1.84a1 1 0 0 1 .136-1.183L13.898 3.49a1 1 0 0 1 1.413-.048Zm-6.098 14.84.244.418v.001a1.522 1.522 0 0 0 2.068.536c.345-.2.595-.528.696-.908.066-.247.065-.504.002-.747l-3.01.7Z" />
</svg>