<svg xmlns="http://www.w3.org/2000/svg" viewBox="0 0 24 24" fill="none">
  <path _ngcontent-ng-c1909134112="" fill="currentColor" fill-rule="evenodd" clip-rule="evenodd" style="color: inherit" d="M12 4a8 8 0 1 1-3.531 15.18 1.09 1.09 0 0 0-.67-.096 220.21 220.21 0 0 0-3.533.65 222.2 222.2 0 0 0 .65-3.533 1.09 1.09 0 0 0-.097-.67A8 8 0 0 1 12 4Zm10 8c0-5.523-4.477-10-10-10S2 6.477 2 12c0 1.475.32 2.879.895 4.142-.36 2.042-.748 4.016-.85 4.533a1.089 1.089 0 0 0 1.28 1.28c.517-.102 2.49-.49 4.534-.85A9.966 9.966 0 0 0 12 22c5.523 0 10-4.477 10-10Zm-5-2a1 1 0 0 0-1-1H8a1 1 0 1 0 0 2h8a1 1 0 0 0 1-1Zm-3 4a1 1 0 0 0-1-1H8a1 1 0 1 0 0 2h5a1 1 0 0 0 1-1Z" />
</svg>