<svg xmlns="http://www.w3.org/2000/svg" viewBox="0 0 24 24" fill="none">
  <path _ngcontent-ng-c1909134112="" fill="currentColor" fill-rule="evenodd" clip-rule="evenodd" style="color: inherit" d="M12 3a3 3 0 0 0-3 3v4.333A2.667 2.667 0 0 0 11.667 13h.666c.842 0 1.593-.39 2.082-1H13a1 1 0 1 1 0-2h2V9h-2a1 1 0 1 1 0-2h2V6h-2a1 1 0 1 1 0-2h1.236c-.55-.614-1.348-1-2.236-1ZM7 6a5 5 0 0 1 10 0v4.333A4.667 4.667 0 0 1 12.333 15h-.666A4.667 4.667 0 0 1 7 10.333V6Zm-2 4a1 1 0 0 1 1 1 5 5 0 0 0 5 5h2a5 5 0 0 0 5-5 1 1 0 1 1 2 0 7 7 0 0 1-7 7v2h1.5a1 1 0 1 1 0 2h-5a1 1 0 1 1 0-2H11v-2a7 7 0 0 1-7-7 1 1 0 0 1 1-1Z" />
</svg>