<svg xmlns="http://www.w3.org/2000/svg" viewBox="0 0 24 24" fill="currentColor">
  <path _ngcontent-ng-c1909134112="" fill-rule="evenodd" clip-rule="evenodd" style="color: inherit" d="M3.356 1.235a1 1 0 0 1 1.409.12l16 19a1 1 0 1 1-1.53 1.29l-3.526-4.189A6.98 6.98 0 0 1 13 18v2h1.5a1 1 0 1 1 0 2h-5a1 1 0 1 1 0-2H11v-2a7 7 0 0 1-7-7 1 1 0 1 1 2 0 5 5 0 0 0 5 5h2c.462 0 .908-.062 1.332-.179l-.819-.972a4.643 4.643 0 0 1-1.18.151h-.666A4.667 4.667 0 0 1 7 10.333V7.115l-3.765-4.47a1 1 0 0 1 .12-1.41ZM9 9.49v.843A2.667 2.667 0 0 0 11.667 13h.289L9 9.49ZM12 3c-.71 0-1.36.246-1.874.657a1 1 0 0 1-1.251-1.56A5 5 0 0 1 17 6v4.333a1 1 0 0 1-2 0V9h-1a1 1 0 1 1 0-2h1V6h-2a1 1 0 1 1 0-2h1.236c-.55-.614-1.348-1-2.236-1Zm7 7a1 1 0 0 1 1 1c0 .92-.178 1.802-.503 2.61a1 1 0 0 1-1.856-.746A4.982 4.982 0 0 0 18 11a1 1 0 0 1 1-1Z" />
</svg>