<svg xmlns="http://www.w3.org/2000/svg" viewBox="0 0 24 24" fill="currentColor">
  <path _ngcontent-ng-c1909134112="" fill-rule="evenodd" clip-rule="evenodd" style="color: inherit" d="M8 6a4 4 0 1 1 6.905 2.75A5.998 5.998 0 0 1 18 14v.126A4.002 4.002 0 0 1 17 22a4 4 0 0 1-1-7.874V14a4 4 0 0 0-8 0v.126A4.002 4.002 0 0 1 7 22a4 4 0 0 1-1-7.874V14c0-2.26 1.25-4.227 3.094-5.25A3.986 3.986 0 0 1 8 6ZM7 16a2 2 0 1 0 0 4 2 2 0 0 0 0-4Zm10 0a2 2 0 1 0 0 4 2 2 0 0 0 0-4ZM12 4a2 2 0 1 0 0 4 2 2 0 0 0 0-4Z" />
</svg>