<svg xmlns="http://www.w3.org/2000/svg" viewBox="0 0 24 24" fill="currentColor">
  <path _ngcontent-ng-c1909134112="" fill-rule="evenodd" clip-rule="evenodd" style="color: inherit" d="M14.354 4.25a2.751 2.751 0 0 1 2.646-2h2a2.75 2.75 0 1 1 0 5.5h-2a2.751 2.751 0 0 1-2.646-2H14c-.69 0-1.25.56-1.25 1.25v4.25h1.604a2.751 2.751 0 0 1 2.646-2h2a2.75 2.75 0 1 1 0 5.5h-2a2.751 2.751 0 0 1-2.646-2H12.75V17c0 .69.56 1.25 1.25 1.25h.354a2.751 2.751 0 0 1 2.646-2h2a2.75 2.75 0 1 1 0 5.5h-2a2.751 2.751 0 0 1-2.646-2H14A2.75 2.75 0 0 1 11.25 17v-4.25H9.646a2.751 2.751 0 0 1-2.646 2H5a2.75 2.75 0 1 1 0-5.5h2a2.75 2.75 0 0 1 2.646 2h1.604V7A2.75 2.75 0 0 1 14 4.25h.354ZM17 3.75a1.25 1.25 0 1 0 0 2.5h2a1.25 1.25 0 1 0 0-2.5h-2Zm-12 7a1.25 1.25 0 1 0 0 2.5h2a1.25 1.25 0 1 0 0-2.5H5ZM15.75 19c0-.69.56-1.25 1.25-1.25h2a1.25 1.25 0 1 1 0 2.5h-2c-.69 0-1.25-.56-1.25-1.25ZM17 10.75a1.25 1.25 0 1 0 0 2.5h2a1.25 1.25 0 1 0 0-2.5h-2Z" />
</svg>