<svg xmlns="http://www.w3.org/2000/svg" viewBox="0 0 24 24" fill="none">
  <path _ngcontent-ng-c1909134112="" fill="currentColor" fill-rule="evenodd" clip-rule="evenodd" style="color: inherit" d="M6.667 2.5h6.666c.92 0 1.667.746 1.667 1.667v11.666c0 .92-.746 1.667-1.667 1.667H6.667C5.747 17.5 5 16.754 5 15.833V4.167c0-.92.746-1.667 1.667-1.667ZM3.333 4.167A3.333 3.333 0 0 1 6.667.833h6.666a3.333 3.333 0 0 1 3.334 3.334v11.666a3.333 3.333 0 0 1-3.334 3.334H6.667a3.333 3.333 0 0 1-3.334-3.334V4.167Zm6.25 0a.833.833 0 0 0 0 1.666h.834a.833.833 0 0 0 0-1.666h-.834Z" />
</svg>