<svg xmlns="http://www.w3.org/2000/svg" viewBox="0 0 24 24" fill="currentColor">
  <path _ngcontent-ng-c1909134112="" fill-rule="evenodd" clip-rule="evenodd" style="color: inherit" d="M6.5 3A3.5 3.5 0 0 0 3 6.5v11A3.5 3.5 0 0 0 6.5 21h5a3.5 3.5 0 0 0 3.5-3.5v-1.056a1 1 0 0 0-2 0V17.5a1.5 1.5 0 0 1-1.5 1.5h-5A1.5 1.5 0 0 1 5 17.5v-11A1.5 1.5 0 0 1 6.5 5h5A1.5 1.5 0 0 1 13 6.5v1.056a1 1 0 1 0 2 0V6.5A3.5 3.5 0 0 0 11.5 3h-5Zm11.707 5.293a1 1 0 1 0-1.414 1.414L18.086 11H8.5a1 1 0 1 0 0 2h9.586l-1.293 1.293a1 1 0 0 0 1.414 1.414l3-3a1 1 0 0 0 0-1.414l-3-3Z" />
</svg>