<svg xmlns="http://www.w3.org/2000/svg" viewBox="0 0 24 24" fill="currentColor">
  <path _ngcontent-ng-c1909134112="" fill-rule="evenodd" clip-rule="evenodd" style="color: inherit" d="M6.414 3.172A4 4 0 0 1 9.243 2H15a4 4 0 0 1 4 4h-2a2 2 0 0 0-2-2h-4v5a1 1 0 0 1-1 1H5v8a2 2 0 0 0 2 2h8a2 2 0 0 0 2-2h2a4 4 0 0 1-4 4H7a4 4 0 0 1-4-4V8.243a4 4 0 0 1 1.172-2.829l2.242-2.242Zm1.414 1.414A2 2 0 0 1 9 4.015V8H5.015a2 2 0 0 1 .57-1.172l2.243-2.242Zm10.88 3.707a1 1 0 1 0-1.415 1.414L18.586 11H14a1 1 0 1 0 0 2h4.586l-1.293 1.293a1 1 0 0 0 1.414 1.414l3-3a1 1 0 0 0 0-1.414l-3-3Z" />
</svg>