<svg xmlns="http://www.w3.org/2000/svg" viewBox="0 0 24 24" fill="none">
  <path _ngcontent-ng-c1909134112="" fill="#5059C9" style="color: inherit" d="M15.497 9.75h4.998c.472 0 .855.383.855.855v4.553a3.142 3.142 0 0 1-3.142 3.142h-.015a3.142 3.142 0 0 1-3.143-3.142v-4.961c0-.247.2-.447.447-.447Zm3.378-.9a2.025 2.025 0 1 0 0-4.05 2.025 2.025 0 0 0 0 4.05Z" />
  <path _ngcontent-ng-c1909134112="" fill="#7B83EB" style="color: inherit" d="M12.575 8.85a2.925 2.925 0 1 0 0-5.85 2.925 2.925 0 0 0 0 5.85Zm3.9.9s-7.784-.012-8.25 0a.846.846 0 0 0-.825.865v5.193A5.076 5.076 0 0 0 12.35 21a5.076 5.076 0 0 0 4.95-5.192v-5.193a.846.846 0 0 0-.825-.865Z" />
  <path _ngcontent-ng-c1909134112="" fill="#000" style="color: inherit" d="M11.9 7.873v.896A2.925 2.925 0 0 1 9.875 7.05h1.201c.455.002.822.37.824.824Z" />
  <path _ngcontent-ng-c1909134112="" fill="#5059C9" style="color: inherit" d="M2.825 7.05h8.25c.456 0 .825.37.825.825v8.25c0 .456-.37.825-.825.825h-8.25A.825.825 0 0 1 2 16.125v-8.25c0-.456.37-.825.825-.825Z" />
  <path _ngcontent-ng-c1909134112="" fill="#fff" style="color: inherit" d="M9.12 10.19H7.473v4.491H6.42v-4.49H4.779v-.872h4.342v.871Z" />
</svg>