<svg xmlns="http://www.w3.org/2000/svg" viewBox="0 0 24 24" fill="currentColor">
  <path _ngcontent-ng-c1909134112="" fill-rule="evenodd" clip-rule="evenodd" style="color: inherit" d="M6 5a3 3 0 0 1 3-3h10a3 3 0 0 1 3 3v10a3 3 0 0 1-3 3h-1v1a3 3 0 0 1-3 3H5a3 3 0 0 1-3-3V9a3 3 0 0 1 3-3h1V5ZM5 8a1 1 0 0 0-1 1v10a1 1 0 0 0 1 1h10a1 1 0 0 0 1-1V9a1 1 0 0 0-1-1H5Zm3-2V5a1 1 0 0 1 1-1h10a1 1 0 0 1 1 1v10a1 1 0 0 1-1 1h-1V9a3 3 0 0 0-3-3H8Zm-3 5a1 1 0 0 1 1-1h.01a1 1 0 1 1 0 2H6a1 1 0 0 1-1-1Zm3 0a1 1 0 0 1 1-1h5a1 1 0 1 1 0 2H9a1 1 0 0 1-1-1Zm-3 3a1 1 0 0 1 1-1h.01a1 1 0 1 1 0 2H6a1 1 0 0 1-1-1Zm3 0a1 1 0 0 1 1-1h5a1 1 0 1 1 0 2H9a1 1 0 0 1-1-1Zm-3 3a1 1 0 0 1 1-1h.01a1 1 0 1 1 0 2H6a1 1 0 0 1-1-1Zm3 0a1 1 0 0 1 1-1h5a1 1 0 1 1 0 2H9a1 1 0 0 1-1-1Z" />
</svg>