<svg xmlns="http://www.w3.org/2000/svg" viewBox="0 0 24 24" fill="none">
  <path _ngcontent-ng-c1909134112="" fill="currentColor" fill-rule="evenodd" clip-rule="evenodd" style="color: inherit" d="M14.209 3.877a3 3 0 0 1 4.242 0l1.672 1.672a3 3 0 0 1 0 4.242l-1.916 1.916-2 2-1.414-1.414L16.086 11 13 7.914l-1.293 1.293-1.414-1.414 2-2 1.916-1.916Zm.205 2.623L17.5 9.586l1.209-1.209a1 1 0 0 0 0-1.414L17.037 5.29l.707-.707-.707.707a1 1 0 0 0-1.414 0L14.414 6.5ZM3.293 5.293a1 1 0 0 1 1.414 0l14 14a1 1 0 0 1-1.414 1.414l-4.043-4.043-3.29 3.29-.708-.706.708.707a2 2 0 0 1-1.216.576l-4.644.464A1 1 0 0 1 3.005 19.9l.464-4.644a2 2 0 0 1 .576-1.216l3.29-3.29-4.042-4.043a1 1 0 0 1 0-1.414Zm5.457 6.871-3.29 3.29-.343 3.43 3.428-.343 3.29-3.29-3.085-3.087Z" />
</svg>