<svg xmlns="http://www.w3.org/2000/svg" viewBox="0 0 24 24" fill="currentColor">
  <path _ngcontent-ng-c1909134112="" fill-rule="evenodd" clip-rule="evenodd" style="color: inherit" d="M21.498 17.552A10.949 10.949 0 0 0 23 12c0-6.075-4.925-11-11-11a10.95 10.95 0 0 0-5.552 1.502L7.92 3.975A9 9 0 0 1 20.025 16.08l1.473 1.473ZM4.801 3.683A10.975 10.975 0 0 0 1 12c0 6.075 4.925 11 11 11 3.322 0 6.3-1.473 8.317-3.8L4.8 3.683ZM12 21A9 9 0 0 1 4.968 6.382L7.88 9.294c.06.59.275 1.18.644 1.733.534.802 1.38 1.165 2.105 1.375.132.039.266.074.4.106v3.546a5.203 5.203 0 0 1-1.787-.993 1 1 0 1 0-1.301 1.518 7.23 7.23 0 0 0 3.089 1.547v.75a1 1 0 0 0 2 0v-.606c.077-.008.154-.016.23-.026.869-.116 1.715-.444 2.358-1.053l.08-.079 1.92 1.92A8.962 8.962 0 0 1 12 21Zm1.03-13.45v1.34L9.947 5.807c.336-.159.699-.275 1.083-.346v-.337a1 1 0 0 1 2 0v.37c.834.166 1.712.518 2.592 1.078A1 1 0 1 1 14.55 8.26a5.965 5.965 0 0 0-1.52-.71Zm1.254 8.148-1.255-1.254v1.813c.547-.079.955-.273 1.214-.518l.04-.041Z" />
</svg>