<svg xmlns="http://www.w3.org/2000/svg" viewBox="0 0 24 24" fill="currentColor">
  <path _ngcontent-ng-c1909134112="" fill-rule="evenodd" clip-rule="evenodd" style="color: inherit" d="M5.423 8.6c0 2.86-1.574 5.613-2.51 6.983C2.256 16.544 2.886 18 4.18 18h15.538c1.295 0 1.925-1.456 1.268-2.417-.935-1.37-2.51-4.124-2.51-6.983v-.032l-.002-.064a7.952 7.952 0 0 0-.097-.94 7.949 7.949 0 0 0-.694-2.204c-.403-.817-1.024-1.668-1.977-2.312C14.747 2.398 13.51 2 11.95 2s-2.797.399-3.757 1.048c-.953.644-1.574 1.495-1.977 2.312a7.948 7.948 0 0 0-.693 2.204 7.959 7.959 0 0 0-.1 1.004V8.6Zm2.012.003C7.434 11.6 6.052 14.366 5.037 16h13.826c-1.015-1.635-2.397-4.4-2.398-7.397V8.6h.003-.003v-.03a5.982 5.982 0 0 0-.072-.684 5.958 5.958 0 0 0-.515-1.646c-.288-.583-.702-1.132-1.302-1.538C13.984 4.302 13.15 4 11.95 4s-2.034.301-2.626.702c-.6.406-1.014.955-1.302 1.538a5.96 5.96 0 0 0-.514 1.646 5.973 5.973 0 0 0-.073.714v.003Zm3.939 11.412a1 1 0 0 0-1.768.932l.002.005-.002-.004v.001l.002.002.002.005.005.01.013.024.036.061a2.435 2.435 0 0 0 .54.605c.398.319.99.594 1.796.594.805 0 1.398-.275 1.797-.594a2.441 2.441 0 0 0 .54-.605l.035-.06.013-.025.005-.01.002-.005.001-.002-.021-.002h.023a1 1 0 0 0-1.77-.932l-.001.002a.447.447 0 0 1-.077.077c-.07.056-.227.156-.547.156-.32 0-.477-.1-.547-.156a.445.445 0 0 1-.077-.077l-.002-.002Z" />
</svg>