<svg xmlns="http://www.w3.org/2000/svg" viewBox="0 0 24 24" fill="currentColor">
  <path _ngcontent-ng-c1909134112="" fill-rule="evenodd" clip-rule="evenodd" style="color: inherit" d="M2.2 4a.2.2 0 0 0-.2.2v1.1c0 .11.09.2.2.2h.933c.11 0 .2.09.2.2v2.6a.2.2 0 0 1-.2.2H2.2a.2.2 0 0 0-.2.2v1.1c0 .11.09.2.2.2h3.6a.2.2 0 0 0 .2-.2V8.7a.2.2 0 0 0-.2-.2h-.933a.2.2 0 0 1-.2-.2V4.2a.2.2 0 0 0-.2-.2H2.2ZM8 5a1 1 0 0 1 1-1h12a1 1 0 0 1 0 2H9a1 1 0 0 1-1-1Zm1 6a1 1 0 1 0 0 2h12a1 1 0 0 0 0-2H9Zm0 7a1 1 0 1 0 0 2h12a1 1 0 0 0 0-2H9Zm-3.2-4H2.2a.2.2 0 0 0-.2.2v1.85c0 .11.09.2.2.2h.933a.2.2 0 0 0 .2-.2v-.35c0-.11.09-.2.2-.2h.934c.11 0 .2.09.2.2v.457a.2.2 0 0 1-.071.153L2.07 18.44a.2.2 0 0 0-.071.153V19.8c0 .11.09.2.2.2h3.6a.2.2 0 0 0 .2-.2v-1.1a.2.2 0 0 0-.2-.2H4.763a.2.2 0 0 1-.129-.353l1.295-1.087A.2.2 0 0 0 6 16.907V14.2a.2.2 0 0 0-.2-.2Z" />
</svg>