<svg xmlns="http://www.w3.org/2000/svg" viewBox="0 0 24 24" fill="none">
  <path _ngcontent-ng-c1909134112="" fill="#0364B8" style="color: inherit" d="m9.388 8.888 4.619 2.748 2.752-1.151a4.477 4.477 0 0 1 2.074-.352 6.82 6.82 0 0 0-2.01-3.335 6.918 6.918 0 0 0-7.4-1.228 6.854 6.854 0 0 0-2.995 2.507l.07-.002a5.5 5.5 0 0 1 2.89.814Z" />
  <path _ngcontent-ng-c1909134112="" fill="#0078D4" style="color: inherit" d="M9.389 8.888a5.5 5.5 0 0 0-2.89-.814l-.07.002a5.525 5.525 0 0 0-2.825.817 5.475 5.475 0 0 0-1.996 2.147 5.43 5.43 0 0 0 .38 5.62l4.071-1.703 7.947-3.321L9.39 8.888Z" />
  <path _ngcontent-ng-c1909134112="" fill="#1490DF" style="color: inherit" d="M18.833 10.133a4.48 4.48 0 0 0-2.073.352l-2.753 1.15 3.414 2.032 5.044 3a4.415 4.415 0 0 0-.022-4.25 4.452 4.452 0 0 0-1.512-1.6 4.49 4.49 0 0 0-2.098-.684Z" />
  <path _ngcontent-ng-c1909134112="" fill="#28A8EA" style="color: inherit" d="m17.421 13.667-3.413-2.031-7.949 3.321-4.072 1.703a5.48 5.48 0 0 0 1.967 1.72 5.52 5.52 0 0 0 2.545.62h12.032a4.49 4.49 0 0 0 2.291-.627c.693-.41 1.26-1 1.643-1.706l-5.044-3Z" />
</svg>