<svg xmlns="http://www.w3.org/2000/svg" viewBox="0 0 24 24" fill="currentColor">
  <path _ngcontent-ng-c1909134112="" fill-rule="evenodd" clip-rule="evenodd" style="color: inherit" d="M12 7a11.973 11.973 0 0 0-9.231 4.332 1 1 0 1 1-1.538-1.279A13.973 13.973 0 0 1 12 5c4.33 0 8.202 1.967 10.769 5.053a1 1 0 0 1-1.538 1.28A11.973 11.973 0 0 0 12 7Zm0 4a7.983 7.983 0 0 0-6.223 2.972 1 1 0 0 1-1.554-1.258A9.983 9.983 0 0 1 12 9a9.983 9.983 0 0 1 7.777 3.714 1 1 0 0 1-1.554 1.258A7.983 7.983 0 0 0 12 11Zm0 4a3.99 3.99 0 0 0-3.111 1.486 1 1 0 0 1-1.555-1.258A5.99 5.99 0 0 1 12 13a5.99 5.99 0 0 1 4.666 2.228 1 1 0 1 1-1.555 1.258A3.99 3.99 0 0 0 12 15Zm-1.414 2.586a2 2 0 1 1 2.828 2.828 2 2 0 0 1-2.828-2.828Z" />
</svg>