<svg xmlns="http://www.w3.org/2000/svg" viewBox="0 0 24 24" fill="none">
  <path _ngcontent-ng-c1909134112="" fill="currentColor" fill-rule="evenodd" clip-rule="evenodd" style="color: inherit" d="M8.707 16.207a1 1 0 1 1-1.414-1.414L16.086 6H12.5a1 1 0 1 1 0-2h6a1 1 0 0 1 1 1v6a1 1 0 1 1-2 0V7.414l-8.793 8.793ZM4 18.5a1 1 0 1 0 0 2h16a1 1 0 1 0 0-2H4Z" />
  <path _ngcontent-ng-c1909134112="" fill="currentColor" fill-rule="evenodd" clip-rule="evenodd" style="color: inherit" d="M8.707 16.207a1 1 0 0 1-1.414-1.414L16.086 6H12.5a1 1 0 1 1 0-2h6a1 1 0 0 1 1 1v6a1 1 0 1 1-2 0V7.414l-8.793 8.793ZM4 18.5a1 1 0 0 0 0 2h16a1 1 0 1 0 0-2H4Z" />
</svg>