<svg xmlns="http://www.w3.org/2000/svg" viewBox="0 0 24 24" fill="currentColor">
  <path _ngcontent-ng-c1909134112="" fill-rule="evenodd" clip-rule="evenodd" style="color: inherit" d="M22 4a1 1 0 0 0-1-1H3a1 1 0 0 0 0 2h18a1 1 0 0 0 1-1Zm-1.293 3.293a1 1 0 0 0-1.414 0l-4 4a1 1 0 0 0 0 1.414l4 4a1 1 0 0 0 1.414-1.414L17.414 12l3.293-3.293a1 1 0 0 0 0-1.414ZM13 9.33a1 1 0 0 0-1-1H3a1 1 0 0 0 0 2h9a1 1 0 0 0 1-1Zm0 5.33a1 1 0 0 0-1-1H3a1 1 0 1 0 0 2h9a1 1 0 0 0 1-1ZM22 20a1 1 0 0 0-1-1H3a1 1 0 1 0 0 2h18a1 1 0 0 0 1-1Z" />
</svg>