<svg xmlns="http://www.w3.org/2000/svg" viewBox="0 0 24 24" fill="none">
  <path _ngcontent-ng-c1909134112="" fill="#0364B8" style="color: inherit" d="M20.357 3H9.536a.884.884 0 0 0-.884.884v1.004l6.1 1.889 6.489-1.889V3.884A.884.884 0 0 0 20.357 3Z" />
  <path _ngcontent-ng-c1909134112="" fill="#0A2767" style="color: inherit" d="M22.28 12.697c.092-.29.165-.585.22-.884a.42.42 0 0 0-.21-.363l-.008-.005-.002-.001-6.823-3.887a.938.938 0 0 0-1.022 0l-6.822 3.887-.002.001-.008.005a.42.42 0 0 0-.21.363c.054.299.128.594.22.884l7.234 5.29 7.433-5.29Z" />
  <path _ngcontent-ng-c1909134112="" fill="#28A8EA" style="color: inherit" d="M17.464 4.888h-4.406l-1.272 1.889 1.272 1.888 4.406 3.777h3.777V8.665l-3.777-3.777Z" />
  <path _ngcontent-ng-c1909134112="" fill="#0078D4" style="color: inherit" d="M8.652 4.888h4.406v3.777H8.652V4.888Z" />
  <path _ngcontent-ng-c1909134112="" fill="#50D9FF" style="color: inherit" d="M17.464 4.888h3.777v3.777h-3.777V4.888Z" />
  <path _ngcontent-ng-c1909134112="" fill="#0364B8" style="color: inherit" d="m17.464 12.442-4.406-3.777H8.652v3.777l4.406 3.777 6.818 1.113-2.412-4.89Z" />
  <path _ngcontent-ng-c1909134112="" fill="#0078D4" style="color: inherit" d="M13.058 8.665h4.406v3.777h-4.406V8.665Z" />
  <path _ngcontent-ng-c1909134112="" fill="#064A8C" style="color: inherit" d="M8.652 12.442h4.406v3.777H8.652v-3.777Z" />
  <path _ngcontent-ng-c1909134112="" fill="#0078D4" style="color: inherit" d="M17.464 12.442h3.777v3.777h-3.777v-3.777Z" />
  <path _ngcontent-ng-c1909134112="" fill="#0A2767" opacity=".5" style="color: inherit" d="m15.066 17.615-7.423-5.413.311-.548 6.867 3.91a.332.332 0 0 0 .264-.007l6.882-3.922.313.547-7.214 5.433Z" />
  <path _ngcontent-ng-c1909134112="" fill="#1490DF" style="color: inherit" d="m22.29 12.176-.008.005-.002.001-6.822 3.886a.942.942 0 0 1-.92.058l2.376 3.185 5.196 1.131v.003a.945.945 0 0 0 .39-.764v-7.869a.419.419 0 0 1-.21.364Z" />
  <path _ngcontent-ng-c1909134112="" fill="#000" opacity=".05" style="color: inherit" d="M22.5 19.68v-.464l-6.284-3.58-.758.432a.942.942 0 0 1-.92.058l2.376 3.185 5.196 1.131v.003a.945.945 0 0 0 .39-.764Z" />
  <path _ngcontent-ng-c1909134112="" fill="#000" opacity=".1" style="color: inherit" d="m22.469 19.922-6.889-3.924-.122.07a.942.942 0 0 1-.92.058l2.376 3.185 5.196 1.131v.003a.945.945 0 0 0 .359-.523Z" />
  <path _ngcontent-ng-c1909134112="" fill="#28A8EA" style="color: inherit" d="M7.613 12.184v-.006h-.006l-.019-.013a.409.409 0 0 1-.195-.352v7.868a.943.943 0 0 0 .944.944h13.219a.944.944 0 0 0 .233-.032.402.402 0 0 0 .113-.037.66.66 0 0 0 .182-.095c.013-.006.02-.006.026-.018l-14.497-8.26Z" />
  <path _ngcontent-ng-c1909134112="" fill="#000" opacity=".1" style="color: inherit" d="M13.688 17.268V6.986a.842.842 0 0 0-.84-.839H8.671v4.694l-1.058.603H7.61l-.008.005a.42.42 0 0 0-.21.364v6.294h5.456a.841.841 0 0 0 .84-.839Z" />
  <path _ngcontent-ng-c1909134112="" fill="#000" opacity=".2" style="color: inherit" d="M13.058 17.898V7.616a.842.842 0 0 0-.84-.84H8.672v4.065l-1.058.603H7.61l-.008.005a.42.42 0 0 0-.21.364v6.924h4.827a.841.841 0 0 0 .839-.84Z" />
  <path _ngcontent-ng-c1909134112="" fill="#000" opacity=".2" style="color: inherit" d="M13.058 16.639V7.616a.842.842 0 0 0-.84-.84H8.672v4.065l-1.058.603H7.61l-.008.005a.42.42 0 0 0-.21.364v5.665h4.827a.842.842 0 0 0 .839-.84Z" />
  <path _ngcontent-ng-c1909134112="" fill="#000" opacity=".2" style="color: inherit" d="M12.428 16.639V7.616a.841.841 0 0 0-.839-.84H8.671v4.065l-1.058.603H7.61l-.008.005a.42.42 0 0 0-.21.364v5.665h4.197a.842.842 0 0 0 .84-.84Z" />
  <path _ngcontent-ng-c1909134112="" fill="#0078D4" style="color: inherit" d="M3.196 6.777h8.393a.839.839 0 0 1 .84.839v8.393a.84.84 0 0 1-.84.84H3.196a.84.84 0 0 1-.839-.84V7.616a.84.84 0 0 1 .84-.84Z" />
  <path _ngcontent-ng-c1909134112="" fill="#fff" style="color: inherit" d="M4.791 10.219a2.632 2.632 0 0 1 1.034-1.142 3.125 3.125 0 0 1 1.643-.412 2.906 2.906 0 0 1 1.519.39c.434.259.783.638 1.006 1.091.242.5.363 1.05.352 1.605a3.716 3.716 0 0 1-.363 1.679c-.227.47-.587.862-1.036 1.129a3.02 3.02 0 0 1-1.576.4 2.977 2.977 0 0 1-1.554-.394 2.647 2.647 0 0 1-1.018-1.093 3.436 3.436 0 0 1-.357-1.585 3.82 3.82 0 0 1 .35-1.668Zm1.102 2.68c.119.3.32.56.58.752.267.185.585.281.91.273.345.014.685-.085.97-.282.257-.19.453-.453.564-.754.124-.335.185-.69.18-1.048a3.19 3.19 0 0 0-.17-1.061 1.68 1.68 0 0 0-.545-.78A1.503 1.503 0 0 0 7.42 9.7a1.57 1.57 0 0 0-.93.276 1.72 1.72 0 0 0-.594.757 3.006 3.006 0 0 0-.005 2.166v-.001Z" />
</svg>