<svg xmlns="http://www.w3.org/2000/svg" viewBox="0 0 24 24" fill="none">
  <path _ngcontent-ng-c1909134112="" fill="var(--cu-background-main-inverse)" fill-opacity=".055" style="color: inherit" d="M2.667 6a5.333 5.333 0 1 1 10.666 0v4a5.333 5.333 0 1 1-10.666 0V6Z" />
  <path _ngcontent-ng-c1909134112="" fill="currentColor" fill-rule="evenodd" clip-rule="evenodd" style="color: inherit" d="M12 10V6a4 4 0 0 0-8 0v4a4 4 0 1 0 8 0ZM8 .667A5.333 5.333 0 0 0 2.667 6v4a5.333 5.333 0 1 0 10.666 0V6A5.333 5.333 0 0 0 8 .667Z" />
</svg>