<svg xmlns="http://www.w3.org/2000/svg" viewBox="0 0 24 24" fill="currentColor">
  <path _ngcontent-ng-c1909134112="" fill-rule="evenodd" clip-rule="evenodd" style="color: inherit" d="M3 6.5A3.5 3.5 0 0 1 6.5 3h1A3.5 3.5 0 0 1 11 6.5v11A3.5 3.5 0 0 1 7.5 21h-1A3.5 3.5 0 0 1 3 17.5v-11ZM6.5 5A1.5 1.5 0 0 0 5 6.5v11A1.5 1.5 0 0 0 6.5 19h1A1.5 1.5 0 0 0 9 17.5v-11A1.5 1.5 0 0 0 7.5 5h-1ZM13 6.5A3.5 3.5 0 0 1 16.5 3h1A3.5 3.5 0 0 1 21 6.5v11a3.5 3.5 0 0 1-3.5 3.5h-1a3.5 3.5 0 0 1-3.5-3.5v-11ZM16.5 5A1.5 1.5 0 0 0 15 6.5v11a1.5 1.5 0 0 0 1.5 1.5h1a1.5 1.5 0 0 0 1.5-1.5v-11A1.5 1.5 0 0 0 17.5 5h-1Z" />
</svg>