<svg xmlns="http://www.w3.org/2000/svg" viewBox="0 0 24 24" fill="none">
  <path _ngcontent-ng-c1909134112="" fill="currentColor" style="color: inherit" d="M6.445 2.293A1 1 0 0 0 5.03 3.707l15.586 15.586a1 1 0 0 0 1.414-1.414L6.445 2.293ZM5.5 8.6c0-.043.001-1.231.51-2.59l1.612 1.612a6.554 6.554 0 0 0-.113.807 3.82 3.82 0 0 0-.009.17v.004c0 2.996-1.377 5.762-2.388 7.397H16l2 2H4.26C2.976 18 2.345 16.546 3 15.583c.932-1.37 2.5-4.124 2.5-6.983Zm15.063 6.306-3.753-3.752a11.134 11.134 0 0 1-.31-2.551v-.011l-.002-.022a5.994 5.994 0 0 0-.072-.683 5.974 5.974 0 0 0-.512-1.646c-.286-.583-.699-1.133-1.296-1.539C14.027 4.302 13.196 4 12 4c-.82 0-1.467.141-1.984.36L8.531 2.873C9.445 2.328 10.59 2 12 2c1.553 0 2.785.399 3.74 1.048.95.644 1.568 1.494 1.97 2.311.399.814.594 1.615.69 2.204a8.002 8.002 0 0 1 .099 1.005V8.6l-1 .001h1c0 2.446 1.148 4.815 2.064 6.306ZM10.5 20.5c-.895.447-.894.448-.894.448v.001l.002.003.002.004.005.01.013.024.035.061a2.442 2.442 0 0 0 .54.605c.4.319.991.594 1.797.594.805 0 1.398-.275 1.796-.594a2.441 2.441 0 0 0 .54-.605l.036-.06.012-.025.006-.01.002-.004.001-.003c.001-.001.001-.002-.893-.449l.894.447a1 1 0 0 0-1.769-.932l-.001.002a.443.443 0 0 1-.077.077c-.07.056-.228.156-.547.156-.32 0-.477-.1-.547-.156a.443.443 0 0 1-.077-.077l-.002-.002a1 1 0 0 0-1.769.932l.895-.447Z" />
</svg>