<svg xmlns="http://www.w3.org/2000/svg" viewBox="0 0 24 24" fill="currentColor">
  <path _ngcontent-ng-c1909134112="" style="color: inherit" d="M21.75 8.25a.75.75 0 0 0 0-1.5H17.5a1 1 0 0 0-1 1v8.75a.75.75 0 0 0 1.5 0v-3.75h3a.75.75 0 0 0 0-1.5h-3v-2.5a.5.5 0 0 1 .5-.5h3.25ZM6 6.75H2.5a1 1 0 0 0-1 1v8.75a.75.75 0 0 0 1.5 0v-3h3A1.5 1.5 0 0 0 7.5 12V8.25A1.5 1.5 0 0 0 6 6.75Zm0 4.75a.5.5 0 0 1-.5.5H3V8.25h2.5a.5.5 0 0 1 .5.5v2.75Zm6 5.75h-2a1 1 0 0 1-1-1v-8.5a1 1 0 0 1 1-1h2a3 3 0 0 1 3 3v4.5a3 3 0 0 1-3 3Zm-1.5-1.5H12a1.5 1.5 0 0 0 1.5-1.5v-4.5a1.5 1.5 0 0 0-1.5-1.5h-1.5v7.5Z" />
</svg>