<svg xmlns="http://www.w3.org/2000/svg" viewBox="0 0 24 24" fill="currentColor">
  <path _ngcontent-ng-c1909134112="" fill-rule="evenodd" clip-rule="evenodd" style="color: inherit" d="M12.5 3c0-1.063.893-2.09 2.13-1.925a8.5 8.5 0 0 1 7.295 7.295c.165 1.237-.863 2.13-1.925 2.13h-5.5a2 2 0 0 1-2-2V3Zm2 .077V8.5h5.423A6.5 6.5 0 0 0 14.5 3.077Zm-5 3a6.5 6.5 0 1 0 7.423 7.423H11.5a2 2 0 0 1-2-2V6.077Zm-.13-2.002C10.608 3.91 11.5 4.937 11.5 6v5.5H17c1.063 0 2.09.892 1.925 2.13A8.5 8.5 0 1 1 9.37 4.075Z" />
</svg>