<svg xmlns="http://www.w3.org/2000/svg" viewBox="0 0 24 24" fill="none">
  <path _ngcontent-ng-c1909134112="" fill="currentColor" style="color: inherit" d="M6.961 3c0-.552.452-1 1.008-1h8.062c.556 0 1.008.448 1.008 1s-.452 1-1.008 1h-1.353l.474 4.188c.035.302.206.57.463.737 1.116.724 3.015 2.187 3.378 5.076.069.549-.39.999-.947.999h-5.038v6c0 .552-.451 1-1.008 1a1.004 1.004 0 0 1-1.008-1v-6H5.954c-.557 0-1.016-.45-.947-.998.363-2.89 2.262-4.353 3.378-5.077.257-.167.429-.435.463-.737L9.322 4H7.969a1.004 1.004 0 0 1-1.008-1Z" />
</svg>