<svg xmlns="http://www.w3.org/2000/svg" viewBox="0 0 24 24" fill="none">
  <path _ngcontent-ng-c1909134112="" fill="currentColor" fill-rule="evenodd" clip-rule="evenodd" style="color: inherit" d="M20.523 3.081a1.989 1.989 0 0 1 1.875.358 1.99 1.99 0 0 1 .681 1.997l-3.547 15.375c-.405 1.753-2.738 2.122-3.664.579l-1.76-2.934-2.515 1.85a1 1 0 0 1-1.581-.958l.848-5.512-7.806-1.2C.966 12.314.738 9.396 2.75 8.753l17.773-5.672ZM12.567 15.89l.507.845-.718.528.211-1.373Zm-.884-3.95 6.78-6.1-15.105 4.82 8.325 1.28Zm1.598 1.253 4.302 7.169 3.215-13.934-7.517 6.765Z" />
</svg>