<svg xmlns="http://www.w3.org/2000/svg" viewBox="0 0 24 24" fill="currentColor">
  <path _ngcontent-ng-c1909134112="" fill-rule="evenodd" clip-rule="evenodd" style="color: inherit" d="M12 4a8 8 0 1 0 0 16 8 8 0 0 0 0-16ZM2 12C2 6.477 6.477 2 12 2s10 4.477 10 10-4.477 10-10 10S2 17.523 2 12Zm6-2.65c0-1.812 1.976-2.93 3.53-1.998l4.415 2.65c1.508.905 1.508 3.09 0 3.996l-4.416 2.65C9.976 17.58 8 16.462 8 14.65v-5.3Zm2.5-.283a.33.33 0 0 0-.5.282v5.301c0 .257.28.415.5.283l4.415-2.65a.33.33 0 0 0 0-.566L10.5 9.067Z" />
</svg>