<svg xmlns="http://www.w3.org/2000/svg" viewBox="0 0 24 24" fill="currentColor">
  <path _ngcontent-ng-c1909134112="" fill-rule="evenodd" clip-rule="evenodd" style="color: inherit" d="M2.407 3.74a3.667 3.667 0 0 1 5.185 0L8 4.149l.407-.407a3.667 3.667 0 1 1 5.185 5.185L9.65 12.87a2.333 2.333 0 0 1-3.3 0L2.407 8.926a3.667 3.667 0 0 1 0-5.185Zm4.243.944a2.333 2.333 0 0 0-3.3 3.3l3.943 3.942a1 1 0 0 0 1.414 0l3.943-3.943a2.333 2.333 0 1 0-3.3-3.3l-.879.88a.667.667 0 0 1-.943 0l-.878-.88Z" />
</svg>