<svg xmlns="http://www.w3.org/2000/svg" viewBox="0 0 24 24" fill="currentColor">
  <path _ngcontent-ng-c1909134112="" fill-rule="evenodd" clip-rule="evenodd" style="color: inherit" d="M14 4h-4a1 1 0 0 0-1 1v1h6V5a1 1 0 0 0-1-1ZM7 5v1H6a3 3 0 0 0-3 3v9a3 3 0 0 0 3 3h12a3 3 0 0 0 3-3V9a3 3 0 0 0-3-3h-1V5a3 3 0 0 0-3-3h-4a3 3 0 0 0-3 3Zm12 6V9a1 1 0 0 0-1-1H6a1 1 0 0 0-1 1v2h3.538a1 1 0 0 1 .975.775l.07.302a2.481 2.481 0 0 0 4.835 0l.07-.302A1 1 0 0 1 15.46 11H19ZM5 13h2.77a4.482 4.482 0 0 0 8.46 0H19v5a1 1 0 0 1-1 1H6a1 1 0 0 1-1-1v-5Z" />
</svg>