<svg xmlns="http://www.w3.org/2000/svg" viewBox="0 0 24 24" fill="none">
  <path _ngcontent-ng-c1909134112="" fill="currentColor" fill-rule="evenodd" clip-rule="evenodd" style="color: inherit" d="m12.569 2.177-.015-.01h-.002a.999.999 0 0 0-1.105 0l-.016.01-.081.05a7.366 7.366 0 0 1-.36.199c-.324.17-.815.4-1.457.634C8.25 3.527 6.365 4 4 4a1 1 0 0 0-1 1v8c0 1.521.608 2.906 1.43 4.087.821 1.182 1.898 2.218 2.94 3.064a25.604 25.604 0 0 0 4.153 2.728l.02.01.007.004.002.001a1 1 0 0 0 .8.042l.386-.157A19.234 19.234 0 0 0 16.6 20.55C18.685 18.986 21 16.477 21 13V5a1 1 0 0 0-1-1c-2.366 0-4.25-.473-5.533-.94a12.146 12.146 0 0 1-1.458-.634 7.358 7.358 0 0 1-.44-.249Zm-.516 18.718A17.243 17.243 0 0 0 15.4 18.95C17.314 17.514 19 15.523 19 13V5.974a17.983 17.983 0 0 1-5.217-1.034A14.132 14.132 0 0 1 12 4.155a14.132 14.132 0 0 1-1.783.785A17.983 17.983 0 0 1 5 5.974V13c0 .979.392 1.97 1.07 2.945.679.974 1.602 1.875 2.56 2.654a23.623 23.623 0 0 0 3.423 2.296Z" />
  <path _ngcontent-ng-c1909134112="" fill="currentColor" style="color: inherit" d="M16.207 10.707a1 1 0 0 0-1.414-1.414L11.5 12.586l-1.293-1.293a1 1 0 0 0-1.414 1.414l2 2a1 1 0 0 0 1.414 0l4-4Z" />
</svg>