<svg xmlns="http://www.w3.org/2000/svg" viewBox="0 0 24 24" fill="currentColor">
  <path _ngcontent-ng-c1909134112="" style="color: inherit" d="M11 17a1 1 0 1 0 2 0 1 1 0 0 0-2 0Zm1-15C6.48 2 2 6.48 2 12s4.48 10 10 10 10-4.48 10-10S17.52 2 12 2Zm0 18c-4.41 0-8-3.59-8-8s3.59-8 8-8 8 3.59 8 8-3.59 8-8 8Zm0-14a4 4 0 0 0-3.877 3.01c-.136.535.325.99.877.99s.98-.475 1.246-.958C10.587 8.422 11.246 8 12 8c1.1 0 2 .9 2 2 0 1.77-2.348 1.778-2.89 4.007-.13.537.338.993.89.993s.977-.47 1.217-.968C13.907 12.607 16 12.088 16 10c0-2.21-1.79-4-4-4Z" />
</svg>