<svg xmlns="http://www.w3.org/2000/svg" viewBox="0 0 24 24" fill="currentColor">
  <path _ngcontent-ng-c1909134112="" fill-rule="evenodd" clip-rule="evenodd" style="color: inherit" d="M19.463 2.114a1 1 0 0 1 .507 1.129L19.28 6h1.22a1 1 0 0 1 .753 1.659l-3.5 4a1 1 0 0 1-1.723-.902L16.72 8H15.5a1 1 0 0 1-.753-1.658l3.5-4a1 1 0 0 1 1.216-.228ZM7 6a2 2 0 0 0-2 2v10a2 2 0 0 0 2 2h10a2 2 0 0 0 2-2v-4a1 1 0 0 1 2 0v4a4 4 0 0 1-4 4H7a4 4 0 0 1-4-4V8a4 4 0 0 1 4-4h5a1 1 0 1 1 0 2H7Zm2.5 4a.5.5 0 0 0-.5.5v5a.5.5 0 0 0 .5.5h5a.5.5 0 0 0 .5-.5V14a1 1 0 0 1 2 0v1.5a2.5 2.5 0 0 1-2.5 2.5h-5A2.5 2.5 0 0 1 7 15.5v-5A2.5 2.5 0 0 1 9.5 8H12a1 1 0 1 1 0 2H9.5Z" />
</svg>