<svg xmlns="http://www.w3.org/2000/svg" viewBox="0 0 24 24" fill="currentColor">
  <path _ngcontent-ng-c1909134112="" fill-rule="evenodd" clip-rule="evenodd" style="color: inherit" d="M6.75 8C5.178 8 4 9.192 4 10.546c0 1.353 1.183 2.546 2.75 2.546a1 1 0 0 1 1 1v1.144l.096-.117c.835-1.036 1.654-2.614 1.654-4.573C9.5 9.192 8.322 8 6.75 8Zm-1 6.99v2.189a1.057 1.057 0 0 0 .74 1.016c.324.103.608.024.708-.006.256-.076.507-.227.711-.37.44-.308.976-.801 1.495-1.445 1.04-1.29 2.096-3.297 2.096-5.828C11.5 7.983 9.32 6 6.75 6S2 7.983 2 10.546c0 2.222 1.644 4.008 3.75 4.444ZM17.25 8c-1.572 0-2.75 1.192-2.75 2.546 0 1.353 1.183 2.546 2.75 2.546a1 1 0 0 1 1 1v1.144l.096-.117C19.181 14.084 20 12.506 20 10.546 20 9.192 18.822 8 17.25 8Zm-1 6.99v2.189a1.057 1.057 0 0 0 .74 1.016c.324.103.608.024.708-.006.256-.076.507-.227.711-.37.44-.308.976-.801 1.495-1.445 1.04-1.29 2.096-3.297 2.096-5.828C22 7.983 19.82 6 17.25 6s-4.75 1.983-4.75 4.546c0 2.222 1.643 4.008 3.75 4.444Z" />
</svg>