<svg xmlns="http://www.w3.org/2000/svg" viewBox="0 0 24 24" fill="none">
  <path _ngcontent-ng-c1909134112="" fill="currentColor" fill-rule="evenodd" clip-rule="evenodd" style="color: inherit" d="M4.126 7.639A8.998 8.998 0 0 1 12 3a8.993 8.993 0 0 1 7.654 4.263l.376-1.506a1 1 0 1 1 1.94.486l-1 4a1 1 0 0 1-1.212.727l-4-1a1 1 0 1 1 .485-1.94l1.81.453A6.998 6.998 0 0 0 12 5a6.998 6.998 0 0 0-6.126 3.61 1 1 0 0 1-1.748-.971Zm-.64 5.503a1 1 0 0 1 .757-.112l4 1a1 1 0 1 1-.486 1.94l-1.81-.453A6.998 6.998 0 0 0 12 19a6.998 6.998 0 0 0 6.126-3.61 1 1 0 0 1 1.748.971A8.998 8.998 0 0 1 12 21a8.993 8.993 0 0 1-7.654-4.263l-.376 1.506a1 1 0 1 1-1.94-.485l1-4a1 1 0 0 1 .456-.615Z" />
</svg>