<svg xmlns="http://www.w3.org/2000/svg" viewBox="0 0 24 24" fill="currentColor">
  <path _ngcontent-ng-c1909134112="" fill-rule="evenodd" clip-rule="evenodd" style="color: inherit" d="M12.002 6.067c0-1.835-2.218-2.754-3.516-1.457l-5.84 5.834a2.2 2.2 0 0 0 0 3.113l5.84 5.834c1.298 1.296 3.516.377 3.516-1.458v-2.146a6.41 6.41 0 0 1 2.892.236c1.533.48 3.455 1.67 5.264 4.514A1 1 0 0 0 22.002 20c0-5.044-2.022-8.045-4.415-9.775-2.074-1.5-4.344-1.985-5.585-2.145V6.067ZM9.999 6.04c0 .003.003.01.003.027v2.437c0 .819.64 1.452 1.4 1.522.927.085 3.097.435 5.014 1.82 1.323.956 2.58 2.444 3.194 4.816-1.39-1.36-2.808-2.137-4.118-2.548-2.009-.63-3.662-.366-4.404-.181-.702.176-1.086.806-1.086 1.413v2.587a.088.088 0 0 1-.003.027.022.022 0 0 1-.003.007.073.073 0 0 1-.031.022.073.073 0 0 1-.037.006.023.023 0 0 1-.007-.003.089.089 0 0 1-.021-.016l-5.841-5.834a.2.2 0 0 1 0-.283l5.84-5.834a.09.09 0 0 1 .022-.017.022.022 0 0 1 .007-.003.072.072 0 0 1 .037.007.072.072 0 0 1 .03.022.022.022 0 0 1 .004.006Z" />
</svg>