<svg xmlns="http://www.w3.org/2000/svg" viewBox="0 0 24 24" fill="none">
  <path _ngcontent-ng-c1909134112="" fill="currentColor" fill-rule="evenodd" clip-rule="evenodd" style="color: inherit" d="M4.337 7A3.5 3.5 0 0 1 7.5 2h.052c.306 0 .71-.001 1.135.148.458.162.85.46 1.27.86.282.269.604.714.891 1.142A36.17 36.17 0 0 1 12 5.996l.221-.371c.298-.494.625-1.02.93-1.475.288-.428.61-.873.891-1.141.464-.443.907-.72 1.367-.87.435-.14.82-.14 1.064-.139h.027a3.5 3.5 0 0 1 3.163 5H20a2 2 0 0 1 2 2v3a2 2 0 0 1-1 1.732V19a3 3 0 0 1-3 3H6a3 3 0 0 1-3-3v-5.268A2 2 0 0 1 2 12V9a2 2 0 0 1 2-2h.337ZM7.5 4c.379 0 .452.01.522.035.062.021.209.09.556.42.102.099.314.37.61.811A34.116 34.116 0 0 1 10.27 7H7.5a1.5 1.5 0 1 1 0-3Zm9 3a1.5 1.5 0 0 0 0-3c-.257 0-.36.006-.476.043-.107.035-.298.123-.602.413-.102.098-.314.369-.61.81A34.14 34.14 0 0 0 13.73 7h2.77ZM5 19v-5h6v6H6a1 1 0 0 1-1-1Zm8 1v-6h6v5a1 1 0 0 1-1 1h-5Zm0-11v3h7V9h-7Zm-2 3V9H4v3h7Z" />
</svg>