<svg xmlns="http://www.w3.org/2000/svg" viewBox="0 0 24 24" fill="none">
  <path _ngcontent-ng-c1909134112="" fill="var(--cu-background-main-inverse)" fill-opacity=".055" style="color: inherit" d="M5.003 3.772A3 3 0 0 1 7.913 1.5h14.245a3 3 0 0 1 2.91 3.728l-4.071 16.285a3 3 0 0 1-2.91 2.273H3.841a3 3 0 0 1-2.91-3.728L5.003 3.772Z" />
  <path _ngcontent-ng-c1909134112="" fill="currentColor" fill-rule="evenodd" clip-rule="evenodd" style="color: inherit" d="M22.158 3.5H7.914a1 1 0 0 0-.97.757L2.872 20.543a1 1 0 0 0 .97 1.243h14.244a1 1 0 0 0 .97-.758l4.072-16.285a1 1 0 0 0-.97-1.243Zm-14.244-2a3 3 0 0 0-2.91 2.272L.931 20.058a3 3 0 0 0 2.91 3.728h14.244a3 3 0 0 0 2.91-2.273l4.072-16.285a3 3 0 0 0-2.91-3.728H7.914Z" />
</svg>