<svg xmlns="http://www.w3.org/2000/svg" viewBox="0 0 24 24" fill="none">
  <path _ngcontent-ng-c1909134112="" fill="var(--cu-background-main-inverse)" fill-opacity=".055" style="color: inherit" d="M3.669 3.122a2 2 0 0 1 1.94-1.515h9.496a2 2 0 0 1 1.94 2.485L14.331 14.95a2 2 0 0 1-1.94 1.515H2.895a2 2 0 0 1-1.94-2.486L3.668 3.123Z" />
  <path _ngcontent-ng-c1909134112="" fill="currentColor" fill-rule="evenodd" clip-rule="evenodd" style="color: inherit" d="M15.105 2.94H5.609a.667.667 0 0 0-.647.506L2.248 14.303a.667.667 0 0 0 .647.828h9.496a.667.667 0 0 0 .646-.505L15.752 3.77a.667.667 0 0 0-.647-.828ZM5.609 1.608a2 2 0 0 0-1.94 1.515L.954 13.98a2 2 0 0 0 1.94 2.485h9.497a2 2 0 0 0 1.94-1.515l2.714-10.858a2 2 0 0 0-1.94-2.485H5.609Z" />
</svg>