<svg xmlns="http://www.w3.org/2000/svg" viewBox="0 0 24 24" fill="currentColor">
  <path _ngcontent-ng-c1909134112="" fill-rule="evenodd" clip-rule="evenodd" style="color: inherit" d="M1.786 3.3a1 1 0 0 1 1.102-.222l19 8a1 1 0 0 1 0 1.844l-19 8a1 1 0 0 1-1.301-1.329L4.967 12l-3.38-7.593A1 1 0 0 1 1.786 3.3Zm2.656 2.603 2.534 5.69a1 1 0 0 1 0 .814l-2.534 5.69L18.923 12 4.442 5.903Z" />
  <path _ngcontent-ng-c1909134112="" fill-rule="evenodd" clip-rule="evenodd" style="color: inherit" d="M5 12a1 1 0 0 1 1-1h15.5a1 1 0 1 1 0 2H6a1 1 0 0 1-1-1Z" />
</svg>