<svg xmlns="http://www.w3.org/2000/svg" viewBox="0 0 24 24" fill="none">
  <path _ngcontent-ng-c1909134112="" fill="currentColor" style="color: inherit" d="M13.591 3.904a1.869 1.869 0 0 0-2.521-.662c-.28.158-.516.386-.682.662L7.753 8.412a12.875 12.875 0 0 1 7.107 10.664h-1.85a11.064 11.064 0 0 0-6.19-9.088L4.382 14.2a6.374 6.374 0 0 1 3.695 4.868H3.83a.304.304 0 0 1-.248-.444l1.177-2a4.302 4.302 0 0 0-1.345-.76l-1.166 2a1.815 1.815 0 0 0 .677 2.496c.276.155.588.238.905.24h5.818a7.753 7.753 0 0 0-3.203-6.924l.925-1.6a9.551 9.551 0 0 1 4.124 8.524h4.93A14.34 14.34 0 0 0 9.85 7.88l1.87-3.2a.308.308 0 0 1 .42-.108c.213.116 8.125 13.908 8.273 14.068a.304.304 0 0 1-.272.452h-1.906c.024.51.024 1.017 0 1.524h1.914A1.84 1.84 0 0 0 22 18.772c0-.32-.085-.636-.248-.912l-8.16-13.956Z" />
</svg>