<svg xmlns="http://www.w3.org/2000/svg" viewBox="0 0 24 24" fill="none">
  <path _ngcontent-ng-c1909134112="" fill-rule="evenodd" clip-rule="evenodd" style="color: inherit" d="M8.053 4.584a10.012 10.012 0 0 1 4.776 2.658 10.012 10.012 0 0 1 2.658 4.776c.166.695.234 1.292.26 1.72a7.593 7.593 0 0 1 .01.69v.019s0 .002-.666-.041l.665.042a.667.667 0 0 1-1.33-.083v-.026l.002-.103a6.23 6.23 0 0 0-.012-.417 8.723 8.723 0 0 0-.226-1.49 8.678 8.678 0 0 0-2.304-4.144A8.679 8.679 0 0 0 7.742 5.88a8.734 8.734 0 0 0-1.49-.226 6.248 6.248 0 0 0-.52-.01h-.025a.667.667 0 0 1-.085-1.33l.043.665-.043-.665h.008l.012-.001a2.912 2.912 0 0 1 .184-.005c.122 0 .294.002.508.015.427.026 1.024.094 1.719.26ZM5.706 5.646Z" />
  <path _ngcontent-ng-c1909134112="" fill-rule="evenodd" clip-rule="evenodd" style="color: inherit" d="M10.81 14.435a.667.667 0 0 0 1.333.04l-.666-.02.666.02v-.14a5.184 5.184 0 0 0-.02-.329 6.787 6.787 0 0 0-.193-1.1 6.66 6.66 0 0 0-1.727-3.044 6.47 6.47 0 0 0-3.015-1.704 6.37 6.37 0 0 0-1.08-.176 4.812 4.812 0 0 0-.418-.012h-.038l-.003.001h-.002l.034.666-.035-.666a.667.667 0 0 0 .067 1.332h.01l.054-.001a5.038 5.038 0 0 1 1.086.15c.7.175 1.595.55 2.397 1.353a5.326 5.326 0 0 1 1.38 2.437c.093.36.136.669.155.883a3.927 3.927 0 0 1 .015.3v.011c0 .001 0 0 0 0v-.001Z" />
  <path _ngcontent-ng-c1909134112="" opacity=".12" style="color: inherit" d="M1.333 15.667a3 3 0 1 1 6 0 3 3 0 0 1-6 0Z" />
  <path _ngcontent-ng-c1909134112="" fill-rule="evenodd" clip-rule="evenodd" style="color: inherit" d="M.666 15.667a3.667 3.667 0 1 1 7.333 0 3.667 3.667 0 0 1-7.333 0Zm3.667-2.333a2.333 2.333 0 1 0 0 4.666 2.333 2.333 0 0 0 0-4.666ZM17.786 14.264v-.001l.642.067-.642-.067v-.007l.004-.036.01-.154c.006-.138.011-.345.006-.607a12.18 12.18 0 0 0-.236-2.132c-.346-1.73-1.166-3.919-3.058-5.811C12.619 3.623 10.43 2.803 8.7 2.457a12.186 12.186 0 0 0-2.133-.236 9.07 9.07 0 0 0-.797.02h-.006a.667.667 0 0 1-.14-1.326l.07.663-.07-.663H5.634l.015-.002a3.932 3.932 0 0 1 .248-.017c.166-.008.402-.014.697-.008.589.011 1.413.07 2.368.262 1.91.382 4.365 1.295 6.493 3.423 2.127 2.128 3.04 4.582 3.423 6.492.19.956.25 1.78.262 2.369a10.394 10.394 0 0 1-.026.944l-.001.016v.007l-.664-.069.663.07a.667.667 0 0 1-1.326-.138Z" />
</svg>