<svg xmlns="http://www.w3.org/2000/svg" viewBox="0 0 24 24" fill="currentColor">
  <path _ngcontent-ng-c1909134112="" fill-rule="evenodd" clip-rule="evenodd" style="color: inherit" d="M1 5a3 3 0 0 1 3-3h4a3 3 0 0 1 2.959 2.5h1.462c2.347 0 3.785 2.573 2.555 4.572l-4.249 6.904a1 1 0 0 0 .852 1.524h1.462A3 3 0 0 1 16 15h4a3 3 0 0 1 3 3v1a3 3 0 0 1-3 3h-4a3 3 0 0 1-2.959-2.5H11.58c-2.347 0-3.785-2.573-2.555-4.572l4.249-6.904A1 1 0 0 0 12.42 6.5h-1.462A3 3 0 0 1 8 9H4a3 3 0 0 1-3-3V5Zm3-1a1 1 0 0 0-1 1v1a1 1 0 0 0 1 1h4a1 1 0 0 0 1-1V5a1 1 0 0 0-1-1H4Zm12 13a1 1 0 0 0-1 1v1a1 1 0 0 0 1 1h4a1 1 0 0 0 1-1v-1a1 1 0 0 0-1-1h-4Z" />
</svg>