<svg xmlns="http://www.w3.org/2000/svg" viewBox="0 0 24 24" fill="none">
  <path _ngcontent-ng-c1909134112="" fill="currentColor" fill-rule="evenodd" clip-rule="evenodd" style="color: inherit" d="M4.43 12.598A13.727 13.727 0 0 1 4.109 12 14.744 14.744 0 0 1 6.01 9.15C7.422 7.504 9.42 6 12 6c2.581 0 4.578 1.503 5.99 3.15A14.747 14.747 0 0 1 19.893 12a14.748 14.748 0 0 1-1.901 2.85C16.578 16.496 14.58 18 12 18s-4.578-1.503-5.99-3.15a14.746 14.746 0 0 1-1.58-2.252Zm17.489-.993L21 12c.92.394.919.394.919.395l-.002.003-.002.006-.01.02-.03.07a15.141 15.141 0 0 1-.569 1.095 16.74 16.74 0 0 1-1.797 2.562C17.922 18.003 15.42 20 12 20s-5.922-1.997-7.51-3.85a16.743 16.743 0 0 1-2.247-3.41 10.246 10.246 0 0 1-.149-.315l-.009-.02-.002-.007-.001-.002v-.001c-.001 0-.001-.001.918-.395-.92-.394-.919-.394-.919-.395l.002-.003.002-.006.01-.02a7.803 7.803 0 0 1 .148-.317A16.744 16.744 0 0 1 4.49 7.85C6.078 5.997 8.58 4 12 4c3.419 0 5.922 1.997 7.51 3.85a16.74 16.74 0 0 1 2.247 3.41c.051.104.09.187.117.246l.032.07.009.02.003.006v.003ZM21 12l.92-.394a1 1 0 0 1 0 .788L21 12Zm-18.92-.394L3 12l-.92.394a1 1 0 0 1 0-.788ZM10 12a2 2 0 1 1 4 0 2 2 0 0 1-4 0Zm2-4a4 4 0 1 0 0 8 4 4 0 0 0 0-8Z" />
</svg>