<svg xmlns="http://www.w3.org/2000/svg" viewBox="0 0 24 24" fill="currentColor">
  <path _ngcontent-ng-c1909134112="" fill-rule="evenodd" clip-rule="evenodd" style="color: inherit" d="M7 3.83A1.17 1.17 0 0 0 5.83 5v14c0 .646.524 1.17 1.17 1.17h10A1.17 1.17 0 0 0 18.17 19V8.828c0-.31-.123-.608-.343-.827L14 4.173a1.17 1.17 0 0 0-.828-.343H7ZM4.17 5A2.83 2.83 0 0 1 7 2.17h6.171c.751 0 1.47.298 2.002.829L19 6.827c.53.531.829 1.25.829 2.001V19A2.83 2.83 0 0 1 17 21.83H7A2.83 2.83 0 0 1 4.17 19V5Zm4 4A.83.83 0 0 1 9 8.17h3a.83.83 0 0 1 0 1.66H9A.83.83 0 0 1 8.17 9Zm0 4a.83.83 0 0 1 .83-.83h6a.83.83 0 1 1 0 1.66H9a.83.83 0 0 1-.83-.83Zm0 4a.83.83 0 0 1 .83-.83h6a.83.83 0 1 1 0 1.66H9a.83.83 0 0 1-.83-.83Z" />
</svg>