<svg xmlns="http://www.w3.org/2000/svg" viewBox="0 0 24 24" fill="currentColor">
  <path _ngcontent-ng-c1909134112="" fill-rule="evenodd" clip-rule="evenodd" style="color: inherit" d="M16 3.83a1.67 1.67 0 1 0 0 3.34 1.67 1.67 0 0 0 0-3.34ZM12.67 5.5a3.33 3.33 0 1 1 1.201 2.561l-3.77 2.723a3.323 3.323 0 0 1 0 2.432l3.77 2.723a3.33 3.33 0 1 1-.973 1.345l-3.77-2.723a3.33 3.33 0 1 1 0-5.122L12.9 6.716a3.321 3.321 0 0 1-.23-1.216ZM7 10.33a1.67 1.67 0 1 0 0 3.34 1.67 1.67 0 0 0 0-3.34Zm9 6.5a1.667 1.667 0 0 0-1.67 1.67A1.67 1.67 0 1 0 16 16.83Z" />
</svg>