<svg xmlns="http://www.w3.org/2000/svg" viewBox="0 0 24 24" fill="currentColor">
  <path _ngcontent-ng-c1909134112="" fill-rule="evenodd" clip-rule="evenodd" style="color: inherit" d="M5 19.83A2.83 2.83 0 0 1 2.17 17V7A2.83 2.83 0 0 1 5 4.17h7.171c.751 0 1.47.298 2.002.829l2.17 2.171H19A2.83 2.83 0 0 1 21.83 10v.17h.552a1.83 1.83 0 0 1 1.637 2.649l-.277.552a.83.83 0 0 1-1.485-.742l.277-.553a.17.17 0 0 0-.152-.246H8.618a.17.17 0 0 0-.152.094L5.343 18.17H8a.83.83 0 1 1 0 1.66H5Zm-1.111-2.463 3.092-6.185a1.83 1.83 0 0 1 1.637-1.012H20.17V10A1.17 1.17 0 0 0 19 8.83h-3a.83.83 0 0 1-.587-.243l-2.414-2.414a1.17 1.17 0 0 0-.828-.343H5A1.17 1.17 0 0 0 3.83 7v10c0 .128.02.252.059.367Zm8.94-.867c0 .922.749 1.67 1.67 1.67h6.497l-1.583-1.583a.83.83 0 0 1 1.174-1.174l3 3a.83.83 0 0 1 0 1.174l-3 3a.83.83 0 0 1-1.174-1.174l1.583-1.583H14.5a3.33 3.33 0 1 1 3.33-3.33h-1.66a1.67 1.67 0 0 0-3.34 0Z" />
</svg>