<svg xmlns="http://www.w3.org/2000/svg" viewBox="0 0 24 24" fill="none">
  <path _ngcontent-ng-c1909134112="" fill="currentColor" fill-rule="evenodd" clip-rule="evenodd" style="color: inherit" d="M2.879 3.879A3 3 0 0 1 5 3h14a3 3 0 0 1 3 3v12a3 3 0 0 1-3 3H5a3 3 0 0 1-3-3V6a3 3 0 0 1 .879-2.121Zm1.414 1.414A1 1 0 0 0 4 6v12a1 1 0 0 0 1 1h7.5V5H5a1 1 0 0 0-.707.293ZM15.72 7.22a.75.75 0 0 1 .53-.22h2a.75.75 0 1 1 0 1.5h-2a.75.75 0 0 1-.53-1.28Zm0 2.5a.75.75 0 0 0 .53 1.28h2a.75.75 0 1 0 0-1.5h-2a.75.75 0 0 0-.53.22Zm0 2.5a.75.75 0 0 1 .53-.22h2a.75.75 0 1 1 0 1.5h-2a.75.75 0 0 1-.53-1.28Z" />
</svg>