<svg xmlns="http://www.w3.org/2000/svg" viewBox="0 0 24 24" fill="currentColor">
  <path _ngcontent-ng-c1909134112="" fill-rule="evenodd" clip-rule="evenodd" style="color: inherit" d="M18.262 4.411a2.83 2.83 0 1 1 4.002 4.003l-4.455 4.455a1.83 1.83 0 0 1-1.06.52l-1.624.21a1.83 1.83 0 0 1-2.049-2.049l.21-1.624a1.83 1.83 0 0 1 .52-1.06l4.456-4.455Zm2.828 1.174a1.17 1.17 0 0 0-1.655 0L14.98 10.04a.17.17 0 0 0-.048.099l-.21 1.623a.17.17 0 0 0 .19.19l1.624-.209a.17.17 0 0 0 .099-.048L21.09 7.24a1.17 1.17 0 0 0 0-1.655Zm-16.52-.17a1.42 1.42 0 0 0-1.42 1.42v2.9l1.867-1.66a2.927 2.927 0 1 1 3.89 4.376l-.904.803a1.229 1.229 0 1 0 1.685 1.787l1.044-1.044a.83.83 0 0 1 1.174 1.174l-1.044 1.044A2.889 2.889 0 1 1 6.9 12.013l.904-.803A1.267 1.267 0 0 0 6.12 9.316l-2.97 2.64v5.378c0 .784.635 1.42 1.42 1.42h13.5a1.42 1.42 0 0 0 1.42-1.42V14.21a.83.83 0 1 1 1.66 0v3.125a3.08 3.08 0 0 1-3.08 3.08H4.57a3.08 3.08 0 0 1-3.08-3.08v-10.5a3.08 3.08 0 0 1 3.08-3.08h9.022a.83.83 0 0 1 0 1.66H4.569Z" />
</svg>