<svg xmlns="http://www.w3.org/2000/svg" viewBox="0 0 24 24" fill="none">
  <path _ngcontent-ng-c1909134112="" fill="currentColor" fill-rule="evenodd" clip-rule="evenodd" style="color: inherit" d="M2 6a3 3 0 0 1 3-3h14a3 3 0 0 1 3 3v12a3 3 0 0 1-3 3H5a3 3 0 0 1-3-3V6Zm3-1a1 1 0 0 0-1 1v12a1 1 0 0 0 1 1h14a1 1 0 0 0 1-1V6a1 1 0 0 0-1-1H5Z" />
  <path _ngcontent-ng-c1909134112="" fill="currentColor" style="color: inherit" d="M9.5 5h2v14h-2V5ZM5 7.75A.75.75 0 0 1 5.75 7h2a.75.75 0 0 1 0 1.5h-2A.75.75 0 0 1 5 7.75Zm0 2.5a.75.75 0 0 1 .75-.75h2a.75.75 0 0 1 0 1.5h-2a.75.75 0 0 1-.75-.75Zm0 2.5a.75.75 0 0 1 .75-.75h2a.75.75 0 0 1 0 1.5h-2a.75.75 0 0 1-.75-.75Z" />
</svg>