<svg xmlns="http://www.w3.org/2000/svg" viewBox="0 0 24 24" fill="currentColor">
  <path _ngcontent-ng-c1909134112="" fill-rule="evenodd" clip-rule="evenodd" style="color: inherit" d="M10.81 3.368a1.325 1.325 0 0 1 2.38 0l2.294 4.665 5.128.748c1.089.16 1.524 1.503.736 2.274l-3.711 3.631.876 5.128c.186 1.089-.952 1.919-1.926 1.405L12 18.798l-4.587 2.42c-.974.515-2.112-.315-1.926-1.404l.876-5.128-3.71-3.631c-.789-.771-.354-2.115.735-2.274l5.128-.748 2.293-4.665ZM12 4.705l-2.075 4.22a1.328 1.328 0 0 1-1 .73l-4.638.676 3.357 3.285c.313.306.455.748.381 1.18l-.792 4.639 4.15-2.19a1.323 1.323 0 0 1 1.235 0l4.149 2.19-.792-4.639a1.336 1.336 0 0 1 .381-1.18l3.357-3.285-4.639-.676a1.328 1.328 0 0 1-1-.73L12 4.705Z" />
</svg>