<svg xmlns="http://www.w3.org/2000/svg" viewBox="0 0 24 24" fill="none">
  <path _ngcontent-ng-c1909134112="" fill="currentColor" fill-opacity=".1" style="color: inherit" d="M17.93 55.965c2.878.3 6.689.535 11.57.535 4.845 0 8.763-.231 11.797-.528 5.02-.492 8.715-4.332 9.158-9.357C50.756 43.206 51 38.688 51 33c0-8.002-.483-13.107-.927-16.109-.336-2.27-2.05-3.943-4.317-4.301l-.317-.05C42.774 12.133 40.205 13.59 39 16l-9.5 1.5L21 16c-1.207-2.415-3.774-3.891-6.445-3.5l-.663.102c-2.089.336-3.631 1.846-3.957 3.936C9.488 19.392 9 24.466 9 33c0 6.257.263 10.971.578 14.38.428 4.61 3.747 8.105 8.353 8.585Z" />
  <path _ngcontent-ng-c1909134112="" stroke="currentColor" stroke-linecap="round" stroke-linejoin="round" stroke-width="4" style="color: inherit" d="M19 11.5c-.85.072-1.624.15-2.326.228-3.882.437-6.69 3.21-7.096 7.095C9.262 21.85 9 26.245 9 32.5c0 6.256.263 10.97.578 14.38.428 4.61 3.747 8.104 8.353 8.585 2.877.3 6.688.535 11.569.535 4.845 0 8.763-.231 11.797-.528 5.02-.492 8.715-4.332 9.158-9.357.301-3.409.545-7.928.545-13.615 0-5.388-.219-9.462-.498-12.466-.424-4.573-3.817-7.932-8.384-8.421A88.426 88.426 0 0 0 41 11.5" />
  <path _ngcontent-ng-c1909134112="" stroke="currentColor" stroke-linecap="round" stroke-linejoin="round" stroke-width="4" style="color: inherit" d="M41 10.805v.365c0 2.908-1.861 5.356-4.759 5.6-1.587.133-3.636.23-6.241.23-2.822 0-4.992-.114-6.628-.265C20.707 16.49 19 14.232 19 11.557v-.752c0-2.31 1.143-4.497 3.296-5.333C24.224 4.722 26.89 4 30 4s5.776.723 7.704 1.472C39.857 6.308 41 8.495 41 10.805ZM20 36h15m-15 9h8m-8-18h20" />
</svg>