<svg xmlns="http://www.w3.org/2000/svg" viewBox="0 0 24 24" fill="currentColor">
  <path _ngcontent-ng-c1909134112="" fill-rule="evenodd" clip-rule="evenodd" style="color: inherit" d="M2 5.333A3.333 3.333 0 0 1 5.333 2h13.334A3.333 3.333 0 0 1 22 5.333v13.334A3.333 3.333 0 0 1 18.667 22H5.333A3.333 3.333 0 0 1 2 18.667V5.333Zm3.333-1.11a1.11 1.11 0 0 0-1.11 1.11v13.334c0 .613.497 1.11 1.11 1.11h13.334a1.11 1.11 0 0 0 1.11-1.11V5.333a1.11 1.11 0 0 0-1.11-1.11H5.333Z" />
  <path _ngcontent-ng-c1909134112="" style="color: inherit" d="M8.667 4.222h2.222v15.556H8.667V4.222Z" />
</svg>