<svg xmlns="http://www.w3.org/2000/svg" viewBox="0 0 24 24" fill="currentColor">
  <path _ngcontent-ng-c1909134112="" fill-rule="evenodd" clip-rule="evenodd" style="color: inherit" d="M8.238 2.286A68.649 68.649 0 0 1 12 2.17c1.26 0 2.565.049 3.762.116a6.294 6.294 0 0 1 5.952 5.952c.067 1.197.116 2.502.116 3.762 0 1.26-.049 2.565-.116 3.763a6.293 6.293 0 0 1-5.951 5.951A68.654 68.654 0 0 1 12 21.83c-1.26 0-2.565-.049-3.763-.116a6.293 6.293 0 0 1-5.951-5.951A68.65 68.65 0 0 1 2.17 12c0-1.26.049-2.565.116-3.762a6.293 6.293 0 0 1 5.952-5.952ZM12 3.83c-1.22 0-2.492.047-3.67.113A4.633 4.633 0 0 0 3.943 8.33 67.002 67.002 0 0 0 3.83 12c0 1.22.047 2.492.113 3.67a4.633 4.633 0 0 0 4.387 4.387 67.09 67.09 0 0 0 3.67.113c1.22 0 2.492-.047 3.67-.113a4.633 4.633 0 0 0 4.387-4.387A66.82 66.82 0 0 0 20.17 12c0-1.22-.047-2.492-.113-3.67a4.633 4.633 0 0 0-4.387-4.387A67.003 67.003 0 0 0 12 3.83ZM8.17 9.35c0-1.68 1.832-2.717 3.272-1.853l4.415 2.651c1.398.839 1.398 2.865 0 3.704l-4.415 2.65c-1.44.865-3.272-.172-3.272-1.852v-5.3Zm2.417-.43a.5.5 0 0 0-.757.43v5.3a.5.5 0 0 0 .757.43l4.416-2.651a.5.5 0 0 0 0-.858l-4.416-2.65Z" />
</svg>