<svg xmlns="http://www.w3.org/2000/svg" viewBox="0 0 24 24" fill="currentColor">
  <path _ngcontent-ng-c1909134112="" fill-rule="evenodd" clip-rule="evenodd" style="color: inherit" d="M12 3.157a1.167 1.167 0 1 0 .002 2.334A1.167 1.167 0 0 0 12 3.157ZM9.18 4.325A2.823 2.823 0 0 1 12 1.5a2.825 2.825 0 0 1 .827 5.526v3.081a2.826 2.826 0 0 1 1.482 1.08l2.925-.952v-.051a2.823 2.823 0 0 1 2.82-2.825 2.823 2.823 0 0 1 2.821 2.825 2.823 2.823 0 0 1-2.82 2.824 2.816 2.816 0 0 1-2.308-1.198l-2.927.952v.046c0 .638-.21 1.226-.566 1.698l1.813 2.498a2.823 2.823 0 0 1 3.738 2.672 2.823 2.823 0 0 1-2.821 2.824 2.823 2.823 0 0 1-2.255-4.521l-1.813-2.498a2.813 2.813 0 0 1-1.832 0L9.27 17.979A2.823 2.823 0 0 1 7.016 22.5a2.823 2.823 0 0 1-2.82-2.825 2.823 2.823 0 0 1 3.737-2.671l1.813-2.498a2.816 2.816 0 0 1-.567-1.744l-2.926-.952a2.815 2.815 0 0 1-2.307 1.198 2.823 2.823 0 0 1-2.821-2.824 2.823 2.823 0 0 1 2.82-2.825 2.823 2.823 0 0 1 2.821 2.876l2.925.951a2.826 2.826 0 0 1 1.482-1.079V7.026a2.825 2.825 0 0 1-1.994-2.701Zm-5.234 4.69a1.167 1.167 0 1 0 .001 2.335 1.167 1.167 0 0 0-.001-2.334Zm16.108 0a1.167 1.167 0 1 0 .002 2.335 1.167 1.167 0 0 0-.002-2.334ZM12 11.642a1.167 1.167 0 1 0 .001 2.334A1.167 1.167 0 0 0 12 11.641Zm-4.984 6.867a1.167 1.167 0 1 0 .002 2.334 1.167 1.167 0 0 0-.002-2.334Zm9.968 0a1.166 1.166 0 0 0-1.166 1.168 1.167 1.167 0 1 0 1.166-1.168Z" />
</svg>