<svg xmlns="http://www.w3.org/2000/svg" viewBox="0 0 24 24" fill="none">
  <path _ngcontent-ng-c1909134112="" fill="currentColor" fill-rule="evenodd" clip-rule="evenodd" style="color: inherit" d="M6 2a1 1 0 0 1 .936.649l3 8a1 1 0 1 1-1.872.702L7.557 10H4.443l-.507 1.351a1 1 0 0 1-1.872-.702l3-8A1 1 0 0 1 6 2Zm-.807 6h1.614L6 5.848 5.193 8ZM17 4a1 1 0 0 1 1 1v11.586l2.293-2.293a1 1 0 0 1 1.414 1.414l-4 4a1 1 0 0 1-1.414 0l-4-4a1 1 0 0 1 1.414-1.414L16 16.586V5a1 1 0 0 1 1-1ZM2 14a1 1 0 0 1 1-1h6a1 1 0 0 1 .76 1.65L5.173 20H9a1 1 0 1 1 0 2H3a1 1 0 0 1-.76-1.65L6.827 15H3a1 1 0 0 1-1-1Z" />
</svg>