<svg xmlns="http://www.w3.org/2000/svg" viewBox="0 0 24 24" fill="none">
  <path _ngcontent-ng-c1909134112="" fill="currentColor" fill-rule="evenodd" clip-rule="evenodd" style="color: inherit" d="m17.707 15.707-5 5a1 1 0 0 1-1.414 0l-5-5a1 1 0 1 1 1.414-1.414L12 18.586l4.293-4.293a1 1 0 0 1 1.414 1.414Z" />
  <path _ngcontent-ng-c1909134112="" fill="var(--cu-content-disabled)" clip-rule="evenodd" class="['fill-disabled']" style="color: inherit" d="M12.707 3.293a1 1 0 0 0-1.414 0l-5 5a1 1 0 0 0 1.414 1.414L12 5.414l4.293 4.293a1 1 0 0 0 1.414-1.414l-5-5Z" />
</svg>