<svg xmlns="http://www.w3.org/2000/svg" viewBox="0 0 24 24" fill="currentColor">
  <path _ngcontent-ng-c1909134112="" fill-rule="evenodd" clip-rule="evenodd" style="color: inherit" d="M22 12c0 .792-.092 1.564-.267 2.304h-2.07a8 8 0 1 0-5.132 5.287c.223.47.628.836 1.124 1.009a1.953 1.953 0 0 0-.11.752A9.976 9.976 0 0 1 12 22C6.477 22 2 17.522 2 12S6.477 2 12 2s10 4.477 10 10Zm-2.806 3.504h2.175v.001h.62a.753.753 0 1 1 0 1.507h-6.892a.754.754 0 0 1 0-1.508h1.3v.001h2.796v-.001Zm-1.902 2.495h2.709V18h.788a.755.755 0 1 1 0 1.51h-4.49a.755.755 0 0 1 0-1.51h.992l.001-.001Zm-1.11-4.64.095.945h-1.18c-.29 0-.565.063-.812.176l-.134-1.338a1.05 1.05 0 0 1 .261-.803l1.41-1.581-2.07-.452a1.05 1.05 0 0 1-.683-.496L12 7.981l-1.069 1.83a1.05 1.05 0 0 1-.683.495l-2.07.452 1.41 1.581c.195.22.29.51.26.803l-.21 2.108 1.94-.852a1.05 1.05 0 0 1 .844 0l1.233.542a1.947 1.947 0 0 0-.383 2.016L12 16.397l-3.046 1.338a1.05 1.05 0 0 1-1.467-1.066l.33-3.31-2.213-2.485a1.05 1.05 0 0 1 .56-1.724l3.25-.709 1.68-2.872a1.05 1.05 0 0 1 1.813 0l1.678 2.872 3.25.709a1.05 1.05 0 0 1 .561 1.724l-2.213 2.484Zm.561 7.895c0-.418.34-.757.757-.757h2.087a.756.756 0 0 1 0 1.513H17.5a.756.756 0 0 1-.757-.756Z" />
</svg>