<svg xmlns="http://www.w3.org/2000/svg" viewBox="0 0 24 24" fill="currentColor">
  <path _ngcontent-ng-c1909134112="" fill-rule="evenodd" clip-rule="evenodd" style="color: inherit" d="M2 6.998A2.998 2.998 0 0 1 5 4h7.502a2 2 0 0 1 1.596.794l1.9 2.514H19a3 3 0 0 1 3 3v1.846a1 1 0 1 1-2 0v-1.846a1 1 0 0 0-1-1h-3.002a2 2 0 0 1-1.596-.794L12.502 6H5c-.554 0-1 .447-1 .998V17c0 .552.447.999 1 .999h2a1 1 0 1 1 0 2H5c-1.656 0-3-1.341-3-2.999V6.998ZM12.5 14a1.5 1.5 0 0 0-1.5 1.5v.5a2 2 0 0 0 2 2h6.586l-1.293-1.293a1 1 0 0 1 1.414-1.414l3 3a1 1 0 0 1 0 1.414l-3 3a1 1 0 0 1-1.414-1.414L19.586 20H13a4 4 0 0 1-4-4v-.5a3.5 3.5 0 1 1 7 0v.5a1 1 0 1 1-2 0v-.5a1.5 1.5 0 0 0-1.5-1.5Z" />
</svg>