<svg xmlns="http://www.w3.org/2000/svg" viewBox="0 0 24 24" fill="currentColor">
  <path _ngcontent-ng-c1909134112="" fill-rule="evenodd" clip-rule="evenodd" style="color: inherit" d="M14.665 7.982c0 .341-.025.676-.074 1.003a2.242 2.242 0 0 0-1.285-.466 5.333 5.333 0 1 0-4.77 4.77c.017.455.173.906.465 1.285a6.666 6.666 0 1 1 5.664-6.591Zm-2.402-.75L11.04 8.605a2.246 2.246 0 0 0-1.572.48l-.035-.341a.7.7 0 0 1 .174-.535l.94-1.054-1.38-.301a.7.7 0 0 1-.455-.331l-.713-1.22-.712 1.22a.7.7 0 0 1-.455.33l-1.38.302.94 1.054a.7.7 0 0 1 .173.535l-.14 1.405 1.293-.567a.7.7 0 0 1 .563 0l.576.252a2.255 2.255 0 0 0-.214 1.363l-.644-.283-2.03.892a.7.7 0 0 1-.978-.71l.22-2.208-1.475-1.656a.7.7 0 0 1 .373-1.15l2.167-.472 1.119-1.914a.7.7 0 0 1 1.209 0L9.723 5.61l2.167.473a.7.7 0 0 1 .373 1.15Zm1.484 3.005a.75.75 0 0 1 0 1.06l-.687.686.604.604a.75.75 0 0 1-1.06 1.061l-.605-.604-.685.685a.75.75 0 1 1-1.061-1.06l.686-.686-.604-.604a.75.75 0 0 1 1.061-1.06l.604.603.686-.686a.75.75 0 0 1 1.061 0Z" />
</svg>