<svg xmlns="http://www.w3.org/2000/svg" viewBox="0 0 24 24" fill="none">
  <path _ngcontent-ng-c1909134112="" fill="currentColor" fill-rule="evenodd" clip-rule="evenodd" style="color: inherit" d="M10.325 2.14a10.061 10.061 0 0 1 3.35 0 1 1 0 0 1-.333 1.972 8.06 8.06 0 0 0-2.684 0 1 1 0 0 1-.333-1.972Zm6.068 1.94a1 1 0 0 1 1.395-.236 10.064 10.064 0 0 1 2.368 2.368 1 1 0 0 1-1.63 1.159 8.051 8.051 0 0 0-1.897-1.897 1 1 0 0 1-.236-1.394Zm-8.786 0a1 1 0 0 1-.236 1.394 8.051 8.051 0 0 0-1.897 1.897 1 1 0 0 1-1.63-1.159 10.051 10.051 0 0 1 2.368-2.368 1 1 0 0 1 1.395.236Zm13.1 5.426a1 1 0 0 1 1.153.82 10.06 10.06 0 0 1 0 3.349 1 1 0 1 1-1.972-.333 8.062 8.062 0 0 0 0-2.684 1 1 0 0 1 .82-1.152Zm-17.415 0a1 1 0 0 1 .82 1.152 8.06 8.06 0 0 0 0 2.684 1 1 0 0 1-1.972.333 10.061 10.061 0 0 1 0-3.35 1 1 0 0 1 1.152-.82Zm16.628 6.887a1 1 0 0 1 .236 1.395 10.056 10.056 0 0 1-2.368 2.368 1 1 0 0 1-1.159-1.63 8.051 8.051 0 0 0 1.897-1.897 1 1 0 0 1 1.394-.236Zm-15.84 0a1 1 0 0 1 1.394.236 8.051 8.051 0 0 0 1.897 1.897 1 1 0 0 1-1.159 1.63 10.054 10.054 0 0 1-2.368-2.368 1 1 0 0 1 .236-1.395Zm5.426 4.315a1 1 0 0 1 1.152-.82 8.062 8.062 0 0 0 2.684 0 1 1 0 0 1 .333 1.972 10.06 10.06 0 0 1-3.35 0 1 1 0 0 1-.82-1.152Z" />
  <path _ngcontent-ng-c1909134112="" fill="var(--cu-content-placeholder)" style="color: inherit" d="M10 9.99c0-.808.966-1.274 1.654-.8l2.917 2.011a.958.958 0 0 1 0 1.598l-2.917 2.01c-.688.475-1.654.009-1.654-.798V9.989Z" />
</svg>