<svg xmlns="http://www.w3.org/2000/svg" viewBox="0 0 24 24" fill="none">
  <path _ngcontent-ng-c1909134112="" fill="var(--cu-background-main-inverse)" fill-opacity=".055" style="color: inherit" d="M2 5a3 3 0 0 1 3-3h14a3 3 0 0 1 3 3v14a3 3 0 0 1-3 3H5a3 3 0 0 1-3-3V5Z" />
  <path _ngcontent-ng-c1909134112="" fill="currentColor" fill-rule="evenodd" clip-rule="evenodd" style="color: inherit" d="M1 5a4 4 0 0 1 4-4h14a4 4 0 0 1 4 4v14a4 4 0 0 1-4 4H5a4 4 0 0 1-4-4V5Zm4-2a2 2 0 0 0-2 2v14a2 2 0 0 0 2 2h14a2 2 0 0 0 2-2V5a2 2 0 0 0-2-2H5Z" />
</svg>