<svg xmlns="http://www.w3.org/2000/svg" viewBox="0 0 24 24" fill="currentColor">
  <path _ngcontent-ng-c1909134112="" fill-rule="evenodd" clip-rule="evenodd" style="color: inherit" d="M8.041 4.5A3 3 0 0 1 11 2h8a3 3 0 0 1 3 3v1a3 3 0 0 1-3 3h-8a3 3 0 0 1-2.959-2.5H7a1 1 0 0 0-1 1V10a1 1 0 0 0 1 1h10a3 3 0 0 1 3 3v2.5a3 3 0 0 1-3 3h-1.041A3 3 0 0 1 13 22H5a3 3 0 0 1-3-3v-1a3 3 0 0 1 3-3h8a3 3 0 0 1 2.959 2.5H17a1 1 0 0 0 1-1V14a1 1 0 0 0-1-1H7a3 3 0 0 1-3-3V7.5a3 3 0 0 1 3-3h1.041ZM11 4a1 1 0 0 0-1 1v1a1 1 0 0 0 1 1h8a1 1 0 0 0 1-1V5a1 1 0 0 0-1-1h-8ZM5 17a1 1 0 0 0-1 1v1a1 1 0 0 0 1 1h8a1 1 0 0 0 1-1v-1a1 1 0 0 0-1-1H5Z" />
</svg>