<svg xmlns="http://www.w3.org/2000/svg" viewBox="0 0 24 24" fill="currentColor">
  <path _ngcontent-ng-c1909134112="" fill-rule="evenodd" clip-rule="evenodd" style="color: inherit" d="M16.132 2.504A1 1 0 0 1 17 2h4a1 1 0 0 1 .868.504l2 3.5a1 1 0 0 1 0 .992l-2 3.5A1 1 0 0 1 21 11h-4a1 1 0 0 1-.868-.504l-2-3.5a1 1 0 0 1 0-.992l2-3.5ZM17.58 4l-1.428 2.5L17.58 9h2.84l1.428-2.5L20.42 4h-2.84ZM7 6a2 2 0 0 0-2 2v10a2 2 0 0 0 2 2h10a2 2 0 0 0 2-2v-5a1 1 0 1 1 2 0v5a4 4 0 0 1-4 4H7a4 4 0 0 1-4-4V8a4 4 0 0 1 4-4h5a1 1 0 1 1 0 2H7Zm11 .5a1 1 0 0 1 1-1h.01a1 1 0 1 1 0 2H19a1 1 0 0 1-1-1ZM9.5 10a.5.5 0 0 0-.5.5v5a.5.5 0 0 0 .5.5h5a.5.5 0 0 0 .5-.5V13a1 1 0 1 1 2 0v2.5a2.5 2.5 0 0 1-2.5 2.5h-5A2.5 2.5 0 0 1 7 15.5v-5A2.5 2.5 0 0 1 9.5 8H12a1 1 0 1 1 0 2H9.5Z" />
</svg>