<svg xmlns="http://www.w3.org/2000/svg" viewBox="0 0 24 24" fill="currentColor">
  <path _ngcontent-ng-c1909134112="" fill-rule="evenodd" clip-rule="evenodd" style="color: inherit" d="M7.579 4.727C7.579 3.221 8.781 2 10.263 2h4.627a2.66 2.66 0 0 1 1.898.799l3.426 3.48A2.75 2.75 0 0 1 21 8.208v7.428c0 1.507-1.202 2.728-2.684 2.728h-.895v.909c0 1.506-1.202 2.727-2.684 2.727H6.684C5.202 22 4 20.779 4 19.273V8.363c0-1.506 1.202-2.727 2.684-2.727h.895v-.909Zm0 2.728h-.895a.902.902 0 0 0-.895.909v10.909c0 .502.401.909.895.909h8.053a.902.902 0 0 0 .895-.91v-.908h-5.369c-1.482 0-2.684-1.221-2.684-2.728V7.455Zm2.684-3.637a.902.902 0 0 0-.895.91v10.908c0 .502.401.91.895.91h8.053a.902.902 0 0 0 .895-.91V8.208a.916.916 0 0 0-.262-.643l-3.426-3.48a.887.887 0 0 0-.633-.267h-4.627Zm.895 6.364c0-.502.4-.91.895-.91h2.684c.494 0 .895.408.895.91s-.401.909-.895.909h-2.684a.902.902 0 0 1-.895-.91Zm0 3.636c0-.502.4-.909.895-.909h4.473c.494 0 .895.407.895.91 0 .501-.4.908-.895.908h-4.473a.902.902 0 0 1-.895-.909Z" />
</svg>