<svg xmlns="http://www.w3.org/2000/svg" viewBox="0 0 24 24" fill="currentColor">
  <path _ngcontent-ng-c1909134112="" fill-rule="evenodd" clip-rule="evenodd" style="color: inherit" d="M13.83 10.438a.193.193 0 0 0 .296-.164V5.726a.193.193 0 0 0-.296-.164l-2.498 1.562a.625.625 0 1 1-.663-1.06l2.498-1.562c.962-.6 2.209.09 2.209 1.224v4.548a1.443 1.443 0 0 1-2.208 1.224l-2.499-1.562a.625.625 0 0 1 .663-1.06l2.498 1.562Z" />
  <path _ngcontent-ng-c1909134112="" opacity=".1" style="color: inherit" d="M10.727 8a28.98 28.98 0 0 0-.127-2.833 1.99 1.99 0 0 0-1.813-1.812c-.7-.07-1.64-.128-2.833-.128a28.59 28.59 0 0 0-2.832.128 1.99 1.99 0 0 0-1.813 1.812c-.07.7-.127 1.64-.127 2.833 0 1.23.061 2.191.134 2.898.097.943.794 1.654 1.738 1.748.69.07 1.642.127 2.9.127 1.259 0 2.21-.057 2.9-.127.945-.094 1.642-.805 1.739-1.748.073-.707.134-1.668.134-2.898Z" />
  <path _ngcontent-ng-c1909134112="" fill-rule="evenodd" clip-rule="evenodd" style="color: inherit" d="M5.954 3.852a27.93 27.93 0 0 0-2.77.125A1.366 1.366 0 0 0 1.93 5.229 28.092 28.092 0 0 0 1.807 8c0 1.21.06 2.15.13 2.834.068.655.537 1.126 1.18 1.19a28.67 28.67 0 0 0 2.837.124c1.24 0 2.17-.057 2.838-.124.643-.064 1.112-.535 1.18-1.19.07-.685.13-1.625.13-2.834 0-1.173-.057-2.092-.124-2.77a1.366 1.366 0 0 0-1.253-1.253 28.092 28.092 0 0 0-2.77-.125ZM3.06 2.732c.72-.071 1.681-.13 2.894-.13 1.214 0 2.174.059 2.895.13a2.615 2.615 0 0 1 2.373 2.373c.071.721.13 1.682.13 2.895a29.08 29.08 0 0 1-.137 2.961c-.127 1.233-1.053 2.182-2.298 2.307-.713.072-1.686.13-2.963.13-1.277 0-2.249-.058-2.962-.13-1.246-.125-2.171-1.074-2.298-2.307A29.093 29.093 0 0 1 .557 8c0-1.213.058-2.174.13-2.895A2.615 2.615 0 0 1 3.06 2.733Z" />
</svg>