<svg xmlns="http://www.w3.org/2000/svg" viewBox="0 0 24 24" fill="none">
  <path _ngcontent-ng-c1909134112="" fill="currentColor" fill-rule="evenodd" clip-rule="evenodd" style="color: inherit" d="m17.926 11.961 2.36.677v-.105c0-4.593-3.71-8.315-8.286-8.315S3.713 7.94 3.713 12.533v.105l2.36-.677a2.072 2.072 0 0 1 2.64 1.997v5.75a2.072 2.072 0 0 1-2.64 1.996l-2.857-.82a2.076 2.076 0 0 1-1.501-1.996v-6.355C1.715 6.835 6.319 2.215 12 2.215s10.285 4.62 10.285 10.318v6.355c0 .927-.612 1.742-1.502 1.997l-2.857.819a2.072 2.072 0 0 1-2.64-1.997v-5.75a2.072 2.072 0 0 1 2.64-1.996Zm-.55 1.926a.072.072 0 0 0-.091.07v5.75c0 .05.047.084.092.07l2.857-.818a.073.073 0 0 0 .052-.07v-4.112a.073.073 0 0 0-.052-.07l-2.857-.82Zm-13.61.82a.073.073 0 0 0-.053.07v4.111c0 .034.022.062.053.07l2.857.82a.072.072 0 0 0 .092-.07v-5.75a.072.072 0 0 0-.092-.07l-2.857.818Z" />
</svg>