<svg xmlns="http://www.w3.org/2000/svg" viewBox="0 0 24 24" fill="none">
  <path _ngcontent-ng-c1909134112="" fill="currentColor" fill-opacity=".1" stroke="currentColor" stroke-linecap="round" stroke-linejoin="round" stroke-width="1.6" style="color: inherit" d="m17.85 16.227 2.76.384a1.305 1.305 0 0 0 1.48-1.176l.175-1.97c.047-.527.02-1.06-.079-1.58-.308-1.617-1.295-3.035-2.829-3.63C17.58 7.563 14.942 6.8 11.968 6.8c-2.877 0-5.439.715-7.212 1.386-1.648.624-2.7 2.154-3.01 3.889a6.05 6.05 0 0 0-.069 1.633l.163 1.734c.07.74.743 1.272 1.479 1.17l2.766-.385a1.304 1.304 0 0 0 1.124-1.34l-.09-2.435s1.177-.803 4.849-.803 4.85.803 4.85.803l-.09 2.434a1.304 1.304 0 0 0 1.123 1.34Z" />
</svg>