<svg xmlns="http://www.w3.org/2000/svg" viewBox="0 0 24 24" fill="none">
  <path _ngcontent-ng-c1909134112="" style="color: inherit" d="M14.933 8c0-1.24-.043-2.29-.104-3.16-.143-2.017-1.653-3.526-3.669-3.669A44.925 44.925 0 0 0 8 1.067c-1.24 0-2.29.043-3.16.104-2.017.143-3.527 1.652-3.67 3.668-.06.87-.104 1.922-.104 3.161 0 1.304.048 2.4.115 3.296.144 1.944 1.577 3.394 3.52 3.531.883.063 1.973.106 3.299.106 1.325 0 2.416-.043 3.298-.106 1.943-.137 3.376-1.588 3.52-3.53.068-.896.115-1.993.115-3.297Z" />
  <path _ngcontent-ng-c1909134112="" stroke="currentColor" stroke-linecap="round" stroke-linejoin="round" stroke-width="1.6" style="color: inherit" d="M14.933 8c0-1.24-.043-2.29-.104-3.16-.143-2.017-1.653-3.526-3.669-3.669A44.925 44.925 0 0 0 8 1.067c-1.24 0-2.29.043-3.16.104-2.017.143-3.527 1.652-3.67 3.668-.06.87-.104 1.922-.104 3.161 0 1.304.048 2.4.115 3.296.144 1.944 1.577 3.394 3.52 3.531.883.063 1.973.106 3.299.106 1.325 0 2.416-.043 3.298-.106 1.943-.137 3.376-1.588 3.52-3.53.068-.896.115-1.993.115-3.297Z" />
  <path _ngcontent-ng-c1909134112="" fill="currentColor" fill-rule="evenodd" stroke="currentColor" stroke-linecap="round" stroke-linejoin="round" stroke-width=".25" clip-rule="evenodd" style="color: inherit" d="M9.605 4c-.185-.003-.348.137-.393.337L7.96 9.9 6.782 5.647a.408.408 0 0 0-.377-.314.405.405 0 0 0-.384.304L5.31 8H4.4c-.22 0-.4.199-.4.444 0 .246.18.445.4.445h1.2a.406.406 0 0 0 .38-.304l.405-1.351 1.233 4.452c.052.191.213.32.393.314.18-.005.334-.143.377-.337l1.19-5.284.431 2.162c.041.203.204.348.391.348h1.2c.22 0 .4-.2.4-.445S11.82 8 11.6 8h-.88l-.73-3.652c-.04-.201-.2-.345-.385-.348Z" />
</svg>