<svg xmlns="http://www.w3.org/2000/svg" viewBox="0 0 24 24" fill="currentColor">
  <path _ngcontent-ng-c1909134112="" style="color: inherit" d="M17.12 3.295a.997.997 0 0 1 1.415-.002l2.829 2.828a1 1 0 0 1-1.414 1.415l-1.122-1.122v11.142l1.122-1.121a1 1 0 0 1 1.414 1.414l-2.829 2.829a1 1 0 0 1-1.414 0l-2.828-2.829a1 1 0 0 1 1.414-1.414l1.121 1.121V6.414l-1.12 1.122a1 1 0 1 1-1.415-1.415l2.826-2.826Z" />
  <path _ngcontent-ng-c1909134112="" fill-rule="evenodd" clip-rule="evenodd" style="color: inherit" d="M2 6a3 3 0 0 1 3-3h7a1 1 0 1 1 0 2H5a1 1 0 0 0-1 1v12a1 1 0 0 0 1 1h7a1 1 0 1 1 0 2H5a3 3 0 0 1-3-3V6Z" />
  <path _ngcontent-ng-c1909134112="" style="color: inherit" d="M4 8.25h8a1 1 0 1 1 0 2H4v-2Zm0 5.5h8a1 1 0 1 1 0 2H4v-2Z" />
  <path _ngcontent-ng-c1909134112="" style="color: inherit" d="M17.12 3.295a.997.997 0 0 1 1.415-.002l2.829 2.828a1 1 0 0 1-1.414 1.415l-1.122-1.122v11.142l1.122-1.121a1 1 0 0 1 1.414 1.414l-2.829 2.829a1 1 0 0 1-1.414 0l-2.828-2.829a1 1 0 0 1 1.414-1.414l1.121 1.121V6.414l-1.12 1.122a1 1 0 1 1-1.415-1.415l2.826-2.826Z" />
  <path _ngcontent-ng-c1909134112="" fill-rule="evenodd" clip-rule="evenodd" style="color: inherit" d="M2 6a3 3 0 0 1 3-3h7a1 1 0 1 1 0 2H5a1 1 0 0 0-1 1v12a1 1 0 0 0 1 1h7a1 1 0 1 1 0 2H5a3 3 0 0 1-3-3V6Z" />
  <path _ngcontent-ng-c1909134112="" style="color: inherit" d="M4 8.25h8a1 1 0 1 1 0 2H4v-2Zm0 5.5h8a1 1 0 1 1 0 2H4v-2Z" />
  <path _ngcontent-ng-c1909134112="" style="color: inherit" d="M7.5 4a1 1 0 0 1 1 1v14a1 1 0 1 1-2 0V5a1 1 0 0 1 1-1Z" />
</svg>