<svg xmlns="http://www.w3.org/2000/svg" viewBox="0 0 24 24" fill="none">
  <path _ngcontent-ng-c1909134112="" fill="currentColor" fill-rule="evenodd" clip-rule="evenodd" style="color: inherit" d="M12 1a1 1 0 0 1 1 1v1.055A9.004 9.004 0 0 1 20.945 11H22a1 1 0 1 1 0 2h-1.055A9.004 9.004 0 0 1 13 20.945V22a1 1 0 1 1-2 0v-1.055A9.004 9.004 0 0 1 3.055 13H2a1 1 0 1 1 0-2h1.055A9.004 9.004 0 0 1 11 3.055V2a1 1 0 0 1 1-1Zm6.93 10H18a1 1 0 1 0 0 2h.93A7.004 7.004 0 0 1 13 18.93V18a1 1 0 1 0-2 0v.93A7.004 7.004 0 0 1 5.07 13H6a1 1 0 1 0 0-2h-.93A7.005 7.005 0 0 1 11 5.07V6a1 1 0 1 0 2 0v-.93A7.004 7.004 0 0 1 18.93 11ZM12 10a2 2 0 1 0 0 4 2 2 0 0 0 0-4Z" />
</svg>