<svg xmlns="http://www.w3.org/2000/svg" viewBox="0 0 24 24" fill="currentColor">
  <path _ngcontent-ng-c1909134112="" fill-rule="evenodd" clip-rule="evenodd" style="color: inherit" d="M12 3.75a1 1 0 1 0 0 2 1 1 0 0 0 0-2Zm-3 1a3 3 0 1 1 4 2.83v2.34a3.006 3.006 0 0 1 1.38 1.005l2.228-.724a3.001 3.001 0 1 1 .618 1.902L15 12.827a2.984 2.984 0 0 1-.528 1.624l1.377 1.894a3.001 3.001 0 0 1 2.617 5.304 3 3 0 0 1-4.235-4.128l-1.377-1.894a3 3 0 0 1-1.707 0L9.769 17.52a3.001 3.001 0 1 1-1.618-1.176l1.377-1.894a2.985 2.985 0 0 1-.527-1.624l-2.228-.724a3.001 3.001 0 1 1 .618-1.902l2.228.724c.35-.456.828-.809 1.38-1.004V7.579A3.001 3.001 0 0 1 9 4.75Zm11.56 5.219a1 1 0 1 0-1.903.618 1 1 0 0 0 1.902-.618l.951-.31-.95.31ZM4.7 9.327a1 1 0 1 0-.618 1.902A1 1 0 0 0 4.7 9.327ZM12 11.75a1 1 0 1 0 0 2 1 1 0 0 0 0-2Zm-4.115 6.663a1 1 0 1 0-1.175 1.618 1 1 0 0 0 1.175-1.618Zm9.626.221a1 1 0 1 0-1.618 1.176 1 1 0 0 0 1.618-1.176Z" />
</svg>