<svg xmlns="http://www.w3.org/2000/svg" viewBox="0 0 24 24" fill="none">
  <path _ngcontent-ng-c1909134112="" fill="currentColor" fill-rule="evenodd" clip-rule="evenodd" style="color: inherit" d="m19.349 7.109.86-1.753a.25.25 0 0 1 .112-.114l1.79-.894a.25.25 0 0 0-.004-.449l-1.782-.858a.25.25 0 0 1-.117-.117l-.858-1.782a.25.25 0 0 0-.45-.004l-.894 1.79a.25.25 0 0 1-.114.112l-1.752.86a.25.25 0 0 0-.003.447l1.759.896a.25.25 0 0 1 .11.11l.895 1.759a.25.25 0 0 0 .448-.003ZM3.017 4.97c-.498-1.228.725-2.451 1.954-1.953L8.264 4.35l2.72-2.287c1.014-.853 2.555-.067 2.461 1.255l-.251 3.544 3.015 1.88c1.125.701.854 2.41-.432 2.729l-2.316.575 8.246 8.246a1 1 0 0 1-1.414 1.414l-8.246-8.246-.575 2.316c-.32 1.286-2.027 1.557-2.729.432l-1.88-3.015-3.544.251c-1.322.094-2.107-1.447-1.254-2.462l2.287-2.72L3.017 4.97Zm2.297.344 1.004 2.478a1.5 1.5 0 0 1-.242 1.528l-1.72 2.046 2.666-.189a1.5 1.5 0 0 1 1.38.703l1.414 2.268.644-2.594a1.5 1.5 0 0 1 1.094-1.095l2.595-.644-2.269-1.414a1.5 1.5 0 0 1-.703-1.379l.19-2.667L9.32 6.076a1.5 1.5 0 0 1-1.53.242L5.315 5.314Zm-.106 14.042-.86 1.753a.25.25 0 0 1-.447.003l-.896-1.76a.25.25 0 0 0-.11-.109l-1.758-.896a.25.25 0 0 1 .003-.447l1.753-.86a.25.25 0 0 0 .113-.113l.895-1.789a.25.25 0 0 1 .448.004l.859 1.782a.25.25 0 0 0 .116.117l1.783.858a.25.25 0 0 1 .003.449l-1.789.894a.25.25 0 0 0-.113.114Zm15.605-4.225.722-1.472a.21.21 0 0 1 .095-.096l1.502-.75a.21.21 0 0 0-.002-.378l-1.498-.72a.21.21 0 0 1-.098-.099l-.72-1.497a.21.21 0 0 0-.378-.003l-.751 1.503a.21.21 0 0 1-.095.095l-1.473.722a.21.21 0 0 0-.002.375l1.478.753a.21.21 0 0 1 .091.092l.753 1.478a.21.21 0 0 0 .376-.003Z" />
</svg>