<svg xmlns="http://www.w3.org/2000/svg" viewBox="0 0 24 24" fill="none">
  <path _ngcontent-ng-c1909134112="" fill="#F8AE00" style="color: inherit" d="m13.694 3.133-.619 1.26a.18.18 0 0 1-.321.003l-.645-1.265a.18.18 0 0 0-.078-.079l-1.266-.644a.18.18 0 0 1 .003-.322l1.26-.618a.18.18 0 0 0 .082-.081L12.753.1a.18.18 0 0 1 .323.002l.617 1.282a.18.18 0 0 0 .084.084l1.282.617a.18.18 0 0 1 .002.323l-1.286.644a.18.18 0 0 0-.081.081Z" />
  <path _ngcontent-ng-c1909134112="" fill="url('#cu3-icon-templatesColored-paint0_linear_7_374')" style="color: inherit" d="m1.468 13.184.618 1.26a.18.18 0 0 0 .322.002l.644-1.265a.18.18 0 0 1 .079-.078l1.265-.645a.18.18 0 0 0-.002-.322l-1.26-.618a.18.18 0 0 1-.083-.08l-.643-1.288a.18.18 0 0 0-.323.003l-.617 1.282a.18.18 0 0 1-.084.084l-1.282.617a.18.18 0 0 0-.002.323l1.287.643a.18.18 0 0 1 .08.082Z" />
  <path _ngcontent-ng-c1909134112="" fill="url('#cu3-icon-templatesColored-paint1_linear_7_374')" style="color: inherit" d="m14.768 9.086-.52 1.06a.151.151 0 0 1-.27.001l-.54-1.063a.151.151 0 0 0-.067-.066l-1.063-.541a.151.151 0 0 1 .003-.27l1.058-.52a.15.15 0 0 0 .069-.068l.54-1.08a.151.151 0 0 1 .271.002l.519 1.076a.15.15 0 0 0 .07.07l1.077.52a.151.151 0 0 1 .002.27l-1.08.54a.151.151 0 0 0-.069.07Z" />
  <path _ngcontent-ng-c1909134112="" fill="url('#cu3-icon-templatesColored-paint2_linear_7_374')" fill-rule="evenodd" clip-rule="evenodd" style="color: inherit" d="M1.033 2.574C.64 1.605 1.605.64 2.574 1.033l2.6 1.053L7.318.281c.8-.673 2.017-.053 1.943.99l-.199 2.797 2.38 1.483c.887.554.674 1.902-.341 2.154L8.38 8.38l-.675 2.722c-.252 1.015-1.6 1.228-2.153.34L4.068 9.064l-2.797.199C.228 9.336-.392 8.12.281 7.319l1.805-2.146-1.053-2.599Z" />
  <path _ngcontent-ng-c1909134112="" fill="url('#cu3-icon-templatesColored-paint3_linear_7_374')" style="color: inherit" d="m9.023 10.907.035.036 4.667 4.667a1.333 1.333 0 1 0 1.885-1.885l-4.667-4.667a1.41 1.41 0 0 0-.036-.035l-1.51.375-.374 1.51Z" />
  <path _ngcontent-ng-c1909134112="" fill="url('#cu3-icon-templatesColored-paint4_linear_7_374')" fill-rule="evenodd" clip-rule="evenodd" style="color: inherit" d="M1.033 2.574C.64 1.605 1.605.64 2.574 1.033l2.6 1.053L7.318.281c.8-.673 2.017-.053 1.943.99l-.199 2.797 2.38 1.483c.887.554.674 1.902-.341 2.154L8.38 8.38l-.675 2.722c-.252 1.015-1.6 1.228-2.153.34L4.068 9.064l-2.797.199C.228 9.336-.392 8.12.281 7.319l1.805-2.146-1.053-2.599Z" />
</svg>