<svg xmlns="http://www.w3.org/2000/svg" viewBox="0 0 24 24" fill="none">
  <path _ngcontent-ng-c1909134112="" fill="currentColor" fill-rule="evenodd" clip-rule="evenodd" style="color: inherit" d="M10 3.5a1.6 1.6 0 0 0-1.462 2.25l.376.844A1 1 0 0 1 8 8H4.31a.31.31 0 0 0-.31.31v11.38c0 .171.139.31.31.31h2.203C5.93 17.779 7.598 15.5 10 15.5s4.07 2.279 3.487 4.5h2.203a.31.31 0 0 0 .31-.31V15.5a1 1 0 0 1 1.447-.894l.91.455A1.826 1.826 0 0 0 21 13.428c0-1.478-1.663-2.343-2.873-1.496l-.553.387A1 1 0 0 1 16 11.5V8.31a.31.31 0 0 0-.31-.31H12a1 1 0 0 1-.914-1.406l.376-.845A1.6 1.6 0 0 0 10 3.5ZM6.513 6C5.93 3.779 7.598 1.5 10 1.5s4.07 2.279 3.487 4.5h2.203A2.31 2.31 0 0 1 18 8.31v1.47c2.357-.772 5 .952 5 3.648 0 2.646-2.59 4.431-5 3.643v2.619A2.31 2.31 0 0 1 15.69 22H12a1 1 0 0 1-.914-1.406l.376-.845a1.6 1.6 0 1 0-2.924 0l.376.845A1 1 0 0 1 8 22H4.31A2.31 2.31 0 0 1 2 19.69V8.31A2.31 2.31 0 0 1 4.31 6h2.203Z" />
</svg>