<svg xmlns="http://www.w3.org/2000/svg" viewBox="0 0 24 24" fill="currentColor">
  <path _ngcontent-ng-c1909134112="" fill-rule="evenodd" clip-rule="evenodd" style="color: inherit" d="M3.55 1.333a.667.667 0 0 0 0 1.334h.667v2c0 1.39.71 2.616 1.788 3.333a3.996 3.996 0 0 0-1.788 3.333v2H3.55a.667.667 0 1 0 0 1.334h6.601a2.267 2.267 0 0 1-.128-.119l-1.148-1.15a2.332 2.332 0 0 1-.063-.065H5.55v-2a2.667 2.667 0 0 1 4.669-1.761c.455-.05.923.038 1.334.266l.26-.26A4.019 4.019 0 0 0 10.427 8a3.996 3.996 0 0 0 1.788-3.333v-2h.667a.667.667 0 0 0 0-1.334H3.55Zm8.666 9.963-.6.6-.619-.618a.677.677 0 0 0-.008-.008l-.01-.009a.747.747 0 0 0-1.043.017.75.75 0 0 0 0 1.06l.947.948.202.202a.75.75 0 0 0 1.06 0l.155-.155 1.761-1.76a.75.75 0 1 0-1.06-1.061l-.785.784Zm-4-3.963a2.667 2.667 0 0 0 2.667-2.666v-2H5.55v2a2.667 2.667 0 0 0 2.667 2.666Z" />
</svg>