<svg xmlns="http://www.w3.org/2000/svg" viewBox="0 0 24 24" fill="none">
  <path _ngcontent-ng-c1909134112="" fill="#DE6C2D" style="color: inherit" d="M12 22c5.523 0 10-4.477 10-10S17.523 2 12 2 2 6.477 2 12s4.477 10 10 10Z" />
  <path _ngcontent-ng-c1909134112="" fill="#fff" style="color: inherit" d="M18.797 12.219v-.628h1.334a8.07 8.07 0 0 0-1.495-4.383c.98-1.228 3.507-4.693 3.274-5.088-.204-.345-3.818 1.77-5.35 3.056a8.079 8.079 0 0 0-4.326-1.391v1.249h-.636v-1.25c-4.192.205-7.558 3.6-7.713 7.806h1.158v.628H3.885a8.13 8.13 0 0 0 7.72 7.805v-1.242h.629v1.242c4.275-.12 7.728-3.543 7.89-7.805h-1.327Z" />
  <path _ngcontent-ng-c1909134112="" fill="#384158" fill-rule="evenodd" clip-rule="evenodd" style="color: inherit" d="m11.399 11.301-2.964-2.35-1.03 1.03 4.665 5.222c2.088-3.953 5.752-8.778 8.639-11.976-1.68.797-6.809 5.314-9.309 8.073l-.001.001Z" />
</svg>