<svg xmlns="http://www.w3.org/2000/svg" viewBox="0 0 24 24" fill="currentColor">
  <path _ngcontent-ng-c1909134112="" fill-rule="evenodd" clip-rule="evenodd" style="color: inherit" d="M5 2a1 1 0 1 0 0 2h1v3a5.994 5.994 0 0 0 2.682 5A5.994 5.994 0 0 0 6 17v3H5a1 1 0 1 0 0 2h10.69a1.95 1.95 0 0 1-.035-1.4 1.958 1.958 0 0 1-.864-.6H8v-3a4 4 0 0 1 6.96-2.69 1.54 1.54 0 0 1 .137-.005h2.265a6.028 6.028 0 0 0-2.044-2.306A5.994 5.994 0 0 0 18 7V4h1a1 1 0 1 0 0-2H5Zm14.901 18.565a.757.757 0 0 1-.314 1.445H17.5a.757.757 0 0 1 0-1.513h2.087a.75.75 0 0 1 .314.068ZM16 19.448c.091.039.192.06.298.06h4.491a.755.755 0 0 0 0-1.509h-4.491a.752.752 0 0 0-.755.755c0 .311.188.578.457.694Zm0-2.436h-.903a.753.753 0 1 1 0-1.508h6.893a.754.754 0 1 1 0 1.508H16Zm-4-6.013a4 4 0 0 0 4-4V4H8v3a4 4 0 0 0 4 4Z" />
</svg>