<svg xmlns="http://www.w3.org/2000/svg" viewBox="0 0 24 24" fill="currentColor">
  <path _ngcontent-ng-c1909134112="" fill-rule="evenodd" clip-rule="evenodd" style="color: inherit" d="M2.883 2c0-.368.299-.667.667-.667h9.333a.667.667 0 0 1 0 1.334h-.666v2c0 1.39-.71 2.616-1.789 3.333.268.178.513.387.73.623a2.244 2.244 0 0 0-1.469.487 2.667 2.667 0 0 0-4.14 2.224v2h3.21c.024.476.198.946.522 1.333H3.55a.667.667 0 0 1 0-1.334h.667v-2c0-1.391.71-2.616 1.788-3.333a3.996 3.996 0 0 1-1.788-3.333v-2H3.55A.667.667 0 0 1 2.883 2Zm8 2.667a2.667 2.667 0 0 1-5.333 0v-2h5.333v2Zm3.087 5.593a.75.75 0 0 1 0 1.06l-.687.686.605.604a.75.75 0 1 1-1.06 1.061l-.605-.604-.686.686a.75.75 0 1 1-1.06-1.06l.685-.687-.604-.604a.75.75 0 1 1 1.062-1.06l.603.603.687-.686a.75.75 0 0 1 1.06 0Z" />
</svg>