<svg xmlns="http://www.w3.org/2000/svg" viewBox="0 0 24 24" fill="currentColor">
  <path _ngcontent-ng-c1909134112="" style="color: inherit" d="M13 7a1 1 0 1 0-2 0h2Zm-1 4h-1a1 1 0 0 0 .606.92L12 11Zm3.106 2.42a1 1 0 0 0 .788-1.84l-.788 1.84ZM2 12a1 1 0 1 0 2 0H2Zm18 0a1 1 0 1 0 2 0h-2ZM4 17a1 1 0 1 0-2 0h2Zm-2 4a1 1 0 1 0 2 0H2Zm6.5-3a1 1 0 1 0-2 0h2Zm-2 2a1 1 0 1 0 2 0h-2Zm6.5-3a1 1 0 1 0-2 0h2Zm-2 4a1 1 0 1 0 2 0h-2Zm6.5-3a1 1 0 1 0-2 0h2Zm-2 2a1 1 0 1 0 2 0h-2Zm6.5-3a1 1 0 1 0-2 0h2Zm-2 4a1 1 0 1 0 2 0h-2ZM11 7v4h2V7h-2Zm.606 4.92 3.5 1.5.788-1.84-3.5-1.5-.788 1.84ZM4 12a8 8 0 0 1 8-8V2C6.477 2 2 6.477 2 12h2Zm8-8a8 8 0 0 1 8 8h2c0-5.523-4.477-10-10-10v2ZM2 17v4h2v-4H2Zm4.5 1v2h2v-2h-2Zm4.5-1v4h2v-4h-2Zm4.5 1v2h2v-2h-2Zm4.5-1v4h2v-4h-2Z" />
</svg>