<svg xmlns="http://www.w3.org/2000/svg" viewBox="0 0 24 24" fill="none">
  <path _ngcontent-ng-c1909134112="" fill="#455272" style="color: inherit" d="M22 12c0 5.523-4.477 10-10 10S2 17.523 2 12 6.477 2 12 2s10 4.477 10 10Z" />
  <path _ngcontent-ng-c1909134112="" fill="#fff" fill-rule="evenodd" clip-rule="evenodd" style="color: inherit" d="M11.707 5.311a.45.45 0 0 1 .46-.44 7.13 7.13 0 1 1-3.628.894.45.45 0 0 1 .438.786 6.23 6.23 0 1 0 3.17-.78.45.45 0 0 1-.44-.46Z" />
  <path _ngcontent-ng-c1909134112="" fill="#D0D3DB" fill-rule="evenodd" clip-rule="evenodd" style="color: inherit" d="M11.761 7.065a.45.45 0 0 1 .469-.43 5.37 5.37 0 0 1 4.973 6.697.45.45 0 1 1-.872-.222 4.47 4.47 0 0 0-4.14-5.576.45.45 0 0 1-.43-.469Z" />
  <path _ngcontent-ng-c1909134112="" fill="#8F97AA" fill-rule="evenodd" clip-rule="evenodd" style="color: inherit" d="M11.813 8.814a.45.45 0 0 1 .486-.412 3.609 3.609 0 0 1 2.734 1.638.45.45 0 0 1-.756.49 2.709 2.709 0 0 0-2.052-1.23.45.45 0 0 1-.412-.486Z" />
</svg>