<svg xmlns="http://www.w3.org/2000/svg" viewBox="0 0 24 24" fill="currentColor">
  <path _ngcontent-ng-c1909134112="" fill-rule="evenodd" clip-rule="evenodd" style="color: inherit" d="M12.1 5C8.167 5 5 8.146 5 12s3.167 7 7.1 7c3.387 0 6.21-2.336 6.925-5.446a1 1 0 1 1 1.95.448C20.052 18.016 16.423 21 12.1 21 7.086 21 3 16.982 3 12s4.086-9 9.1-9a8.79 8.79 0 0 1 3.046.545 1 1 0 1 1-.692 1.877A6.789 6.789 0 0 0 12.1 5Zm9.607-.207a1 1 0 0 1 0 1.414l-9 9a1 1 0 0 1-1.414 0l-2.5-2.5a1 1 0 1 1 1.414-1.414L12 13.086l8.293-8.293a1 1 0 0 1 1.414 0Z" />
</svg>