<svg xmlns="http://www.w3.org/2000/svg" viewBox="0 0 24 24" fill="currentColor">
  <path _ngcontent-ng-c1909134112="" fill-rule="evenodd" clip-rule="evenodd" style="color: inherit" d="M8 5a1 1 0 0 1 1-1h12a1 1 0 1 1 0 2H9a1 1 0 0 1-1-1Zm0 7a1 1 0 0 1 1-1h12a1 1 0 1 1 0 2H9a1 1 0 0 1-1-1Zm0 7a1 1 0 0 1 1-1h12a1 1 0 1 1 0 2H9a1 1 0 0 1-1-1Z" />
  <path _ngcontent-ng-c1909134112="" style="color: inherit" d="M3 6.73V3.27c0-.24.319-.36.505-.19l1.908 1.73a.252.252 0 0 1 0 .38L3.505 6.92C3.32 7.09 3 6.97 3 6.73Zm0 7v-3.46c0-.24.319-.36.505-.19l1.908 1.73a.252.252 0 0 1 0 .38l-1.908 1.73c-.186.17-.505.05-.505-.19Zm0 7v-3.46c0-.24.319-.36.505-.19l1.908 1.73a.252.252 0 0 1 0 .38l-1.908 1.73c-.186.17-.505.05-.505-.19Z" />
</svg>