<svg xmlns="http://www.w3.org/2000/svg" viewBox="0 0 24 24" fill="none">
  <path _ngcontent-ng-c1909134112="" fill="currentColor" fill-rule="evenodd" clip-rule="evenodd" style="color: inherit" d="M2.586 6.305a2 2 0 0 0 0 2.829l3.15 3.15-2.994 2.993a2 2 0 0 0-.586 1.414v3.149a2 2 0 0 0 2 2h3.15a2 2 0 0 0 1.414-.586l2.993-2.993 3.149 3.15a2 2 0 0 0 2.828 0l3.72-3.72a2 2 0 0 0 0-2.829l-3.149-3.15 3.15-3.148a2 2 0 0 0 0-2.829l-3.15-3.149a2 2 0 0 0-2.829 0l-3.149 3.15-3.15-3.15a2 2 0 0 0-2.828 0l-3.72 3.72Zm8.973 1.535a.924.924 0 0 0 .034.033l1.558 1.558-1.575 1.575a1 1 0 1 0 1.414 1.414l1.575-1.575 1.558 1.558a.666.666 0 0 0 .034.034l.416.417L15 14.428a1 1 0 0 0 1.414 1.414l1.575-1.574 2.008 2.008-3.72 3.72L4 7.72 7.72 4l2.008 2.008-1.575 1.575a1 1 0 0 0 1.415 1.414l1.574-1.574.417.417Zm5.288 2.459-3.15-3.15L16.848 4l3.149 3.15-3.15 3.149Zm-6.548 6.548-3.15-3.15-2.993 2.994v3.149h3.15l2.993-2.993Z" />
</svg>