<svg xmlns="http://www.w3.org/2000/svg" viewBox="0 0 24 24" fill="currentColor">
  <path _ngcontent-ng-c1909134112="" fill-rule="evenodd" clip-rule="evenodd" style="color: inherit" d="M20 5a1 1 0 1 1 0 2c-1.278 0-2.044.322-2.565.727-.547.425-.922 1.014-1.302 1.738-.066.125-.134.26-.206.402A16.05 16.05 0 0 1 15.314 11H20a1 1 0 1 1 0 2h-4.686c.231.378.432.775.613 1.133.072.141.14.277.206.402.38.724.755 1.313 1.302 1.738.521.405 1.287.727 2.565.727a1 1 0 1 1 0 2c-1.649 0-2.866-.428-3.792-1.148-.901-.7-1.439-1.611-1.846-2.387a48.032 48.032 0 0 1-.28-.544c-.287-.564-.505-.991-.798-1.34C12.98 13.22 12.635 13 12 13s-.98.22-1.284.581c-.293.349-.511.776-.798 1.34-.086.168-.178.35-.28.544-.407.776-.945 1.687-1.846 2.387C6.866 18.572 5.65 19 4 19a1 1 0 1 1 0-2c1.278 0 2.044-.322 2.565-.727.547-.425.922-1.014 1.302-1.738.066-.126.135-.26.206-.402.181-.358.382-.755.613-1.133H4a1 1 0 1 1 0-2h4.686a16.05 16.05 0 0 1-.613-1.133c-.071-.141-.14-.277-.206-.402-.38-.724-.755-1.313-1.302-1.738C6.044 7.322 5.278 7 4 7a1 1 0 1 1 0-2c1.649 0 2.866.428 3.792 1.148.901.7 1.439 1.611 1.846 2.387.102.195.194.376.28.544.287.564.505.991.798 1.34.304.362.649.581 1.284.581s.98-.22 1.284-.581c.293-.349.511-.776.798-1.34.086-.168.178-.35.28-.544.407-.776.945-1.687 1.846-2.387C17.134 5.428 18.35 5 20 5Z" />
</svg>