<svg xmlns="http://www.w3.org/2000/svg" viewBox="0 0 24 24" fill="none">
  <path _ngcontent-ng-c1909134112="" fill="var(--cu-background-main-inverse)" fill-opacity=".055" style="color: inherit" d="M9.402 3.5c1.155-2 4.041-2 5.196 0l8.66 15c1.155 2-.288 4.5-2.598 4.5H3.34C1.03 23-.413 20.5.742 18.5l8.66-15Z" />
  <path _ngcontent-ng-c1909134112="" fill="currentColor" fill-rule="evenodd" clip-rule="evenodd" style="color: inherit" d="m21.526 19.5-8.66-15a1 1 0 0 0-1.732 0l-8.66 15A1 1 0 0 0 3.34 21h17.32a1 1 0 0 0 .866-1.5Zm-6.928-16c-1.155-2-4.041-2-5.196 0l-8.66 15C-.413 20.5 1.03 23 3.34 23h17.32c2.31 0 3.753-2.5 2.598-4.5l-8.66-15Z" />
</svg>