<svg xmlns="http://www.w3.org/2000/svg" viewBox="0 0 24 24" fill="none">
  <path _ngcontent-ng-c1909134112="" fill="#CF272D" style="color: inherit" d="M12 19.365a7.365 7.365 0 1 1 0-14.73 7.365 7.365 0 0 1 0 14.73ZM12 2C6.477 2 2 6.477 2 12s4.477 10 10 10 10-4.477 10-10S17.523 2 12 2Z" />
  <path _ngcontent-ng-c1909134112="" fill="#CF272D" style="color: inherit" d="M12.411 9.51a2.08 2.08 0 1 1 4.159 0 2.08 2.08 0 0 1-4.159 0Zm0 4.98a2.08 2.08 0 1 1 4.159 0 2.08 2.08 0 0 1-4.159 0Zm-4.98 0a2.08 2.08 0 1 1 4.158 0 2.08 2.08 0 0 1-4.159 0Zm0-4.98a2.08 2.08 0 1 1 4.158 0 2.08 2.08 0 0 1-4.159 0Z" />
</svg>