<svg xmlns="http://www.w3.org/2000/svg" viewBox="0 0 24 24" fill="none">
  <path _ngcontent-ng-c1909134112="" fill="#3AAFA9" style="color: inherit" d="M9.152 14.844a2.377 2.377 0 0 0 2.379-2.368v-.07l.035-.794v-.12c.12-1.747 1.527-3.095 3.177-3.095 1.77 0 3.228 1.451 3.228 3.215v.034l-.017 2.3a.43.43 0 0 1-.434.432.42.42 0 0 1-.417-.45l.017-2.299a2.367 2.367 0 0 0-2.379-2.368c-1.198 0-2.24 1.037-2.326 2.3v.085l-.035.864v.052c-.052 1.746-1.475 3.146-3.212 3.146a3.208 3.208 0 0 1-3.211-3.198l.017-.017h-.017v-2.195c0-.241.19-.398.434-.398.243 0 .434.173.417.398l-.034 2.195a2.386 2.386 0 0 0 2.378 2.351ZM12.017 2h-.052A10.018 10.018 0 0 0 2 11.266v1.468A10.007 10.007 0 0 0 11.983 22C17.52 22 22 17.523 22 11.991 22 6.494 17.538 2.017 12.017 2Z" />
</svg>