<svg xmlns="http://www.w3.org/2000/svg" viewBox="0 0 24 24" fill="none">
  <path _ngcontent-ng-c1909134112="" fill="url('#cu3-icon-universalSearch-uni-search-svg-a')" style="color: inherit" d="M17.38 9.24a.134.134 0 0 1 .24.002l.458.951c.013.027.035.05.062.062l.951.458c.1.048.101.19.002.24l-.954.477a.134.134 0 0 0-.06.06l-.46.935a.133.133 0 0 1-.238.002l-.478-.938a.134.134 0 0 0-.058-.059l-.939-.478a.133.133 0 0 1 .002-.238l.935-.459a.134.134 0 0 0 .06-.06l.478-.955Z" />
  <path _ngcontent-ng-c1909134112="" fill="url('#cu3-icon-universalSearch-uni-search-svg-b')" style="color: inherit" d="m16.2 17.967-3.223-3.222a7.961 7.961 0 0 0 1.768-1.767l3.222 3.222a1.25 1.25 0 0 1-1.768 1.767Z" />
  <path _ngcontent-ng-c1909134112="" fill="url('#cu3-icon-universalSearch-uni-search-svg-c')" style="color: inherit" d="M16.57 4.167a.167.167 0 0 1-.299 0l-.399-.798a.166.166 0 0 0-.074-.075L15 2.895a.167.167 0 0 1 0-.298l.798-.399a.166.166 0 0 0 .075-.074l.399-.798a.167.167 0 0 1 .298 0l.399.798a.167.167 0 0 0 .074.074l.798.4a.167.167 0 0 1 0 .297l-.798.4a.167.167 0 0 0-.074.074l-.4.798Z" />
  <path _ngcontent-ng-c1909134112="" fill="url('#cu3-icon-universalSearch-uni-search-svg-d')" style="color: inherit" d="M3.828 18.913a.23.23 0 0 1-.41 0l-.55-1.099a.23.23 0 0 0-.102-.103l-1.1-.55a.23.23 0 0 1 0-.41l1.1-.55a.23.23 0 0 0 .102-.102L3.418 15a.23.23 0 0 1 .41 0l.55 1.1a.23.23 0 0 0 .103.102l1.099.55a.23.23 0 0 1 0 .41l-1.1.55a.23.23 0 0 0-.102.102l-.55 1.099Z" />
  <path _ngcontent-ng-c1909134112="" fill="url('#cu3-icon-universalSearch-uni-search-svg-e')" fill-rule="evenodd" clip-rule="evenodd" style="color: inherit" d="M15 8.333a6.667 6.667 0 1 1-13.333 0 6.667 6.667 0 0 1 13.333 0Zm-2.5 0a4.167 4.167 0 1 1-8.333 0 4.167 4.167 0 0 1 8.333 0Z" />
</svg>