<svg xmlns="http://www.w3.org/2000/svg" viewBox="0 0 24 24" fill="currentColor">
  <path _ngcontent-ng-c1909134112="" fill-rule="evenodd" clip-rule="evenodd" style="color: inherit" d="M11.843 3.743a5.95 5.95 0 1 1 8.414 8.414l-1.55 1.55a1 1 0 0 1-1.414-1.414l1.55-1.55a3.95 3.95 0 1 0-5.586-5.586l-1.55 1.55a1 1 0 1 1-1.414-1.414l1.55-1.55Zm-6.55 1.55a1 1 0 0 1 1.414 0l12 12a1 1 0 0 1-1.414 1.414l-12-12a1 1 0 0 1 0-1.414Zm1.414 5a1 1 0 0 1 0 1.414l-1.55 1.55a3.95 3.95 0 0 0 5.586 5.586l1.55-1.55a1 1 0 1 1 1.414 1.414l-1.55 1.55a5.95 5.95 0 0 1-8.414-8.414l1.55-1.55a1 1 0 0 1 1.414 0Z" />
</svg>