<svg xmlns="http://www.w3.org/2000/svg" viewBox="0 0 24 24" fill="currentColor">
  <path _ngcontent-ng-c1909134112="" fill-rule="evenodd" clip-rule="evenodd" style="color: inherit" d="M7 7a5 5 0 0 1 9.33-2.5 1 1 0 0 1-1.73 1A3 3 0 0 0 9 7v2h8a3 3 0 0 1 3 3v5.172a3 3 0 0 1-.879 2.12l-1.828 1.83a3 3 0 0 1-2.121.878H8.828a3 3 0 0 1-2.12-.879l-1.83-1.828A3 3 0 0 1 4 17.172V12a3 3 0 0 1 3-3V7Zm0 4a1 1 0 0 0-1 1v5.172a1 1 0 0 0 .293.707l1.828 1.828a1 1 0 0 0 .707.293h6.344a1 1 0 0 0 .707-.293l1.828-1.828a1 1 0 0 0 .293-.707V12a1 1 0 0 0-1-1H7Zm3 5a1 1 0 0 1 1-1h2a1 1 0 1 1 0 2h-2a1 1 0 0 1-1-1Z" />
</svg>