<svg xmlns="http://www.w3.org/2000/svg" viewBox="0 0 24 24" fill="none">
  <path _ngcontent-ng-c1909134112="" fill="currentColor" fill-rule="evenodd" clip-rule="evenodd" style="color: inherit" d="M9.97 8.243a1.003 1.003 0 0 1-.077.207l-.443.443a1 1 0 0 1-1.42-1.136l.453-1.81a6.998 6.998 0 0 0-3.375 7.288l-1.64 1.64A8.989 8.989 0 0 1 3 12a8.993 8.993 0 0 1 4.263-7.654L5.757 3.97a1 1 0 0 1 .486-1.94l4 1a1 1 0 0 1 .727 1.213l-1 4Zm4.06 7.514a.968.968 0 0 1 .077-.207l.443-.443a1 1 0 0 1 1.42 1.135l-.453 1.812a6.998 6.998 0 0 0 3.375-7.289l1.64-1.64c.303.903.468 1.87.468 2.875a8.993 8.993 0 0 1-4.263 7.654l1.506.376a1 1 0 1 1-.485 1.94l-4-1a1 1 0 0 1-.728-1.212l1-4Zm6.677-11.05a1 1 0 0 0-1.414-1.414l-16 16a1 1 0 1 0 1.414 1.414l16-16Z" />
</svg>