<svg xmlns="http://www.w3.org/2000/svg" viewBox="0 0 24 24" fill="none">
  <path _ngcontent-ng-c1909134112="" style="color: inherit" d="m12.335 8.16.362-.344a.481.481 0 0 0-.024-.024l-.45-.411c-.743-.68-1.068-1.718-1.045-2.817.022-1.059-.148-2.144-.807-2.969C9.695.75 8.59.281 6.98.281c-1.612 0-2.717.467-3.393 1.313-.66.825-.828 1.911-.805 2.972.023 1.098-.302 2.135-1.044 2.814l-.451.412-.007.006.043.045-.049-.04.006-.005-.002.002-.004.003-.008.009a1.168 1.168 0 0 0-.097.108 1.573 1.573 0 0 0-.186.29 1.248 1.248 0 0 0-.13.67c.035.056.1.131.215.22.446.344 1.572.823 4.292 1.024.446.033.946.05 1.503.05.624 0 1.177-.022 1.666-.063 2.634-.22 3.77-.694 4.241-1.039a.963.963 0 0 0 .272-.274 1.22 1.22 0 0 0-.081-.556 1.412 1.412 0 0 0-.249-.41l-.008-.01-.004-.003-.001-.002s-.002-.001-.364.344ZM9.779 10.984a21.122 21.122 0 0 1-2.915.19 21.494 21.494 0 0 1-2.748-.166 2.833 2.833 0 0 0 5.663-.024Z" />
</svg>