<svg xmlns="http://www.w3.org/2000/svg" viewBox="0 0 24 24" fill="currentColor">
  <path _ngcontent-ng-c1909134112="" fill-rule="evenodd" clip-rule="evenodd" style="color: inherit" d="M7.401 7.34a5.758 5.758 0 0 1 1.47-1.382 3.796 3.796 0 0 0-5.37 5.347 5.974 5.974 0 0 0-3.114 4.511 1 1 0 0 0 1.985.25c.245-1.952 1.928-3.474 3.978-3.474.074 0 .145-.008.214-.023a5.72 5.72 0 0 1-.29-1.979A1.796 1.796 0 1 1 7.4 7.34Zm7.723-1.382c.567.37 1.065.839 1.47 1.381a1.796 1.796 0 1 1 1.128 3.25l.001.166a5.72 5.72 0 0 1-.293 1.814c.07.015.14.023.214.023 2.05 0 3.734 1.522 3.979 3.474a1 1 0 0 0 1.984-.25 5.974 5.974 0 0 0-3.113-4.512 3.796 3.796 0 0 0-5.37-5.347ZM9.77 10.755a2.226 2.226 0 1 1 4.453 0 2.226 2.226 0 0 1-4.453 0Zm6.453 0a4.212 4.212 0 0 1-1.19 2.939 6.742 6.742 0 0 1 3.691 5.181 1 1 0 1 1-1.984.25c-.293-2.33-2.3-4.143-4.744-4.143-2.443 0-4.45 1.813-4.743 4.143a1 1 0 1 1-1.984-.25 6.742 6.742 0 0 1 3.69-5.181 4.226 4.226 0 1 1 7.264-2.938Z" />
</svg>