<svg xmlns="http://www.w3.org/2000/svg" viewBox="0 0 24 24" fill="currentColor">
  <path _ngcontent-ng-c1909134112="" fill-rule="evenodd" clip-rule="evenodd" style="color: inherit" d="M7 9a1.25 1.25 0 1 0 0 2.5A1.25 1.25 0 0 0 7 9Zm2.59 3.213a3.25 3.25 0 1 0-5.181 0 4.999 4.999 0 0 0-2.401 3.662 1 1 0 0 0 1.984.25A3.021 3.021 0 0 1 7 13.5a3.021 3.021 0 0 1 3.008 2.625 1 1 0 1 0 1.984-.25 4.999 4.999 0 0 0-2.401-3.662ZM14 10a1 1 0 0 1 1-1h6a1 1 0 1 1 0 2h-6a1 1 0 0 1-1-1Zm0 4a1 1 0 0 1 1-1h3a1 1 0 1 1 0 2h-3a1 1 0 0 1-1-1Z" />
</svg>