<svg xmlns="http://www.w3.org/2000/svg" viewBox="0 0 24 24" fill="currentColor">
  <path _ngcontent-ng-c1909134112="" fill-rule="evenodd" clip-rule="evenodd" style="color: inherit" d="M10 4a2.937 2.937 0 1 0 0 5.875A2.937 2.937 0 0 0 10 4Zm3.326 6.587a4.938 4.938 0 1 0-6.652 0c-2.495 1.125-4.313 3.478-4.666 6.288a1 1 0 0 0 1.984.25c.371-2.954 2.915-5.25 6.008-5.25a6.06 6.06 0 0 1 3.435 1.059 1 1 0 0 0 1.13-1.651c-.39-.267-.804-.5-1.24-.696Zm4.119 1.054a2.2 2.2 0 0 1 3.11 0l.804.803a2.2 2.2 0 0 1 0 3.112l-5.652 5.651a1 1 0 0 1-.543.28l-3 .5a1 1 0 0 1-1.15-1.151l.5-3a1 1 0 0 1 .279-.543l5.652-5.652Zm1.697 1.415a.2.2 0 0 0-.283 0l-5.425 5.425-.217 1.302 1.303-.217 5.425-5.425a.2.2 0 0 0 0-.282l-.803-.803Z" />
</svg>