<svg xmlns="http://www.w3.org/2000/svg" viewBox="0 0 24 24" fill="currentColor">
  <path _ngcontent-ng-c1909134112="" fill-rule="evenodd" clip-rule="evenodd" style="color: inherit" d="M10 4a2.937 2.937 0 1 0 0 5.875A2.937 2.937 0 0 0 10 4Zm3.326 6.587a4.938 4.938 0 1 0-6.652 0c-2.495 1.125-4.313 3.478-4.666 6.288a1 1 0 0 0 1.984.25c.371-2.954 2.915-5.25 6.008-5.25a6.074 6.074 0 0 1 3.435 1.059 1 1 0 0 0 1.13-1.651 8.052 8.052 0 0 0-1.24-.696Zm3.886 4.639a.25.25 0 0 0-.424 0l-2.745 4.391a.25.25 0 0 0 .212.383h5.49a.25.25 0 0 0 .212-.383l-2.745-4.391Zm-2.12-1.06c.881-1.41 2.935-1.41 3.816 0l2.745 4.392c.936 1.498-.141 3.442-1.908 3.442h-5.49c-1.767 0-2.844-1.944-1.908-3.442l2.745-4.392Z" />
</svg>