<svg xmlns="http://www.w3.org/2000/svg" viewBox="0 0 24 24" fill="currentColor">
  <path _ngcontent-ng-c1909134112="" style="color: inherit" d="M2.008 16.875a1 1 0 0 0 1.984.25l-1.984-.25Zm11.427-3.941a1 1 0 0 0 1.13-1.651l-1.13 1.65ZM13 11.538l.423-.906-.423.906ZM22 19a1 1 0 1 0 0-2v2Zm-7-2a1 1 0 1 0 0 2v-2Zm7-1a1 1 0 1 0 0-2v2Zm-7-2a1 1 0 1 0 0 2v-2Zm3 8a1 1 0 1 0 0-2v2Zm-3-2a1 1 0 1 0 0 2v-2ZM12.937 6.937A2.938 2.938 0 0 1 10 9.876v2a4.937 4.937 0 0 0 4.937-4.938h-2ZM10 9.876a2.937 2.937 0 0 1-2.938-2.938h-2A4.937 4.937 0 0 0 10 11.875v-2ZM7.062 6.937A2.937 2.937 0 0 1 10 4V2a4.937 4.937 0 0 0-4.938 4.938h2ZM10 4a2.938 2.938 0 0 1 2.937 2.938h2A4.937 4.937 0 0 0 10 2v2ZM3.992 17.125c.371-2.954 2.915-5.25 6.008-5.25v-2c-4.102 0-7.495 3.047-7.992 7l1.984.25ZM15 16h7v-2h-7v2Zm0 3h7v-2h-7v2Zm-5-7.125c.924 0 1.796.204 2.577.569l.846-1.812A8.074 8.074 0 0 0 10 9.875v2Zm2.577.569a6 6 0 0 1 .858.49l1.13-1.651a8.052 8.052 0 0 0-1.142-.651l-.846 1.812ZM15 22h3v-2h-3v2Z" />
  <path _ngcontent-ng-c1909134112="" fill-rule="evenodd" clip-rule="evenodd" style="color: inherit" d="M10 4a2.937 2.937 0 1 0 0 5.875A2.937 2.937 0 0 0 10 4Zm3.326 6.587a4.938 4.938 0 1 0-6.652 0c-2.495 1.125-4.313 3.478-4.666 6.288a1 1 0 0 0 1.984.25c.371-2.954 2.915-5.25 6.008-5.25a6.074 6.074 0 0 1 3.435 1.059 1 1 0 0 0 1.13-1.651 8.052 8.052 0 0 0-1.24-.696ZM14 15a1 1 0 0 1 1-1h7a1 1 0 1 1 0 2h-7a1 1 0 0 1-1-1Zm0 3a1 1 0 0 1 1-1h7a1 1 0 1 1 0 2h-7a1 1 0 0 1-1-1Zm0 3a1 1 0 0 1 1-1h3a1 1 0 1 1 0 2h-3a1 1 0 0 1-1-1Z" />
</svg>