<svg xmlns="http://www.w3.org/2000/svg" viewBox="0 0 24 24" fill="currentColor">
  <path _ngcontent-ng-c1909134112="" fill-rule="evenodd" clip-rule="evenodd" style="color: inherit" d="M6.063 8.938a2.938 2.938 0 1 1 5.875 0 2.938 2.938 0 0 1-5.875 0Zm7.875 0a4.924 4.924 0 0 1-1.612 3.649c2.495 1.125 4.313 3.478 4.666 6.288a1 1 0 1 1-1.984.25c-.371-2.953-2.915-5.25-6.008-5.25s-5.637 2.297-6.008 5.25a1 1 0 1 1-1.984-.25c.353-2.81 2.17-5.163 4.666-6.288a4.938 4.938 0 1 1 8.263-3.65Zm7.89.648a1 1 0 1 0-1.414-1.414L19 9.586l-1.414-1.414a1 1 0 1 0-1.414 1.414L17.586 11l-1.414 1.414a1 1 0 0 0 1.414 1.414L19 12.414l1.414 1.414a1 1 0 0 0 1.414-1.414L20.414 11l1.414-1.414Z" />
</svg>