<svg xmlns="http://www.w3.org/2000/svg" viewBox="0 0 24 24" fill="currentColor">
  <path _ngcontent-ng-c1909134112="" fill-rule="evenodd" clip-rule="evenodd" style="color: inherit" d="M15.5 5c-.703 0-1.34.272-1.816.718a1 1 0 0 1-1.368-1.46 4.656 4.656 0 0 1 6.399 6.766 7.51 7.51 0 0 1 4.277 5.851 1 1 0 1 1-1.984.25c-.34-2.707-2.672-4.813-5.508-4.813a1 1 0 1 1 0-2A2.656 2.656 0 1 0 15.5 5Zm-7 3a2.656 2.656 0 1 0 0 5.312A2.656 2.656 0 0 0 8.5 8Zm3.215 6.024a4.656 4.656 0 1 0-6.43 0 7.51 7.51 0 0 0-4.277 5.851 1 1 0 0 0 1.984.25c.34-2.707 2.672-4.813 5.508-4.813s5.168 2.106 5.508 4.813a1 1 0 1 0 1.984-.25c-.326-2.598-1.988-4.779-4.277-5.85Z" />
</svg>