<svg xmlns="http://www.w3.org/2000/svg" viewBox="0 0 24 24" fill="none">
  <path _ngcontent-ng-c1909134112="" fill="currentColor" fill-rule="evenodd" clip-rule="evenodd" style="color: inherit" d="M10 2C8.273 2 7.01 3.274 7 5.022a31.096 31.096 0 0 0 0 .455c.01 1.111.298 2.188.82 2.966.51.758 1.23 1.222 2.18 1.222.95 0 1.669-.464 2.179-1.223.522-.777.81-1.854.82-2.965a32.442 32.442 0 0 0 0-.455c-.01-1.748-1.272-3.024-3-3.024ZM5.667 5.013C5.682 2.554 7.519.666 10 .666c2.48 0 4.317 1.889 4.332 4.348a33.052 33.052 0 0 1 0 .475c-.011 1.308-.347 2.656-1.047 3.698C12.572 10.248 11.47 11 10 11c-1.47 0-2.573-.75-3.286-1.812-.7-1.042-1.035-2.39-1.046-3.698a32.116 32.116 0 0 1-.001-.475Zm1.682 8.937c-2.534-.589-4.987 1.341-4.766 3.774l.08.882a.667.667 0 0 1-1.327.12l-.08-.882c-.318-3.493 3.134-5.95 6.395-5.192.926.216 1.747.347 2.349.347.601 0 1.423-.131 2.348-.347 3.262-.759 6.713 1.7 6.396 5.192l-.08.882a.667.667 0 1 1-1.328-.12l.08-.882c.221-2.433-2.231-4.363-4.765-3.773-.954.222-1.894.382-2.651.382-.757 0-1.698-.16-2.651-.382Z" />
</svg>