<svg xmlns="http://www.w3.org/2000/svg" viewBox="0 0 24 24" fill="currentColor">
  <path _ngcontent-ng-c1909134112="" opacity=".1" style="color: inherit" d="M12 1.6c5.962 0 10.4 4.438 10.4 10.4 0 5.996-4.405 10.4-10.4 10.4-5.996 0-10.4-4.404-10.4-10.4C1.6 6.038 6.037 1.6 12 1.6Z" />
  <path _ngcontent-ng-c1909134112="" fill-rule="evenodd" clip-rule="evenodd" style="color: inherit" d="M12 2.4c-5.52 0-9.6 4.08-9.6 9.6 0 5.554 4.046 9.6 9.6 9.6 5.553 0 9.6-4.046 9.6-9.6 0-5.52-4.08-9.6-9.6-9.6ZM.8 12C.8 5.596 5.595.8 12 .8 18.404.8 23.2 5.596 23.2 12c0 6.438-4.763 11.2-11.2 11.2C5.562 23.2.8 18.438.8 12Z" />
  <path _ngcontent-ng-c1909134112="" fill-rule="evenodd" clip-rule="evenodd" style="color: inherit" d="M15.987 8.658c-.057.712-.297 1.427-.719 1.947-.71.876-1.528 1.267-2.191 1.428a.252.252 0 0 0-.04.026.9.9 0 0 0-.138.137c-.064.075-.124.229-.124.515V14a.8.8 0 0 1-1.6 0v-1.289c0-.455.086-1.055.5-1.546.188-.224.532-.567 1.02-.685.368-.09.867-.311 1.33-.882.172-.213.33-.596.367-1.067.037-.463-.048-.928-.26-1.296-.53-.923-1.446-1.294-2.317-1.228-.895.069-1.62.58-1.854 1.303a.8.8 0 1 1-1.522-.494c.478-1.474 1.864-2.298 3.254-2.404 1.412-.108 2.953.507 3.826 2.026.402.7.525 1.5.468 2.22Z" />
  <path _ngcontent-ng-c1909134112="" style="color: inherit" d="M12 19.2a1.2 1.2 0 1 1 0-2.4 1.2 1.2 0 1 1 0 2.4Z" />
</svg>