<svg xmlns="http://www.w3.org/2000/svg" viewBox="0 0 24 24" fill="currentColor">
  <path _ngcontent-ng-c1909134112="" style="color: inherit" d="M5.381 7.711c.198-.784-1.599.531-3.606 0-.616-.163-.863.207-1.338.93-.6.913-.29 2.803-.29 2.803s2.398 1.03 2.698-.014c.803-2.789 2.269-2.656 2.536-3.719Zm-.117-4.266v-.092c-.007-.976-.726-1.71-1.703-1.71-.976 0-1.696.734-1.702 1.71v.216c.01 1.123.58 2.251 1.702 2.251 1.123 0 1.692-1.128 1.702-2.25v-.125Z" />
  <path _ngcontent-ng-c1909134112="" fill-rule="evenodd" clip-rule="evenodd" style="color: inherit" d="M2.484 3.356v.208c.004.47.127.905.328 1.203.188.281.43.428.75.428.318 0 .56-.147.749-.428.2-.298.323-.734.327-1.203v-.207c-.004-.642-.454-1.09-1.077-1.09s-1.072.447-1.077 1.09Zm-1.25-.007c.009-1.31.997-2.332 2.327-2.332S5.88 2.04 5.888 3.35v.226c-.006.654-.172 1.343-.54 1.89-.379.564-.982.98-1.787.98-.804 0-1.408-.416-1.787-.98-.367-.547-.534-1.236-.54-1.89V3.35Z" />
  <path _ngcontent-ng-c1909134112="" style="color: inherit" d="m15.57 14.87.39-2.674-1.312-.853a3.248 3.248 0 0 0-2.199-.496l-2.288.305s-2.387-.295-3.479-.464l-.693.45a3.247 3.247 0 0 0-1.466 2.991l.062.754s2.148-.483 5.576-.483c3.429 0 5.409.47 5.409.47Zm-2.926-9.878v-.137c-.01-1.463-1.087-2.565-2.551-2.565-1.464 0-2.542 1.102-2.551 2.565a21.911 21.911 0 0 0 0 .324c.015 1.683.868 3.374 2.55 3.374 1.684 0 2.537-1.69 2.552-3.374v-.187Z" />
  <path _ngcontent-ng-c1909134112="" fill-rule="evenodd" clip-rule="evenodd" style="color: inherit" d="M10.093 2.915c-1.11 0-1.92.814-1.926 1.944a21.425 21.425 0 0 0 0 .315c.007.749.201 1.466.543 1.975.33.491.784.78 1.383.78.598 0 1.052-.289 1.382-.78.343-.51.537-1.226.544-1.975a21.702 21.702 0 0 0 0-.315c-.007-1.13-.816-1.944-1.926-1.944ZM6.917 4.851c.011-1.797 1.359-3.186 3.176-3.186 1.817 0 3.165 1.389 3.176 3.186a21.688 21.688 0 0 1 0 .333c-.008.934-.247 1.905-.756 2.662-.52.775-1.335 1.332-2.42 1.332s-1.9-.557-2.42-1.332c-.509-.757-.748-1.728-.756-2.662a22.917 22.917 0 0 1 0-.333Zm-.84 6.947c-.65.468-1.042 1.184-.97 2.015l.041.486a.625.625 0 1 1-1.245.107l-.042-.487c-.114-1.33.53-2.448 1.486-3.136a4.142 4.142 0 0 1 3.464-.633c.522.14.962.215 1.282.215.32 0 .759-.075 1.281-.215a4.142 4.142 0 0 1 3.464.633c.956.688 1.6 1.807 1.486 3.136l-.042.487a.625.625 0 1 1-1.245-.107l.041-.486c.072-.83-.32-1.547-.97-2.015a2.892 2.892 0 0 0-2.412-.44c-.56.15-1.122.257-1.603.257-.482 0-1.044-.108-1.604-.257a2.892 2.892 0 0 0-2.412.44Z" />
</svg>