<svg xmlns="http://www.w3.org/2000/svg" viewBox="0 0 24 24" fill="currentColor">
  <path _ngcontent-ng-c1909134112="" fill-rule="evenodd" clip-rule="evenodd" style="color: inherit" d="M8 .44c-1.832 0-3.262.093-4.314.202A3.373 3.373 0 0 0 .642 3.687 41.852 41.852 0 0 0 .439 8c0 1.885.099 3.346.212 4.405.17 1.579 1.351 2.788 2.943 2.955 1.036.109 2.48.2 4.405.2 1.927 0 3.37-.091 4.406-.2 1.591-.167 2.773-1.376 2.943-2.955.113-1.06.211-2.52.211-4.405 0-1.831-.092-3.262-.202-4.313A3.373 3.373 0 0 0 12.313.642 41.85 41.85 0 0 0 7.999.44Zm1.444 12.184a.625.625 0 0 1-.567-.679l.153-1.72H6.332l-.163 1.831a.625.625 0 0 1-1.245-.11l.152-1.72H4a.625.625 0 0 1 0-1.25h1.189l.173-1.951H3.999a.625.625 0 1 1 0-1.25h1.473l.14-1.565a.625.625 0 1 1 1.244.111l-.129 1.454h2.699l.139-1.565a.625.625 0 1 1 1.245.111l-.13 1.454h1.054a.625.625 0 1 1 0 1.25H10.57l-.174 1.95h1.338a.625.625 0 1 1 0 1.25h-1.449l-.163 1.831a.625.625 0 0 1-.678.568Zm-2.828-5.6-.173 1.951H9.14l.173-1.95H6.616Z" />
</svg>