<svg xmlns="http://www.w3.org/2000/svg" viewBox="0 0 24 24" fill="currentColor">
  <path _ngcontent-ng-c1909134112="" fill-rule="evenodd" clip-rule="evenodd" style="color: inherit" d="M8 .547a41.75 41.75 0 0 0-4.3.201 3.267 3.267 0 0 0-2.95 2.95A41.739 41.739 0 0 0 .546 8c0 1.88.098 3.337.211 4.393.164 1.53 1.308 2.7 2.848 2.86 1.033.11 2.472.2 4.394.2 1.923 0 3.362-.09 4.394-.2 1.54-.16 2.684-1.33 2.848-2.86.114-1.056.211-2.512.211-4.393a41.75 41.75 0 0 0-.201-4.301 3.267 3.267 0 0 0-2.95-2.95A41.74 41.74 0 0 0 8 .546Zm3.185 3.209a.978.978 0 0 1 .215-.023.97.97 0 0 1 .228.026c.354.085.427.507.436.87.016.612.036 1.768.036 3.638 0 1.87-.02 3.026-.036 3.636-.01.364-.082.787-.436.872a.97.97 0 0 1-.228.025.978.978 0 0 1-.215-.023c-.363-.081-.438-.514-.447-.885-.016-.638-.038-1.83-.038-3.625 0-1.796.022-2.988.038-3.625.009-.372.084-.804.447-.886ZM7.3 9.466c0 1.07.014 1.848.028 2.354.013.478.194.98.672.98.479 0 .661-.501.674-.98.013-.491.026-1.255.026-2.353a88.53 88.53 0 0 0-.026-2.354c-.013-.478-.195-.98-.674-.98-.478 0-.659.502-.672.98A87.927 87.927 0 0 0 7.3 9.467Zm-3.4.934c0 .66.01 1.166.022 1.527.015.452.226.873.678.873.453 0 .666-.42.68-.873.01-.352.02-.851.02-1.527 0-.676-.01-1.175-.02-1.527C5.266 8.42 5.053 8 4.6 8c-.452 0-.663.421-.678.874-.011.36-.022.866-.022 1.526Z" />
</svg>