<svg xmlns="http://www.w3.org/2000/svg" viewBox="0 0 24 24" fill="currentColor">
  <path _ngcontent-ng-c1909134112="" opacity=".1" style="color: inherit" d="M8 1.066c3.975 0 6.933 2.959 6.933 6.934 0 3.997-2.936 6.933-6.933 6.933S1.067 11.997 1.067 8c0-3.975 2.958-6.934 6.933-6.934Z" />
  <path _ngcontent-ng-c1909134112="" fill-rule="evenodd" clip-rule="evenodd" style="color: inherit" d="M8 1.691C4.37 1.691 1.692 4.37 1.692 8c0 3.652 2.656 6.308 6.308 6.308 3.652 0 6.308-2.656 6.308-6.308 0-3.63-2.678-6.31-6.308-6.31ZM.442 8C.442 3.68 3.68.44 8 .44S15.558 3.68 15.558 8c0 4.342-3.216 7.558-7.558 7.558S.442 12.342.442 8Z" />
  <path _ngcontent-ng-c1909134112="" style="color: inherit" d="M11.467 9.066a1.067 1.067 0 1 1 0-2.133 1.067 1.067 0 0 1 0 2.133Zm-6.933 0a1.067 1.067 0 1 1 0-2.133 1.067 1.067 0 0 1 0 2.133Zm3.466 0a1.067 1.067 0 1 1 0-2.133 1.067 1.067 0 0 1 0 2.133Z" />
</svg>