<svg xmlns="http://www.w3.org/2000/svg" viewBox="0 0 24 24" fill="currentColor">
  <path _ngcontent-ng-c1909134112="" fill-rule="evenodd" clip-rule="evenodd" style="color: inherit" d="M5.452 2.718c-.845 0-1.457.613-1.463 1.478a17.213 17.213 0 0 0 0 .26c.006.604.163 1.172.43 1.568.253.378.59.587 1.033.587.443 0 .78-.21 1.033-.587.267-.396.424-.964.429-1.568a18.086 18.086 0 0 0 0-.26c-.005-.865-.617-1.478-1.462-1.478Zm-2.793 1.47c.01-1.576 1.196-2.8 2.793-2.8 1.596 0 2.782 1.224 2.792 2.8a18.357 18.357 0 0 1 0 .28c-.007.8-.211 1.638-.655 2.298-.456.679-1.177 1.175-2.137 1.175S3.77 7.445 3.314 6.766c-.443-.66-.648-1.498-.654-2.299a19.066 19.066 0 0 1 0-.28Z" />
  <path _ngcontent-ng-c1909134112="" opacity=".1" style="color: inherit" d="M7.727 9.64c.246-.98-2 .663-4.508 0-.77-.205-1.08.257-1.673 1.161-.749 1.142-.363 3.504-.363 3.504s2.998 1.288 3.374-.017c1.003-3.487 2.835-3.32 3.17-4.649Z" />
  <path _ngcontent-ng-c1909134112="" fill-rule="evenodd" clip-rule="evenodd" style="color: inherit" d="M3.258 10.11c-.301-.127-.428-.126-.56-.066-.611.282-.859.973-.877 1.86A6.188 6.188 0 0 0 2 13.463l.005.021.001.003a.665.665 0 0 1-1.283.35l.642-.175-.642.175v-.002l-.001-.003-.003-.01-.009-.035a7.635 7.635 0 0 1-.112-.547 7.516 7.516 0 0 1-.106-1.363c.02-.998.3-2.418 1.65-3.04.646-.299 1.219-.128 1.638.05.108.046.249.113.373.171l.194.091c.174.079.327.137.477.17A2.28 2.28 0 0 0 6.165 9.2a2.45 2.45 0 0 0 .509-.276h-.002v.002m.003-.003a.665.665 0 0 1 .84 1.03l-.422-.513.422.513v.001h-.002l-.002.003-.006.004-.016.013-.05.038a3.779 3.779 0 0 1-.782.424 3.61 3.61 0 0 1-2.119.18 3.742 3.742 0 0 1-.739-.255 11.362 11.362 0 0 1-.272-.128c-.09-.043-.167-.08-.269-.123m10.359-6.582c-1.454 0-2.515 1.071-2.524 2.546a30.35 30.35 0 0 0 0 .394c.009.954.256 1.873.7 2.533.43.64 1.03 1.026 1.824 1.026.793 0 1.394-.385 1.825-1.026.443-.66.69-1.579.698-2.533a24.424 24.424 0 0 0 0-.394c-.008-1.475-1.069-2.546-2.523-2.546ZM9.763 6.065c.014-2.185 1.648-3.867 3.854-3.867 2.206 0 3.84 1.682 3.854 3.867a33.498 33.498 0 0 1 0 .415c-.01 1.15-.305 2.34-.925 3.263-.634.942-1.618 1.614-2.929 1.614-1.31 0-2.295-.672-2.929-1.614-.62-.923-.915-2.113-.924-3.263a28.098 28.098 0 0 1 0-.415Z" />
  <path _ngcontent-ng-c1909134112="" opacity=".1" style="color: inherit" d="m20.463 18.588.488-3.343-1.64-1.066a4.06 4.06 0 0 0-2.748-.62l-2.86.381s-2.985-.368-4.35-.58l-.865.564a4.06 4.06 0 0 0-1.834 3.738l.078.941S9.417 18 13.702 18c4.286 0 6.761.588 6.761.588Z" />
  <path _ngcontent-ng-c1909134112="" fill-rule="evenodd" clip-rule="evenodd" style="color: inherit" d="M8.529 14.653c-.841.606-1.354 1.538-1.26 2.623l.052.607a.665.665 0 1 1-1.326.114l-.052-.607c-.138-1.616.643-2.977 1.809-3.816a5.06 5.06 0 0 1 4.232-.774c.657.175 1.218.273 1.633.273.414 0 .975-.098 1.632-.273a5.06 5.06 0 0 1 4.232.774c1.166.839 1.948 2.2 1.809 3.816l-.052.607a.665.665 0 0 1-1.325-.114l.052-.607c.093-1.085-.42-2.017-1.26-2.623a3.73 3.73 0 0 0-3.113-.568c-.697.186-1.389.318-1.975.318-.587 0-1.279-.132-1.975-.318a3.73 3.73 0 0 0-3.113.568Z" />
</svg>