<svg xmlns="http://www.w3.org/2000/svg" viewBox="0 0 24 24" fill="currentColor">
  <path _ngcontent-ng-c1909134112="" opacity=".1" style="color: inherit" d="M5.947 1.534c.962-.112 2.242-.2 3.886-.2.937 0 1.769.028 2.5.073.541.034 1.027.077 1.458.124 1.662.182 2.858 1.482 3.002 3.147.042.484.082 1.035.115 1.655.055 1.03.092 2.25.092 3.667 0 2.27-.095 4.035-.207 5.323-.144 1.665-1.34 2.964-3 3.146-1.016.11-2.33.198-3.96.198-1.644 0-2.924-.089-3.886-.201-1.522-.178-2.591-1.36-2.73-2.885C3.101 14.306 3 12.482 3 10s.101-4.306.217-5.58c.139-1.526 1.208-2.708 2.73-2.886Z" />
  <path _ngcontent-ng-c1909134112="" fill-rule="evenodd" clip-rule="evenodd" style="color: inherit" d="M16.335 10c0 2.251-.095 3.997-.204 5.266-.119 1.369-1.085 2.397-2.41 2.542-.992.108-2.282.194-3.888.194-1.62 0-2.874-.087-3.81-.197-1.184-.138-2.031-1.048-2.144-2.285-.113-1.252-.214-3.056-.214-5.52 0-2.464.1-4.268.214-5.52.113-1.237.96-2.147 2.145-2.285.935-.11 2.189-.197 3.81-.197.922 0 1.74.029 2.458.073.53.033 1.006.075 1.427.121 1.326.145 2.294 1.174 2.412 2.543.041.477.08 1.02.113 1.634.054 1.018.091 2.226.091 3.631Zm1.12 5.38c.114-1.307.21-3.091.21-5.38 0-1.428-.037-2.66-.093-3.702a51.387 51.387 0 0 0-.116-1.677c-.17-1.962-1.596-3.533-3.592-3.751a31.957 31.957 0 0 0-1.49-.126 41.018 41.018 0 0 0-2.54-.076c-1.669 0-2.974.09-3.964.206-1.858.217-3.15 1.671-3.315 3.485-.118 1.296-.22 3.14-.22 5.641 0 2.5.102 4.345.22 5.64.165 1.815 1.457 3.27 3.315 3.486.99.116 2.295.206 3.963.206 1.653 0 2.992-.088 4.032-.202 1.996-.218 3.421-1.788 3.59-3.75Z" />
  <path _ngcontent-ng-c1909134112="" fill-rule="evenodd" clip-rule="evenodd" style="color: inherit" d="M5.917 14.333c0 .415.335.75.75.75h6.666a.75.75 0 1 0 0-1.5H6.667a.75.75 0 0 0-.75.75Zm0-4a.75.75 0 0 1 .75-.75h6.667a.75.75 0 1 1 0 1.5H6.667a.75.75 0 0 1-.75-.75Zm0-3.666a.75.75 0 0 1 .75-.75h2.5a.75.75 0 0 1 0 1.5h-2.5a.75.75 0 0 1-.75-.75Z" />
</svg>