<svg xmlns="http://www.w3.org/2000/svg" viewBox="0 0 24 24" fill="currentColor">
  <path _ngcontent-ng-c1909134112="" fill-rule="evenodd" clip-rule="evenodd" style="color: inherit" d="m12.75 5.32.432.164-1.638 4.29a3.065 3.065 0 0 1-1.77 1.77l-4.29 1.637-.164-.43.165.43a.665.665 0 0 1-.848-.885l.42.182-.42-.182 1.837-4.231a3.065 3.065 0 0 1 1.591-1.592l4.23-1.836.183.42-.182-.42a.665.665 0 0 1 .886.847l-.431-.164ZM16.136 9c0-4.104-3.03-7.135-7.135-7.135-4.104 0-7.135 3.03-7.135 7.135 0 4.13 3.006 7.135 7.135 7.135 4.13 0 7.135-3.006 7.135-7.135ZM9 .535c4.84 0 8.465 3.626 8.465 8.465 0 4.864-3.6 8.465-8.465 8.465C4.136 17.465.535 13.864.535 9 .535 4.161 4.161.535 9 .535Zm0 7.34a1.125 1.125 0 1 0 0 2.25 1.125 1.125 0 0 0 0-2.25Z" />
</svg>