<svg xmlns="http://www.w3.org/2000/svg" viewBox="0 0 24 24" fill="currentColor">
  <path _ngcontent-ng-c1909134112="" fill-rule="evenodd" clip-rule="evenodd" style="color: inherit" d="M17.665 10c0 2.289-.096 4.073-.21 5.38-.169 1.962-1.594 3.532-3.59 3.75-1.04.114-2.379.202-4.032.202-1.668 0-2.973-.09-3.963-.206-1.858-.217-3.15-1.671-3.315-3.485-.118-1.296-.22-3.14-.22-5.641 0-2.5.102-4.345.22-5.64C2.72 2.544 4.012 1.09 5.87.873 6.86.758 8.165.668 9.833.668c.95 0 1.796.03 2.541.076.552.034 1.048.078 1.49.126 1.996.218 3.422 1.79 3.592 3.75.042.492.082 1.05.116 1.678.056 1.042.093 2.274.093 3.702ZM6.667 5.917a.75.75 0 1 0 0 1.5h2.5a.75.75 0 0 0 0-1.5h-2.5Zm0 3.666a.75.75 0 0 0 0 1.5h6.667a.75.75 0 0 0 0-1.5H6.667Zm0 4a.75.75 0 0 0 0 1.5h6.667a.75.75 0 0 0 0-1.5H6.667Z" />
</svg>