<svg xmlns="http://www.w3.org/2000/svg" viewBox="0 0 24 24" fill="currentColor">
  <path _ngcontent-ng-c1909134112="" fill-rule="evenodd" clip-rule="evenodd" style="color: inherit" d="M10 2c-2.24 0-3.977.113-5.24.245-1.362.142-2.373 1.153-2.515 2.515C2.114 6.023 2 7.76 2 10c0 2.305.12 4.08.257 5.35.14 1.31 1.093 2.272 2.389 2.408 1.24.13 2.993.242 5.354.242 2.362 0 4.115-.112 5.355-.242 1.296-.136 2.248-1.099 2.389-2.407C17.88 14.079 18 12.305 18 10a.667.667 0 0 1 1.334 0c0 2.352-.123 4.173-.264 5.493-.207 1.92-1.642 3.388-3.576 3.591-1.29.136-3.09.25-5.494.25-2.403 0-4.203-.114-5.494-.25-1.933-.203-3.369-1.67-3.575-3.591C.79 14.173.667 12.352.667 10c0-2.285.116-4.068.252-5.379C1.126 2.633 2.633 1.126 4.622.92 5.932.782 7.716.667 10 .667A.667.667 0 1 1 10 2Z" />
  <path _ngcontent-ng-c1909134112="" opacity=".1" style="color: inherit" d="m16.683 1.775 1.468 1.352c.487.449.571 1.188.196 1.735l-4.886 7.122-4.178 1.137-.895 1.212H4.667l2.43-3.394-.4-.634 1.69-3.356 6.561-5.236a1.333 1.333 0 0 1 1.735.062Z" />
  <path _ngcontent-ng-c1909134112="" fill-rule="evenodd" clip-rule="evenodd" style="color: inherit" d="M14.532 1.192a2 2 0 0 1 2.603.092l1.467 1.352a2 2 0 0 1 .295 2.603L14.01 12.36a.667.667 0 0 1-.374.266L9.68 13.704l-.757 1.025a.667.667 0 0 1-.536.271h-3.72a.667.667 0 0 1-.542-1.055l2.168-3.03-.16-.254a.667.667 0 0 1-.032-.656L7.792 6.65a.667.667 0 0 1 .18-.221l6.56-5.236Zm-7.35 10.774-1.218 1.7h2.087l.354-.479-1.224-1.221Zm2.298.41 2.692-.732L8.57 8.069l-1.108 2.2.158.251 1.86 1.857Zm-.09-5.373 3.975 3.945 4.433-6.464a.667.667 0 0 0-.098-.867l-1.467-1.352a.667.667 0 0 0-.868-.03L9.39 7.002Z" />
</svg>