<svg xmlns="http://www.w3.org/2000/svg" viewBox="0 0 24 24" fill="currentColor">
  <path _ngcontent-ng-c1909134112="" fill-rule="evenodd" clip-rule="evenodd" style="color: inherit" d="M10 .667c-2.284 0-4.068.115-5.378.252C2.633 1.126 1.126 2.633.919 4.62.783 5.931.667 7.715.667 10c0 2.352.122 4.173.264 5.493.206 1.92 1.642 3.388 3.575 3.591 1.291.136 3.09.25 5.494.25s4.203-.114 5.494-.25c1.934-.203 3.37-1.67 3.576-3.591.141-1.32.264-3.141.264-5.493 0-2.285-.116-4.068-.252-5.379-.207-1.988-1.714-3.495-3.703-3.702C14.069.782 12.285.667 10 .667Zm1.815 14.997a.667.667 0 0 1-.605-.723l.202-2.274H7.81l-.213 2.392a.667.667 0 1 1-1.328-.118l.202-2.274H5a.667.667 0 0 1 0-1.334h1.59l.237-2.666H5a.667.667 0 0 1 0-1.334h1.945l.183-2.059a.667.667 0 1 1 1.328.118l-.172 1.941h3.602l.183-2.059a.667.667 0 0 1 1.328.118l-.172 1.941h1.441a.667.667 0 1 1 0 1.334h-1.56l-.237 2.666h1.797a.667.667 0 0 1 0 1.334H12.75l-.212 2.392a.667.667 0 0 1-.723.605Zm-3.65-6.997-.237 2.666h3.602l.237-2.666H8.165Z" />
</svg>