<svg xmlns="http://www.w3.org/2000/svg" viewBox="0 0 24 24" fill="currentColor">
  <path _ngcontent-ng-c1909134112="" fill-rule="evenodd" clip-rule="evenodd" style="color: inherit" d="M10 .667c-2.284 0-4.068.115-5.378.252C2.633 1.126 1.126 2.633.919 4.62.783 5.931.667 7.715.667 10c0 2.352.122 4.173.264 5.493.206 1.92 1.642 3.388 3.575 3.591 1.291.136 3.09.25 5.494.25s4.203-.114 5.494-.25c1.934-.203 3.37-1.67 3.576-3.591.141-1.32.264-3.141.264-5.493 0-2.285-.116-4.068-.252-5.379-.207-1.988-1.714-3.495-3.703-3.702C14.069.782 12.285.667 10 .667ZM5.706 10.7a.665.665 0 0 0-.744 1.102 15.025 15.025 0 0 1 2.196 1.786 9.28 9.28 0 0 1 .627.689l.025.032.004.006a.665.665 0 0 0 1.148-.132v-.003l.007-.015a7.643 7.643 0 0 1 .145-.313c.105-.219.264-.536.476-.923a23.33 23.33 0 0 1 1.9-2.928C12.4 8.812 13.187 8 13.739 7.49a10.396 10.396 0 0 1 .8-.67l.036-.026.006-.004h.001a.665.665 0 0 0-.739-1.107l-.002.002-.006.004-.017.012a6.589 6.589 0 0 0-.26.194 11.73 11.73 0 0 0-.722.618c-.606.56-1.444 1.43-2.401 2.682a24.67 24.67 0 0 0-2.248 3.541l-.089-.09a16.346 16.346 0 0 0-2.391-1.945Z" />
</svg>