<svg xmlns="http://www.w3.org/2000/svg" viewBox="0 0 24 24" fill="currentColor">
  <path _ngcontent-ng-c1909134112="" opacity=".1" style="color: inherit" d="M4.758 1.227c.77-.09 1.794-.16 3.109-.16.749 0 1.415.023 2 .059.433.027.821.061 1.166.099 1.33.145 2.287 1.185 2.402 2.517.034.387.065.829.092 1.325.044.824.073 1.8.073 2.933 0 1.816-.076 3.228-.165 4.258-.115 1.333-1.072 2.372-2.4 2.517-.813.089-1.865.158-3.168.158-1.315 0-2.34-.07-3.11-.16-1.216-.143-2.072-1.088-2.183-2.309C2.481 11.445 2.4 9.986 2.4 8c0-1.986.081-3.445.174-4.464.11-1.22.967-2.167 2.184-2.309Z" />
  <path _ngcontent-ng-c1909134112="" fill-rule="evenodd" clip-rule="evenodd" style="color: inherit" d="M12.975 8c0 1.798-.075 3.193-.163 4.204-.09 1.054-.832 1.839-1.846 1.95a28.62 28.62 0 0 1-3.099.154c-1.293 0-2.292-.07-3.037-.156-.9-.105-1.547-.795-1.634-1.744-.09-.999-.17-2.44-.17-4.408 0-1.969.08-3.41.17-4.408.087-.949.733-1.639 1.634-1.744a26.335 26.335 0 0 1 3.037-.156c.736 0 1.39.022 1.961.058.423.026.802.06 1.138.096 1.014.11 1.755.896 1.847 1.95.032.38.063.815.09 1.304.043.813.072 1.778.072 2.9Zm1.083 4.312c.09-1.048.167-2.479.167-4.312 0-1.144-.03-2.131-.074-2.967a41.06 41.06 0 0 0-.093-1.345C13.918 2.078 12.746.783 11.1.603a25.677 25.677 0 0 0-1.195-.1A32.91 32.91 0 0 0 7.867.441c-1.338 0-2.386.072-3.182.165-1.533.179-2.598 1.38-2.733 2.872-.095 1.04-.177 2.518-.177 4.521s.082 3.481.177 4.521c.135 1.492 1.2 2.693 2.733 2.872.796.093 1.844.165 3.182.165 1.326 0 2.4-.07 3.235-.162 1.645-.18 2.816-1.473 2.956-3.084Z" />
  <path _ngcontent-ng-c1909134112="" fill-rule="evenodd" clip-rule="evenodd" style="color: inherit" d="M4.709 11.467c0 .345.28.625.625.625h5.333a.625.625 0 1 0 0-1.25H5.334a.625.625 0 0 0-.625.625Zm0-3.2c0-.345.28-.625.625-.625h5.333a.625.625 0 1 1 0 1.25H5.334a.625.625 0 0 1-.625-.625Zm0-2.934c0-.345.28-.625.625-.625h2a.625.625 0 1 1 0 1.25h-2a.625.625 0 0 1-.625-.625Z" />
</svg>