<svg xmlns="http://www.w3.org/2000/svg" viewBox="0 0 24 24" fill="currentColor">
  <path _ngcontent-ng-c1909134112="" fill-rule="evenodd" clip-rule="evenodd" style="color: inherit" d="M10 2c-4.6 0-8 3.4-8 8 0 4.628 3.371 8 8 8 4.628 0 8-3.372 8-8 0-4.6-3.4-8-8-8ZM.666 10C.666 4.663 4.663.666 10 .666c5.336 0 9.333 3.997 9.333 9.334 0 5.364-3.969 9.333-9.333 9.333C4.635 19.333.666 15.364.666 10Z" />
  <path _ngcontent-ng-c1909134112="" style="color: inherit" d="M14.333 11.333a1.333 1.333 0 1 1 0-2.667 1.333 1.333 0 0 1 0 2.667Zm-8.666 0a1.333 1.333 0 1 1 0-2.667 1.333 1.333 0 0 1 0 2.667Zm4.333 0a1.333 1.333 0 1 1 0-2.667 1.333 1.333 0 0 1 0 2.667Z" />
</svg>