<svg xmlns="http://www.w3.org/2000/svg" viewBox="0 0 24 24" fill="currentColor">
  <path _ngcontent-ng-c1909134112="" style="color: inherit" d="M10.667 8c0-1.166-.056-2.085-.124-2.77A1.946 1.946 0 0 0 8.77 3.458 28.074 28.074 0 0 0 6 3.333a28.1 28.1 0 0 0-2.769.125A1.946 1.946 0 0 0 1.459 5.23 28.074 28.074 0 0 0 1.334 8c0 1.203.06 2.143.131 2.833.095.923.777 1.618 1.7 1.71a28.65 28.65 0 0 0 2.836.124c1.23 0 2.16-.056 2.835-.124.923-.092 1.605-.787 1.7-1.71.071-.69.131-1.63.131-2.833Z" />
  <path _ngcontent-ng-c1909134112="" fill-rule="evenodd" clip-rule="evenodd" style="color: inherit" d="M6 3.958a27.44 27.44 0 0 0-2.707.122 1.321 1.321 0 0 0-1.212 1.212A27.454 27.454 0 0 0 1.959 8c0 1.182.059 2.1.128 2.77.065.633.519 1.089 1.14 1.151.653.066 1.562.12 2.774.12 1.211 0 2.12-.054 2.773-.12.621-.062 1.075-.518 1.14-1.152.07-.669.128-1.587.128-2.769 0-1.146-.055-2.045-.121-2.708A1.321 1.321 0 0 0 8.708 4.08a27.454 27.454 0 0 0-2.707-.122ZM3.17 2.836A28.72 28.72 0 0 1 6 2.708c1.187 0 2.127.058 2.832.128a2.57 2.57 0 0 1 2.333 2.332c.07.706.127 1.645.127 2.832 0 1.224-.06 2.185-.134 2.897-.125 1.212-1.035 2.145-2.26 2.268-.697.07-1.648.127-2.897.127-1.25 0-2.2-.057-2.898-.127-1.225-.123-2.135-1.056-2.26-2.268A28.464 28.464 0 0 1 .71 8c0-1.187.057-2.126.128-2.832A2.57 2.57 0 0 1 3.17 2.836Z" />
  <path _ngcontent-ng-c1909134112="" style="color: inherit" d="M14.6 5.777v4.446a.8.8 0 0 1-1.224.679l-.6-.375a.8.8 0 0 1-.376-.679V6.152a.8.8 0 0 1 .376-.679l.357-.223.243-.152a.8.8 0 0 1 1.224.679Z" />
  <path _ngcontent-ng-c1909134112="" fill-rule="evenodd" clip-rule="evenodd" style="color: inherit" d="M13.707 10.372a.175.175 0 0 0 .268-.149V5.777a.175.175 0 0 0-.268-.149l-.243.152-.357.223a.175.175 0 0 0-.082.149v3.696c0 .06.03.117.082.149l.6.375Zm1.518-.149a1.425 1.425 0 0 1-2.18 1.209l-.6-.375a1.425 1.425 0 0 1-.67-1.209V6.152c0-.492.253-.948.67-1.209l.6-.375c.948-.593 2.18.09 2.18 1.209v4.446Z" />
</svg>