<svg xmlns="http://www.w3.org/2000/svg" viewBox="0 0 24 24" fill="currentColor">
  <path _ngcontent-ng-c1909134112="" fill-rule="evenodd" clip-rule="evenodd" style="color: inherit" d="M5.72.878A6.33 6.33 0 0 1 8 .443a6.33 6.33 0 0 1 2.28.435c.756.294 1.159.978 1.254 1.676a2.252 2.252 0 0 0-.006-.045c1.39.246 2.427 1.332 2.56 2.776.077.822.136 1.928.136 3.382 0 1.534-.066 2.758-.148 3.685-.143 1.63-1.356 2.9-3.002 3.06-.83.082-1.895.145-3.207.145-1.321 0-2.359-.064-3.15-.146-1.536-.16-2.642-1.339-2.783-2.852a42.502 42.502 0 0 1-.157-3.892c0-1.685.071-2.88.158-3.712.139-1.333 1.123-2.298 2.442-2.447l.097-.01c.109-.679.51-1.334 1.246-1.62ZM8 1.69c-.733 0-1.367.17-1.829.35-.275.107-.481.413-.481.841v.2-.043.057c.005.444.27.717.6.747.414.038.974.068 1.71.068.68 0 1.208-.025 1.612-.06.39-.032.698-.357.698-.871V2.88c0-.428-.206-.734-.481-.84a5.084 5.084 0 0 0-1.83-.351ZM5.333 6.577a.623.623 0 0 0 0 1.246h5.334a.623.623 0 1 0 0-1.246H5.333ZM4.71 9.6c0-.344.279-.623.623-.623h4a.623.623 0 0 1 0 1.246h-4A.623.623 0 0 1 4.71 9.6Zm0 2.4c0-.344.279-.623.623-.623h2.134a.623.623 0 0 1 0 1.246H5.333A.623.623 0 0 1 4.71 12Z" />
</svg>