<svg xmlns="http://www.w3.org/2000/svg" viewBox="0 0 24 24" fill="currentColor">
  <path _ngcontent-ng-c1909134112="" style="color: inherit" d="M13.334 10a35.1 35.1 0 0 0-.156-3.462 2.433 2.433 0 0 0-2.216-2.216A35.092 35.092 0 0 0 7.5 4.167c-1.458 0-2.606.07-3.462.155a2.432 2.432 0 0 0-2.215 2.216A35.09 35.09 0 0 0 1.667 10a34.8 34.8 0 0 0 .164 3.541c.118 1.154.97 2.022 2.125 2.138a35.82 35.82 0 0 0 3.544.154c1.538 0 2.7-.07 3.545-.154 1.154-.116 2.006-.984 2.125-2.138A34.79 34.79 0 0 0 13.334 10Z" />
  <path _ngcontent-ng-c1909134112="" fill-rule="evenodd" clip-rule="evenodd" style="color: inherit" d="M7.5 4.832c-1.436 0-2.563.07-3.396.152a1.768 1.768 0 0 0-1.62 1.62c-.082.833-.152 1.96-.152 3.396 0 1.482.074 2.633.16 3.473.087.847.697 1.46 1.53 1.544.82.082 1.96.151 3.478.151a35.16 35.16 0 0 0 3.478-.15c.833-.084 1.443-.698 1.53-1.545.087-.84.16-1.992.16-3.473a34.45 34.45 0 0 0-.152-3.396 1.768 1.768 0 0 0-1.62-1.62A34.43 34.43 0 0 0 7.5 4.832ZM3.972 3.66C4.85 3.573 6.021 3.5 7.5 3.5c1.48 0 2.65.072 3.528.16a3.097 3.097 0 0 1 2.811 2.811C13.927 7.35 14 8.52 14 10c0 1.526-.077 2.723-.168 3.61-.15 1.46-1.245 2.583-2.72 2.73a36.15 36.15 0 0 1-3.61.158 36.48 36.48 0 0 1-3.611-.157c-1.475-.148-2.57-1.27-2.72-2.732A35.458 35.458 0 0 1 1.001 10c0-1.48.072-2.65.16-3.528a3.097 3.097 0 0 1 2.81-2.811Z" />
  <path _ngcontent-ng-c1909134112="" style="color: inherit" d="M18.25 7.22v5.56a1 1 0 0 1-1.53.847l-1.22-.762a.488.488 0 0 1-.229-.414V7.55c0-.168.087-.325.23-.414l.916-.573.304-.19a1 1 0 0 1 1.53.849Z" />
  <path _ngcontent-ng-c1909134112="" fill-rule="evenodd" clip-rule="evenodd" style="color: inherit" d="M17.073 13.063c.223.14.513-.02.513-.284V7.221a.335.335 0 0 0-.513-.284l-.303.19-.834.52v4.706l1.137.71Zm1.843-.284c0 1.308-1.439 2.105-2.548 1.412l-1.22-.763a1.153 1.153 0 0 1-.542-.977V7.55c0-.398.205-.767.542-.978l1.22-.762c1.11-.693 2.548.104 2.548 1.412v5.558Z" />
</svg>