<svg xmlns="http://www.w3.org/2000/svg" viewBox="0 0 24 24" fill="currentColor">
  <path _ngcontent-ng-c1909134112="" fill-rule="evenodd" clip-rule="evenodd" style="color: inherit" d="M10 2c-2.24 0-3.978.113-5.241.245-1.362.142-2.373 1.153-2.515 2.515C2.113 6.023 2 7.76 2 10c0 2.305.12 4.079.257 5.35.14 1.31 1.093 2.272 2.389 2.408 1.24.13 2.993.242 5.354.242 2.362 0 4.115-.112 5.355-.242 1.296-.136 2.248-1.099 2.389-2.407C17.88 14.079 18 12.305 18 10a.667.667 0 0 1 1.334 0c0 2.352-.123 4.173-.264 5.493-.207 1.92-1.642 3.388-3.576 3.591-1.29.136-3.09.25-5.494.25-2.403 0-4.203-.114-5.494-.25-1.933-.203-3.369-1.67-3.575-3.591C.788 14.173.666 12.352.666 10c0-2.285.116-4.068.252-5.379C1.125 2.633 2.632 1.126 4.621.92 5.93.782 7.715.667 9.999.667A.667.667 0 0 1 10 2Z" />
  <path _ngcontent-ng-c1909134112="" fill-rule="evenodd" clip-rule="evenodd" style="color: inherit" d="M14.532 1.192a2 2 0 0 1 2.603.092l1.467 1.352a2 2 0 0 1 .294 2.603l-4.885 7.122a.666.666 0 0 1-.375.266l-3.955 1.077-.757 1.025a.667.667 0 0 1-.537.271h-3.72a.667.667 0 0 1-.542-1.055l2.168-3.03-.16-.254a.667.667 0 0 1-.032-.656L7.792 6.65a.667.667 0 0 1 .18-.221l6.56-5.236ZM7.181 11.966l-1.217 1.7H8.05l.354-.479-1.224-1.221Zm2.299.41 2.692-.732L8.57 8.069l-1.109 2.2.159.251 1.86 1.857Zm-.092-5.373 3.976 3.944 4.433-6.463a.667.667 0 0 0-.098-.867L16.23 2.265a.667.667 0 0 0-.867-.03L9.388 7.002Z" />
  <path _ngcontent-ng-c1909134112="" style="color: inherit" d="m8.494 6.994 4.975 4.475 5.116-7.412-.904-1.582-2.184-.903-7.003 5.422Z" />
  <path _ngcontent-ng-c1909134112="" fill-rule="evenodd" clip-rule="evenodd" style="color: inherit" d="m15.42.999 2.61 1.08 1.145 2.003-5.618 8.139-5.843-5.256L15.42.999Zm.154 1.146-6.3 4.877 4.106 3.694 4.614-6.684-.662-1.16-1.758-.727Z" />
</svg>