<svg xmlns="http://www.w3.org/2000/svg" viewBox="0 0 24 24" fill="currentColor">
  <path _ngcontent-ng-c1909134112="" opacity=".1" style="color: inherit" d="M18.667 10c0-2.262-.115-4.023-.248-5.31-.175-1.675-1.434-2.934-3.11-3.108-1.286-.134-3.047-.249-5.309-.249s-4.023.115-5.31.249c-1.674.174-2.933 1.433-3.108 3.109-.134 1.286-.248 3.047-.248 5.309 0 2.329.12 4.126.26 5.422.173 1.614 1.367 2.83 2.982 2.999 1.265.133 3.042.246 5.424.246 2.383 0 4.16-.113 5.425-.246 1.614-.17 2.808-1.385 2.982-3 .139-1.295.26-3.092.26-5.421Z" />
  <path _ngcontent-ng-c1909134112="" fill-rule="evenodd" clip-rule="evenodd" style="color: inherit" d="M10 1.983c-2.24 0-3.978.114-5.242.245-1.37.143-2.387 1.16-2.53 2.53-.13 1.264-.243 3.002-.243 5.242 0 2.306.12 4.08.256 5.352.141 1.317 1.1 2.286 2.404 2.422 1.24.13 2.994.243 5.356.243 2.362 0 4.116-.112 5.357-.242 1.303-.137 2.262-1.106 2.403-2.422.137-1.273.257-3.047.257-5.353 0-2.24-.113-3.978-.245-5.242-.143-1.37-1.16-2.387-2.53-2.53-1.263-.131-3.002-.245-5.242-.245ZM4.623.935C5.933.8 7.716.683 10 .683s4.068.116 5.377.252c1.981.207 3.482 1.707 3.688 3.688.136 1.31.252 3.093.252 5.377 0 2.351-.122 4.172-.264 5.491-.205 1.913-1.635 3.374-3.56 3.576-1.29.136-3.09.25-5.493.25-2.403 0-4.202-.114-5.492-.25-1.926-.202-3.355-1.663-3.56-3.576C.806 14.171.684 12.351.684 10c0-2.284.115-4.067.252-5.377.206-1.98 1.707-3.481 3.687-3.688Z" />
  <path _ngcontent-ng-c1909134112="" style="color: inherit" d="M4.875 13c0 .825.013 1.457.028 1.908.018.565.282 1.092.847 1.092.566 0 .832-.526.85-1.091.013-.44.025-1.065.025-1.909 0-.845-.012-1.469-.026-1.909C6.582 10.526 6.316 10 5.75 10c-.565 0-.83.527-.847 1.092-.015.45-.028 1.083-.028 1.908Zm4.25-1.167c0 1.337.018 2.31.035 2.942.016.598.242 1.225.84 1.225s.826-.627.842-1.225c.017-.614.033-1.568.033-2.942 0-1.373-.016-2.327-.033-2.942-.016-.598-.244-1.224-.842-1.224s-.824.627-.84 1.224a110.13 110.13 0 0 0-.035 2.942Zm5.125-7.166c-.101 0-.19.01-.27.028-.453.102-.547.643-.558 1.107-.02.797-.047 2.287-.047 4.531 0 2.245.027 3.735.047 4.531.011.465.105 1.006.558 1.108.08.018.169.028.27.028.108 0 .202-.012.284-.032.443-.106.534-.634.546-1.089.02-.763.045-2.208.045-4.546 0-2.337-.025-3.782-.045-4.546-.012-.454-.103-.982-.546-1.089a1.212 1.212 0 0 0-.284-.031Z" />
</svg>