<svg xmlns="http://www.w3.org/2000/svg" viewBox="0 0 24 24" fill="currentColor">
  <path _ngcontent-ng-c1909134112="" style="color: inherit" d="M7.727 9.639c.246-.98-2 .664-4.508 0-.77-.204-1.08.258-1.673 1.162-.749 1.142-.363 3.504-.363 3.504s2.998 1.288 3.374-.017c1.003-3.487 2.835-3.32 3.17-4.65ZM7.58 4.306v-.114c-.008-1.221-.907-2.14-2.128-2.14-1.22 0-2.12.919-2.128 2.14a18.548 18.548 0 0 0 0 .27c.013 1.403.724 2.814 2.128 2.814 1.404 0 2.115-1.41 2.127-2.814v-.156Z" />
  <path _ngcontent-ng-c1909134112="" fill-rule="evenodd" clip-rule="evenodd" style="color: inherit" d="M5.452 2.718c-.845 0-1.457.612-1.463 1.478a17.983 17.983 0 0 0 0 .26c.006.604.163 1.172.43 1.568.253.378.59.587 1.033.587.443 0 .78-.21 1.034-.587.266-.396.423-.964.428-1.568a17.662 17.662 0 0 0 0-.26c-.005-.866-.617-1.478-1.462-1.478Zm-2.793 1.47c.01-1.577 1.196-2.8 2.793-2.8 1.597 0 2.783 1.223 2.792 2.8a19.116 19.116 0 0 1 0 .28c-.007.8-.211 1.638-.655 2.298-.456.679-1.177 1.175-2.137 1.175S3.77 7.445 3.314 6.766c-.443-.66-.647-1.498-.654-2.299a19.062 19.062 0 0 1 0-.28Zm.599 5.922c-.301-.128-.428-.127-.56-.066-.611.282-.859.973-.877 1.86A6.19 6.19 0 0 0 2 13.463l.005.021.001.003a.665.665 0 0 1-1.283.35l.642-.175-.642.175v-.002L.72 13.83l-.003-.01-.009-.035a7.642 7.642 0 0 1-.112-.547 7.514 7.514 0 0 1-.106-1.362c.02-.998.3-2.418 1.65-3.04.646-.299 1.219-.128 1.638.05.108.046.249.113.373.171l.194.091c.174.079.327.137.477.17A2.28 2.28 0 0 0 6.165 9.2a2.45 2.45 0 0 0 .509-.277l-.002.001v.001m.003-.002a.665.665 0 0 1 .84 1.03l-.422-.514.422.514-.002.002-.002.002-.006.004-.016.013a2.209 2.209 0 0 1-.223.154 3.702 3.702 0 0 1-.61.308 3.61 3.61 0 0 1-2.118.18 3.742 3.742 0 0 1-.739-.255 11.362 11.362 0 0 1-.272-.128c-.09-.043-.167-.08-.269-.123" />
  <path _ngcontent-ng-c1909134112="" style="color: inherit" d="m20.462 18.588.489-3.343-1.64-1.066a4.059 4.059 0 0 0-2.749-.62l-2.86.381s-2.984-.368-4.349-.58l-.866.564a4.06 4.06 0 0 0-1.833 3.738l.078.941S9.417 18 13.702 18c4.286 0 6.76.588 6.76.588ZM16.806 6.24l-.001-.17c-.011-1.83-1.359-3.207-3.189-3.207S10.44 4.24 10.427 6.07a31.905 31.905 0 0 0 0 .405c.019 2.104 1.085 4.218 3.19 4.218 2.103 0 3.17-2.114 3.188-4.218V6.24Z" />
  <path _ngcontent-ng-c1909134112="" fill-rule="evenodd" clip-rule="evenodd" style="color: inherit" d="M13.616 3.528c-1.454 0-2.514 1.071-2.524 2.545a30.354 30.354 0 0 0 0 .395c.009.954.256 1.873.7 2.533.43.64 1.03 1.026 1.824 1.026S15.01 9.642 15.441 9c.443-.66.69-1.579.699-2.533a28.431 28.431 0 0 0 0-.395c-.01-1.474-1.07-2.545-2.524-2.545ZM9.762 6.065c.014-2.185 1.649-3.867 3.854-3.867 2.206 0 3.84 1.682 3.854 3.867a25.163 25.163 0 0 1 0 .415c-.01 1.15-.305 2.34-.925 3.263-.633.942-1.618 1.614-2.929 1.614-1.31 0-2.295-.672-2.928-1.614-.62-.924-.915-2.113-.925-3.263a28.097 28.097 0 0 1 0-.415Zm9.718 7.509c1.166.838 1.948 2.2 1.81 3.816l-.053.607a.665.665 0 1 1-1.325-.114l.052-.607c.093-1.085-.419-2.017-1.26-2.623a3.73 3.73 0 0 0-3.113-.568c-.696.186-1.388.317-1.975.317-.586 0-1.278-.131-1.975-.317a3.73 3.73 0 0 0-3.113.568c-.84.606-1.353 1.538-1.26 2.623l.052.607a.665.665 0 0 1-1.325.114l-.052-.607c-.139-1.616.643-2.978 1.808-3.816a5.06 5.06 0 0 1 4.233-.774c.656.175 1.217.272 1.632.272.415 0 .976-.097 1.632-.272a5.06 5.06 0 0 1 4.233.774Z" />
</svg>