<svg xmlns="http://www.w3.org/2000/svg" viewBox="0 0 24 24" fill="currentColor">
  <path _ngcontent-ng-c1909134112="" fill-rule="evenodd" clip-rule="evenodd" style="color: inherit" d="M8 1.692c-1.789 0-3.176.09-4.183.195a2.122 2.122 0 0 0-1.93 1.93A40.603 40.603 0 0 0 1.69 8c0 1.841.096 3.257.205 4.27.108 1.005.837 1.741 1.83 1.845.988.104 2.387.193 4.274.193 1.886 0 3.285-.089 4.274-.193.993-.104 1.722-.84 1.83-1.844.108-1.014.204-2.43.204-4.271a.625.625 0 1 1 1.25 0 41.5 41.5 0 0 1-.212 4.404c-.17 1.578-1.35 2.787-2.941 2.954-1.037.11-2.48.2-4.405.2-1.926 0-3.369-.09-4.405-.2-1.59-.167-2.772-1.376-2.942-2.954A41.505 41.505 0 0 1 .441 8c0-1.83.093-3.261.203-4.312A3.372 3.372 0 0 1 3.687.644 41.843 41.843 0 0 1 8 .442a.625.625 0 1 1 0 1.25Z" />
  <path _ngcontent-ng-c1909134112="" opacity=".1" style="color: inherit" d="M13.346 1.42 14.52 2.5c.39.36.457.95.157 1.388L10.77 9.587l-3.343.91-.716.97H3.733L5.677 8.75l-.32-.507L6.71 5.56l5.248-4.188c.412-.329 1-.308 1.388.049Z" />
  <path _ngcontent-ng-c1909134112="" fill-rule="evenodd" clip-rule="evenodd" style="color: inherit" d="M11.568.882A1.692 1.692 0 0 1 13.77.96l1.174 1.082a1.69 1.69 0 0 1 .248 2.2L11.285 9.94a.625.625 0 0 1-.351.25l-3.134.853-.587.795a.625.625 0 0 1-.502.254H3.733a.625.625 0 0 1-.508-.99L4.924 8.73l-.096-.151a.625.625 0 0 1-.03-.615l1.354-2.685a.625.625 0 0 1 .168-.208L11.568.882ZM5.756 9.714l-.807 1.128h1.445l.209-.283-.847-.845Zm1.855.085 1.95-.53-2.68-2.66-.807 1.6.094.15 1.443 1.44Zm.037-4.19 3.03 3.007 3.484-5.08a.442.442 0 0 0-.065-.575L12.923 1.88a.442.442 0 0 0-.575-.02l-4.7 3.75Z" />
</svg>