<svg xmlns="http://www.w3.org/2000/svg" viewBox="0 0 24 24" fill="currentColor">
  <path _ngcontent-ng-c1909134112="" fill-rule="evenodd" clip-rule="evenodd" style="color: inherit" d="M10 .683C7.716.683 5.933.8 4.623.935c-1.98.207-3.481 1.707-3.687 3.688C.799 5.933.684 7.716.684 10c0 2.351.122 4.172.264 5.491.205 1.913 1.634 3.374 3.56 3.576 1.29.136 3.09.25 5.492.25 2.403 0 4.202-.114 5.492-.25 1.926-.202 3.356-1.663 3.56-3.576.143-1.32.265-3.14.265-5.491 0-2.284-.116-4.067-.252-5.377-.206-1.98-1.707-3.481-3.688-3.688C14.067.8 12.284.683 10 .683Zm3.98 4.012c.079-.018.168-.028.27-.028.108 0 .202.011.284.031.442.107.534.634.546 1.09.02.763.045 2.208.045 4.545 0 2.338-.026 3.783-.045 4.546-.012.455-.104.983-.546 1.09-.082.02-.176.031-.284.031a1.22 1.22 0 0 1-.27-.028c-.453-.102-.547-.643-.559-1.108-.02-.797-.046-2.286-.046-4.53 0-2.245.027-3.735.046-4.532.012-.464.106-1.005.56-1.107Zm-4.855 7.138c0 1.337.017 2.31.035 2.942.016.598.242 1.225.84 1.225s.826-.627.842-1.225c.017-.614.033-1.569.033-2.942 0-1.373-.016-2.327-.033-2.942-.016-.598-.244-1.224-.842-1.224s-.824.627-.84 1.224c-.018.633-.035 1.606-.035 2.942ZM4.875 13c0 .825.013 1.457.027 1.908.018.565.283 1.092.848 1.092.566 0 .831-.526.85-1.091.013-.44.025-1.065.025-1.909 0-.845-.012-1.469-.026-1.909C6.581 10.526 6.316 10 5.75 10c-.565 0-.83.527-.848 1.092-.014.45-.027 1.083-.027 1.908Z" />
</svg>