<svg xmlns="http://www.w3.org/2000/svg" viewBox="0 0 24 24" fill="currentColor">
  <path _ngcontent-ng-c1909134112="" opacity=".1" style="color: inherit" d="M11.8 16.375S7.882 15.891 6 15.6l-1.318.857a5.6 5.6 0 0 0-2.543 4.938L2.2 22.8h8.516c.83 0 1.346-.905.92-1.619a3.75 3.75 0 0 1-.374-2.975l.538-1.83Z" />
  <path _ngcontent-ng-c1909134112="" fill-rule="evenodd" clip-rule="evenodd" style="color: inherit" d="M12 2.4c-2.072 0-3.586 1.531-3.6 3.628a37.16 37.16 0 0 0 .001.547c.011 1.333.357 2.625.984 3.558.612.91 1.475 1.467 2.615 1.467 1.14 0 2.002-.556 2.614-1.467.628-.933.973-2.225.984-3.558a40.857 40.857 0 0 0 .001-.547C15.586 3.931 14.072 2.4 12 2.4ZM6.8 6.018C6.82 3.066 9.024.8 12 .8s5.18 2.266 5.199 5.218a38.039 38.039 0 0 1 0 .57c-.014 1.57-.416 3.187-1.257 4.437C15.087 12.3 13.762 13.2 12 13.2c-1.763 0-3.087-.901-3.943-2.175-.84-1.25-1.242-2.867-1.256-4.437a38.702 38.702 0 0 1 0-.57ZM14.4 18.8a.8.8 0 0 1 .8-.8h7.2a.8.8 0 0 1 0 1.6h-7.2a.8.8 0 0 1-.8-.8Z" />
  <path _ngcontent-ng-c1909134112="" fill-rule="evenodd" clip-rule="evenodd" style="color: inherit" d="M18.8 23.2a.8.8 0 0 1-.8-.8v-7.2a.8.8 0 0 1 1.6 0v7.2a.8.8 0 0 1-.8.8Zm-9.981-6.458c-3.041-.708-5.984 1.608-5.719 4.527l.097 1.059a.8.8 0 1 1-1.594.144l-.096-1.058c-.381-4.191 3.76-7.141 7.674-6.23 1.111.258 2.097.416 2.819.416a.8.8 0 0 1 0 1.6c-.909 0-2.037-.192-3.181-.458Z" />
</svg>