<svg xmlns="http://www.w3.org/2000/svg" viewBox="0 0 24 24" fill="none">
  <path _ngcontent-ng-c1909134112="" fill="currentColor" fill-rule="evenodd" clip-rule="evenodd" style="color: inherit" d="M6 5a1 1 0 0 0-1 1v1a1 1 0 0 1-2 0V6a3 3 0 0 1 3-3h1a1 1 0 0 1 0 2H6Zm10-1a1 1 0 0 1 1-1h1a3 3 0 0 1 3 3v1a1 1 0 1 1-2 0V6a1 1 0 0 0-1-1h-1a1 1 0 0 1-1-1ZM4 16a1 1 0 0 1 1 1v1a1 1 0 0 0 1 1h1a1 1 0 1 1 0 2H6a3 3 0 0 1-3-3v-1a1 1 0 0 1 1-1Zm16 0a1 1 0 0 1 1 1v1a3 3 0 0 1-3 3h-1a1 1 0 1 1 0-2h1a1 1 0 0 0 1-1v-1a1 1 0 0 1 1-1ZM7.124 12a9.12 9.12 0 0 1 1.123-1.586C9.154 9.394 10.404 8.5 12 8.5s2.846.894 3.753 1.914A9.12 9.12 0 0 1 16.876 12a9.12 9.12 0 0 1-1.123 1.586C14.846 14.606 13.596 15.5 12 15.5s-2.846-.894-3.753-1.914A9.12 9.12 0 0 1 7.124 12ZM18 12c.914-.406.914-.406.913-.407v-.003l-.003-.005-.007-.015-.023-.049a10.028 10.028 0 0 0-.395-.734 11.121 11.121 0 0 0-1.238-1.701C16.154 7.856 14.404 6.5 12 6.5S7.846 7.856 6.753 9.086a11.12 11.12 0 0 0-1.55 2.268 6.96 6.96 0 0 0-.106.216l-.007.015-.002.005-.001.002v.001L6 12l-.914-.406a1 1 0 0 0 0 .812L6 12c-.914.406-.914.406-.913.407v.003l.003.005.007.015a4.615 4.615 0 0 0 .105.216 11.124 11.124 0 0 0 1.55 2.268C7.847 16.144 9.597 17.5 12 17.5c2.404 0 4.154-1.356 5.247-2.586a11.125 11.125 0 0 0 1.55-2.268c.036-.07.064-.126.083-.167l.023-.05.007-.014.002-.005.001-.002v-.001L18 12Zm0 0 .914.406a1 1 0 0 0 0-.812L18 12Zm-6 1.5a1.5 1.5 0 1 0 0-3 1.5 1.5 0 0 0 0 3Z" />
</svg>