<svg xmlns="http://www.w3.org/2000/svg" viewBox="0 0 24 24" fill="currentColor">
  <path _ngcontent-ng-c1909134112="" fill-rule="evenodd" clip-rule="evenodd" style="color: inherit" d="M7 5.5A2.5 2.5 0 0 1 9.5 3h5A2.5 2.5 0 0 1 17 5.5v1A2.5 2.5 0 0 1 14.5 9H13v2h4.5a2.5 2.5 0 0 1 2.5 2.5v1.55a2.5 2.5 0 0 1 2 2.45v1a2.5 2.5 0 0 1-2.5 2.5h-1a2.5 2.5 0 0 1-2.5-2.5v-1a2.5 2.5 0 0 1 2-2.45V13.5a.5.5 0 0 0-.5-.5H13v2.05a2.5 2.5 0 0 1 2 2.45v1a2.5 2.5 0 0 1-2.5 2.5h-1A2.5 2.5 0 0 1 9 18.5v-1a2.5 2.5 0 0 1 2-2.45V13H6.5a.5.5 0 0 0-.5.5v1.55a2.5 2.5 0 0 1 2 2.45v1A2.5 2.5 0 0 1 5.5 21h-1A2.5 2.5 0 0 1 2 18.5v-1a2.5 2.5 0 0 1 2-2.45V13.5A2.5 2.5 0 0 1 6.5 11H11V9H9.5A2.5 2.5 0 0 1 7 6.5v-1ZM9.5 5a.5.5 0 0 0-.5.5v1a.5.5 0 0 0 .5.5h5a.5.5 0 0 0 .5-.5v-1a.5.5 0 0 0-.5-.5h-5Zm-5 12a.5.5 0 0 0-.5.5v1a.5.5 0 0 0 .5.5h1a.5.5 0 0 0 .5-.5v-1a.5.5 0 0 0-.5-.5h-1Zm7 0a.5.5 0 0 0-.5.5v1a.5.5 0 0 0 .5.5h1a.5.5 0 0 0 .5-.5v-1a.5.5 0 0 0-.5-.5h-1Zm7 0a.5.5 0 0 0-.5.5v1a.5.5 0 0 0 .5.5h1a.5.5 0 0 0 .5-.5v-1a.5.5 0 0 0-.5-.5h-1Z" />
</svg>