<svg xmlns="http://www.w3.org/2000/svg" viewBox="0 0 24 24" fill="currentColor">
  <path _ngcontent-ng-c1909134112="" fill-rule="evenodd" clip-rule="evenodd" style="color: inherit" d="M9.659 3.804a1 1 0 0 1 .98-.804h2.721a1 1 0 0 1 .981.804l.346 1.73A6.98 6.98 0 0 0 12 5c-.952 0-1.86.19-2.687.534l.346-1.73Zm7.322 3a1 1 0 0 1 .015.293A6.977 6.977 0 0 1 19 12c0 1.91-.765 3.64-2.004 4.904a1 1 0 0 1-.015.292l-.679 3.392A3 3 0 0 1 13.36 23h-2.72a3 3 0 0 1-2.942-2.412l-.679-3.392a1 1 0 0 1-.015-.293A6.977 6.977 0 0 1 5 12c0-1.91.765-3.64 2.004-4.903a1 1 0 0 1 .015-.293l.679-3.392A3 3 0 0 1 10.64 1h2.72a3 3 0 0 1 2.942 2.412l.679 3.392ZM12 19c.952 0 1.86-.19 2.687-.534l-.346 1.73a1 1 0 0 1-.98.804H10.64a1 1 0 0 1-.981-.804l-.346-1.73A6.98 6.98 0 0 0 12 19Zm-5-7a5 5 0 1 1 10 0 5 5 0 0 1-10 0Zm6.986 2.357a1 1 0 0 0 1.028-1.714L13 11.433V9a1 1 0 1 0-2 0v3a1 1 0 0 0 .486.857l2.5 1.5Z" />
</svg>