<svg xmlns="http://www.w3.org/2000/svg" viewBox="0 0 24 24" fill="none">
  <path _ngcontent-ng-c1909134112="" fill="#FF4A00" style="color: inherit" d="M14.5 12.004c0 .744-.136 1.455-.384 2.112a5.995 5.995 0 0 1-2.112.384h-.008a5.992 5.992 0 0 1-2.112-.384 5.98 5.98 0 0 1-.384-2.112v-.008c0-.743.136-1.455.384-2.111a5.976 5.976 0 0 1 2.112-.385h.008c.744 0 1.455.137 2.112.385.248.656.384 1.368.384 2.11v.01Zm7.361-1.67h-5.837l4.127-4.128a10.082 10.082 0 0 0-2.357-2.357l-4.128 4.127V2.14c-.54-.09-1.095-.14-1.661-.14h-.01c-.567 0-1.121.048-1.662.14v5.836L6.206 3.85a9.986 9.986 0 0 0-1.277 1.08l-.002.001c-.393.394-.754.82-1.078 1.276l4.127 4.127H2.14S2 11.43 2 11.996v.008c0 .566.048 1.122.14 1.663h5.836L3.85 17.794a10.046 10.046 0 0 0 2.357 2.357l4.127-4.127v5.837c.54.09 1.095.138 1.66.139h.014c.566 0 1.12-.048 1.66-.139v-5.837l4.127 4.127a10.097 10.097 0 0 0 2.357-2.357l-4.128-4.127h5.838c.09-.54.138-1.094.139-1.66v-.014c0-.566-.048-1.12-.139-1.66Z" />
</svg>