<svg xmlns="http://www.w3.org/2000/svg" viewBox="0 0 24 24" fill="none">
  <path _ngcontent-ng-c1909134112="" fill="#0B5CFF" style="color: inherit" d="M22 12a19.8 19.8 0 0 1-.25 3.14 8.002 8.002 0 0 1-6.61 6.61 19.79 19.79 0 0 1-6.28 0 8.002 8.002 0 0 1-6.61-6.61 19.79 19.79 0 0 1 0-6.28 8.002 8.002 0 0 1 6.61-6.61 19.789 19.789 0 0 1 6.28 0 8.002 8.002 0 0 1 6.61 6.61A19.79 19.79 0 0 1 22 12Z" />
  <path _ngcontent-ng-c1909134112="" fill="url('#cu3-icon-zoomMeeting-a')" style="color: inherit" d="M22 12a19.8 19.8 0 0 1-.25 3.14 8.002 8.002 0 0 1-6.61 6.61 19.79 19.79 0 0 1-6.28 0 8.002 8.002 0 0 1-6.61-6.61 19.79 19.79 0 0 1 0-6.28 8.002 8.002 0 0 1 6.61-6.61 19.789 19.789 0 0 1 6.28 0 8.002 8.002 0 0 1 6.61 6.61A19.79 19.79 0 0 1 22 12Z" />
  <path _ngcontent-ng-c1909134112="" fill="url('#cu3-icon-zoomMeeting-b')" style="color: inherit" d="M22 12a19.8 19.8 0 0 1-.25 3.14 8.002 8.002 0 0 1-6.61 6.61 19.79 19.79 0 0 1-6.28 0 8.002 8.002 0 0 1-6.61-6.61 19.79 19.79 0 0 1 0-6.28 8.002 8.002 0 0 1 6.61-6.61 19.789 19.789 0 0 1 6.28 0 8.002 8.002 0 0 1 6.61 6.61A19.79 19.79 0 0 1 22 12Z" />
  <path _ngcontent-ng-c1909134112="" fill="#fff" style="color: inherit" d="M14.143 14.5c0 .592-.48 1.071-1.072 1.071H8.43a2.143 2.143 0 0 1-2.143-2.142V9.5c0-.592.48-1.071 1.071-1.071H12c1.184 0 2.143.959 2.143 2.142V14.5Zm2.714-5.429-1.571 1.179a1.07 1.07 0 0 0-.429.857v1.786c0 .337.159.655.429.857l1.571 1.178a.536.536 0 0 0 .857-.428v-5a.536.536 0 0 0-.857-.429Z" />
</svg>