<?xml version="1.0" encoding="utf-8"?>
<svg fill="#FFFFFF" viewBox="0 0 24 24" xmlns="http://www.w3.org/2000/svg">
<path _ngcontent-ng-c1909134112="" d="M.879.879A3 3 0 0 1 3 0h12a3 3 0 0 1 3 3v6a1 1 0 1 1-2 0V3a1 1 0 0 0-1-1H3a1 1 0 0 0-1 1v12a1 1 0 0 0 1 1h7a1 1 0 1 1 0 2H3a3 3 0 0 1-3-3V3A3 3 0 0 1 .879.879Z" style="color: inherit"/>
<path _ngcontent-ng-c1909134112="" d="M13 4a1 1 0 0 1 1 1v8a1 1 0 1 1-2 0V5a1 1 0 0 1 1-1ZM9 7a1 1 0 0 1 1 1v5a1 1 0 1 1-2 0V8a1 1 0 0 1 1-1Zm-4 3a1 1 0 0 1 1 1v2a1 1 0 1 1-2 0v-2a1 1 0 0 1 1-1Zm8 6a1 1 0 0 1 1-1h2v-2a1 1 0 1 1 2 0v2h2a1 1 0 1 1 0 2h-2v2a1 1 0 1 1-2 0v-2h-2a1 1 0 0 1-1-1Z" style="color: inherit"/>
</svg>