<?xml version="1.0" encoding="utf-8"?>
<svg fill="#FFFFFF" viewBox="0 0 24 24" xmlns="http://www.w3.org/2000/svg">
<path _ngcontent-ng-c1909134112="" clip-rule="evenodd" d="M8.293 2.293A1 1 0 0 1 9 2h6a1 1 0 0 1 .707.293l.707.707H17a3 3 0 0 1 3 3v6a1 1 0 1 1-2 0V6a1 1 0 0 0-1-1h-1a1 1 0 0 1-.707-.293L14.586 4H9.414l-.707.707A1 1 0 0 1 8 5H7a1 1 0 0 0-1 1v13a1 1 0 0 0 1 1h5a1 1 0 1 1 0 2H7a3 3 0 0 1-3-3V6a3 3 0 0 1 3-3h.586l.707-.707ZM15 9H9a1 1 0 0 1 0-2h6a1 1 0 1 1 0 2Zm0 4H9a1 1 0 1 1 0-2h6a1 1 0 1 1 0 2Zm4 2a1 1 0 0 1 1 1v2h2a1 1 0 1 1 0 2h-2v2a1 1 0 1 1-2 0v-2h-2a1 1 0 1 1 0-2h2v-2a1 1 0 0 1 1-1Z" fill="#FFFFFF" fill-rule="evenodd" style="color: inherit"/>
</svg>