<?xml version="1.0" encoding="utf-8"?>
<svg fill="#FFFFFF" viewBox="0 0 24 24" xmlns="http://www.w3.org/2000/svg">
<path _ngcontent-ng-c1909134112="" d="M10.471 5.806a.667.667 0 1 0-.942-.943L6 8.392 4.471 6.863a.667.667 0 1 0-.942.943l2 2c.26.26.682.26.942 0l4-4Z" fill="#FFFFFF" style="color: inherit"/>
<path _ngcontent-ng-c1909134112="" clip-rule="evenodd" d="M7 .335a6.667 6.667 0 1 0 0 13.333A6.667 6.667 0 0 0 7 .335ZM1.667 7a5.333 5.333 0 1 1 10.666 0A5.333 5.333 0 0 1 1.667 7Z" fill="#FFFFFF" fill-rule="evenodd" style="color: inherit"/>
</svg>