<?xml version="1.0" encoding="utf-8"?>
<svg fill="#FFFFFF" viewBox="0 0 24 24" xmlns="http://www.w3.org/2000/svg">
<path _ngcontent-ng-c1909134112="" d="M10.906 1.076c-.157-.545-.99-.545-1.148 0l-.223.772c-.482 1.664-1.141 2.963-2.931 3.41l-.831.209a.543.543 0 0 0 0 1.067l.83.207c1.79.448 2.45 1.748 2.932 3.411l.223.772c.158.545.99.545 1.149 0l.223-.772c.482-1.663 1.141-2.963 2.931-3.41l.831-.208a.543.543 0 0 0 0-1.067l-.83-.208c-1.79-.448-2.45-1.747-2.932-3.41l-.224-.773Z" fill="#FFFFFF" fill-rule="evenodd" style="color: inherit"/>
<path _ngcontent-ng-c1909134112="" d="M4.01 8.922c-.094-.34-.593-.34-.688 0l-.134.483c-.29 1.04-.685 1.851-1.759 2.131l-.499.13a.342.342 0 0 0 0 .667l.499.13c1.074.28 1.47 1.092 1.759 2.132l.134.482c.095.34.594.34.689 0l.134-.482c.289-1.04.684-1.852 1.759-2.132l.498-.13a.342.342 0 0 0 0-.667l-.498-.13c-1.075-.28-1.47-1.092-1.76-2.131l-.133-.483Z" fill="#FFFFFF" fill-rule="evenodd" style="color: inherit"/>
</svg>