<?xml version="1.0" encoding="utf-8"?>
<svg fill="#FFFFFF" viewBox="0 0 24 24" xmlns="http://www.w3.org/2000/svg">
<path _ngcontent-ng-c1909134112="" clip-rule="evenodd" d="M16.36 1.613c-.236-.817-1.484-.817-1.721 0l-.336 1.158c-.723 2.496-1.711 4.445-4.397 5.117L8.66 8.2a.815.815 0 0 0 0 1.6l1.246.312c2.686.672 3.674 2.621 4.397 5.117l.336 1.158c.237.817 1.485.817 1.722 0l.336-1.158c.723-2.496 1.711-4.445 4.397-5.117L22.34 9.8a.815.815 0 0 0 0-1.6l-1.246-.312c-2.686-.672-3.675-2.621-4.397-5.117l-.336-1.158ZM6.017 13.383c-.143-.51-.892-.51-1.034 0l-.201.724c-.434 1.56-1.027 2.778-2.638 3.198l-.748.195a.514.514 0 0 0 0 1l.748.195c1.611.42 2.204 1.638 2.638 3.198l.201.724c.142.51.891.51 1.034 0l.201-.724c.434-1.56 1.027-2.778 2.638-3.198l.748-.195a.514.514 0 0 0 0-1l-.748-.195c-1.611-.42-2.204-1.638-2.638-3.198l-.201-.724Z" fill="#FFFFFF" fill-rule="evenodd" style="color: inherit"/>
</svg>