<?xml version="1.0" encoding="utf-8"?>
<svg fill="#FFFFFF" viewBox="0 0 24 24" xmlns="http://www.w3.org/2000/svg">
<path _ngcontent-ng-c1909134112="" d="M.933 3.4c.714-.817.952-1.4 2.498-1.4 1.547 0 1.547 1.4 3.331 1.4C8.31 3.4 8.934 2 10.212 2c1.427 0 2.022.466 2.855 1.4M.933 13.183c.722-.8 1.082-1.485 2.525-1.37 1.442.114 2.163 2.741 5.409.456M.933 8.533c.709-1.09.945-1.866 2.48-1.866 1.536 0 1.536 1.866 3.308 1.866 1.771 0 2.007-2.489 3.779-.933" stroke-linecap="round" stroke-linejoin="round" stroke-width=".933" style="color: inherit"/>
</svg>