<?xml version="1.0" encoding="utf-8"?>
<svg fill="#FFFFFF" viewBox="0 0 24 24" xmlns="http://www.w3.org/2000/svg">
<path _ngcontent-ng-c1909134112="" d="m6.938 7.938 1.053 3.1c.214.63 1.11.637 1.336.01.475-1.311 1.117-3.045 1.656-4.356a119.5 119.5 0 0 1 1.812-4.105c.277-.605-.365-1.234-.964-.944a116.527 116.527 0 0 1-4.024 1.873c-1.284.557-2.98 1.222-4.27 1.716-.622.239-.599 1.135.036 1.337l2.915.927a.7.7 0 0 1 .45.442ZM.933 13.467l4.2-4.2M4.433 12.767 5.6 11.6M1.633 9.967 2.8 8.801" stroke-linecap="round" stroke-linejoin="round" stroke-width=".933" style="color: inherit"/>
</svg>