<?xml version="1.0" encoding="utf-8"?>
<svg fill="#FFFFFF" viewBox="0 0 24 24" xmlns="http://www.w3.org/2000/svg">
<path _ngcontent-ng-c1909134112="" clip-rule="evenodd" d="M10.967 1.45 7 1.333l-3.967.117-1.866 1.4v8.984l.816.7-.233-.7L3.5 9.967h7l1.75 1.867-.212.636.795-.636V2.966L10.967 1.45Zm-2.1 3.034V7.05L7 8.217 5.133 6.934v-2.45L7 3.434l1.867 1.05Z" style="color: inherit"/>
<path _ngcontent-ng-c1909134112="" d="M7 3.434h-.035c-1.168.002-2.04.868-2.04 2.036 0 1.353.722 2.685 2.075 2.685 1.353 0 2.076-1.332 2.076-2.685 0-1.168-.872-2.034-2.04-2.036H7ZM12.189 12.709v0c0-1.833-1.78-3.123-3.58-2.777-.604.116-1.175.195-1.609.195-.434 0-1.005-.079-1.61-.195-1.8-.346-3.579.944-3.579 2.777v0" stroke-linecap="round" stroke-linejoin="round" stroke-width=".933" style="color: inherit"/>
<path _ngcontent-ng-c1909134112="" d="M13.067 7.4c0-1.583-.08-2.816-.174-3.716a2.404 2.404 0 0 0-2.176-2.177C9.816 1.414 8.583 1.334 7 1.334c-1.583 0-2.816.08-3.717.173a2.404 2.404 0 0 0-2.176 2.177A36.07 36.07 0 0 0 .933 7.4c0 1.63.085 2.888.183 3.795.12 1.13.957 1.981 2.087 2.1.886.093 2.13.172 3.797.172 1.668 0 2.911-.08 3.797-.172 1.13-.119 1.966-.97 2.087-2.1a35.79 35.79 0 0 0 .183-3.795Z" stroke-linecap="round" stroke-linejoin="round" stroke-width=".933" style="color: inherit"/>
</svg>