<?xml version="1.0" encoding="utf-8"?>
<svg fill="#FFFFFF" viewBox="0 0 24 24" xmlns="http://www.w3.org/2000/svg">
<path _ngcontent-ng-c1909134112="" d="M6.222 9.61c1.939.17 3.296.165 4.154.12.718-.036 1.28-.558 1.409-1.265.099-.54.204-1.22.264-1.915.062-.722.073-1.434.066-1.994-.008-.686-.439-1.272-1.107-1.429-.812-.19-2.145-.43-4.196-.61-2.044-.178-3.387-.174-4.209-.127-.679.039-1.195.536-1.32 1.205-.103.552-.215 1.26-.278 1.987a20.68 20.68 0 0 0-.067 1.933c.007.718.471 1.33 1.171 1.491.839.193 2.175.433 4.113.603ZM13.024 9.734l-.018.561c-.021.666-.402 1.26-1.039 1.454-.829.252-2.204.565-4.246.724-2.031.158-3.423.063-4.273-.058-.658-.093-1.121-.625-1.229-1.281-.033-.2-.068-.417-.102-.636" stroke-linecap="round" stroke-linejoin="round" stroke-width=".933" style="color: inherit"/>
<path _ngcontent-ng-c1909134112="" d="M2.506 3.885 6.13 5.964a.933.933 0 0 0 .782.068l3.924-1.417" stroke-linecap="round" stroke-linejoin="round" stroke-width=".933" style="color: inherit"/>
</svg>