<?xml version="1.0" encoding="utf-8"?>
<svg fill="#FFFFFF" viewBox="0 0 24 24" xmlns="http://www.w3.org/2000/svg">
<path _ngcontent-ng-c1909134112="" d="M5.073 7.397C4.429 8.444 3.769 9.132 3.188 9.7c-.083.08-.162.158-.238.234-.633.629-.967 1.06-.967 1.667 0 .342.138.582.364.773.241.204.588.352.978.453.384.1.776.143 1.075.162.15.01.272.012.358.013h.185c.23.021.415.211.423.449a.48.48 0 0 1-.466.483h-.002c-.03 0-.098.002-.146.001a7.359 7.359 0 0 1-1.66-.204c-.456-.118-.955-.312-1.348-.644A1.886 1.886 0 0 1 1.05 11.6c0-1.028.614-1.705 1.242-2.33l.248-.244c.582-.57 1.206-1.181 1.72-2.09.414-.73.377-1.227.2-1.585-.195-.392-.612-.726-1.16-.996-.538-.265-1.142-.44-1.621-.548a9.546 9.546 0 0 0-.746-.137l-.041-.005-.01-.002H.88a.467.467 0 0 1-.41-.516c.029-.257.349-.438.589-.402.186.028.107.015.186.028.158.025.38.065.64.124.515.116 1.197.31 1.828.62.63.312 1.373.87 1.654 1.433.28.562.35 1.4-.294 2.446Z" fill="#FFFFFF" stroke="none" style="color: inherit"/>
<path _ngcontent-ng-c1909134112="" d="m6.972 13.47 1.982-1.491c.229-.172.398-.408.49-.679.24-.706.747-2.16 1.178-3.162.618-1.434 1.785-3.578 1.785-3.578s-.88-.167-1.402-.393c-.521-.226-1.244-.753-1.244-.753s-.728 2.21-1.317 3.577c-.457 1.061-1.215 2.51-1.578 3.193a1.42 1.42 0 0 0-.16.82l.266 2.465Z" stroke-linecap="round" stroke-linejoin="round" stroke-width=".933" style="color: inherit"/>
<path _ngcontent-ng-c1909134112="" d="m10.3 2.172-.538 1.241s.72.53 1.242.756c.522.227 1.403.391 1.403.391l.538-1.241a1.4 1.4 0 0 0-.528-1.735l-.036-.023a1.399 1.399 0 0 0-.413-.18l-.04-.01a1.4 1.4 0 0 0-1.628.801Z" stroke-linecap="round" stroke-linejoin="round" stroke-width=".933" style="color: inherit"/>
</svg>