<?xml version="1.0" encoding="utf-8"?>
<svg fill="#FFFFFF" viewBox="0 0 24 24" xmlns="http://www.w3.org/2000/svg">
<path _ngcontent-ng-c1909134112="" clip-rule="evenodd" d="M11.138 4.863c.26.26.26.683 0 .943L8.805 8.14l-.943-.942 2.333-2.334c.26-.26.683-.26.943 0Zm4 0c.26.26.26.683 0 .943L9.805 11.14a.667.667 0 0 1-.943 0L5.529 7.806a.667.667 0 1 1 .942-.943l2.862 2.862 4.862-4.862c.26-.26.683-.26.943 0Zm-13.61 2c.261-.26.683-.26.943 0l2.862 2.862.529-.528.943.942-1 1a.667.667 0 0 1-.943 0L1.529 7.806a.667.667 0 0 1 0-.943Z" fill="#FFFFFF" fill-rule="evenodd" style="color: inherit"/>
</svg>