<?xml version="1.0" encoding="utf-8"?>
<svg fill="#FFFFFF" viewBox="0 0 24 24" xmlns="http://www.w3.org/2000/svg">
<path _ngcontent-ng-c1909134112="" clip-rule="evenodd" d="M1.333 4.668c0-.368.299-.667.667-.667h6.667a.667.667 0 0 1 0 1.334H2a.667.667 0 0 1-.667-.667Zm5.334 3.333c0-.368.298-.666.666-.666H14a.667.667 0 1 1 0 1.333H7.333a.667.667 0 0 1-.666-.667ZM4 11.335c0-.369.298-.667.667-.667h6.666a.667.667 0 0 1 0 1.333H4.667A.667.667 0 0 1 4 11.335Z" fill="#FFFFFF" fill-rule="evenodd" style="color: inherit"/>
</svg>