<?xml version="1.0" encoding="utf-8"?>
<svg fill="#FFFFFF" viewBox="0 0 24 24" xmlns="http://www.w3.org/2000/svg">
<path _ngcontent-ng-c1909134112="" clip-rule="evenodd" d="M0 4.667a2 2 0 0 1 2-2h12a2 2 0 0 1 2 2v6.666a2 2 0 0 1-2 2H2a2 2 0 0 1-2-2V4.667ZM2 4a.667.667 0 0 0-.667.667v6.666c0 .368.299.667.667.667h12a.667.667 0 0 0 .667-.667V4.667A.667.667 0 0 0 14 4H2Zm3.333 2a.827.827 0 0 0-.833.833c0 .482.329.834.833.834.505 0 .834-.352.834-.834A.827.827 0 0 0 5.333 6Zm1.738 2.154a2.2 2.2 0 0 0 .429-1.32 2.16 2.16 0 0 0-2.167-2.167 2.16 2.16 0 0 0-2.166 2.166c0 .495.155.954.429 1.32a3.327 3.327 0 0 0-1.59 2.431.667.667 0 0 0 1.322.165C3.452 9.76 4.328 9 5.333 9c1.006 0 1.882.758 2.005 1.75a.667.667 0 0 0 1.324-.166 3.327 3.327 0 0 0-1.591-2.43ZM10 6.667c0-.369.299-.667.667-.667h2.666a.667.667 0 1 1 0 1.333h-2.666A.667.667 0 0 1 10 6.667Zm0 2.666c0-.368.299-.666.667-.666H12A.667.667 0 1 1 12 10h-1.333A.667.667 0 0 1 10 9.333Z" fill="#FFFFFF" fill-rule="evenodd" style="color: inherit"/>
</svg>