<?xml version="1.0" encoding="utf-8"?>
<svg fill="#FFFFFF" viewBox="0 0 24 24" xmlns="http://www.w3.org/2000/svg">
<path _ngcontent-ng-c1909134112="" clip-rule="evenodd" d="M4.934 4.893c.27-.362.601-.674.98-.921a2.53 2.53 0 0 0-3.58 3.565 3.982 3.982 0 0 0-2.076 3.007.667.667 0 0 0 1.323.167 2.665 2.665 0 0 1 2.652-2.316.669.669 0 0 0 .143-.016 3.813 3.813 0 0 1-.194-1.319 1.197 1.197 0 1 1 .752-2.167Zm5.149-.921c.378.247.71.56.98.921a1.197 1.197 0 1 1 .752 2.167v.11c0 .423-.068.83-.195 1.21a.67.67 0 0 0 .143.015 2.665 2.665 0 0 1 2.652 2.316.667.667 0 0 0 1.323-.167 3.983 3.983 0 0 0-2.076-3.008 2.53 2.53 0 0 0-3.58-3.565ZM6.514 7.17a1.484 1.484 0 1 1 2.968 0 1.484 1.484 0 0 1-2.968 0Zm4.302 0c0 .762-.302 1.452-.793 1.96a4.494 4.494 0 0 1 2.46 3.454.667.667 0 0 1-1.323.166 3.177 3.177 0 0 0-3.162-2.762 3.177 3.177 0 0 0-3.162 2.762.667.667 0 0 1-1.323-.166 4.495 4.495 0 0 1 2.46-3.455 2.817 2.817 0 1 1 4.842-1.959Z" fill="#FFFFFF" fill-rule="evenodd" style="color: inherit"/>
</svg>