<?xml version="1.0" encoding="utf-8"?>
<svg fill="#FFFFFF" viewBox="0 0 24 24" xmlns="http://www.w3.org/2000/svg">
<path _ngcontent-ng-c1909134112="" d="M6.256 7.567C5.485 6.818 4.94 6.025 4.67 5.365c-.135-.331-.19-.607-.188-.813 0-.035.002-.067.006-.097l.09-.244a.273.273 0 0 1 .019-.02c.066-.064.213-.135.524-.104a.504.504 0 0 0 .556-.44.497.497 0 0 0-.454-.54c-.478-.047-.981.036-1.344.388l-.058.06a.491.491 0 0 0-.157.215v.001a1.424 1.424 0 0 0-.162.435L.54 12.156c-.223.597.373 1.176.988.96l1.873-.658.01.022c.274.664.99 1.053 1.716.931l1.05-.175c1.043-.173 1.59-1.267 1.146-2.156l2.395-.84c.155-.03.305-.08.444-.157h.003a.504.504 0 0 0 .222-.155c.021-.017.041-.036.061-.055.363-.352.448-.84.4-1.305a.504.504 0 0 0-.556-.44.497.497 0 0 0-.454.54c.032.3-.04.444-.107.508a.273.273 0 0 1-.021.018l-.25.088a.768.768 0 0 1-.1.006c-.213.003-.497-.052-.837-.183-.68-.261-1.498-.79-2.268-1.538Zm-1.3 4.873a.553.553 0 0 1-.599-.318l1.998-.701.015.02a.53.53 0 0 1-.363.825l-1.05.175Z" style="color: inherit"/>
<path _ngcontent-ng-c1909134112="" d="M6.723 1.042A.5.5 0 0 1 7.249.57l-.027.5.027-.5h.012l.024.002.082.008c.07.007.168.02.29.04.243.042.583.115.98.247a7.3 7.3 0 0 1 2.794 1.691 6.657 6.657 0 0 1 1.71 2.685c.126.38.191.704.226.936a3.977 3.977 0 0 1 .037.357v.024l.001.008v.003s0 .002-.5.01l.5-.01a.5.5 0 0 1-1 .018v-.008a2.106 2.106 0 0 0-.027-.255 4.63 4.63 0 0 0-.187-.768 5.657 5.657 0 0 0-1.456-2.282 6.3 6.3 0 0 0-2.41-1.46 5.73 5.73 0 0 0-.835-.21 3.83 3.83 0 0 0-.284-.037h-.011a.5.5 0 0 1-.472-.527ZM6.32 2.78a.5.5 0 0 1 .516-.485l-.016.5.016-.5h.011l.02.002a3.58 3.58 0 0 1 .29.032c.188.028.449.08.755.178.612.195 1.41.57 2.155 1.294a5.276 5.276 0 0 1 1.338 2.097 4.61 4.61 0 0 1 .213.96l.006.065v.02l.001.007v.003l-.5.018.5-.018a.5.5 0 0 1-1 .037v-.006c0-.006 0-.018-.002-.034a3.603 3.603 0 0 0-.165-.731 4.276 4.276 0 0 0-1.087-1.7A4.48 4.48 0 0 0 7.61 3.458a3.957 3.957 0 0 0-.763-.162 1.319 1.319 0 0 0-.037-.003h-.007.002a.5.5 0 0 1-.484-.515Zm-.218 1.883a.5.5 0 0 1 .515-.485l-.016.5.016-.5h.01l.014.001a1.616 1.616 0 0 1 .193.021c.122.019.29.052.484.114.39.124.898.363 1.372.823.475.46.724.956.853 1.339a2.962 2.962 0 0 1 .138.622l.003.045v.015l.001.005v.004l-.5.016.5-.016a.5.5 0 0 1-.999.037l-.001-.015a1.965 1.965 0 0 0-.09-.393 2.362 2.362 0 0 0-.6-.941c-.341-.33-.703-.5-.98-.587a2.173 2.173 0 0 0-.43-.09h.002a.5.5 0 0 1-.484-.515Z" style="color: inherit"/>
</svg>