<?xml version="1.0" encoding="utf-8"?>
<svg fill="#FFFFFF" viewBox="0 0 24 24" xmlns="http://www.w3.org/2000/svg">
<path _ngcontent-ng-c1909134112="" d="M13.43 1.311a2 2 0 0 0-3.755 0l-4.73 12.9a12.368 12.368 0 0 0 3.718 1.48l2.89-7.882 2.89 7.88a12.366 12.366 0 0 0 3.095-1.126c.227-.119.434-.238.623-.352l-4.73-12.9Z" fill="#FFFFFF" fill-rule="nonzero" style="color: inherit" transform="translate(.5)"/>
<path _ngcontent-ng-c1909134112="" d="m19.557 18.02-.156.083a16.333 16.333 0 0 1-3.572 1.368l1.18 3.217a2 2 0 1 0 3.755-1.377l-1.207-3.291Z" fill="#FFFFFF" fill-rule="nonzero" style="color: inherit" transform="translate(.5)"/>
<path _ngcontent-ng-c1909134112="" d="M7.277 19.471A16.326 16.326 0 0 1 3.55 18.02l-1.208 3.29a2 2 0 0 0 3.756 1.377l1.18-3.217Z" fill="#FFFFFF" fill-rule="nonzero" style="color: inherit" transform="translate(.5)"/>
<path _ngcontent-ng-c1909134112="" d="M5.342 12.01c1.5 1.017 3.615 1.99 6.211 1.99 2.597 0 4.711-.973 6.212-1.99a12.752 12.752 0 0 0 1.709-1.384 9.365 9.365 0 0 0 .514-.54l.016-.018-.002.003-.002.003 1.553 1.26c1.555 1.258 1.554 1.258 1.553 1.259v.001l-.003.003-.006.008-.017.02a6.093 6.093 0 0 1-.218.25 12.9 12.9 0 0 1-.605.623 16.754 16.754 0 0 1-2.249 1.824C18.064 16.64 15.178 18 11.553 18s-6.51-1.361-8.455-2.678A16.757 16.757 0 0 1 .85 13.498a13.345 13.345 0 0 1-.772-.814 6.161 6.161 0 0 1-.05-.06l-.017-.02-.006-.007L0 12.594v-.001s-.001-.002 1.553-1.26c1.555-1.258 1.554-1.259 1.554-1.26l-.002-.002-.002-.003c-.001 0-.001 0 0 0l.015.019.093.105c.089.098.23.249.422.434.384.373.961.878 1.709 1.385Z" fill="#FFFFFF" style="color: inherit" transform="translate(.5)"/>
<path _ngcontent-ng-c1909134112="" d="M.053 0h24v24h-24z" style="color: inherit"/>
</svg>