<?xml version="1.0" encoding="utf-8"?>
<svg fill="#FFFFFF" viewBox="0 0 24 24" xmlns="http://www.w3.org/2000/svg">
<path _ngcontent-ng-c1909134112="" clip-rule="evenodd" d="M12.97 2.795c.124-.55.663-.895 1.205-.77a10.047 10.047 0 0 1 5.63 3.597A10.336 10.336 0 0 1 22 12c0 2.318-.774 4.566-2.196 6.378a10.047 10.047 0 0 1-5.629 3.596 1.006 1.006 0 0 1-1.205-.77 1.023 1.023 0 0 1 .757-1.224 8.039 8.039 0 0 0 4.504-2.877A8.27 8.27 0 0 0 19.987 12a8.27 8.27 0 0 0-1.756-5.103 8.038 8.038 0 0 0-4.504-2.877 1.023 1.023 0 0 1-.757-1.225Zm-2.063.001a1.023 1.023 0 0 1-.758 1.224 7.94 7.94 0 0 0-2.765 1.232.996.996 0 0 1-1.4-.262 1.033 1.033 0 0 1 .259-1.423 9.936 9.936 0 0 1 3.46-1.541 1.006 1.006 0 0 1 1.204.77ZM4.57 6.523c.486.274.662.896.392 1.39l-.164.302a8.249 8.249 0 0 0-.8 2.42 1.008 1.008 0 0 1-1.159.84 1.021 1.021 0 0 1-.825-1.18 10.33 10.33 0 0 1 1.007-3.04l.01-.021.171-.312a.998.998 0 0 1 1.368-.399ZM16.675 8.55c.393.4.393 1.047 0 1.447l-5.367 5.454c-.393.4-1.03.4-1.423 0l-2.683-2.727a1.035 1.035 0 0 1 0-1.446.995.995 0 0 1 1.423 0l1.972 2.004 4.655-4.732a.995.995 0 0 1 1.423 0ZM2.956 13.575a1.004 1.004 0 0 1 1.247.699c.239.84.609 1.635 1.097 2.355a1.033 1.033 0 0 1-.259 1.422.996.996 0 0 1-1.4-.262 10.264 10.264 0 0 1-1.372-2.947 1.025 1.025 0 0 1 .687-1.267Zm3.602 5.901a.997.997 0 0 1 1.374-.377 7.913 7.913 0 0 0 2.216.88c.543.126.882.673.76 1.224a1.007 1.007 0 0 1-1.205.771 9.909 9.909 0 0 1-2.774-1.102 1.032 1.032 0 0 1-.371-1.396Z" fill="#FFFFFF" fill-rule="evenodd" style="color: inherit"/>
</svg>