<?xml version="1.0" encoding="utf-8"?>
<svg fill="#FFFFFF" viewBox="0 0 24 24" xmlns="http://www.w3.org/2000/svg">
<path _ngcontent-ng-c1909134112="" clip-rule="evenodd" d="M16.397 9.122c.79-.528.79-1.69 0-2.218L6.417.24a1.333 1.333 0 0 0-2.074 1.109v2.084H2.321c-.737 0-1.334.597-1.334 1.334v6.49c0 .737.597 1.334 1.334 1.334h2.022v2.086c0 1.065 1.188 1.7 2.074 1.109l9.98-6.664Z" fill="#FFFFFF" fill-opacity=".055" fill-rule="evenodd" style="color: inherit"/>
<path _ngcontent-ng-c1909134112="" clip-rule="evenodd" d="M5.676 3.433c0 .737-.597 1.334-1.333 1.334H2.321v6.49h2.022c.736 0 1.333.598 1.333 1.334v2.086l9.981-6.664-9.98-6.664v2.084Zm10.721 3.471L6.417.24a1.333 1.333 0 0 0-2.074 1.109v2.084H2.321c-.737 0-1.334.597-1.334 1.334v6.49c0 .737.597 1.334 1.334 1.334h2.022v2.086c0 1.065 1.188 1.7 2.074 1.109l9.98-6.664c.79-.528.79-1.69 0-2.218Z" fill="#FFFFFF" fill-rule="evenodd" style="color: inherit"/>
</svg>