<?xml version="1.0" encoding="utf-8"?>
<svg fill="#FFFFFF" viewBox="0 0 24 24" xmlns="http://www.w3.org/2000/svg">
<path _ngcontent-ng-c1909134112="" clip-rule="evenodd" d="M7.866 15.41c.528.79 1.69.79 2.218 0l6.664-9.98a1.333 1.333 0 0 0-1.109-2.074h-2.084V1.333C13.555.597 12.957 0 12.22 0H5.73c-.737 0-1.334.597-1.334 1.333v2.023H2.31a1.333 1.333 0 0 0-1.109 2.073l6.664 9.981Z" fill="#FFFFFF" fill-opacity=".055" fill-rule="evenodd" style="color: inherit"/>
<path _ngcontent-ng-c1909134112="" clip-rule="evenodd" d="M12.612 4.298c-.25-.25-.39-.589-.39-.942V1.333H5.73v2.023c0 .736-.597 1.333-1.333 1.333H2.31l6.664 9.98 6.664-9.98h-2.084c-.354 0-.693-.14-.943-.39Zm3.027-.942c1.066 0 1.7 1.187 1.11 2.073l-6.665 9.981c-.528.79-1.69.79-2.218 0L1.202 5.43a1.333 1.333 0 0 1 1.109-2.074h2.086V1.333C4.397.597 4.994 0 5.73 0h6.491c.736 0 1.334.597 1.334 1.333v2.023h2.084Z" fill="#FFFFFF" fill-rule="evenodd" style="color: inherit"/>
</svg>