<?xml version="1.0" encoding="utf-8"?>
<svg fill="#FFFFFF" viewBox="0 0 24 24" xmlns="http://www.w3.org/2000/svg">
<path _ngcontent-ng-c1909134112="" clip-rule="evenodd" d="M9.109.59a1.333 1.333 0 0 0-2.218 0L.227 10.571a1.333 1.333 0 0 0 1.109 2.074H3.42v2.022c0 .737.597 1.334 1.333 1.334h6.49c.737 0 1.334-.597 1.334-1.334v-2.022h2.086c1.066 0 1.7-1.188 1.109-2.074L9.109.591Z" fill="#FFFFFF" fill-opacity=".055" fill-rule="evenodd" style="color: inherit"/>
<path _ngcontent-ng-c1909134112="" clip-rule="evenodd" d="M3.42 11.312c.737 0 1.334.596 1.334 1.333v2.022h6.49v-2.022c0-.737.598-1.333 1.334-1.333h2.086L8 1.33l-6.664 9.98H3.42Zm-2.084 1.333A1.333 1.333 0 0 1 .227 10.57L6.891.591C7.42-.2 8.581-.2 9.11.59l6.664 9.98a1.333 1.333 0 0 1-1.109 2.074h-2.086v2.022c0 .737-.597 1.334-1.333 1.334H4.754a1.333 1.333 0 0 1-1.333-1.334v-2.022H1.336Z" fill="#FFFFFF" fill-rule="evenodd" style="color: inherit"/>
</svg>