<?xml version="1.0" encoding="utf-8"?>
<svg fill="#FFFFFF" viewBox="0 0 24 24" xmlns="http://www.w3.org/2000/svg">
<path _ngcontent-ng-c1909134112="" clip-rule="evenodd" d="M12 4a8 8 0 0 0-6.395 12.806A7.049 7.049 0 0 1 8.9 13.461a4.375 4.375 0 1 1 6.2 0c.478.233.925.518 1.334.848h-1.34c-.6 0-1.136.27-1.495.696a5.085 5.085 0 0 0-1.6-.256 5.043 5.043 0 0 0-4.85 3.613A7.961 7.961 0 0 0 12 19.999c.884 0 1.733-.143 2.528-.407.222.471.628.84 1.125 1.013a1.953 1.953 0 0 0-.11.748 9.978 9.978 0 0 1-3.543.646 9.966 9.966 0 0 1-6.625-2.509A9.978 9.978 0 0 1 2 12C2 6.475 6.477 2 12 2s10 4.476 10 10c0 .794-.093 1.567-.268 2.309h-2.07c.22-.732.338-1.507.338-2.31a8 8 0 0 0-8-8Zm8.654 13.012h1.336a.753.753 0 1 0 0-1.507h-6.893a.754.754 0 0 0 0 1.507h1.127l.003.004h4.425l.002-.004Zm-2.05 2.497h2.185a.755.755 0 0 0 0-1.51h-4.49a.755.755 0 0 0-.658 1.126l-.004.002c.13.23.376.386.66.386h2.302l.004-.004ZM12 8a2.375 2.375 0 1 0 0 4.75A2.375 2.375 0 0 0 12 8Zm4.744 13.255c0-.418.338-.757.756-.757h2.087a.756.756 0 0 1 0 1.513H17.5a.756.756 0 0 1-.756-.756Z" fill-rule="evenodd" style="color: inherit"/>
</svg>