<?xml version="1.0" encoding="utf-8"?>
<svg fill="#FFFFFF" viewBox="0 0 24 24" xmlns="http://www.w3.org/2000/svg">
<path _ngcontent-ng-c1909134112="" clip-rule="evenodd" d="M11.293 1.793a1 1 0 0 1 1.414 0l1 1a1 1 0 0 1 0 1.414L13 4.914V6h3a4.001 4.001 0 0 1 3.874 3H20a3 3 0 0 1 3 3v2a3 3 0 0 1-3 3h-.126A4.001 4.001 0 0 1 16 20H8a4.001 4.001 0 0 1-3.874-3H4a3 3 0 0 1-3-3v-2a3 3 0 0 1 3-3h.126A4.001 4.001 0 0 1 8 6h3V4.914l-.707-.707a1 1 0 0 1 0-1.414l1-1ZM4 11a1 1 0 0 0-1 1v2a1 1 0 0 0 1 1v-4Zm16 0v4a1 1 0 0 0 1-1v-2a1 1 0 0 0-1-1ZM8 8a2.001 2.001 0 0 0-2 2v6a1.996 1.996 0 0 0 2 2h8a2.001 2.001 0 0 0 2-2v-6a1.996 1.996 0 0 0-2-2H8Zm1 2a1 1 0 0 1 1 1v1a1 1 0 1 1-2 0v-1a1 1 0 0 1 1-1Zm6 0a1 1 0 0 1 1 1v1a1 1 0 1 1-2 0v-1a1 1 0 0 1 1-1Zm-4.293 4.292ZM10 15l-.707.707.001.002.002.002.005.005.015.014a3.685 3.685 0 0 0 .205.185c.132.114.32.265.55.417.424.283 1.128.668 1.929.668.8 0 1.505-.385 1.93-.668a5.79 5.79 0 0 0 .754-.602l.014-.014.006-.005.002-.002v-.001L14 15l.707.707a1 1 0 0 0-1.414-1.414l.001-.001.001-.001-.002.002a.156.156 0 0 0-.005.004l-.015.015-.096.085c-.086.074-.21.173-.357.27-.325.218-.62.333-.82.333-.2 0-.495-.115-.82-.332a3.761 3.761 0 0 1-.475-.377l.002.001-.002-.001a1 1 0 0 0-1.412 1.416L10 15Z" fill-rule="evenodd" style="color: inherit"/>
</svg>