<?xml version="1.0" encoding="utf-8"?>
<svg fill="#FFFFFF" viewBox="0 0 24 24" xmlns="http://www.w3.org/2000/svg">
<path _ngcontent-ng-c1909134112="" clip-rule="evenodd" d="M11.995 1.95a1 1 0 0 1-.896 1.095A9.001 9.001 0 0 0 3 12c0 2.028.67 3.896 1.8 5.4a1 1 0 0 1-1.6 1.202A10.956 10.956 0 0 1 1 12C1 6.296 5.341 1.606 10.901 1.054a1 1 0 0 1 1.094.897Zm3.155 3.04-6.825 6.205 2.07.887a1 1 0 0 1 .544 1.265L8.851 19.01l6.825-6.205-2.07-.887a1 1 0 0 1-.544-1.265l2.087-5.665Zm.167-2.855c1.16-1.055 2.959.156 2.416 1.629l-2.465 6.692 1.912.82a1.5 1.5 0 0 1 .418 2.488l-8.912 8.102c-1.162 1.056-2.96-.155-2.417-1.628l2.465-6.692-1.912-.82a1.5 1.5 0 0 1-.418-2.488l8.913-8.103ZM19.4 5.2a1 1 0 0 1 1.4.2c.264.35.507.717.728 1.1a1 1 0 0 1-1.731 1 9.02 9.02 0 0 0-.596-.9 1 1 0 0 1 .2-1.4Zm2.34 4.311a1 1 0 0 1 1.137.84 11.075 11.075 0 0 1 .11 2.198 1 1 0 0 1-1.998-.098 9.1 9.1 0 0 0-.09-1.802 1 1 0 0 1 .84-1.138Zm-.172 5.573a1 1 0 0 1 .516 1.316 11.001 11.001 0 0 1-1.553 2.545 1 1 0 0 1-1.55-1.263 9 9 0 0 0 1.27-2.082 1 1 0 0 1 1.317-.516Zm-3.702 5.078a1 1 0 0 1-.365 1.366 10.935 10.935 0 0 1-4.402 1.418 1 1 0 1 1-.198-1.99 8.936 8.936 0 0 0 3.598-1.16 1 1 0 0 1 1.367.365Z" fill-rule="evenodd" style="color: inherit"/>
</svg>