<?xml version="1.0" encoding="utf-8"?>
<svg fill="#FFFFFF" viewBox="0 0 24 24" xmlns="http://www.w3.org/2000/svg">
<path _ngcontent-ng-c1909134112="" d="M4.79 7a1 1 0 0 1 .946.673l2.793 8.069a1 1 0 0 1-1.89.654l-.412-1.19H3.354l-.411 1.19a1 1 0 0 1-1.89-.654l2.793-8.07A1 1 0 0 1 4.79 7Zm0 4.057-.743 2.15h1.488l-.744-2.15Zm5.792.974h2m2.292-4.207a1 1 0 0 1 .707-.293h5.252a1 1 0 0 1 .8 1.6l-4.05 5.4h3.25a1 1 0 1 1 0 2h-5.25a1 1 0 0 1-.8-1.6l4.05-5.4h-3.251a1 1 0 0 1-.708-1.707Z" style="color: inherit"/>
</svg>