<?xml version="1.0" encoding="utf-8"?>
<svg fill="#FFFFFF" viewBox="0 0 24 24" xmlns="http://www.w3.org/2000/svg">
<path _ngcontent-ng-c1909134112="" clip-rule="evenodd" d="M9 5.923A1.92 1.92 0 0 1 10.917 4h6.416a1.92 1.92 0 0 1 1.917 1.923v3.615h.833A1.92 1.92 0 0 1 22 11.461v4.616A1.92 1.92 0 0 1 20.083 18H15.5a1.92 1.92 0 0 1-1.917-1.923v-1.77h-2.666A1.92 1.92 0 0 1 9 12.386V5.923Zm6.583 8.385V16H20v-4.461h-.75v.846a1.92 1.92 0 0 1-1.917 1.923h-1.75ZM17.25 6H11v6.308h6.25V6Zm-13-.604a1 1 0 0 1 .584 1.284l-.003.01a5.262 5.262 0 0 0-.107.374c-.07.28-.157.705-.214 1.256-.115 1.102-.111 2.71.385 4.673a15.155 15.155 0 0 0 2.044 4.587l.234-1.432a1 1 0 0 1 1.974.323l-.603 3.682a1 1 0 0 1-1.148.826l-3.683-.603a1 1 0 0 1 .323-1.974l1.176.193a17.14 17.14 0 0 1-2.255-5.112c-.561-2.217-.572-4.062-.437-5.369.068-.653.172-1.17.263-1.533A7.262 7.262 0 0 1 2.952 6l.005-.012.002-.005V5.98s.001-.001.929.349l-.928-.35a1 1 0 0 1 1.289-.583Z" fill-rule="evenodd" style="color: inherit"/>
</svg>