<?xml version="1.0" encoding="utf-8"?>
<svg fill="#FFFFFF" viewBox="0 0 24 24" xmlns="http://www.w3.org/2000/svg">
<path _ngcontent-ng-c1909134112="" clip-rule="evenodd" d="M4.424 5.634a1 1 0 0 1 .709.288L7.769 8.52a1 1 0 0 1-1.404 1.424l-1.01-.996c.062 1.298.312 3.03 1.043 4.846.75 1.862 1.685 3.151 2.42 3.966.368.408.686.698.905.88a5.193 5.193 0 0 0 .304.237l.009.006h-.002v-.002l.002.002a1 1 0 0 1-1.1 1.67l.548-.836-.548.837-.003-.002-.004-.003-.01-.007-.033-.022a7.164 7.164 0 0 1-.446-.345c-.284-.238-.67-.592-1.107-1.076-.873-.968-1.944-2.454-2.79-4.558a17.003 17.003 0 0 1-1.181-5.398l-.817.828a1 1 0 1 1-1.424-1.404L3.72 5.932a1 1 0 0 1 .705-.298Z" fill-rule="evenodd" style="color: inherit"/>
<path _ngcontent-ng-c1909134112="" clip-rule="evenodd" d="M9 6.923A1.92 1.92 0 0 1 10.917 5h6.416a1.92 1.92 0 0 1 1.917 1.923v3.616h.833A1.92 1.92 0 0 1 22 12.46v4.616A1.92 1.92 0 0 1 20.083 19H15.5a1.92 1.92 0 0 1-1.917-1.923v-1.77h-2.666A1.92 1.92 0 0 1 9 13.386V6.923Zm6.583 8.385V17H20v-4.461h-.75v.846a1.92 1.92 0 0 1-1.917 1.923h-1.75ZM17.25 7H11v6.308h6.25V7Z" fill-rule="evenodd" style="color: inherit"/>
</svg>