<?xml version="1.0" encoding="utf-8"?>
<svg fill="#FFFFFF" viewBox="0 0 24 24" xmlns="http://www.w3.org/2000/svg">
<path _ngcontent-ng-c1909134112="" clip-rule="evenodd" d="M12 4a3 3 0 0 0-3 3v.063h6V7a3 3 0 0 0-3-3Zm5 3.063V7A5 5 0 0 0 7 7v.063h-.577l-1.705-1.76a1 1 0 0 0-1.436 1.393L5 8.468V12H3a1 1 0 1 0 0 2h2v1c0 .979.2 1.91.563 2.756l-2.118 1.412a1 1 0 0 0 1.11 1.664l2.052-1.369A6.986 6.986 0 0 0 12 22a6.988 6.988 0 0 0 5.524-2.7l1.851 1.48a1 1 0 1 0 1.25-1.56l-2.1-1.68A6.98 6.98 0 0 0 19 15v-1h2a1 1 0 1 0 0-2h-2V8.468l1.718-1.772a1 1 0 1 0-1.436-1.392l-1.705 1.758H17Zm0 2H7V15a5.002 5.002 0 0 0 4 4.9V13a1 1 0 0 1 2 0v6.9a5.002 5.002 0 0 0 4-4.9V9.062Z" fill-rule="evenodd" style="color: inherit"/>
</svg>