<?xml version="1.0" encoding="utf-8"?>
<svg fill="#FFFFFF" viewBox="0 0 24 24" xmlns="http://www.w3.org/2000/svg">
<path _ngcontent-ng-c1909134112="" d="M8.53 2.118a.928.928 0 0 1 .475.81l.01 8.163h2.932a3.962 3.962 0 1 1-3.962 3.962l-.003-2.928H6.033v2.928a5.913 5.913 0 1 0 5.914-5.913h-.897a.517.517 0 1 1 0-1.033h.897a6.947 6.947 0 0 1 0 13.893A6.954 6.954 0 0 1 5 15.053V11.61c0-.286.231-.517.517-.518H7.98l-.009-7.975L6.033 4.31v4.54A.517.517 0 0 1 5 8.85v-4.6a.93.93 0 0 1 .442-.79L7.59 2.138a.928.928 0 0 1 .94-.02Zm3.414 10.007H9.016v2.928a2.928 2.928 0 1 0 2.928-2.928Zm.003 2.1a.828.828 0 1 1 0 1.657.828.828 0 0 1 0-1.657Z" fill="#FFFFFF" style="color: inherit"/>
</svg>