<?xml version="1.0" encoding="utf-8"?>
<svg fill="#FFFFFF" viewBox="0 0 24 24" xmlns="http://www.w3.org/2000/svg">
<path _ngcontent-ng-c1909134112="" clip-rule="evenodd" d="M5 4a3 3 0 0 0-3 3v10a3 3 0 0 0 3 3h14a3 3 0 0 0 3-3V7a3 3 0 0 0-3-3H5ZM4 7a1 1 0 0 1 1-1h14a1 1 0 0 1 1 1v10a1 1 0 0 1-1 1H5a1 1 0 0 1-1-1V7Zm5.6 9a.4.4 0 0 1-.4-.4V8.4a.4.4 0 0 1 .4-.4h2.975c1.438 0 2.308.765 2.308 2.012v.012c0 .897-.62 1.613-1.435 1.738a.022.022 0 0 0-.018.021c0 .011.009.02.02.021.981.066 1.75.855 1.75 1.895v.011c0 1.392-.98 2.29-2.535 2.29H9.6Zm3.483-5.677c0-.554-.373-.887-.996-.887h-.641a.4.4 0 0 0-.4.4v1.052c0 .22.179.4.4.4h.505c.74 0 1.132-.355 1.132-.954v-.011Zm.241 3.232c0-.637-.428-.987-1.237-.987h-.641a.4.4 0 0 0-.4.4v1.196a.4.4 0 0 0 .4.4h.696c.755 0 1.182-.35 1.182-.998v-.01Z" fill-rule="evenodd" style="color: inherit"/>
</svg>