<?xml version="1.0" encoding="utf-8"?>
<svg fill="#FFFFFF" viewBox="0 0 24 24" xmlns="http://www.w3.org/2000/svg">
<path _ngcontent-ng-c1909134112="" d="M15.326 14.644a3.654 3.654 0 0 1-2.627 1.143h-.818c-.904 0-1.809-.339-2.455-.973-.603-.635-.947-1.439-.904-2.285V11.47c0-.888.344-1.692.947-2.327a3.419 3.419 0 0 1 2.412-.973h.775c.99 0 1.981.423 2.67 1.142a3.231 3.231 0 0 0 2.496.994c.265 0 .437-.027.652-.07a2.533 2.533 0 0 0-.305-.585l-.948-1.566a4.79 4.79 0 0 0-4.134-2.327h-1.852a4.79 4.79 0 0 0-4.134 2.327l-.948 1.566a4.59 4.59 0 0 0 0 4.696l.948 1.608a4.79 4.79 0 0 0 4.134 2.327h1.852a4.79 4.79 0 0 0 4.134-2.327l.948-1.566c.129-.169.22-.374.305-.585a3.416 3.416 0 0 0-.652-.07c-.947-.127-1.85.232-2.496.91Z" fill="#FFFFFF" style="color: inherit"/>
<path _ngcontent-ng-c1909134112="" d="M12.656 9.144h-.818a2.32 2.32 0 0 0-2.412 2.158v1.227c-.043 1.227.99 2.285 2.24 2.285h.947c2.11 0 1.938-2.116 5.125-2.116.302 0 .611.025.913.068a4.943 4.943 0 0 0 0-1.593c-.302.042-.611.087-.913.087-3.1 0-2.928-2.116-5.082-2.116Z" fill="#FFFFFF" style="color: inherit"/>
<path _ngcontent-ng-c1909134112="" d="M20.538 13.544a4.944 4.944 0 0 0-1.887-.778c-.043.296-.047.742-.177 1.039.56.084 1.03.205 1.46.5-1.335 4.232-5.9 6.601-10.25 5.332-4.35-1.27-6.718-5.796-5.383-10.07 1.335-4.273 5.9-6.6 10.25-5.33 2.584.803 4.608 2.792 5.427 5.33a3.22 3.22 0 0 1-1.504.67c.13.297.134.597.177.936.646-.085 1.37-.421 1.93-.76a.815.815 0 0 0 .344-1.057C19.418 4.616 14.293 1.95 9.47 3.39 4.646 4.87 1.933 9.906 3.397 14.644c1.464 4.74 6.632 7.405 11.456 5.966 2.885-.888 5.168-3.088 6.072-5.966.13-.38 0-.846-.387-1.1Z" fill="#FFFFFF" style="color: inherit"/>
<path _ngcontent-ng-c1909134112="" d="M18.474 10.238c-.215.042-.246.052-.69.052-1.02-.018-1.818-.31-2.464-.987-.69-.72-1.551-1.143-2.661-1.143h-.819c-.904 0-1.779.39-2.425 1.025a3.327 3.327 0 0 0-.934 2.327v1.058c0 .846.345 1.692.948 2.327a3.21 3.21 0 0 0 2.412.93h.775c.99 0 1.98-.422 2.67-1.142.646-.677 1.55-.95 2.501-.95.215 0 .472.027.688.07.129-.297.133-.7.176-1.04-.302-.042-.566-.086-.867-.086-3.346 0-3.17 2.13-5.125 2.13h-.819c-1.248.042-2.325-.885-2.368-2.112V11.47c-.043-1.227.99-2.285 2.24-2.327h.904c2.11 0 1.938 2.115 5.125 2.115.301 0 .608-.043.91-.085 0-.254-.047-.597-.177-.935Z" fill="#FFFFFF" style="color: inherit"/>
</svg>