<?xml version="1.0" encoding="utf-8"?>
<svg fill="#FFFFFF" viewBox="0 0 24 24" xmlns="http://www.w3.org/2000/svg">
<path _ngcontent-ng-c1909134112="" clip-rule="evenodd" d="M5 2a4 4 0 0 0-4 4v12a4 4 0 0 0 4 4h14a4 4 0 0 0 4-4V6a4 4 0 0 0-4-4H5Zm3.235 5.5a3 3 0 0 0-2.97 2.576l-.429 3a3 3 0 0 0 2.97 3.424h.46a3 3 0 0 0 2.598-1.5 1 1 0 1 0-1.732-1 1 1 0 0 1-.866.5h-.46a1 1 0 0 1-.99-1.141l.429-3a1 1 0 0 1 .99-.859h.46a1 1 0 0 1 .968.75 1 1 0 1 0 1.937-.5A3.001 3.001 0 0 0 8.694 7.5h-.46Zm7.5 0a3 3 0 0 0-2.97 2.576l-.429 3a3 3 0 0 0 2.97 3.424h.46a3 3 0 0 0 2.598-1.5 1 1 0 1 0-1.732-1 1 1 0 0 1-.866.5h-.46a1 1 0 0 1-.99-1.141l.429-3a1 1 0 0 1 .99-.859h.46a1 1 0 0 1 .968.75 1 1 0 1 0 1.937-.5 3.001 3.001 0 0 0-2.906-2.25h-.46Z" fill="#FFFFFF" fill-rule="evenodd" style="color: inherit"/>
</svg>