<?xml version="1.0" encoding="utf-8"?>
<svg fill="#FFFFFF" viewBox="0 0 24 24" xmlns="http://www.w3.org/2000/svg">
<path _ngcontent-ng-c1909134112="" clip-rule="evenodd" d="M7.178 11H5a1 1 0 1 0 0 2h1.785l-.195 1.02c-.306 1.604-.571 2.993-.868 4.095-.213.792-.419 1.337-.617 1.665a1.037 1.037 0 0 1-.163.22c-.645-.007-.782-.13-.797-.145C4.129 19.84 4 19.695 4 19a1 1 0 1 0-2 0c0 .805.121 1.66.73 2.27.61.609 1.465.73 2.27.73.9 0 1.476-.62 1.817-1.186.349-.578.612-1.346.836-2.179.317-1.178.605-2.685.919-4.331.081-.427.164-.862.25-1.304H11a1 1 0 1 0 0-2H9.215l.195-1.02c.306-1.604.571-2.993.868-4.095.213-.792.419-1.337.617-1.665.078-.128.133-.191.163-.22.645.007.782.13.797.145.016.016.145.16.145.855a1 1 0 1 0 2 0c0-.805-.121-1.66-.73-2.27C12.66 2.121 11.805 2 11 2c-.9 0-1.476.62-1.817 1.186-.349.578-.612 1.346-.836 2.179-.317 1.178-.605 2.685-.919 4.331-.081.427-.164.862-.25 1.304Zm3.909-7.02s-.005.004-.014.007l.014-.008ZM4.913 20.02l.013-.007-.013.008ZM13 10a1 1 0 0 1 1-1h1c.438 0 .87.118 1.242.434.33.281.53.653.674.975.125.282.247.622.375.985.256-.317.53-.628.814-.914C18.83 9.757 19.828 9 21 9a1 1 0 1 1 0 2c-.328 0-.829.243-1.48.895-.497.496-.97 1.117-1.394 1.728.167.442.303.83.419 1.16l.002.007c.159.455.266.764.37.995.048.11.085.177.108.215H20a1 1 0 1 1 0 2h-1c-.437 0-.87-.117-1.24-.432-.331-.281-.53-.651-.672-.972a13.14 13.14 0 0 1-.376-.995c-.257.32-.53.632-.817.919C15.17 17.243 14.172 18 13 18a1 1 0 1 1 0-2c.328 0 .829-.243 1.48-.895.499-.498.975-1.123 1.4-1.736a46.427 46.427 0 0 1-.41-1.126l-.009-.025c-.16-.453-.269-.762-.373-.995a1.819 1.819 0 0 0-.114-.223H14a1 1 0 0 1-1-1Z" fill="#FFFFFF" fill-rule="evenodd" style="color: inherit"/>
</svg>