<?xml version="1.0" encoding="utf-8"?>
<svg fill="#FFFFFF" viewBox="0 0 24 24" xmlns="http://www.w3.org/2000/svg">
<path _ngcontent-ng-c1909134112="" clip-rule="evenodd" d="M18 10c0 1.36-.582 3.01-1.58 4.777-.979 1.73-2.248 3.38-3.371 4.69-.575.67-1.522.67-2.098 0-1.123-1.31-2.392-2.96-3.37-4.69C6.58 13.01 6 11.36 6 10a6 6 0 1 1 12 0Zm2 0c0 3.731-3.094 8.042-5.433 10.77-1.374 1.6-3.76 1.6-5.134 0C7.093 18.041 4 13.73 4 10a8 8 0 1 1 16 0Zm-6.5 0a1.5 1.5 0 1 1-3 0 1.5 1.5 0 0 1 3 0Zm2 0a3.5 3.5 0 1 1-7 0 3.5 3.5 0 0 1 7 0Z" fill="#FFFFFF" fill-rule="evenodd" style="color: inherit"/>
</svg>