<?xml version="1.0" encoding="utf-8"?>
<svg fill="#FFFFFF" viewBox="0 0 24 24" xmlns="http://www.w3.org/2000/svg">
<path _ngcontent-ng-c1909134112="" clip-rule="evenodd" d="M13 3a1 1 0 0 0-2 0v.705a5.282 5.282 0 0 0-2.248.841c-.938.635-1.598 1.572-1.818 2.662-.222 1.098.017 2.272.734 3.347.639.958 1.657 1.406 2.584 1.675.246.071.497.133.748.19v5.297a7.14 7.14 0 0 1-2.85-1.476 1 1 0 0 0-1.3 1.518A9.15 9.15 0 0 0 11 19.768V21a1 1 0 1 0 2 0v-1.081c.193-.01.383-.028.57-.053 1.09-.145 2.132-.555 2.915-1.296.802-.76 1.265-1.808 1.265-3.07 0-1.498-.502-2.597-1.392-3.358-.831-.71-1.903-1.036-2.85-1.252a22.21 22.21 0 0 0-.508-.11V5.776c.745.166 1.573.501 2.463 1.068a1 1 0 1 0 1.074-1.688c-1.214-.772-2.414-1.23-3.537-1.414V3Zm-2 2.738a3.213 3.213 0 0 0-1.127.465c-.541.366-.87.867-.979 1.401-.106.528-.012 1.166.438 1.841.241.362.694.636 1.478.864.063.019.126.036.19.053V5.738Zm2 7.088v5.089a5.06 5.06 0 0 0 .305-.031c.786-.105 1.4-.383 1.804-.766.386-.365.641-.88.641-1.618 0-1.002-.31-1.51-.691-1.838-.441-.376-1.102-.618-1.996-.822L13 12.826Z" fill-rule="evenodd" style="color: inherit"/>
</svg>