<?xml version="1.0" encoding="utf-8"?>
<svg fill="#FFFFFF" viewBox="0 0 24 24" xmlns="http://www.w3.org/2000/svg">
<path _ngcontent-ng-c1909134112="" d="M12.735 5.379a.667.667 0 0 0 .622.709c.29.018.52.24.547.56.05.61.097 1.367.096 1.998a26.957 26.957 0 0 1-.112 2.118c-.025.296-.221.49-.457.523a16.1 16.1 0 0 1-.623.074.916.916 0 0 0-.496.211.856.856 0 0 0-.302.554 10.73 10.73 0 0 0-.071 1.127l-.347-.268a14.318 14.318 0 0 1-1.174-1.162l-.07-.079-.017-.02-.004-.004a.667.667 0 0 0-.5-.233l-.238-.003c-1.418-.015-2.406-.11-3.029-.197a.667.667 0 1 0-.186 1.32c.676.095 1.704.192 3.146.21a15.535 15.535 0 0 0 1.24 1.209l1.503 1.167a.667.667 0 0 0 1.075-.56l-.066-1.33c0-.238.012-.464.027-.655.113-.013.22-.027.318-.041.907-.128 1.526-.872 1.6-1.728.054-.636.115-1.499.116-2.23a27.2 27.2 0 0 0-.1-2.109c-.077-.949-.809-1.72-1.79-1.783a.667.667 0 0 0-.708.622Z" style="color: inherit"/>
<path _ngcontent-ng-c1909134112="" d="M2.565.757a54.55 54.55 0 0 1 3.439-.09c1.617 0 2.72.044 3.438.09.98.064 1.714.834 1.793 1.783.052.62.105 1.42.106 2.107.001.732-.057 1.595-.11 2.232-.073.855-.689 1.6-1.597 1.728-.675.095-1.704.192-3.145.21a15.658 15.658 0 0 1-1.24 1.21l-1.504 1.166a.667.667 0 0 1-1.074-.56l.066-1.33c0-.237-.012-.464-.027-.654-.114-.014-.22-.028-.318-.042C1.484 8.48.866 7.735.792 6.88a28.294 28.294 0 0 1-.117-2.231c0-.687.05-1.488.1-2.109.078-.948.81-1.719 1.79-1.783ZM5.682 7.72a.667.667 0 0 1 .5-.233l.238-.002c1.418-.016 2.406-.11 3.029-.198.234-.033.428-.225.453-.52.052-.626.107-1.444.106-2.118a26.201 26.201 0 0 0-.102-1.998.591.591 0 0 0-.551-.563A52.684 52.684 0 0 0 6.004 2a52.65 52.65 0 0 0-3.352.088.586.586 0 0 0-.547.56c-.05.61-.097 1.367-.096 1.999 0 .674.057 1.491.111 2.118.026.295.222.489.457.522.178.025.386.05.624.075a.923.923 0 0 1 .496.21c.134.114.272.3.302.554.027.232.067.654.07 1.128l.348-.269a14.31 14.31 0 0 0 1.243-1.24l.018-.02.003-.005Z" style="color: inherit"/>
</svg>