<?xml version="1.0" encoding="utf-8"?>
<svg fill="#FFFFFF" viewBox="0 0 24 24" xmlns="http://www.w3.org/2000/svg">
<path _ngcontent-ng-c1909134112="" clip-rule="evenodd" d="M10.742 3.03a1 1 0 0 1 .728 1.213L10.656 7.5h4.938l.936-3.743a1 1 0 1 1 1.94.486L17.656 7.5H21a1 1 0 1 1 0 2h-3.844l-1.25 5H19a1 1 0 1 1 0 2h-3.594l-.936 3.742a1 1 0 1 1-1.94-.485l.814-3.257H8.406l-.936 3.742a1 1 0 1 1-1.94-.485l.814-3.257H3a1 1 0 1 1 0-2h3.844l1.25-5H5a1 1 0 1 1 0-2h3.594l.936-3.743a1 1 0 0 1 1.213-.727Zm-.586 6.47-1.25 5h4.938l1.25-5h-4.938Z" fill-rule="evenodd" style="color: inherit"/>
</svg>