<?xml version="1.0" encoding="utf-8"?>
<svg fill="#FFFFFF" viewBox="0 0 24 24" xmlns="http://www.w3.org/2000/svg">
<path _ngcontent-ng-c1909134112="" clip-rule="evenodd" d="M16.707 7.293a1 1 0 0 1 0 1.414l-3.5 3.5-1.414-1.414 3.5-3.5a1 1 0 0 1 1.414 0Zm6 0a1 1 0 0 1 0 1.414l-8 8a1 1 0 0 1-1.414 0l-5-5a1 1 0 1 1 1.414-1.414L14 14.586l7.293-7.293a1 1 0 0 1 1.414 0Zm-20.414 3a1 1 0 0 1 1.414 0L8 14.586l.793-.793 1.414 1.414-1.5 1.5a1 1 0 0 1-1.414 0l-5-5a1 1 0 0 1 0-1.414Z" fill-rule="evenodd" style="color: inherit"/>
</svg>