<?xml version="1.0" encoding="utf-8"?>
<svg fill="#FFFFFF" viewBox="0 0 24 24" xmlns="http://www.w3.org/2000/svg">
<path _ngcontent-ng-c1909134112="" d="M14 16h7M3 15l2.5 2.5L10 13m4-5h7M3 7l2.5 2.5L10 5" stroke="currentColor" stroke-linecap="round" stroke-linejoin="round" stroke-width="2" style="color: inherit"/>
<path _ngcontent-ng-c1909134112="" clip-rule="evenodd" d="M10.707 4.293a1 1 0 0 1 0 1.414l-4.5 4.5a1 1 0 0 1-1.414 0l-2.5-2.5a1 1 0 0 1 1.414-1.414L5.5 8.086l3.793-3.793a1 1 0 0 1 1.414 0ZM13 8a1 1 0 0 1 1-1h7a1 1 0 1 1 0 2h-7a1 1 0 0 1-1-1Zm-2.293 4.293a1 1 0 0 1 0 1.414l-4.5 4.5a1 1 0 0 1-1.414 0l-2.5-2.5a1 1 0 1 1 1.414-1.414L5.5 16.086l3.793-3.793a1 1 0 0 1 1.414 0ZM13 16a1 1 0 0 1 1-1h7a1 1 0 1 1 0 2h-7a1 1 0 0 1-1-1Z" fill="#FFFFFF" fill-rule="evenodd" style="color: inherit"/>
</svg>