<?xml version="1.0" encoding="utf-8"?>
<svg fill="#FFFFFF" viewBox="0 0 24 24" xmlns="http://www.w3.org/2000/svg">
<path _ngcontent-ng-c1909134112="" d="M12 17a5 5 0 1 0 0-10 5 5 0 0 0 0 10Z" fill="#FFFFFF" style="color: inherit"/>
<path _ngcontent-ng-c1909134112="" d="M7.67 14.5 3.34 7.003A9.998 9.998 0 0 0 12 22l4.33-7.5a4.998 4.998 0 0 1-8.66.001Z" fill="#FFFFFF" style="color: inherit"/>
<path _ngcontent-ng-c1909134112="" d="M16.33 14.5 12 22a9.998 9.998 0 0 0 8.66-15h-8.661a5 5 0 0 1 4.331 7.5Z" fill="#FFFFFF" style="color: inherit"/>
<path _ngcontent-ng-c1909134112="" d="M12 15.96a3.959 3.959 0 1 0 0-7.918 3.959 3.959 0 0 0 0 7.917Z" fill="#FFFFFF" style="color: inherit"/>
<path _ngcontent-ng-c1909134112="" d="M12 7h8.66a9.999 9.999 0 0 0-17.32.001l4.33 7.5h.001a5 5 0 0 1 4.33-7.5Z" fill="#FFFFFF" style="color: inherit"/>
</svg>