<?xml version="1.0" encoding="utf-8"?>
<svg fill="#FFFFFF" viewBox="0 0 24 24" xmlns="http://www.w3.org/2000/svg">
<path _ngcontent-ng-c1909134112="" d="M2 12C2 6.477 6.477 2 12 2s10 4.477 10 10-4.477 10-10 10S2 17.523 2 12Z" opacity=".12" style="color: inherit"/>
<path _ngcontent-ng-c1909134112="" clip-rule="evenodd" d="M4 12a8 8 0 1 0 16 0 8 8 0 0 0-16 0Zm8-10C6.477 2 2 6.477 2 12s4.477 10 10 10 10-4.477 10-10S17.523 2 12 2Z" fill-rule="evenodd" style="color: inherit"/>
<path _ngcontent-ng-c1909134112="" d="M17.207 10.207a1 1 0 0 0-1.414-1.414L10.5 14.086l-2.293-2.293a1 1 0 0 0-1.414 1.414l3 3a1 1 0 0 0 1.414 0l6-6Z" style="color: inherit"/>
</svg>