<?xml version="1.0" encoding="utf-8"?>
<svg fill="#FFFFFF" viewBox="0 0 24 24" xmlns="http://www.w3.org/2000/svg">
<path _ngcontent-ng-c1909134112="" d="M20.192 16.4a.218.218 0 0 0-.392-.002l-.78 1.561a.218.218 0 0 1-.1.098l-1.53.75a.218.218 0 0 0-.003.391l1.536.782c.041.021.074.055.095.096l.783 1.535c.081.16.31.159.39-.003l.75-1.53a.218.218 0 0 1 .099-.098l1.561-.781a.218.218 0 0 0-.003-.392l-1.555-.749a.218.218 0 0 1-.102-.102l-.75-1.555Z" fill="#FFFFFF" style="color: inherit"/>
<path _ngcontent-ng-c1909134112="" d="M20.32 6.142a.2.2 0 0 0 .357 0l.625-1.249a.2.2 0 0 1 .09-.09l1.249-.624a.2.2 0 0 0 0-.358l-1.25-.625a.2.2 0 0 1-.089-.089l-.625-1.25a.2.2 0 0 0-.357 0l-.625 1.25a.2.2 0 0 1-.09.09l-1.249.624a.2.2 0 0 0 0 .358l1.25.625a.2.2 0 0 1 .09.089l.624 1.25Z" fill="#FFFFFF" style="color: inherit"/>
<path _ngcontent-ng-c1909134112="" d="M2.882 4.767a.2.2 0 0 0 .358 0l.479-.957a.2.2 0 0 1 .09-.09l.957-.479a.2.2 0 0 0 0-.357l-.958-.48a.2.2 0 0 1-.09-.089l-.478-.957a.2.2 0 0 0-.358 0l-.479.957a.2.2 0 0 1-.089.09l-.958.479a.2.2 0 0 0 0 .357l.958.48a.2.2 0 0 1 .09.089l.478.957Z" fill="#FFFFFF" style="color: inherit"/>
<path _ngcontent-ng-c1909134112="" d="M11.08 1.363 3.728 8.255c-.888.833-.299 2.324.92 2.324h3.32v2.016c0 .742.601 1.343 1.343 1.343h5.375c.742 0 1.344-.601 1.344-1.343v-2.016h3.32c1.218 0 1.807-1.49.919-2.324l-7.351-6.892a1.344 1.344 0 0 0-1.838 0Z" fill="#FFFFFF" style="color: inherit"/>
<path _ngcontent-ng-c1909134112="" d="M7.968 17.297v-.672c0-.742.601-1.343 1.343-1.343h5.375c.742 0 1.344.601 1.344 1.343v.672c0 .742-.602 1.344-1.344 1.344H9.31a1.344 1.344 0 0 1-1.343-1.344Z" fill="#FFFFFF" style="color: inherit"/>
<path _ngcontent-ng-c1909134112="" d="M15.022 22H8.976a1.008 1.008 0 1 1 0-2.015h6.046a1.008 1.008 0 1 1 0 2.015Z" fill="#FFFFFF" style="color: inherit"/>
</svg>