<?xml version="1.0" encoding="utf-8"?>
<svg fill="#FFFFFF" viewBox="0 0 24 24" xmlns="http://www.w3.org/2000/svg">
<path _ngcontent-ng-c1909134112="" clip-rule="evenodd" d="M14.063 4.329a8 8 0 1 0-1.913 15.728 1 1 0 0 1 .039 2 10.005 10.005 0 0 1-2.784-.342c-5.335-1.43-8.5-6.913-7.071-12.247 1.43-5.335 6.912-8.5 12.247-7.071 4.3 1.152 7.19 4.938 7.402 9.155a1 1 0 0 1-1.998.1 8.004 8.004 0 0 0-5.921-7.323ZM12 6a1 1 0 0 1 1 1v5a1 1 0 0 1-.293.707l-3.5 3.5a1 1 0 0 1-1.414-1.414L11 11.586V7a1 1 0 0 1 1-1Zm7 9.5a1 1 0 1 0-2 0v2h-2a1 1 0 1 0 0 2h2v2a1 1 0 1 0 2 0v-2h2a1 1 0 1 0 0-2h-2v-2Z" fill-rule="evenodd" style="color: inherit"/>
<path _ngcontent-ng-c1909134112="" clip-rule="evenodd" d="M14.063 4.328a8 8 0 1 0-1.913 15.729 1 1 0 0 1 .038 2 10.001 10.001 0 0 1-2.783-.342C4.07 20.285.904 14.802 2.333 9.468c1.43-5.335 6.913-8.5 12.248-7.071 4.3 1.152 7.19 4.938 7.401 9.155a1 1 0 1 1-1.997.1 8.004 8.004 0 0 0-5.922-7.324Z" fill-rule="evenodd" style="color: inherit"/>
<path _ngcontent-ng-c1909134112="" clip-rule="evenodd" d="M12 6a1 1 0 0 1 1 1v5a1 1 0 0 1-.293.707l-3.5 3.5a1 1 0 0 1-1.414-1.414L11 11.586V7a1 1 0 0 1 1-1Zm6 8.5a1 1 0 0 1 1 1v2h2a1 1 0 0 1 0 2h-2v2a1 1 0 0 1-2 0v-2h-2a1 1 0 0 1 0-2h2v-2a1 1 0 0 1 1-1Z" fill-rule="evenodd" style="color: inherit"/>
</svg>