<?xml version="1.0" encoding="utf-8"?>
<svg fill="#FFFFFF" viewBox="0 0 24 24" xmlns="http://www.w3.org/2000/svg">
<path _ngcontent-ng-c1909134112="" clip-rule="evenodd" d="M18.707 5.293a1 1 0 0 1 0 1.414l-6 6a1 1 0 0 1-1.414 0l-6-6a1 1 0 0 1 1.414-1.414L12 10.586l5.293-5.293a1 1 0 0 1 1.414 0Z" fill-rule="evenodd" style="color: inherit"/>
<path _ngcontent-ng-c1909134112="" clip-rule="evenodd" d="M18.707 11.293a1 1 0 0 1 0 1.414l-6 6a1 1 0 0 1-1.414 0l-6-6a1 1 0 1 1 1.414-1.414L12 16.586l5.293-5.293a1 1 0 0 1 1.414 0Z" fill-rule="evenodd" style="color: inherit"/>
</svg>