<?xml version="1.0" encoding="utf-8"?>
<svg fill="#FFFFFF" viewBox="0 0 24 24" xmlns="http://www.w3.org/2000/svg">
<path _ngcontent-ng-c1909134112="" clip-rule="evenodd" d="M24 15.198c0-3.168-2.213-5.83-5.209-6.587C18.627 4.931 15.65 2 12.001 2 8.35 2 5.37 4.933 5.208 8.615 2.212 9.376 0 12.035 0 15.198 0 18.954 3.121 22 6.972 22h9.984a6.724 6.724 0 0 0 .18 0h.028v-.001C20.95 21.937 24 18.916 24 15.198Z" fill="#FFFFFF" fill-opacity=".055" fill-rule="evenodd" style="color: inherit"/>
<path _ngcontent-ng-c1909134112="" clip-rule="evenodd" d="M18.3 10.55a2 2 0 0 1-1.507-1.85C16.675 6.05 14.54 4 12 4 9.46 4 7.324 6.052 7.207 8.703a2 2 0 0 1-1.505 1.85C3.54 11.103 2 13.003 2 15.198 2 17.804 4.18 20 6.972 20H16.98a4.724 4.724 0 0 0 .13 0H17.132C19.87 19.954 22 17.781 22 15.197c0-2.203-1.542-4.102-3.7-4.648ZM17.165 22h-.029a6.724 6.724 0 0 1-.142 0H6.972C3.122 22 0 18.954 0 15.198c0-3.163 2.212-5.822 5.209-6.583C5.37 4.933 8.349 2 12 2c3.65 0 6.627 2.932 6.791 6.611C21.787 9.37 24 12.031 24 15.198c0 3.718-3.05 6.74-6.836 6.801Z" fill="#FFFFFF" fill-rule="evenodd" style="color: inherit"/>
</svg>