<?xml version="1.0" encoding="utf-8"?>
<svg fill="#FFFFFF" viewBox="0 0 24 24" xmlns="http://www.w3.org/2000/svg">
<path _ngcontent-ng-c1909134112="" clip-rule="evenodd" d="M13.994 3.11a1 1 0 1 0-1.988-.22l-2 18a1 1 0 0 0 1.988.22l2-18Zm-6.37 3.11a1 1 0 0 0-1.405.155l-4 5a1 1 0 0 0 0 1.25l4 5a1 1 0 1 0 1.562-1.25L4.28 12l3.5-4.375a1 1 0 0 0-.156-1.406Zm8.751 0a1 1 0 0 1 1.406.155l4 5a1 1 0 0 1 0 1.25l-4 5a1 1 0 1 1-1.562-1.25L19.72 12l-3.5-4.375a1 1 0 0 1 .156-1.406Z" fill-rule="evenodd" style="color: inherit"/>
</svg>