<?xml version="1.0" encoding="utf-8"?>
<svg fill="#FFFFFF" viewBox="0 0 24 24" xmlns="http://www.w3.org/2000/svg">
<path _ngcontent-ng-c1909134112="" clip-rule="evenodd" d="M13.435 8.464a1 1 0 0 1 1.414 0l2.829 2.829a1 1 0 0 1 0 1.414l-2.829 2.829a1 1 0 1 1-1.414-1.415L14.556 13H3a1 1 0 1 1 0-2h11.556l-1.121-1.121a1 1 0 0 1 0-1.415Z" fill-rule="evenodd" style="color: inherit"/>
<path _ngcontent-ng-c1909134112="" d="M21 4.5a1 1 0 0 1 1 1v13a1 1 0 1 1-2 0v-13a1 1 0 0 1 1-1Z" style="color: inherit"/>
</svg>