<?xml version="1.0" encoding="utf-8"?>
<svg fill="#FFFFFF" viewBox="0 0 24 24" xmlns="http://www.w3.org/2000/svg">
<path _ngcontent-ng-c1909134112="" clip-rule="evenodd" d="M12 4a8 8 0 0 0-7.169 11.555 1 1 0 1 1-1.791.89A9.963 9.963 0 0 1 2 12C2 6.477 6.477 2 12 2s10 4.477 10 10a9.963 9.963 0 0 1-1.04 4.445 1 1 0 0 1-1.791-.89A8 8 0 0 0 12 4ZM7.793 14.293l3.5-3.5a1 1 0 0 1 1.414 0l3.5 3.5a1 1 0 0 1-1.414 1.414L12 12.914l-2.793 2.793a1 1 0 0 1-1.414-1.414Zm0 6 3.5-3.5a1 1 0 0 1 1.414 0l3.5 3.5a1 1 0 0 1-1.414 1.414L12 18.914l-2.793 2.793a1 1 0 0 1-1.414-1.414Z" fill-rule="evenodd" style="color: inherit"/>
</svg>