<?xml version="1.0" encoding="utf-8"?>
<svg fill="#FFFFFF" viewBox="0 0 24 24" xmlns="http://www.w3.org/2000/svg">
<path _ngcontent-ng-c1909134112="" clip-rule="evenodd" d="M19.071 7.757a1 1 0 0 1 0 1.415L17.243 11H21.9a1 1 0 1 1 0 2h-4.657l1.828 1.828a1 1 0 0 1-1.414 1.415l-3.536-3.536a1 1 0 0 1 0-1.414l3.536-3.536a1 1 0 0 1 1.414 0Zm-9.192 4.95-3.536 3.536a1 1 0 1 1-1.414-1.415L6.757 13H2.101a1 1 0 1 1 0-2h4.656L4.93 9.172a1 1 0 0 1 1.414-1.415l3.536 3.536a1 1 0 0 1 0 1.414Z" fill-rule="evenodd" style="color: inherit"/>
</svg>