<?xml version="1.0" encoding="utf-8"?>
<svg fill="#FFFFFF" viewBox="0 0 24 24" xmlns="http://www.w3.org/2000/svg">
<path _ngcontent-ng-c1909134112="" clip-rule="evenodd" d="M12 5a1 1 0 0 1 1 1v12a1 1 0 1 1-2 0V6a1 1 0 0 1 1-1ZM4.293 8.293a1 1 0 0 1 1.414 0l3 3a1 1 0 0 1 0 1.414l-3 3a1 1 0 1 1-1.414-1.414L5.586 13H1a1 1 0 1 1 0-2h4.586L4.293 9.707a1 1 0 0 1 0-1.414Zm15.414 0a1 1 0 0 1 0 1.414L18.414 11H23a1 1 0 1 1 0 2h-4.586l1.293 1.293a1 1 0 0 1-1.414 1.414l-3-3a1 1 0 0 1 0-1.414l3-3a1 1 0 0 1 1.414 0Z" fill-rule="evenodd" style="color: inherit"/>
</svg>