<?xml version="1.0" encoding="utf-8"?>
<svg fill="#FFFFFF" viewBox="0 0 24 24" xmlns="http://www.w3.org/2000/svg">
<path _ngcontent-ng-c1909134112="" clip-rule="evenodd" d="M15.793 2.793a3.828 3.828 0 1 1 5.414 5.414L18.414 11l.086.086a2 2 0 0 1 0 2.828L17.414 15a2 2 0 0 1-2.828 0l-.086-.086-5.207 5.207a3 3 0 0 1-2.121.88H4.914l-.457.456a1.354 1.354 0 1 1-1.914-1.914L3 19.086v-2.258a3 3 0 0 1 .879-2.12L9.086 9.5 9 9.414a2 2 0 0 1 0-2.828L10.086 5.5a2 2 0 0 1 2.828 0l.086.086 2.793-2.793ZM10.5 10.914l-5.207 5.207a1 1 0 0 0-.293.707V19h2.172a1 1 0 0 0 .707-.293l5.207-5.207-2.586-2.586Z" fill-rule="evenodd" style="color: inherit"/>
</svg>