<?xml version="1.0" encoding="utf-8"?>
<svg fill="#FFFFFF" viewBox="0 0 24 24" xmlns="http://www.w3.org/2000/svg">
<path _ngcontent-ng-c1909134112="" clip-rule="evenodd" d="M12 20a8 8 0 1 1 8-8 7.96 7.96 0 0 1-.819 3.53 2.1 2.1 0 0 0-.185 1.29c.16.92.328 1.84.481 2.657a223.22 223.22 0 0 0-2.657-.481 2.1 2.1 0 0 0-1.29.185A7.96 7.96 0 0 1 12 20Zm8.966-3.523c.212 1.214.437 2.426.623 3.404l.02.109c.134.703.246 1.276.315 1.628l.047.236a.099.099 0 0 1-.117.117l-.236-.047c-.352-.069-.925-.18-1.628-.315l-.11-.02c-.977-.186-2.19-.411-3.403-.623a.1.1 0 0 0-.062.01A9.96 9.96 0 0 1 12 22C6.477 22 2 17.523 2 12S6.477 2 12 2s10 4.477 10 10a9.96 9.96 0 0 1-1.025 4.415.1.1 0 0 0-.009.062ZM12 8.5a1.5 1.5 0 1 0 0 3 1.5 1.5 0 0 0 0-3ZM8.5 10a3.5 3.5 0 1 1 6.17 2.262 4.997 4.997 0 0 1 2.322 3.613 1 1 0 1 1-1.984.25A3.021 3.021 0 0 0 12 13.5a3.021 3.021 0 0 0-3.008 2.625 1 1 0 1 1-1.984-.25 4.997 4.997 0 0 1 2.321-3.613A3.488 3.488 0 0 1 8.5 10Z" fill-rule="evenodd" style="color: inherit"/>
</svg>