<?xml version="1.0" encoding="utf-8"?>
<svg fill="#FFFFFF" viewBox="0 0 24 24" xmlns="http://www.w3.org/2000/svg">
<path _ngcontent-ng-c1909134112="" clip-rule="evenodd" d="M13.39 2.08a1 1 0 0 1 .607 1.003l-.45 5.398 4.99 3.175a1 1 0 0 1 .213 1.506l-7.5 8.5a1 1 0 0 1-1.747-.733l.456-6.387-4.473-2.684a1 1 0 0 1-.239-1.517l7-8a1 1 0 0 1 1.143-.262Zm-5.85 8.678 3.974 2.385a1 1 0 0 1 .484.928l-.29 4.048 4.768-5.403-4.513-2.872a1 1 0 0 1-.46-.927l.248-2.971-4.21 4.812Z" fill="#FFFFFF" fill-rule="evenodd" style="color: inherit"/>
</svg>