<?xml version="1.0" encoding="utf-8"?>
<svg fill="#FFFFFF" viewBox="0 0 24 24" xmlns="http://www.w3.org/2000/svg">
<path _ngcontent-ng-c1909134112="" clip-rule="evenodd" d="M4.334 3.334a1 1 0 1 0 0 2h1v-1a1 1 0 0 0-1-1Zm2.333 2v-1a2.333 2.333 0 1 0-2.333 2.333h1v2.667h-1a2.333 2.333 0 1 0 2.333 2.333v-1h2.667v1a2.333 2.333 0 1 0 2.333-2.333h-1V6.667h1a2.333 2.333 0 1 0-2.333-2.333v1H6.667Zm0 1.333v2.667h2.667V6.667H6.667Zm4-1.333h1a1 1 0 1 0-1-1v1Zm0 5.333v1a1 1 0 1 0 1-1h-1Zm-5.333 0h-1a1 1 0 1 0 1 1v-1Z" fill="#FFFFFF" fill-rule="evenodd" style="color: inherit"/>
</svg>