<?xml version="1.0" encoding="utf-8"?>
<svg fill="#FFFFFF" viewBox="0 0 24 24" xmlns="http://www.w3.org/2000/svg">
<path _ngcontent-ng-c1909134112="" clip-rule="evenodd" d="M4 12a8 8 0 0 1 8-8 1 1 0 1 0 0-2C6.477 2 2 6.477 2 12s4.477 10 10 10c1.475 0 2.879-.32 4.142-.895 2.042.36 4.016.747 4.533.85a1.089 1.089 0 0 0 1.28-1.28 236.5 236.5 0 0 1-.85-4.534A9.966 9.966 0 0 0 22 12a1 1 0 1 0-2 0 7.95 7.95 0 0 1-.82 3.531 1.09 1.09 0 0 0-.096.67 222.2 222.2 0 0 0 .65 3.533 220.18 220.18 0 0 0-3.533-.65 1.09 1.09 0 0 0-.67.097A8 8 0 0 1 4 12Zm15-4a3 3 0 1 0 0-6 3 3 0 0 0 0 6Z" fill-rule="evenodd" style="color: inherit"/>
</svg>