<?xml version="1.0" encoding="utf-8"?>
<svg fill="#FFFFFF" viewBox="0 0 24 24" xmlns="http://www.w3.org/2000/svg">
<path _ngcontent-ng-c1909134112="" clip-rule="evenodd" d="M20.975 16.415A9.96 9.96 0 0 0 22 12c0-5.523-4.477-10-10-10S2 6.477 2 12s4.477 10 10 10a9.96 9.96 0 0 0 4.415-1.025.1.1 0 0 1 .062-.009c2.391.417 4.774.886 5.377 1.005a.1.1 0 0 0 .117-.117 256 256 0 0 1-1.005-5.377.1.1 0 0 1 .01-.062ZM17.21 8.792a1 1 0 0 1 0 1.415l-6 6a1 1 0 0 1-1.414 0l-3-3a1 1 0 1 1 1.415-1.415l2.292 2.293 5.293-5.293a1 1 0 0 1 1.414 0Z" fill-rule="evenodd" style="color: inherit"/>
</svg>