<?xml version="1.0" encoding="utf-8"?>
<svg fill="#FFFFFF" viewBox="0 0 24 24" xmlns="http://www.w3.org/2000/svg">
<path _ngcontent-ng-c1909134112="" d="M22 12a9.96 9.96 0 0 1-1.025 4.415.1.1 0 0 0-.009.062 263.07 263.07 0 0 0 1.005 5.377.099.099 0 0 1-.117.117 256 256 0 0 0-5.377-1.005.1.1 0 0 0-.062.01A9.96 9.96 0 0 1 12 22C6.477 22 2 17.523 2 12S6.477 2 12 2s10 4.477 10 10Z" opacity=".12" style="color: inherit"/>
<path _ngcontent-ng-c1909134112="" clip-rule="evenodd" d="M4 12a8 8 0 0 0 8 8 7.96 7.96 0 0 0 3.53-.819 2.1 2.1 0 0 1 1.29-.185c.92.16 1.84.328 2.657.481a223.22 223.22 0 0 1-.481-2.657 2.1 2.1 0 0 1 .185-1.29A7.96 7.96 0 0 0 20 12a8 8 0 1 0-16 0Zm17.589 7.88c-.186-.977-.411-2.19-.623-3.403a.1.1 0 0 1 .01-.062A9.96 9.96 0 0 0 22 12c0-5.523-4.477-10-10-10S2 6.477 2 12s4.477 10 10 10a9.96 9.96 0 0 0 4.415-1.025.1.1 0 0 1 .062-.009c1.214.212 2.426.437 3.404.623l.109.02a274.083 274.083 0 0 1 1.864.362.1.1 0 0 0 .117-.117l-.047-.236c-.069-.352-.18-.925-.315-1.628l-.02-.11Z" fill-rule="evenodd" style="color: inherit"/>
<path _ngcontent-ng-c1909134112="" clip-rule="evenodd" d="M10.5 10a1.5 1.5 0 1 1 3 0 1.5 1.5 0 0 1-3 0ZM12 6.5a3.5 3.5 0 0 0-2.67 5.762 4.997 4.997 0 0 0-2.322 3.613 1 1 0 0 0 1.984.25A3.021 3.021 0 0 1 12 13.5a3.021 3.021 0 0 1 3.008 2.625 1 1 0 1 0 1.984-.25 4.997 4.997 0 0 0-2.321-3.613 3.5 3.5 0 0 0-2.67-5.762Z" fill-rule="evenodd" style="color: inherit"/>
</svg>