<?xml version="1.0" encoding="utf-8"?>
<svg fill="#FFFFFF" viewBox="0 0 24 24" xmlns="http://www.w3.org/2000/svg">
<path _ngcontent-ng-c1909134112="" d="M2.498 15.5H7.62v-1.172H4.427v-.058L5.9 12.921c1.216-1.118 1.621-1.675 1.621-2.53v-.01c0-1.2-1.025-2.05-2.514-2.05-1.49 0-2.593.933-2.593 2.26v.04h1.367l.005-.044c.02-.635.508-1.109 1.23-1.109.626 0 1.065.41 1.07.987v.01c0 .488-.19.834-1.099 1.684l-2.49 2.33v1.01Zm9.268 0h1.401v-1.294h.928V13.03h-.928V8.454h-2.08L8.26 12.976v1.23h3.506V15.5Zm-2.222-2.432v-.039l2.217-3.51h.034v3.55H9.544Z" style="color: inherit"/>
<path _ngcontent-ng-c1909134112="" d="m19.15 19.368.142.027-.026-.142c-.138-.741-.285-1.55-.426-2.36a2.26 2.26 0 0 1 .199-1.385A7.912 7.912 0 0 0 19.852 12 7.954 7.954 0 0 0 6.979 5.749a.424.424 0 0 1-.261.093h-1.89c-.34 0-.508-.376-.291-.611A9.973 9.973 0 0 1 11.897 2c5.524 0 10 4.477 10 10a9.958 9.958 0 0 1-1.022 4.412.213.213 0 0 0-.02.13c.198 1.129.406 2.255.584 3.198l.023.122c.149.784.275 1.43.353 1.827l.052.266v.007l-.003.004-.005.003h-.006l-.266-.052c-.397-.078-1.043-.204-1.828-.353l-.122-.023a234.31 234.31 0 0 0-3.198-.583.213.213 0 0 0-.13.019A9.958 9.958 0 0 1 11.899 22a9.987 9.987 0 0 1-8.114-4.154c-.177-.245.001-.585.32-.585h1.643c.117 0 .23.05.31.139a7.933 7.933 0 0 0 5.84 2.554 7.912 7.912 0 0 0 3.509-.813c.425-.21.91-.282 1.385-.199.81.142 1.619.288 2.36.426Z" style="color: inherit"/>
</svg>