<?xml version="1.0" encoding="utf-8"?>
<svg fill="#FFFFFF" viewBox="0 0 24 24" xmlns="http://www.w3.org/2000/svg">
<path _ngcontent-ng-c1909134112="" d="M15.973 20.078c.208-.102.444-.137.676-.097l-.172.985c1.706.298 3.408.621 4.462.826l-4.966-1.714Zm0 0A8.96 8.96 0 0 1 12 21a9 9 0 1 1 9-9 8.96 8.96 0 0 1-.922 3.973 1.101 1.101 0 0 0-.097.676m-4.008 3.43 4.76.655a246.94 246.94 0 0 1-.752-4.085m0 0 .985-.172-.985.172Z" stroke="currentColor" stroke-width="2" style="color: inherit"/>
<path _ngcontent-ng-c1909134112="" d="M11.857 15.5h1.402v-1.294h.928V13.03h-.928V8.454h-2.08l-2.827 4.522v1.23h3.505V15.5Zm-2.221-2.432v-.039l2.216-3.51h.035v3.55H9.636Z" fill="#FFFFFF" style="color: inherit"/>
<path _ngcontent-ng-c1909134112="" d="M11.857 15.5h1.402v-1.294h.928V13.03h-.928V8.454h-2.08l-2.827 4.522v1.23h3.505V15.5Zm-2.221-2.432v-.039l2.216-3.51h.035v3.55H9.636Z" fill="#FFFFFF" style="color: inherit"/>
</svg>