<?xml version="1.0" encoding="utf-8"?>
<svg fill="#FFFFFF" viewBox="0 0 24 24" xmlns="http://www.w3.org/2000/svg">
<path _ngcontent-ng-c1909134112="" clip-rule="evenodd" d="M8.5 3a2.5 2.5 0 1 0 0 5 2.5 2.5 0 0 0 0-5ZM8 5.5a.5.5 0 1 1 1 0 .5.5 0 0 1-1 0Z" fill-rule="evenodd" style="color: inherit"/>
<path _ngcontent-ng-c1909134112="" clip-rule="evenodd" d="M8.5 0a5.5 5.5 0 1 0 0 11h7a5.5 5.5 0 1 0 0-11h-7ZM5 5.5A3.5 3.5 0 0 1 8.5 2h7a3.5 3.5 0 1 1 0 7h-7A3.5 3.5 0 0 1 5 5.5Z" fill-rule="evenodd" style="color: inherit"/>
<path _ngcontent-ng-c1909134112="" d="M8.5 5a.5.5 0 1 0 0 1 .5.5 0 0 0 0-1Z" style="color: inherit"/>
<path _ngcontent-ng-c1909134112="" clip-rule="evenodd" d="M21 18.5a5.5 5.5 0 0 0-5.5-5.5h-7a5.5 5.5 0 1 0 0 11h7a5.5 5.5 0 0 0 5.5-5.5Zm-2 0a3.5 3.5 0 1 0-7 0 3.5 3.5 0 0 0 7 0Z" fill-rule="evenodd" style="color: inherit"/>
</svg>