<?xml version="1.0" encoding="utf-8"?>
<svg fill="#FFFFFF" viewBox="0 0 24 24" xmlns="http://www.w3.org/2000/svg">
<path _ngcontent-ng-c1909134112="" clip-rule="evenodd" d="M15.46 2H6.444A4.444 4.444 0 0 0 2 6.444v11.112A4.444 4.444 0 0 0 6.444 22h11.112A4.444 4.444 0 0 0 22 17.556V8.54l-4.823 4.822a4 4 0 0 1-2.296 1.135l-2.317.311a3 3 0 0 1-3.372-3.372l.31-2.317a4 4 0 0 1 1.136-2.296L15.46 2Zm2.776.052-6.183 6.185a2 2 0 0 0-.568 1.148l-.31 2.317a1 1 0 0 0 1.123 1.124l2.317-.31a2.001 2.001 0 0 0 1.148-.569l6.185-6.183a4.448 4.448 0 0 0-3.712-3.712Z" fill="#FFFFFF" fill-rule="evenodd" style="color: inherit"/>
<path _ngcontent-ng-c1909134112="" d="M14.615 12.515a2 2 0 0 0 1.148-.568l7.468-7.466A2.625 2.625 0 1 0 19.52.77l-7.466 7.468a2 2 0 0 0-.568 1.148l-.31 2.317a1 1 0 0 0 1.123 1.124l2.317-.311Z" fill="#FFFFFF" style="color: inherit"/>
</svg>