<?xml version="1.0" encoding="utf-8"?>
<svg fill="#FFFFFF" viewBox="0 0 24 24" xmlns="http://www.w3.org/2000/svg">
<path _ngcontent-ng-c1909134112="" clip-rule="evenodd" d="M13.006 2.544a1 1 0 0 1-.15 1.128 7.936 7.936 0 0 0-1.911 3.779c-.875 4.333 1.98 8.567 6.411 9.436a8.29 8.29 0 0 0 2.531.104 1 1 0 0 1 .853 1.666 10.24 10.24 0 0 1-9.555 3.15c-5.495-1.077-9.087-6.35-7.988-11.796.887-4.39 4.547-7.523 8.806-8.006a1 1 0 0 1 1.003.538ZM9.795 4.658c-2.318 1.035-4.106 3.117-4.637 5.75-.875 4.334 1.98 8.567 6.411 9.436a8.246 8.246 0 0 0 5.709-.94 10.641 10.641 0 0 1-.306-.055c-5.495-1.076-9.087-6.348-7.988-11.794a9.951 9.951 0 0 1 .811-2.397Z" fill="#FFFFFF" fill-rule="evenodd" style="color: inherit"/>
</svg>