<?xml version="1.0" encoding="utf-8"?>
<svg fill="#FFFFFF" viewBox="0 0 24 24" xmlns="http://www.w3.org/2000/svg">
<path _ngcontent-ng-c1909134112="" clip-rule="evenodd" d="M5 3a2 2 0 0 0-2 2v6a2 2 0 0 0 2 2h6a2 2 0 0 0 2-2V5a2 2 0 0 0-2-2H5Zm0 8V5h6v6H5Zm0 3a2 2 0 0 0-2 2v3a2 2 0 0 0 2 2h3a2 2 0 0 0 2-2v-3a2 2 0 0 0-2-2H5Zm0 5v-3h3v3H5Zm8-5a2 2 0 0 0-2 2v3a2 2 0 0 0 2 2h6a2 2 0 0 0 2-2v-3a2 2 0 0 0-2-2h-6Zm0 5v-3h6v3h-6Zm3-16a2 2 0 0 0-2 2v6a2 2 0 0 0 2 2h3a2 2 0 0 0 2-2V5a2 2 0 0 0-2-2h-3Zm0 8V5h3v6h-3Z" fill-rule="evenodd" style="color: inherit"/>
</svg>