<?xml version="1.0" encoding="utf-8"?>
<svg fill="#FFFFFF" viewBox="0 0 24 24" xmlns="http://www.w3.org/2000/svg">
<path _ngcontent-ng-c1909134112="" clip-rule="evenodd" d="M7.464 8.114C8.588 8.624 10.194 9 12 9c1.805 0 3.412-.375 4.536-.886.565-.256.968-.528 1.214-.77.234-.228.25-.348.25-.348V7h2c0 .73-.401 1.334-.85 1.774-.463.453-1.085.843-1.787 1.162C15.953 10.576 14.061 11 12 11c-2.06 0-3.954-.425-5.363-1.064-.702-.32-1.324-.71-1.787-1.162C4.401 8.334 4 7.729 4 7h2v-.004s.016.12.25.349c.246.24.649.513 1.214.77Z" fill="#FFFFFF" fill-rule="evenodd" style="color: inherit"/>
<path _ngcontent-ng-c1909134112="" clip-rule="evenodd" d="M6.001 6.99A.052.052 0 0 0 6 7v10l.001.01a.215.215 0 0 0 .013.039c.016.04.054.113.142.216.182.216.524.496 1.082.775 1.115.557 2.796.96 4.762.96 1.966 0 3.647-.403 4.762-.96.558-.279.9-.56 1.082-.775a.853.853 0 0 0 .142-.216A.211.211 0 0 0 18 17V7l-.001-.01a.21.21 0 0 0-.012-.039.853.853 0 0 0-.143-.216c-.182-.216-.524-.496-1.082-.775C15.647 5.403 13.966 5 12 5c-1.966 0-3.647.403-4.762.96-.558.279-.9.56-1.082.775a.852.852 0 0 0-.142.216A.215.215 0 0 0 6 6.99ZM4 7c0-2.21 3.582-4 8-4s8 1.79 8 4v10c0 2.21-3.582 4-8 4s-8-1.79-8-4V7Z" fill="#FFFFFF" fill-rule="evenodd" style="color: inherit"/>
<path _ngcontent-ng-c1909134112="" clip-rule="evenodd" d="M7.464 13.114c1.124.51 2.73.886 4.536.886 1.805 0 3.412-.375 4.536-.886.565-.256.968-.528 1.214-.77.234-.228.25-.348.25-.348V12h2c0 .73-.401 1.334-.85 1.774-.463.453-1.085.843-1.787 1.162C15.953 15.576 14.061 16 12 16c-2.06 0-3.954-.425-5.363-1.064-.702-.32-1.324-.71-1.787-1.162C4.401 13.334 4 12.73 4 12h2a.74.74 0 0 0 0-.004s.016.12.25.349c.246.24.649.513 1.214.77Z" fill="#FFFFFF" fill-rule="evenodd" style="color: inherit"/>
</svg>