<?xml version="1.0" encoding="utf-8"?>
<svg fill="#FFFFFF" viewBox="0 0 24 24" xmlns="http://www.w3.org/2000/svg">
<path _ngcontent-ng-c1909134112="" clip-rule="evenodd" d="M8 2a1 1 0 0 0-2 0v1.126C4.275 3.57 3 5.136 3 7v10a4 4 0 0 0 4 4h10a4 4 0 0 0 4-4V7a4.002 4.002 0 0 0-3-3.874V2a1 1 0 1 0-2 0v1H8V2ZM5 17v-7h14v7a2 2 0 0 1-2 2H7a2 2 0 0 1-2-2Zm0-9h14V7a2 2 0 0 0-2-2H7a2 2 0 0 0-2 2v1Zm10.907 5.207a1 1 0 0 0-1.414-1.414L11.2 15.086l-1.293-1.293a1 1 0 0 0-1.414 1.414l2 2a1 1 0 0 0 1.414 0l4-4Z" fill-rule="evenodd" style="color: inherit"/>
</svg>