<?xml version="1.0" encoding="utf-8"?>
<svg fill="#FFFFFF" viewBox="0 0 24 24" xmlns="http://www.w3.org/2000/svg">
<path _ngcontent-ng-c1909134112="" d="M7 9a1 1 0 0 1 1-1h4a1 1 0 1 1 0 2H9v2h2a1 1 0 1 1 0 2H9v3a1 1 0 1 1-2 0V9Zm7.814 2.42A.999.999 0 0 0 13 12v5a1 1 0 1 0 2 0v-2.979a.928.928 0 0 1 .175-.42c.147-.197.569-.601 1.825-.601a1 1 0 1 0 0-2c-.896 0-1.616.157-2.186.42Z" fill="#FFFFFF" style="color: inherit"/>
<path _ngcontent-ng-c1909134112="" clip-rule="evenodd" d="M8 3a1 1 0 0 0-2 0v1.126C4.275 4.57 3 6.136 3 8v10a4 4 0 0 0 4 4h10a4 4 0 0 0 4-4V8a4.002 4.002 0 0 0-3-3.874V3a1 1 0 1 0-2 0v1H8V3ZM5 8a2 2 0 0 1 2-2h10a2 2 0 0 1 2 2v10a2 2 0 0 1-2 2H7a2 2 0 0 1-2-2V8Z" fill="#FFFFFF" fill-rule="evenodd" style="color: inherit"/>
</svg>