<?xml version="1.0" encoding="utf-8"?>
<svg fill="#FFFFFF" viewBox="0 0 24 24" xmlns="http://www.w3.org/2000/svg">
<path _ngcontent-ng-c1909134112="" clip-rule="evenodd" d="M7 1a1 1 0 0 1 1 1v1h8V2a1 1 0 1 1 2 0v1.126c1.725.444 3 2.01 3 3.874v5a1 1 0 1 1-2 0v-2H5v7a2 2 0 0 0 2 2h2a1 1 0 1 1 0 2H7a4 4 0 0 1-4-4V7a4.002 4.002 0 0 1 3-3.874V2a1 1 0 0 1 1-1ZM5 8h14V7a2 2 0 0 0-2-2H7a2 2 0 0 0-2 2v1Zm16.707 7.293a1 1 0 0 1 0 1.414l-4.998 4.998-.002.002a1 1 0 0 1-1.414 0l-2.5-2.5a1 1 0 0 1 1.414-1.414L16 19.586l4.293-4.293a1 1 0 0 1 1.414 0Z" fill-rule="evenodd" style="color: inherit"/>
</svg>