<?xml version="1.0" encoding="utf-8"?>
<svg fill="#FFFFFF" viewBox="0 0 24 24" xmlns="http://www.w3.org/2000/svg">
<path _ngcontent-ng-c1909134112="" clip-rule="evenodd" d="M5 20a3 3 0 0 1-3-3V7a3 3 0 0 1 3-3h5a1 1 0 0 1 .707.293L12.414 6H19a3 3 0 0 1 3 3v4a1 1 0 1 1-2 0V9a1 1 0 0 0-1-1h-7a1 1 0 0 1-.707-.293L9.586 6H5a1 1 0 0 0-1 1v10a1 1 0 0 0 1 1h8a1 1 0 1 1 0 2H5Zm11.293 2.707a1 1 0 0 1 0-1.414l1.793-1.793-1.793-1.793a1 1 0 0 1 1.414-1.414l1.793 1.793 1.793-1.793a1 1 0 0 1 1.414 1.414L20.914 19.5l1.793 1.793a1 1 0 0 1-1.414 1.414L19.5 20.914l-1.793 1.793a1 1 0 0 1-1.414 0Z" fill="#FFFFFF" fill-rule="evenodd" style="color: inherit"/>
</svg>