<?xml version="1.0" encoding="utf-8"?>
<svg fill="#FFFFFF" viewBox="0 0 24 24" xmlns="http://www.w3.org/2000/svg">
<path _ngcontent-ng-c1909134112="" clip-rule="evenodd" d="M4 5.714C4 5.365 4.312 5 4.8 5h14.4c.488 0 .8.365.8.714v8.572c0 .349-.312.714-.8.714H4.8c-.488 0-.8-.365-.8-.714V5.714ZM4.8 3C3.3 3 2 4.17 2 5.714v8.572C2 15.83 3.3 17 4.8 17h14.4c1.5 0 2.8-1.17 2.8-2.714V5.714C22 4.17 20.7 3 19.2 3H4.8ZM6 19a1 1 0 1 0 0 2h12a1 1 0 1 0 0-2H6Z" fill-rule="evenodd" style="color: inherit"/>
</svg>