<?xml version="1.0" encoding="utf-8"?>
<svg fill="#FFFFFF" viewBox="0 0 24 24" xmlns="http://www.w3.org/2000/svg">
<path _ngcontent-ng-c1909134112="" clip-rule="evenodd" d="M1.56 7.527a2 2 0 0 0 0 2.828l3.447 3.448a2 2 0 0 0 2.828 0l3.448-3.448c.218-.218.376-.474.472-.747h2.912a.667.667 0 0 0 0-1.334h-2.912a1.99 1.99 0 0 0-.472-.747L7.835 4.079a2 2 0 0 0-2.828 0L1.559 7.527Zm.942 1.885a.667.667 0 0 1 0-.943L5.95 5.022c.26-.26.682-.26.943 0l3.447 3.447c.26.26.26.683 0 .943L6.893 12.86a.667.667 0 0 1-.943 0L2.502 9.412Z" fill="#FFFFFF" fill-rule="evenodd" style="color: inherit"/>
</svg>