<?xml version="1.0" encoding="utf-8"?>
<svg fill="#FFFFFF" viewBox="0 0 24 24" xmlns="http://www.w3.org/2000/svg">
<path _ngcontent-ng-c1909134112="" d="M19.624 5.326a18.783 18.783 0 0 0-4.478-1.325.07.07 0 0 0-.072.033c-.194.328-.408.756-.558 1.092a17.544 17.544 0 0 0-5.03 0 10.86 10.86 0 0 0-.565-1.092A.072.072 0 0 0 8.849 4c-1.572.258-3.075.71-4.478 1.325a.063.063 0 0 0-.03.024C1.49 9.416.708 13.382 1.091 17.298c.002.02.013.038.029.05a18.6 18.6 0 0 0 5.493 2.65.073.073 0 0 0 .077-.025c.423-.551.8-1.133 1.124-1.744.02-.036 0-.079-.038-.093a12.277 12.277 0 0 1-1.716-.78.066.066 0 0 1-.007-.112c.115-.082.23-.168.34-.255a.07.07 0 0 1 .072-.009c3.6 1.569 7.498 1.569 11.056 0a.07.07 0 0 1 .072.008c.11.087.226.174.342.256a.066.066 0 0 1-.006.112c-.548.305-1.118.564-1.717.78a.066.066 0 0 0-.038.093c.33.61.708 1.192 1.123 1.743a.072.072 0 0 0 .078.025 18.539 18.539 0 0 0 5.502-2.65.067.067 0 0 0 .028-.048c.459-4.528-.768-8.461-3.253-11.948a.055.055 0 0 0-.028-.025ZM8.352 14.914c-1.084 0-1.977-.95-1.977-2.116 0-1.166.875-2.116 1.977-2.116 1.11 0 1.994.958 1.977 2.116 0 1.166-.876 2.116-1.977 2.116Zm7.31 0c-1.084 0-1.977-.95-1.977-2.116 0-1.166.876-2.116 1.977-2.116 1.11 0 1.994.958 1.977 2.116 0 1.166-.867 2.116-1.977 2.116Z" fill="#FFFFFF" style="color: inherit"/>
</svg>