<?xml version="1.0" encoding="utf-8"?>
<svg fill="#FFFFFF" viewBox="0 0 24 24" xmlns="http://www.w3.org/2000/svg">
<path _ngcontent-ng-c1909134112="" clip-rule="evenodd" d="m2.199 12.942.001-.005.005-.021.021-.089a10.043 10.043 0 0 0 .216-1.389 5.02 5.02 0 0 0-.02-1.158c-.058-.357-.164-.573-.282-.681C1.092 8.639.433 7.347.433 5.912.433 2.798 3.47.433 7 .433c3.53 0 6.566 2.365 6.566 5.479 0 3.113-3.037 5.478-6.566 5.478-1.053 0-2.018.231-2.704.866l-1.273 1.178a.5.5 0 0 1-.824-.492ZM4.167 7a.5.5 0 0 1 .5-.5h2.8a.5.5 0 1 1 0 1h-2.8a.5.5 0 0 1-.5-.5Zm0-2.1a.5.5 0 0 1 .5-.5h4.9a.5.5 0 1 1 0 1h-4.9a.5.5 0 0 1-.5-.5Z" fill="#FFFFFF" fill-rule="evenodd" style="color: inherit"/>
</svg>