<?xml version="1.0" encoding="utf-8"?>
<svg fill="#FFFFFF" viewBox="0 0 24 24" xmlns="http://www.w3.org/2000/svg">
<path _ngcontent-ng-c1909134112="" clip-rule="evenodd" d="M5.5 4a1 1 0 0 0-1 1v14a1 1 0 0 0 1 1h6a1 1 0 1 1 0 2h-6a3 3 0 0 1-3-3V5a3 3 0 0 1 3-3h6.172a3 3 0 0 1 2.12.879l3.83 3.828a3 3 0 0 1 .878 2.121V11a1 1 0 1 1-2 0V8.828a1 1 0 0 0-.293-.707L12.38 4.293A1 1 0 0 0 11.672 4H5.5Zm12 10a1 1 0 0 1 1 1v2h2a1 1 0 1 1 0 2h-2v2a1 1 0 1 1-2 0v-2h-2a1 1 0 1 1 0-2h2v-2a1 1 0 0 1 1-1Z" fill-rule="evenodd" style="color: inherit"/>
</svg>