<?xml version="1.0" encoding="utf-8"?>
<svg fill="#FFFFFF" viewBox="0 0 24 24" xmlns="http://www.w3.org/2000/svg">
<path _ngcontent-ng-c1909134112="" d="M4 6a1 1 0 0 0 2 0H4Zm2 12.5a1 1 0 1 0-2 0h2ZM18.414 7.414l-.707.707.707-.707ZM7 22h10v-2H7v2Zm13-3V8.828h-2V19h2Zm-.879-12.293L15.293 2.88l-1.414 1.414 3.828 3.828 1.414-1.414ZM13.171 2H7v2h6.172V2ZM4 5v1h2V5H4Zm0 13.5v.5h2v-.5H4ZM15.293 2.879A3 3 0 0 0 13.172 2v2a1 1 0 0 1 .707.293l1.414-1.414ZM20 8.829a3 3 0 0 0-.879-2.122l-1.414 1.414a1 1 0 0 1 .293.707h2ZM17 22a3 3 0 0 0 3-3h-2a1 1 0 0 1-1 1v2ZM7 20a1 1 0 0 1-1-1H4a3 3 0 0 0 3 3v-2ZM7 2a3 3 0 0 0-3 3h2a1 1 0 0 1 1-1V2ZM2.49 16v-1.22l2.33-1.91c.46-.38.777-.683.95-.91.173-.233.26-.49.26-.77 0-.287-.087-.51-.26-.67-.173-.16-.4-.24-.68-.24-.26 0-.497.073-.71.22-.207.14-.447.38-.72.72l-1.08-.87c.367-.5.743-.867 1.13-1.1.393-.233.887-.35 1.48-.35.727 0 1.31.2 1.75.6.44.393.66.92.66 1.58 0 .38-.073.723-.22 1.03-.147.3-.337.567-.57.8-.233.227-.583.52-1.05.88l-1.14.88h3.05V16H2.49Zm9.574 0v-1.51h-3.42l-.25-1.09 3.84-4.45h1.3v4.29h.94v1.25h-.94V16h-1.47Zm-1.86-2.76h1.86v-2.18l-1.86 2.18Z" style="color: inherit"/>
</svg>