<?xml version="1.0" encoding="utf-8"?>
<svg fill="#FFFFFF" viewBox="0 0 24 24" xmlns="http://www.w3.org/2000/svg">
<path _ngcontent-ng-c1909134112="" clip-rule="evenodd" d="M2.943 14.255c.26.26.26.682 0 .942l-.472.472a.667.667 0 0 1-.943-.943L2 14.255c.26-.26.682-.26.943 0ZM5.889 11.308c.26.26.26.683 0 .943l-.471.472a.667.667 0 0 1-.943-.943l.471-.472c.26-.26.683-.26.943 0ZM8.835 8.362c.26.26.26.683 0 .943l-.471.471a.667.667 0 1 1-.943-.942l.471-.472c.26-.26.683-.26.943 0ZM11.781 5.416c.26.26.26.682 0 .943l-.47.471a.667.667 0 1 1-.944-.943l.472-.471c.26-.26.682-.26.942 0ZM14.728 2.47c.26.26.26.682 0 .942l-.472.472a.667.667 0 1 1-.942-.943l.471-.471c.26-.26.682-.26.943 0Z" fill="#FFFFFF" fill-rule="evenodd" style="color: inherit"/>
</svg>