<?xml version="1.0" encoding="utf-8"?>
<svg fill="#FFFFFF" viewBox="0 0 24 24" xmlns="http://www.w3.org/2000/svg">
<path _ngcontent-ng-c1909134112="" clip-rule="evenodd" d="M6 4a2 2 0 0 0-2 2v6a2 2 0 0 0 2 2v2a4 4 0 0 1-4-4V6a4 4 0 0 1 4-4h6a4 4 0 0 1 4 4h-2a2 2 0 0 0-2-2H6Zm6 6a2 2 0 0 0-2 2v6a2 2 0 0 0 2 2h6a2 2 0 0 0 2-2v-6a2 2 0 0 0-2-2h-6Zm-4 2a4 4 0 0 1 4-4h6a4 4 0 0 1 4 4v6a4 4 0 0 1-4 4h-6a4 4 0 0 1-4-4v-6Zm7 0a1 1 0 0 1 1 1v1h1a1 1 0 1 1 0 2h-1v1a1 1 0 1 1-2 0v-1h-1a1 1 0 1 1 0-2h1v-1a1 1 0 0 1 1-1Z" fill-rule="evenodd" style="color: inherit"/>
</svg>