<?xml version="1.0" encoding="utf-8"?>
<svg fill="#FFFFFF" viewBox="0 0 24 24" xmlns="http://www.w3.org/2000/svg">
<path _ngcontent-ng-c1909134112="" clip-rule="evenodd" d="M17.316 1.146a3.916 3.916 0 0 1 5.538 5.538l-1.597 1.602a1.273 1.273 0 0 1-.335.337l-8.659 8.69a1.263 1.263 0 0 1-.895.371h-3.79a1.263 1.263 0 0 1-1.262-1.263v-3.79c0-.335.133-.657.371-.894l8.69-8.659a1.272 1.272 0 0 1 .336-.335l1.602-1.596.001-.001Zm-.88 4.444-7.594 7.566v2.002h2.002l7.566-7.593-1.975-1.975Zm3.757.185-1.968-1.968.877-.874A1.39 1.39 0 0 1 21.067 4.9l-.874.876ZM1.11 6.163a3.79 3.79 0 0 1 2.68-1.11h1.263a1.263 1.263 0 1 1 0 2.526H3.789a1.263 1.263 0 0 0-1.263 1.263v11.369a1.263 1.263 0 0 0 1.263 1.263h11.369a1.263 1.263 0 0 0 1.263-1.263v-1.264a1.263 1.263 0 1 1 2.526 0v1.264A3.79 3.79 0 0 1 15.157 24H3.79A3.79 3.79 0 0 1 0 20.21V8.843c0-1.005.4-1.969 1.11-2.68Z" fill-rule="evenodd" style="color: inherit"/>
</svg>