<?xml version="1.0" encoding="utf-8"?>
<svg fill="#FFFFFF" viewBox="0 0 24 24" xmlns="http://www.w3.org/2000/svg">
<path _ngcontent-ng-c1909134112="" clip-rule="evenodd" d="M14.501 3.15a2 2 0 0 0-1.41.581l-.003.003-10.004 10-.002.002a2 2 0 0 0 0 2.82l.002.002 4.002 4a1 1 0 0 0 .707.293h11.005a1 1 0 1 0 0-2H13.62l7.296-7.293.002-.002a2 2 0 0 0 0-2.82l-5.004-5.002-.002-.003a2.001 2.001 0 0 0-1.41-.581Zm1.937 10.056L10.79 18.85H8.208L4.5 15.146l6.94-6.936 4.998 4.996Zm1.415-1.415-4.999-4.995 1.647-1.646 4.998 4.996-1.646 1.645Z" fill-rule="evenodd" style="color: inherit"/>
</svg>