<?xml version="1.0" encoding="utf-8"?>
<svg fill="#FFFFFF" viewBox="0 0 24 24" xmlns="http://www.w3.org/2000/svg">
<path _ngcontent-ng-c1909134112="" clip-rule="evenodd" d="M12 4a1 1 0 0 1 1 1v14a1 1 0 1 1-2 0V5a1 1 0 0 1 1-1ZM4.707 8.293a1 1 0 0 1 0 1.414L3.414 11H8a1 1 0 1 1 0 2H3.414l1.293 1.293a1 1 0 1 1-1.414 1.414l-3-3a1 1 0 0 1 0-1.414l3-3a1 1 0 0 1 1.414 0Zm14.586 0a1 1 0 0 1 1.414 0l3 3a1 1 0 0 1 0 1.414l-3 3a1 1 0 0 1-1.414-1.414L20.586 13H16a1 1 0 1 1 0-2h4.586l-1.293-1.293a1 1 0 0 1 0-1.414Z" fill="#FFFFFF" fill-rule="evenodd" style="color: inherit"/>
</svg>