<?xml version="1.0" encoding="utf-8"?>
<svg fill="#FFFFFF" viewBox="0 0 24 24" xmlns="http://www.w3.org/2000/svg">
<path _ngcontent-ng-c1909134112="" class="['fab-top-left']" clip-rule="evenodd" d="M5 3.6H4a.4.4 0 0 0-.4.4v1c0 .22.18.4.4.4h1a.4.4 0 0 0 .4-.4V4a.4.4 0 0 0-.4-.4ZM4 2a2 2 0 0 0-2 2v1a2 2 0 0 0 2 2h1a2 2 0 0 0 2-2V4a2 2 0 0 0-2-2H4Z" fill="#FFFFFF" fill-rule="evenodd" style="color: inherit"/>
<path _ngcontent-ng-c1909134112="" class="['fab-top-right']" clip-rule="evenodd" d="M12 3.6h-1a.4.4 0 0 0-.4.4v1c0 .22.18.4.4.4h1a.4.4 0 0 0 .4-.4V4a.4.4 0 0 0-.4-.4ZM11 2a2 2 0 0 0-2 2v1a2 2 0 0 0 2 2h1a2 2 0 0 0 2-2V4a2 2 0 0 0-2-2h-1Z" fill="#FFFFFF" fill-rule="evenodd" style="color: inherit"/>
<path _ngcontent-ng-c1909134112="" class="['fab-bottom-left']" clip-rule="evenodd" d="M5 10.6H4a.4.4 0 0 0-.4.4v1c0 .22.18.4.4.4h1a.4.4 0 0 0 .4-.4v-1a.4.4 0 0 0-.4-.4ZM4 9a2 2 0 0 0-2 2v1a2 2 0 0 0 2 2h1a2 2 0 0 0 2-2v-1a2 2 0 0 0-2-2H4Z" fill="#FFFFFF" fill-rule="evenodd" style="color: inherit"/>
<path _ngcontent-ng-c1909134112="" class="['fab-bottom-right']" clip-rule="evenodd" d="M12 10.6h-1a.4.4 0 0 0-.4.4v1c0 .22.18.4.4.4h1a.4.4 0 0 0 .4-.4v-1a.4.4 0 0 0-.4-.4ZM11 9a2 2 0 0 0-2 2v1a2 2 0 0 0 2 2h1a2 2 0 0 0 2-2v-1a2 2 0 0 0-2-2h-1Z" fill="#FFFFFF" fill-rule="evenodd" style="color: inherit"/>
</svg>