<?xml version="1.0" encoding="utf-8"?>
<svg fill="#FFFFFF" viewBox="0 0 24 24" xmlns="http://www.w3.org/2000/svg">
<path _ngcontent-ng-c1909134112="" clip-rule="evenodd" d="M12 2.72a1 1 0 0 1 .901.567l2.37 4.931 5.422.73a1 1 0 0 1 .557 1.714l-3.958 3.777.982 5.383a1 1 0 0 1-1.459 1.06L12 18.283 7.185 20.88a1 1 0 0 1-1.459-1.06l.982-5.382-3.958-3.777a1 1 0 0 1 .557-1.714l5.422-.73 2.37-4.931A1 1 0 0 1 12 2.72Zm0 3.31-1.701 3.54a1 1 0 0 1-.768.559l-3.894.523 2.842 2.713a1 1 0 0 1 .293.903l-.705 3.865 3.458-1.865a1 1 0 0 1 .95 0l3.458 1.865-.706-3.865a1 1 0 0 1 .294-.903l2.842-2.713-3.894-.523a1 1 0 0 1-.768-.558L12 6.029Z" fill="#FFFFFF" fill-rule="evenodd" style="color: inherit"/>
</svg>