<?xml version="1.0" encoding="utf-8"?>
<svg fill="#FFFFFF" viewBox="0 0 24 24" xmlns="http://www.w3.org/2000/svg">
<path _ngcontent-ng-c1909134112="" d="M4.5 22h15c.46 0 .834-.373.834-.833V6.929a.834.834 0 0 0-.244-.59l-4.096-4.095A.833.833 0 0 0 15.405 2H4.5a.833.833 0 0 0-.833.833v18.334c0 .46.373.833.833.833Z" fill="#FFFFFF" style="color: inherit"/>
<path _ngcontent-ng-c1909134112="" clip-rule="evenodd" d="M12.715 9.496 9.037 8.447l2.714 2.715a.949.949 0 1 1-.59.59L8.453 9.04l1.01 3.523.007.031a2.646 2.646 0 0 0 3.42 1.975l.487-.16 1.389 1.388 1.057-1.057-1.396-1.396.154-.483a2.646 2.646 0 0 0-1.855-3.364l-.01-.003ZM17 14.742l-2.236 2.235-1.614-1.614a3.48 3.48 0 0 1-4.497-2.598L7 7l5.934 1.692a3.48 3.48 0 0 1 2.44 4.423L17 14.742Z" fill="#FFFFFF" fill-rule="evenodd" style="color: inherit"/>
<path _ngcontent-ng-c1909134112="" d="M15.75 5.75V2l4.584 4.583h-3.75a.833.833 0 0 1-.834-.833Z" fill="#FFFFFF" style="color: inherit"/>
</svg>