<?xml version="1.0" encoding="utf-8"?>
<svg fill="#FFFFFF" viewBox="0 0 24 24" xmlns="http://www.w3.org/2000/svg">
<path _ngcontent-ng-c1909134112="" clip-rule="evenodd" d="M14 1.333H5.2A.667.667 0 0 0 4.533 2v8.8c0 .368.299.667.667.667H14a.667.667 0 0 0 .667-.667V2A.667.667 0 0 0 14 1.333ZM5.2 0a2 2 0 0 0-2 2v8.8a2 2 0 0 0 2 2H14a2 2 0 0 0 2-2V2a2 2 0 0 0-2-2H5.2Z" fill="#FFFFFF" fill-rule="evenodd" style="color: inherit"/>
<path _ngcontent-ng-c1909134112="" d="M0 5.2a2 2 0 0 1 2-2h8.8a2 2 0 0 1 2 2V14a2 2 0 0 1-2 2H2a2 2 0 0 1-2-2V5.2Z" fill="#FFFFFF" style="color: inherit"/>
<path _ngcontent-ng-c1909134112="" clip-rule="evenodd" d="M10.8 4.534H2a.667.667 0 0 0-.667.666V14c0 .368.299.667.667.667h8.8a.667.667 0 0 0 .667-.667V5.2a.667.667 0 0 0-.667-.666ZM2 3.2a2 2 0 0 0-2 2V14a2 2 0 0 0 2 2h8.8a2 2 0 0 0 2-2V5.2a2 2 0 0 0-2-2H2Z" fill="#FFFFFF" fill-rule="evenodd" style="color: inherit"/>
<path _ngcontent-ng-c1909134112="" clip-rule="evenodd" d="M.46 5.9a.669.669 0 0 1 0-.944l.174-.175c.26-.261.682-.261.942 0 .26.26.26.683 0 .944L1.4 5.9a.665.665 0 0 1-.942 0Zm1.223-1.227a.669.669 0 0 1 0-.943l.174-.176c.26-.26.682-.26.942 0 .26.261.26.684 0 .944l-.175.175a.665.665 0 0 1-.941 0ZM.331 9.157a.669.669 0 0 1 0-.944l.29-.29c.26-.261.682-.261.942 0 .26.26.26.683 0 .943l-.29.291a.665.665 0 0 1-.942 0Zm2.03-2.035a.669.669 0 0 1 0-.943l.58-.582c.26-.26.682-.26.942 0 .26.26.26.683 0 .944l-.58.581a.665.665 0 0 1-.942 0Zm2.32-2.325a.669.669 0 0 1 0-.944l.29-.29c.26-.261.682-.261.942 0 .26.26.26.683 0 .943l-.29.291a.665.665 0 0 1-.942 0ZM.43 12.187a.669.669 0 0 1 0-.944l.24-.24c.26-.261.682-.261.942 0 .26.26.26.682 0 .943l-.24.241a.665.665 0 0 1-.942 0ZM2.114 10.5a.669.669 0 0 1 0-.944l.481-.482c.26-.261.682-.261.942 0 .26.26.26.683 0 .943l-.481.483a.665.665 0 0 1-.942 0Zm1.924-1.93a.669.669 0 0 1 0-.943l.481-.482c.26-.26.682-.26.942 0 .26.26.26.683 0 .944l-.48.482a.665.665 0 0 1-.943 0Zm1.925-1.928a.669.669 0 0 1 0-.944l.48-.482c.26-.26.682-.26.943 0 .26.26.26.683 0 .944l-.482.482a.665.665 0 0 1-.941 0Zm1.924-1.929a.669.669 0 0 1 0-.944l.24-.24c.26-.261.682-.261.942 0 .26.26.26.683 0 .943l-.24.241a.665.665 0 0 1-.942 0ZM.989 14.757a.669.669 0 0 1 0-.944l.24-.242c.26-.26.682-.26.943 0 .26.26.26.683 0 .944l-.242.242a.665.665 0 0 1-.941 0Zm1.687-1.692a.669.669 0 0 1 0-.944l.483-.483c.26-.26.681-.26.941 0 .26.26.26.683 0 .944l-.482.483a.665.665 0 0 1-.942 0Zm1.93-1.933a.668.668 0 0 1 0-.944l.481-.483c.26-.261.682-.261.942 0 .26.26.26.683 0 .944l-.482.483a.665.665 0 0 1-.942 0Zm1.928-1.933a.669.669 0 0 1 0-.944l.482-.484c.26-.26.682-.26.942 0 .26.261.26.684 0 .944l-.482.484a.665.665 0 0 1-.942 0Zm1.929-1.934a.669.669 0 0 1 0-.943l.482-.484c.26-.26.682-.26.942 0 .26.26.26.683 0 .944l-.483.483a.665.665 0 0 1-.941 0Zm1.928-1.933a.669.669 0 0 1 0-.944l.242-.241c.26-.261.681-.261.941 0 .26.26.26.683 0 .944l-.24.241a.665.665 0 0 1-.943 0ZM3.836 14.986a.668.668 0 0 1 .01-.944l.233-.23a.665.665 0 0 1 .941.01.668.668 0 0 1-.009.944l-.233.229a.665.665 0 0 1-.942-.009ZM5.47 13.38a.668.668 0 0 1 .01-.944l.466-.459a.665.665 0 0 1 .941.01.669.669 0 0 1-.009.943l-.466.459a.665.665 0 0 1-.942-.009Zm1.866-1.836a.669.669 0 0 1 .01-.943l.466-.46a.665.665 0 0 1 .941.01.668.668 0 0 1-.009.943l-.466.46a.665.665 0 0 1-.942-.01ZM9.201 9.71a.669.669 0 0 1 .01-.944l.466-.459a.665.665 0 0 1 .941.009.668.668 0 0 1-.009.944l-.466.459a.665.665 0 0 1-.942-.01Zm1.866-1.836a.668.668 0 0 1 .01-.943l.232-.23a.665.665 0 0 1 .942.009.668.668 0 0 1-.009.944l-.233.23a.665.665 0 0 1-.942-.01ZM6.463 15.528a.669.669 0 0 1-.001-.943l.28-.281a.665.665 0 0 1 .941-.001c.26.26.26.683.001.944l-.28.28a.665.665 0 0 1-.941.002Zm1.957-1.965a.669.669 0 0 1-.001-.944l.559-.562a.665.665 0 0 1 .941-.001c.26.26.261.683.001.944l-.559.562a.665.665 0 0 1-.941 0Zm2.236-2.247a.669.669 0 0 1-.001-.944l.28-.28a.665.665 0 0 1 .941-.002c.26.26.261.683.001.944l-.28.28a.665.665 0 0 1-.941.002ZM9.852 15.26a.669.669 0 0 1 0-.943l.192-.193c.26-.26.682-.26.942 0 .26.26.26.683 0 .944l-.192.193a.665.665 0 0 1-.942 0Zm1.343-1.346a.669.669 0 0 1 0-.944l.192-.192c.26-.26.682-.26.942 0 .26.26.26.683 0 .944l-.192.192a.665.665 0 0 1-.942 0Z" fill="#FFFFFF" fill-rule="evenodd" style="color: inherit"/>
</svg>