<?xml version="1.0" encoding="utf-8"?>
<svg fill="#FFFFFF" viewBox="0 0 24 24" xmlns="http://www.w3.org/2000/svg">
<path _ngcontent-ng-c1909134112="" clip-rule="evenodd" d="M14 1.333H5.2A.667.667 0 0 0 4.533 2v8.8c0 .368.299.667.667.667H14a.667.667 0 0 0 .667-.667V2A.667.667 0 0 0 14 1.333ZM5.2 0a2 2 0 0 0-2 2v8.8a2 2 0 0 0 2 2H14a2 2 0 0 0 2-2V2a2 2 0 0 0-2-2H5.2Z" fill="#FFFFFF" fill-rule="evenodd" style="color: inherit"/>
<path _ngcontent-ng-c1909134112="" clip-rule="evenodd" d="M10.8 4.534H2a.667.667 0 0 0-.667.666V14c0 .368.299.667.667.667h8.8a.667.667 0 0 0 .667-.667V5.2a.667.667 0 0 0-.667-.666ZM2 3.2a2 2 0 0 0-2 2V14a2 2 0 0 0 2 2h8.8a2 2 0 0 0 2-2V5.2a2 2 0 0 0-2-2H2Z" fill="#FFFFFF" fill-rule="evenodd" style="color: inherit"/>
</svg>