<?xml version="1.0" encoding="utf-8"?>
<svg fill="#FFFFFF" viewBox="0 0 24 24" xmlns="http://www.w3.org/2000/svg">
<path _ngcontent-ng-c1909134112="" clip-rule="evenodd" d="M5 4a1 1 0 0 0-1 1v1a1 1 0 0 0 1 1h8a1 1 0 0 0 1-1V5a1 1 0 0 0-1-1H5ZM2 5a3 3 0 0 1 3-3h8a3 3 0 0 1 2.959 2.5H17a3 3 0 0 1 3 3V10a3 3 0 0 1-3 3H7a1 1 0 0 0-1 1v2.5a1 1 0 0 0 1 1h1.041A3 3 0 0 1 11 15h8a3 3 0 0 1 3 3v1a3 3 0 0 1-3 3h-8a3 3 0 0 1-2.959-2.5H7a3 3 0 0 1-3-3V14a3 3 0 0 1 3-3h10a1 1 0 0 0 1-1V7.5a1 1 0 0 0-1-1h-1.041A3 3 0 0 1 13 9H5a3 3 0 0 1-3-3V5Zm9 12a1 1 0 0 0-1 1v1a1 1 0 0 0 1 1h8a1 1 0 0 0 1-1v-1a1 1 0 0 0-1-1h-8Z" fill-rule="evenodd" style="color: inherit"/>
</svg>