<?xml version="1.0" encoding="utf-8"?>
<svg fill="#FFFFFF" viewBox="0 0 24 24" xmlns="http://www.w3.org/2000/svg">
<path _ngcontent-ng-c1909134112="" clip-rule="evenodd" d="M2 6a3 3 0 0 1 3-3h8a3 3 0 0 1 2.959 2.5H18a4 4 0 0 1 4 4v6a3 3 0 0 1-3 3h-1.041A3 3 0 0 1 15 21H7a3 3 0 0 1-3-3v-1a3 3 0 0 1 3-3h8a3 3 0 0 1 2.959 2.5H19a1 1 0 0 0 1-1v-6a2 2 0 0 0-2-2h-2.041A3 3 0 0 1 13 10H5a3 3 0 0 1-3-3V6Zm3-1a1 1 0 0 0-1 1v1a1 1 0 0 0 1 1h8a1 1 0 0 0 1-1V6a1 1 0 0 0-1-1H5Zm2 11a1 1 0 0 0-1 1v1a1 1 0 0 0 1 1h8a1 1 0 0 0 1-1v-1a1 1 0 0 0-1-1H7Z" fill-rule="evenodd" style="color: inherit"/>
</svg>