<?xml version="1.0" encoding="utf-8"?>
<svg fill="#FFFFFF" viewBox="0 0 24 24" xmlns="http://www.w3.org/2000/svg">
<path _ngcontent-ng-c1909134112="" clip-rule="evenodd" d="M4.995 20A2.995 2.995 0 0 1 2 17.001V6.996A2.997 2.997 0 0 1 5 4h5a1 1 0 0 1 .707.293L12.414 6H19a3 3 0 0 1 3 3v8c0 1.654-1.336 3-2.995 3H4.995ZM4 17.001c0 .555.445.999.995.999h14.01A.996.996 0 0 0 20 17V9a1 1 0 0 0-1-1h-7a1 1 0 0 1-.707-.293L9.586 6H5c-.555 0-1 .446-1 .996v10.005Z" fill="#FFFFFF" fill-rule="evenodd" style="color: inherit"/>
</svg>