<?xml version="1.0" encoding="utf-8"?>
<svg fill="#FFFFFF" viewBox="0 0 24 24" xmlns="http://www.w3.org/2000/svg">
<path _ngcontent-ng-c1909134112="" clip-rule="evenodd" d="M8.446 3.675a1 1 0 0 0-1.892 0l-3.781 11-1.719 5a1 1 0 1 0 1.891.65L4.432 16h6.136l1.486 4.325a1 1 0 0 0 1.892-.65l-1.719-5-3.781-11ZM9.88 14H5.12L7.5 7.076 9.88 14ZM19 9c-1.464 0-2.53.443-3.242.918a4.59 4.59 0 0 0-.79.661 3.489 3.489 0 0 0-.267.319l-.033.047a1 1 0 1 0 1.666 1.108 2.594 2.594 0 0 1 .533-.471C17.28 11.307 17.964 11 19 11c.594 0 1.074.27 1.454.622.369.34.546.943.546 1.794V14h-3.604a3.396 3.396 0 1 0 .282 6.78l.722-.06a5.353 5.353 0 0 0 2.6-.93V20a1 1 0 1 0 2 0v-6.584c0-1.011-.189-2.338-1.187-3.262C21.198 9.586 20.256 9 19 9Zm-1.604 7H21v.795a3.357 3.357 0 0 1-2.766 1.932l-.722.06A1.396 1.396 0 1 1 17.396 16Z" fill-rule="evenodd" style="color: inherit"/>
</svg>