<?xml version="1.0" encoding="utf-8"?>
<svg fill="#FFFFFF" viewBox="0 0 24 24" xmlns="http://www.w3.org/2000/svg">
<path _ngcontent-ng-c1909134112="" d="M3.728 21.6a.5.5 0 0 1-.467-.68l7.002-18.2a.5.5 0 0 1 .467-.32h2.063a.5.5 0 0 1 .462.31l7.462 18.2a.5.5 0 0 1-.462.69h-1.811a.5.5 0 0 1-.467-.32l-1.997-5.175a.5.5 0 0 0-.466-.32H8.165a.5.5 0 0 0-.47.33L5.822 21.27a.5.5 0 0 1-.47.329H3.728Zm5.075-8.56a.5.5 0 0 0 .468.676h5.076a.5.5 0 0 0 .468-.677l-1.752-4.64a75.683 75.683 0 0 1-.735-2.016c-.172-.496-.974-.465-1.12.04a24.746 24.746 0 0 1-.546 1.66l-1.86 4.957Z" style="color: inherit"/>
</svg>