<?xml version="1.0" encoding="utf-8"?>
<svg fill="#FFFFFF" viewBox="0 0 24 24" xmlns="http://www.w3.org/2000/svg">
<path _ngcontent-ng-c1909134112="" d="M8.293 2.293A1 1 0 0 1 9 2h4a1 1 0 0 1 .707.293l.707.707H16.5A2.5 2.5 0 0 1 19 5.5v2l-2 2v-4a.5.5 0 0 0-.5-.5H14a1 1 0 0 1-.707-.293L12.586 4H9.414l-.707.707A1 1 0 0 1 8 5H5.5a.5.5 0 0 0-.5.5v14a.5.5 0 0 0 .5.5h11a.5.5 0 0 0 .5-.5v-3l2-2v5a2.5 2.5 0 0 1-2.5 2.5h-11A2.5 2.5 0 0 1 3 19.5v-14A2.5 2.5 0 0 1 5.5 3h2.086l.707-.707Z" style="color: inherit"/>
<path _ngcontent-ng-c1909134112="" d="M14 9H8a1 1 0 0 1 0-2h6a1 1 0 1 1 0 2Zm-2 4H8a1 1 0 1 1 0-2h4a1 1 0 1 1 0 2Zm1.707 4.707 8-8a1 1 0 0 0-1.414-1.414l-8 8a1 1 0 0 0 1.414 1.414Z" style="color: inherit"/>
</svg>