<?xml version="1.0" encoding="utf-8"?>
<svg fill="#FFFFFF" viewBox="0 0 24 24" xmlns="http://www.w3.org/2000/svg">
<path _ngcontent-ng-c1909134112="" d="M11.897.8h8.813c.39-.003.775.068 1.136.21.36.14.688.348.963.611s.493.576.64.92c.147.344.221.713.218 1.085v8.41c0 6.167-5.236 11.164-11.697 11.164h-.067a12.178 12.178 0 0 1-4.478-.847 11.746 11.746 0 0 1-3.797-2.419 11.144 11.144 0 0 1-2.537-3.622A10.723 10.723 0 0 1 .2 12.038C.2 5.853 5.426.864 11.897.8Z" fill="#FFFFFF" style="color: inherit"/>
<path _ngcontent-ng-c1909134112="" d="M11.897 5.79c-2.968 0-5.373 2.295-5.373 5.128v3.488c.02.933.808 1.685 1.786 1.705h1.52v-4.006H7.777v-1.12C7.9 8.876 9.73 7.226 11.944 7.226c2.213 0 4.037 1.647 4.162 3.76v1.12h-2.083v4.008h1.373v.064c-.014.866-.746 1.564-1.65 1.575h-1.64c-.133 0-.28.063-.28.19.003.07.034.137.086.186a.3.3 0 0 0 .194.082h1.65c1.176-.007 2.126-.915 2.134-2.037v-.127c.392-.084.743-.295.992-.596.25-.3.385-.674.38-1.058v-3.408c.068-2.889-2.333-5.193-5.372-5.193l.007-.003Z" fill="#FFFFFF" style="color: inherit"/>
</svg>