<?xml version="1.0" encoding="utf-8"?>
<svg fill="#FFFFFF" viewBox="0 0 24 24" xmlns="http://www.w3.org/2000/svg">
<path _ngcontent-ng-c1909134112="" d="M22 12c0 5.523-4.477 10-10 10S2 17.523 2 12 6.477 2 12 2s10 4.477 10 10Z" fill="#FFFFFF" style="color: inherit"/>
<path _ngcontent-ng-c1909134112="" d="m7.154 7.304 1.215.003-.024 9.37-1.214-.003.023-9.37Z" fill="#FFFFFF" style="color: inherit"/>
<path _ngcontent-ng-c1909134112="" d="m15.653 9.726 1.216.003-.018 6.974-1.216-.003.018-6.974Z" fill="#FFFFFF" style="color: inherit"/>
<path _ngcontent-ng-c1909134112="" d="m7.131 16.672 9.72.023-.002 1.202-9.72-.023.002-1.202Z" fill="#FFFFFF" style="color: inherit"/>
<path _ngcontent-ng-c1909134112="" d="m7.157 6.103 6.075.014-.003 1.202-6.075-.015.003-1.201Z" fill="#FFFFFF" style="color: inherit"/>
<path _ngcontent-ng-c1909134112="" d="m14.446 7.32.003-1.2-1.217-.003-.009 3.604 3.646.008.003-1.2-1.217-.003.003-1.201-1.212-.004Z" fill="#FFFFFF" style="color: inherit"/>
<path _ngcontent-ng-c1909134112="" d="m15.655 9.726 1.216.003-.004 1.202-1.216-.003.004-1.202Z" fill="#FFFFFF" style="color: inherit"/>
</svg>