<?xml version="1.0" encoding="utf-8"?>
<svg fill="#FFFFFF" viewBox="0 0 24 24" xmlns="http://www.w3.org/2000/svg">
<path _ngcontent-ng-c1909134112="" clip-rule="evenodd" d="M6.5 3.5a1.5 1.5 0 1 0 0 3 1.5 1.5 0 0 0 0-3ZM3 5a3.5 3.5 0 1 1 4.5 3.355v3.18a3.982 3.982 0 0 1 2-.535h5a2 2 0 0 0 2-2v-.645a3.502 3.502 0 0 1 1-6.855 3.5 3.5 0 0 1 1 6.855V9a4 4 0 0 1-4 4h-5a2 2 0 0 0-2 2v.645a3.502 3.502 0 0 1-1 6.855 3.5 3.5 0 0 1-1-6.855v-7.29A3.502 3.502 0 0 1 3 5Zm14.5-1.5a1.5 1.5 0 1 0 0 3 1.5 1.5 0 0 0 0-3Zm-11 14a1.5 1.5 0 1 0 0 3 1.5 1.5 0 0 0 0-3Z" fill-rule="evenodd" style="color: inherit"/>
</svg>