<?xml version="1.0" encoding="utf-8"?>
<svg fill="#FFFFFF" viewBox="0 0 24 24" xmlns="http://www.w3.org/2000/svg">
<path _ngcontent-ng-c1909134112="" clip-rule="evenodd" d="M7 2.996c-1.105 0-2 .899-2 2v9.535c.59-.34 1.27-.535 2-.535h12v-11Zm12 13v4h-3a1 1 0 1 0 0 2h3c1.105 0 2-.894 2-2v-17c0-1.101-.895-2-2-2H7a4 4 0 0 0-4 4V18c0 1.184.516 2.25 1.332 2.98a1.005 1.005 0 0 0 1.414-.078 1.005 1.005 0 0 0-.078-1.414A2.002 2.002 0 0 1 7 15.996ZM7.5 18.5a1 1 0 0 1 1-1h4a1 1 0 0 1 1 1v4a.999.999 0 0 1-.617.922.998.998 0 0 1-1.09-.215L10.5 21.914l-1.293 1.293a.998.998 0 0 1-1.09.215.999.999 0 0 1-.617-.922Zm0 0" fill="#FFFFFF" fill-rule="evenodd" style="color: inherit"/>
</svg>