<?xml version="1.0" encoding="utf-8"?>
<svg fill="#FFFFFF" viewBox="0 0 24 24" xmlns="http://www.w3.org/2000/svg">
<path _ngcontent-ng-c1909134112="" clip-rule="evenodd" d="M7 3a1 1 0 0 0-1 1v1H4a2 2 0 0 0-2 2v2a4 4 0 0 0 4 4h.803A6.005 6.005 0 0 0 11 15.917V17h-.146a4 4 0 0 0-3.578 2.211l-.17.342a1 1 0 1 0 1.788.894l.171-.341A2 2 0 0 1 10.855 19h2.291a2 2 0 0 1 1.789 1.106l.17.341a1 1 0 1 0 1.79-.894l-.171-.342A4 4 0 0 0 13.146 17H13v-1.083A6.005 6.005 0 0 0 17.197 13H18a4 4 0 0 0 4-4V7a2 2 0 0 0-2-2h-2V4a1 1 0 0 0-1-1H7Zm1 7a4 4 0 0 0 8 0V5H8v5ZM6 7H4v2a2 2 0 0 0 2 2V7Zm12 3V7h2v2a2 2 0 0 1-2 2v-1Z" fill-rule="evenodd" style="color: inherit"/>
</svg>