<?xml version="1.0" encoding="utf-8"?>
<svg fill="#FFFFFF" viewBox="0 0 24 24" xmlns="http://www.w3.org/2000/svg">
<path _ngcontent-ng-c1909134112="" d="M37 45H11a3 3 0 0 1-3-3V6a3 3 0 0 1 3-3h19l10 10v29a3 3 0 0 1-3 3z" fill="#FFFFFF" style="color: inherit"/>
<path _ngcontent-ng-c1909134112="" d="M40 13H30V3z" fill="#FFFFFF" style="color: inherit"/>
<path _ngcontent-ng-c1909134112="" d="m30 13 10 10V13z" fill="#FFFFFF" style="color: inherit"/>
<path _ngcontent-ng-c1909134112="" d="M30 22H18c-1.1 0-2 .9-2 2v12c0 1.1.9 2 2 2h12c1.1 0 2-.9 2-2V24c0-1.1-.9-2-2-2zm0 4v8H18v-8h12z" fill="#FFFFFF" style="color: inherit"/>
</svg>