<?xml version="1.0" encoding="utf-8"?>
<svg fill="#FFFFFF" viewBox="0 0 24 24" xmlns="http://www.w3.org/2000/svg">
<path _ngcontent-ng-c1909134112="" d="m13.313 12 1.95 2.228 2.62 1.675.458-3.89-.457-3.802-2.672 1.472L13.313 12Z" fill="#FFFFFF" style="color: inherit"/>
<path _ngcontent-ng-c1909134112="" d="M2 15.542v3.314a1.37 1.37 0 0 0 1.371 1.372h3.314l.686-2.505-.686-2.18-2.274-.686L2 15.542Z" fill="#FFFFFF" style="color: inherit"/>
<path _ngcontent-ng-c1909134112="" d="M6.685 3.772 2 8.458l2.411.685 2.274-.685.674-2.151-.674-2.535Z" fill="#FFFFFF" style="color: inherit"/>
<path _ngcontent-ng-c1909134112="" d="M6.685 8.458H2v7.084h4.685V8.458Z" fill="#FFFFFF" style="color: inherit"/>
<path _ngcontent-ng-c1909134112="" d="m20.878 5.756-2.994 2.455v7.692l3.008 2.466A.686.686 0 0 0 22 17.828V6.286a.687.687 0 0 0-1.122-.53ZM13.313 12v3.542H6.685v4.686h9.828a1.37 1.37 0 0 0 1.37-1.372v-2.953L13.314 12Z" fill="#FFFFFF" style="color: inherit"/>
<path _ngcontent-ng-c1909134112="" d="M16.488 3.818H6.715v4.66h6.59V12l4.546-3.766V5.182c0-.754-.61-1.364-1.363-1.364Z" fill="#FFFFFF" style="color: inherit"/>
</svg>