<?xml version="1.0" encoding="utf-8"?>
<svg fill="#FFFFFF" viewBox="0 0 24 24" xmlns="http://www.w3.org/2000/svg">
<path _ngcontent-ng-c1909134112="" d="m3.512 18.427.882 1.535c.183.323.447.576.756.761l3.15-5.492H2c0 .357.092.715.275 1.038l1.237 2.158Z" fill="#FFFFFF" style="color: inherit"/>
<path _ngcontent-ng-c1909134112="" d="M12 8.77 8.85 3.276c-.31.185-.573.438-.756.761l-5.82 10.154A2.109 2.109 0 0 0 2 15.23h6.3L12 8.769Z" fill="#FFFFFF" style="color: inherit"/>
<path _ngcontent-ng-c1909134112="" d="M18.85 20.723c.31-.184.573-.438.756-.761l.366-.635 1.753-3.058c.183-.323.275-.68.275-1.038h-6.3l1.34 2.654 1.81 2.838Z" fill="#FFFFFF" style="color: inherit"/>
<path _ngcontent-ng-c1909134112="" d="m12 8.77 3.15-5.493A2.003 2.003 0 0 0 14.12 3H9.88c-.366 0-.72.104-1.03.277L12 8.769Z" fill="#FFFFFF" style="color: inherit"/>
<path _ngcontent-ng-c1909134112="" d="M15.7 15.23H8.3l-3.15 5.493A2 2 0 0 0 6.181 21h11.638a2.12 2.12 0 0 0 1.03-.277l-3.15-5.492Z" fill="#FFFFFF" style="color: inherit"/>
<path _ngcontent-ng-c1909134112="" d="m18.816 9.115-2.91-5.077a2.089 2.089 0 0 0-.756-.761L12 8.769l3.7 6.462h6.288c0-.358-.091-.716-.274-1.039l-2.898-5.077Z" fill="#FFFFFF" style="color: inherit"/>
</svg>