<?xml version="1.0" encoding="utf-8"?>
<svg fill="#FFFFFF" viewBox="0 0 24 24" xmlns="http://www.w3.org/2000/svg">
<path _ngcontent-ng-c1909134112="" d="M37 45H11a3 3 0 0 1-3-3V6a3 3 0 0 1 3-3h19l10 10v29a3 3 0 0 1-3 3z" fill="#FFFFFF" style="color: inherit"/>
<path _ngcontent-ng-c1909134112="" d="M40 13H30V3z" fill="#FFFFFF" style="color: inherit"/>
<path _ngcontent-ng-c1909134112="" d="m30 13 10 10V13z" fill="#FFFFFF" style="color: inherit"/>
<path _ngcontent-ng-c1909134112="" d="M31 23H15v14h18V23h-2zm-14 2h4v2h-4v-2zm0 4h4v2h-4v-2zm0 4h4v2h-4v-2zm14 2h-8v-2h8v2zm0-4h-8v-2h8v2zm0-4h-8v-2h8v2z" fill="#FFFFFF" style="color: inherit"/>
</svg>