<?xml version="1.0" encoding="utf-8"?>
<svg fill="#FFFFFF" viewBox="0 0 24 24" xmlns="http://www.w3.org/2000/svg">
<path _ngcontent-ng-c1909134112="" clip-rule="evenodd" d="M4.804 2.02a1 1 0 0 1 1.177.784L6.34 4.6c.357.044.834.099 1.384.154.956.096 2.123.19 3.275.228V3a1 1 0 1 1 2 0v1.983a50.325 50.325 0 0 0 3.276-.228c.55-.055 1.026-.11 1.384-.154l.36-1.797a1 1 0 1 1 1.96.392l-.205 1.03 1.03-.207a1 1 0 0 1 .391 1.962L19.4 6.34c-.044.358-.099.834-.154 1.384A50.37 50.37 0 0 0 19.017 11H21a1 1 0 0 1 0 2h-1.983a50.84 50.84 0 0 0 .228 3.275c.055.55.11 1.027.154 1.385l1.797.36a1 1 0 1 1-.392 1.96l-1.03-.205.207 1.029a1 1 0 0 1-1.961.392l-.36-1.797a62.04 62.04 0 0 0-1.384-.154A50.297 50.297 0 0 0 13 19.017V21a1 1 0 1 1-2 0v-1.983a50.182 50.182 0 0 0-3.275.228c-.55.055-1.027.11-1.385.154l-.36 1.797a1 1 0 0 1-1.96-.392l.205-1.03-1.029.206a1 1 0 0 1-.392-1.96l1.797-.36c.044-.358.1-.834.154-1.385.096-.956.19-2.123.228-3.275H3a1 1 0 1 1 0-2h1.983a50.334 50.334 0 0 0-.228-3.276c-.055-.55-.11-1.026-.154-1.384l-1.797-.36a1 1 0 0 1 .392-1.96l1.03.205-.206-1.029a1 1 0 0 1 .784-1.177Zm1.848 4.632c.03.262.061.556.093.873.1.995.2 2.237.239 3.475H11V6.984a51.996 51.996 0 0 1-3.474-.239 65.32 65.32 0 0 1-.874-.093ZM13 6.984V11h4.016c.039-1.238.14-2.48.24-3.475.03-.317.063-.611.093-.873-.263.03-.557.061-.874.093-.995.1-2.237.2-3.475.239ZM17.016 13H13v4.016c1.238.039 2.48.14 3.475.239.317.032.611.064.873.093-.03-.262-.061-.556-.093-.873-.1-.995-.2-2.237-.239-3.475ZM11 17.016V13H6.984a51.986 51.986 0 0 1-.239 3.474c-.032.318-.063.612-.093.874a65.6 65.6 0 0 1 .874-.093c.995-.1 2.236-.2 3.474-.239Z" fill-rule="evenodd" style="color: inherit"/>
</svg>