<?xml version="1.0" encoding="utf-8"?>
<svg fill="#FFFFFF" viewBox="0 0 24 24" xmlns="http://www.w3.org/2000/svg">
<path _ngcontent-ng-c1909134112="" d="M4 0h4a4 4 0 0 1 4 4v4a4 4 0 0 1-4 4H4a4 4 0 0 1-4-4V4a4 4 0 0 1 4-4Z" fill="#FFFFFF" style="color: inherit"/>
<path _ngcontent-ng-c1909134112="" clip-rule="evenodd" d="M4 3.501a.5.5 0 0 0-.5.5V8a.5.5 0 0 0 .5.5h4a.5.5 0 0 0 .5-.5V4.004a.5.5 0 0 0-.5-.5l-4-.003Zm-2 .5a2 2 0 0 1 2.002-2l4 .003a2 2 0 0 1 1.998 2V8a2 2 0 0 1-2 2H4a2 2 0 0 1-2-2V4.001Z" fill="#FFFFFF" fill-rule="evenodd" style="color: inherit"/>
</svg>