<?xml version="1.0" encoding="utf-8"?>
<svg fill="#FFFFFF" viewBox="0 0 24 24" xmlns="http://www.w3.org/2000/svg">
<path _ngcontent-ng-c1909134112="" d="M4 3h4a4 4 0 0 1 4 4v4a4 4 0 0 1-4 4H4a4 4 0 0 1-4-4V7a4 4 0 0 1 4-4Z" fill="#FFFFFF" style="color: inherit"/>
<path _ngcontent-ng-c1909134112="" clip-rule="evenodd" d="M4 6.501a.5.5 0 0 0-.5.5V11a.5.5 0 0 0 .5.5h4a.5.5 0 0 0 .5-.5V7.004a.5.5 0 0 0-.5-.5l-4-.003Zm-2 .5a2 2 0 0 1 2.002-2l4 .003a2 2 0 0 1 1.998 2V11a2 2 0 0 1-2 2H4a2 2 0 0 1-2-2V7.001Z" fill="#FFFFFF" fill-rule="evenodd" style="color: inherit"/>
<path _ngcontent-ng-c1909134112="" d="m14.2 4.65-.283.378A2.75 2.75 0 0 1 12 9.75H9a2.75 2.75 0 0 1-2.45-1.5l-.02-.04a2.75 2.75 0 0 1 .27-2.86l.283-.378A2.75 2.75 0 0 1 9 .25h3c1.034 0 1.98.58 2.45 1.5l.02.04a2.75 2.75 0 0 1-.27 2.86Z" fill="#FFFFFF" style="color: inherit"/>
<path _ngcontent-ng-c1909134112="" clip-rule="evenodd" d="M8.25 3A.75.75 0 0 1 9 2.25h3a.75.75 0 0 1 .6 1.2l-2.1 2.8H12a.75.75 0 0 1 0 1.5H9a.75.75 0 0 1-.6-1.2l2.1-2.8H9A.75.75 0 0 1 8.25 3Z" fill="#FFFFFF" fill-rule="evenodd" style="color: inherit"/>
</svg>