<?xml version="1.0" encoding="utf-8"?>
<svg fill="#FFFFFF" viewBox="0 0 24 24" xmlns="http://www.w3.org/2000/svg">
<path _ngcontent-ng-c1909134112="" clip-rule="evenodd" d="M17.354 5.977v.653l.227-.032c1.436-.203 2.719.926 2.719 2.394v5.139c0 .585-.067 1.169-.198 1.739l-1.179 5.115a1.05 1.05 0 0 1-1.023.815H9.193a1.05 1.05 0 0 1-.855-.441L3.652 14.78a2.435 2.435 0 0 1 .524-3.362 2.358 2.358 0 0 1 2.236-.32l.27.1V5.985c0-1.592 1.485-2.725 2.97-2.345l.156.04.072-.145c.862-1.739 3.328-1.81 4.252-.026l.074.142.155-.04c1.527-.4 2.992.787 2.992 2.367Zm1.47 8.154V8.99a.923.923 0 0 0-.287-.697.924.924 0 0 0-.627-.239.914.914 0 0 0-.628.245c-.178.168-.286.413-.286.719v2.98c0 .235-.19.426-.425.426h-.268a.425.425 0 0 1-.425-.425V5.977c0-.3-.109-.543-.285-.71a.935.935 0 0 0-.625-.253.904.904 0 0 0-.63.23c-.179.163-.288.404-.288.706V12c0 .234-.19.425-.425.425h-.268a.425.425 0 0 1-.425-.425V4.644c0-.3-.11-.543-.285-.71a.935.935 0 0 0-.625-.253.904.904 0 0 0-.63.23c-.18.163-.288.404-.288.706V12c0 .234-.19.425-.425.425h-.268A.425.425 0 0 1 9.986 12V6.01c0-.3-.11-.543-.286-.71a.935.935 0 0 0-.624-.253.905.905 0 0 0-.63.23c-.18.163-.289.405-.289.706v8.066c0 .412-.532.582-.771.247l-1.06-1.488a.878.878 0 0 0-.64-.389.924.924 0 0 0-.64.196c-.357.273-.55.809-.194 1.308l4.56 6.4h8.15l1.103-4.785c.106-.461.16-.935.16-1.408Z" fill-rule="evenodd" style="color: inherit"/>
</svg>