<?xml version="1.0" encoding="utf-8"?>
<svg fill="#FFFFFF" viewBox="0 0 24 24" xmlns="http://www.w3.org/2000/svg">
<path _ngcontent-ng-c1909134112="" clip-rule="evenodd" d="M11.117 3.935a.5.5 0 0 1 .683.183l3.5 6.062c.017.03.03.059.04.088a1 1 0 0 0 1.93-.163c.073-.43.157-.834.253-1.168.179-.62.513-1.411.827-2.09.159-.343.54-.557.967-.496l.047.006c.574.082.853.578.718 1.022-.283.93-.52 1.875-.52 3.782 0 .234-.003.46-.009.681a.996.996 0 0 0 .03.266A6.5 6.5 0 0 1 7.64 16.913l-.995-1.723-.003-.006-.002-.004-2.5-4.33a.5.5 0 1 1 .866-.5l.25.433.008.014 1.442 2.498a1 1 0 0 0 1.732-1l-2.1-3.638a.91.91 0 0 0-.006-.01l-.844-1.462a.5.5 0 1 1 .871-.49l2.495 4.32a1 1 0 1 0 1.732-1l-3-5.196a.935.935 0 0 0-.005-.01l-.245-.423a.5.5 0 1 1 .866-.5l1 1.732a.964.964 0 0 0 .005.009l2.245 3.888a1 1 0 1 0 1.732-1l-2.253-3.903a.5.5 0 0 1 .186-.677ZM6.519 1.971a2.5 2.5 0 0 0-1.222 2.543 2.502 2.502 0 0 0-1.541 3.671l.025.044a2.5 2.5 0 0 0-1.373 3.622l2.5 4.33.005.01.995 1.722a8.5 8.5 0 0 0 15.648-6.15c.004-.196.006-.397.006-.602 0-1.68.2-2.43.434-3.2.524-1.726-.677-3.345-2.349-3.584l-.047-.006c-1.248-.179-2.514.444-3.065 1.637-.183.395-.387.857-.57 1.324l-2.433-4.214a2.5 2.5 0 0 0-3.853-.595 2.5 2.5 0 0 0-3.16-.552Z" fill-rule="evenodd" style="color: inherit"/>
</svg>