<?xml version="1.0" encoding="utf-8"?>
<svg fill="#FFFFFF" viewBox="0 0 24 24" xmlns="http://www.w3.org/2000/svg">
<path _ngcontent-ng-c1909134112="" d="M10.869 14.272V21H9.728V10.889c0-.158.04-.296.079-.433.059-.138.137-.256.255-.374a1.21 1.21 0 0 1 .374-.236c.138-.06.275-.079.433-.079h3.364v3.364c0 .158-.02.295-.079.433a1.495 1.495 0 0 1-.236.374 1.469 1.469 0 0 1-.354.255c-.138.06-.275.08-.433.099l-2.262-.02ZM21 3.02v16.859c0 .63-.512 1.14-1.141 1.14h-1.121V4.142c0-.61.472-1.102 1.082-1.121H21Zm-4.505 0h1.102v16.859c0 .61-.492 1.121-1.102 1.14h-1.14V8.647c0-.157.038-.295.078-.433a.91.91 0 0 1 .255-.354 1.21 1.21 0 0 1 .374-.236c.138-.06.276-.079.433-.079V3.02ZM7.485 21H6.384V4.121c0-.61.472-1.101 1.082-1.121h1.16v12.354c0 .295-.118.59-.334.807a1.115 1.115 0 0 1-.807.334V21ZM3 21V4.121c0-.157.04-.295.079-.432a.91.91 0 0 1 .255-.355c.217-.216.492-.334.807-.314h1.102v16.859c0 .157-.02.295-.08.432a1.495 1.495 0 0 1-.235.374 1.08 1.08 0 0 1-.354.256 1.542 1.542 0 0 1-.433.098L3 21Z" fill="#FFFFFF" style="color: inherit"/>
</svg>