<?xml version="1.0" encoding="utf-8"?>
<svg fill="#FFFFFF" viewBox="0 0 24 24" xmlns="http://www.w3.org/2000/svg">
<path _ngcontent-ng-c1909134112="" clip-rule="evenodd" d="M1 4a1 1 0 0 1 1-1h4a1 1 0 0 1 0 2H5v14h1a1 1 0 1 1 0 2H2a1 1 0 1 1 0-2h1V5H2a1 1 0 0 1-1-1Zm9 0a1 1 0 0 1 1-1h4a1 1 0 1 1 0 2h-1v14h1a1 1 0 1 1 0 2h-4a1 1 0 1 1 0-2h1V5h-1a1 1 0 0 1-1-1Z" fill-rule="evenodd" style="color: inherit"/>
<path _ngcontent-ng-c1909134112="" d="M5 11h7v2H5v-2Zm12 2a1 1 0 0 1 1-1h4a1 1 0 1 1 0 2h-4a1 1 0 0 1-1-1Zm0 3.5a1 1 0 0 1 1-1h4a1 1 0 1 1 0 2h-4a1 1 0 0 1-1-1Zm0 3.5a1 1 0 0 1 1-1h4a1 1 0 1 1 0 2h-4a1 1 0 0 1-1-1Z" style="color: inherit"/>
<path _ngcontent-ng-c1909134112="" d="M22 12a1 1 0 0 1 1 1v7a1 1 0 1 1-2 0v-7a1 1 0 0 1 1-1Z" style="color: inherit"/>
</svg>