<?xml version="1.0" encoding="utf-8"?>
<svg fill="#FFFFFF" viewBox="0 0 24 24" xmlns="http://www.w3.org/2000/svg">
<path _ngcontent-ng-c1909134112="" clip-rule="evenodd" d="M3 5a3 3 0 0 1 3-3h12a3 3 0 0 1 3 3v12a1 1 0 0 1-.2.6l-.15.2a2 2 0 0 0 0 2.4l.15.2A1 1 0 0 1 20 22H6a3 3 0 0 1-3-3V5Zm2 14a1 1 0 0 0 1 1h12.377a4.006 4.006 0 0 1 0-2H6a1 1 0 0 0-1 1Zm14-3H9V4h9a1 1 0 0 1 1 1v11ZM7 4H6a1 1 0 0 0-1 1v11.17c.313-.11.65-.17 1-.17h1V4Zm3.5 3a1 1 0 0 1 1-1h5a1 1 0 1 1 0 2h-5a1 1 0 0 1-1-1Zm0 4a1 1 0 0 1 1-1h5a1 1 0 1 1 0 2h-5a1 1 0 0 1-1-1Z" fill-rule="evenodd" style="color: inherit"/>
</svg>