<?xml version="1.0" encoding="utf-8"?>
<svg fill="#FFFFFF" viewBox="0 0 24 24" xmlns="http://www.w3.org/2000/svg">
<path _ngcontent-ng-c1909134112="" clip-rule="evenodd" d="m8.533 19.267-1.526 1.526a1 1 0 0 1-1.414-1.414l13.7-13.7a1 1 0 1 1 1.414 1.414l-.996.996a16.872 16.872 0 0 1 2.046 3.17c.051.104.09.188.117.247l.032.07.009.02.003.006v.003c.001 0 .001.001-.918.395.92.394.919.394.919.395l-.002.003-.002.006-.01.02-.03.07a15.141 15.141 0 0 1-.569 1.095 16.74 16.74 0 0 1-1.797 2.562C17.922 18.003 15.42 20 12 20a8.552 8.552 0 0 1-3.467-.733ZM21 12l.92-.394a1 1 0 0 1 0 .788L21 12Zm-2.711-2.489A14.969 14.969 0 0 1 19.892 12a14.748 14.748 0 0 1-1.901 2.85C16.578 16.496 14.58 18 12 18a6.508 6.508 0 0 1-1.913-.287l1.718-1.718a4 4 0 0 0 4.19-4.19L18.29 9.51Zm-9.886 4.241 1.602-1.602a2 2 0 0 1 2.144-2.144l1.603-1.603a4 4 0 0 0-5.349 5.349ZM12 6c1.226 0 2.32.34 3.283.872l1.46-1.46C15.428 4.585 13.848 4 12 4 8.58 4 6.078 5.997 4.49 7.85a16.744 16.744 0 0 0-2.247 3.41 10.246 10.246 0 0 0-.149.315l-.009.02-.002.007-.001.002v.001c-.001 0-.001.001.918.395l-.92-.394a1 1 0 0 0 0 .788L3 12c-.92.394-.919.394-.919.395l.002.003.002.006.01.02a7.803 7.803 0 0 0 .148.317 16.743 16.743 0 0 0 2.248 3.41c.224.261.466.526.727.787l1.414-1.414a11.85 11.85 0 0 1-.623-.675A14.746 14.746 0 0 1 4.108 12 14.744 14.744 0 0 1 6.01 9.15C7.422 7.504 9.42 6 12 6Z" fill="#FFFFFF" fill-rule="evenodd" style="color: inherit"/>
</svg>