<?xml version="1.0" encoding="utf-8"?>
<svg fill="#FFFFFF" viewBox="0 0 24 24" xmlns="http://www.w3.org/2000/svg">
<path _ngcontent-ng-c1909134112="" clip-rule="evenodd" d="M2 5a3 3 0 0 1 3-3h14a3 3 0 1 1 0 6H6v2.286c0 .394.32.714.714.714h.457A3.001 3.001 0 0 1 10 9h4a3 3 0 1 1 0 6h-3v2.286c0 .394.32.714.714.714h.457A3.001 3.001 0 0 1 15 16h4a3 3 0 1 1 0 6h-4a3.001 3.001 0 0 1-2.83-2h-.456A2.714 2.714 0 0 1 9 17.286v-2.457A3.008 3.008 0 0 1 7.17 13h-.456A2.714 2.714 0 0 1 4 10.286V7.829A3.001 3.001 0 0 1 2 5Zm3-1a1 1 0 0 0 0 2h14a1 1 0 1 0 0-2H5Zm5 7a1 1 0 1 0 0 2h4a1 1 0 1 0 0-2h-4Zm5 7a1 1 0 1 0 0 2h4a1 1 0 1 0 0-2h-4Z" fill-rule="evenodd" style="color: inherit"/>
</svg>