<?xml version="1.0" encoding="utf-8"?>
<svg fill="#FFFFFF" viewBox="0 0 24 24" xmlns="http://www.w3.org/2000/svg">
<path _ngcontent-ng-c1909134112="" clip-rule="evenodd" d="m6.293 9.793-.195.195C6.974 7.108 9.68 5 12.9 5c3.933 0 7.1 3.146 7.1 7s-3.167 7-7.1 7a7.115 7.115 0 0 1-6.153-3.505 1 1 0 1 0-1.726 1.01A9.115 9.115 0 0 0 12.9 21c5.014 0 9.1-4.018 9.1-9s-4.086-9-9.1-9c-4.354 0-8.009 3.03-8.895 7.09l-.298-.297a1 1 0 0 0-1.414 1.414l2 2a1 1 0 0 0 1.414 0l2-2a1 1 0 0 0-1.414-1.414ZM14 8a1 1 0 1 0-2 0v4a1 1 0 0 0 1 1h3a1 1 0 1 0 0-2h-2V8Z" fill-rule="evenodd" style="color: inherit"/>
</svg>