<?xml version="1.0" encoding="utf-8"?>
<svg fill="#FFFFFF" viewBox="0 0 24 24" xmlns="http://www.w3.org/2000/svg">
<path _ngcontent-ng-c1909134112="" d="M20.25 14.5a.92.92 0 0 1-.917-.917V9.687c0-.375.312-.687.688-.687.376 0 .687.312.687.688v3.437h1.605c.375 0 .687.312.687.688a.693.693 0 0 1-.688.687H20.25Zm-4.583-4.134h.916v3.447c0 .375.312.687.688.687a.692.692 0 0 0 .687-.688V9.918A.92.92 0 0 0 17.042 9h-4.125a.92.92 0 0 0-.917.917v3.896c0 .375.312.687.688.687a.693.693 0 0 0 .687-.688v-3.437h.917v2.52c0 .377.311.688.687.688a.692.692 0 0 0 .688-.687v-2.53ZM5.583 9.688A.693.693 0 0 0 4.896 9a.693.693 0 0 0-.688.688v1.145H2.375V9.687A.693.693 0 0 0 1.687 9 .693.693 0 0 0 1 9.688v4.124c0 .376.312.688.688.688a.693.693 0 0 0 .687-.688v-1.604h1.833v1.604c0 .376.312.688.688.688a.693.693 0 0 0 .687-.688V9.689Zm4.813.687a.692.692 0 0 0 .687-.688.692.692 0 0 0-.687-.687H7.187a.693.693 0 0 0-.687.688c0 .375.312.687.688.687h.916v3.438c0 .375.312.687.688.687a.693.693 0 0 0 .687-.688v-3.437h.917Z" style="color: inherit"/>
</svg>