<?xml version="1.0" encoding="utf-8"?>
<svg fill="#FFFFFF" viewBox="0 0 24 24" xmlns="http://www.w3.org/2000/svg">
<path _ngcontent-ng-c1909134112="" d="M20.344 11.5a5.08 5.08 0 0 0-1.845-1.833 4.972 4.972 0 0 0-1.866-.647V6.583a1.785 1.785 0 0 0 1.102-1.673 1.83 1.83 0 0 0-1.831-1.84 1.846 1.846 0 0 0-1.847 1.84c0 .747.397 1.385 1.08 1.673v2.423a5.324 5.324 0 0 0-1.624.51L6.99 4.577c.046-.172.085-.35.085-.539a2.038 2.038 0 1 0-2.037 2.039c.385 0 .74-.113 1.047-.298l.427.324 5.852 4.219c-.31.283-.598.607-.829.97-.467.74-.752 1.553-.752 2.441v.183c.002.603.11 1.2.32 1.764.177.482.437.922.759 1.319l-1.944 1.948a1.568 1.568 0 0 0-1.656.363 1.577 1.577 0 0 0 2.23 2.228 1.575 1.575 0 0 0 .387-1.587l2.008-2.008c.275.19.572.35.893.488.658.289 1.37.439 2.088.44h.138c.842 0 1.637-.199 2.383-.603a4.927 4.927 0 0 0 1.868-1.76 4.607 4.607 0 0 0 .724-2.486v-.046c0-.896-.207-1.721-.64-2.478l.003.002Zm-2.452 4.214c-.545.606-1.172.98-1.88.98h-.134c-.405 0-.801-.112-1.187-.316a2.747 2.747 0 0 1-1.041-.948c-.28-.397-.433-.83-.433-1.29v-.137c0-.451.087-.88.305-1.284.233-.458.55-.786.969-1.06.42-.272.851-.404 1.342-.404h.046c.443 0 .865.087 1.262.29.402.212.743.522.992.902.246.381.398.815.444 1.267l.01.285c0 .62-.238 1.196-.712 1.718l.017-.003Z" fill="#FFFFFF" style="color: inherit"/>
</svg>