<?xml version="1.0" encoding="utf-8"?>
<svg fill="#FFFFFF" viewBox="0 0 24 24" xmlns="http://www.w3.org/2000/svg">
<path _ngcontent-ng-c1909134112="" clip-rule="evenodd" d="M7.815 17.136a9.09 9.09 0 0 1-1.4-1.237l-1.543 1.198c.91 1.092 3.188 3.303 6.649 3.303a.75.75 0 0 1 0 1.5c-4.442 0-7.184-3.038-8.019-4.113-.434-.559-.277-1.31.226-1.7l2.214-1.72a.906.906 0 0 1 1.265.154c.19.238.71.848 1.477 1.392.767.546 1.736.994 2.837.994a.75.75 0 0 1 0 1.5c-1.516 0-2.784-.616-3.706-1.27ZM18.5 15a.75.75 0 0 0-1.5 0v2.25h-2.25a.75.75 0 0 0 0 1.5H17V21a.75.75 0 1 0 1.5 0v-2.25h2.25a.75.75 0 1 0 0-1.5H18.5V15ZM10.662 2.205a1.25 1.25 0 0 1 1.636 0l6.78 5.868c.53.46.578 1.266.106 1.785l-1.829 2.01a1.25 1.25 0 0 1-1.733.11L11.48 8.463 7.337 11.98a1.25 1.25 0 0 1-1.733-.112l-1.829-2.01a1.249 1.249 0 0 1 .107-1.785l6.78-5.868Zm.818 1.276L5.058 9.039l1.493 1.64L10.93 6.96a.85.85 0 0 1 1.1 0l4.378 3.718 1.493-1.64L11.48 3.48Z" fill-rule="evenodd" style="color: inherit"/>
</svg>