<?xml version="1.0" encoding="utf-8"?>
<svg fill="#FFFFFF" viewBox="0 0 24 24" xmlns="http://www.w3.org/2000/svg">
<path _ngcontent-ng-c1909134112="" d="M10.368 9.369a1 1 0 1 0-2 0v1.579a1 1 0 1 0 2 0v-1.58Zm4.264-1a1 1 0 0 1 1 1v1.579a1 1 0 1 1-2 0v-1.58a1 1 0 0 1 1-1ZM8.288 13.8a1 1 0 0 1 1.399.293 3.043 3.043 0 0 0 .545.528c.397.298.981.59 1.768.59s1.371-.292 1.768-.59a3.043 3.043 0 0 0 .545-.527 1 1 0 1 1 1.677 1.093l-.832-.555.832.554-.001.002-.001.002-.003.004-.006.01-.018.025-.057.077a5.042 5.042 0 0 1-.936.916c-.655.49-1.65.989-2.968.989a4.896 4.896 0 0 1-2.968-.99 5.048 5.048 0 0 1-.936-.915 2.885 2.885 0 0 1-.056-.077l-.018-.026-.007-.01-.003-.003v-.002c-.001 0-.002-.002.83-.556l-.832.554a1 1 0 0 1 .278-1.386Z" style="color: inherit"/>
<path _ngcontent-ng-c1909134112="" clip-rule="evenodd" d="M12 2.053c-5.494 0-9.947 4.453-9.947 9.947 0 5.494 4.453 9.948 9.947 9.948 5.494 0 9.948-4.454 9.948-9.948 0-5.494-4.454-9.947-9.948-9.947ZM4.053 12a7.947 7.947 0 1 1 15.894 0 7.947 7.947 0 0 1-15.894 0Z" fill-rule="evenodd" style="color: inherit"/>
</svg>