<?xml version="1.0" encoding="utf-8"?>
<svg fill="#FFFFFF" viewBox="0 0 24 24" xmlns="http://www.w3.org/2000/svg">
<path _ngcontent-ng-c1909134112="" clip-rule="evenodd" d="M6.6 4A2.6 2.6 0 0 0 4 6.6v10.8a2.6 2.6 0 0 0 2.188 2.567l7.346-8.08.74.672-.74-.673a2.8 2.8 0 0 1 4.135-.008L20 14.42V6.6A2.6 2.6 0 0 0 17.4 4H6.6ZM22 17.377V6.6A4.6 4.6 0 0 0 17.4 2H6.6A4.6 4.6 0 0 0 2 6.6v10.8A4.6 4.6 0 0 0 6.6 22h10.92A4.48 4.48 0 0 0 22 17.52v-.143Zm-2 .015v-.006a.577.577 0 0 0-.02-.024 4.935 4.935 0 0 0-.14-.158l-.018-.02h-.001l-3.626-3.955a.801.801 0 0 0-1.182.003L8.861 20h8.543A2.6 2.6 0 0 0 20 17.4v-.008ZM8.85 7.6a1.25 1.25 0 1 0 0 2.5 1.25 1.25 0 0 0 0-2.5ZM5.6 8.85a3.25 3.25 0 1 1 6.5 0 3.25 3.25 0 0 1-6.5 0Z" fill-rule="evenodd" style="color: inherit"/>
</svg>