<?xml version="1.0" encoding="utf-8"?>
<svg fill="#FFFFFF" viewBox="0 0 24 24" xmlns="http://www.w3.org/2000/svg">
<path _ngcontent-ng-c1909134112="" d="M8.5 3A3.5 3.5 0 0 0 5 6.5v1.056a1 1 0 0 0 2 0V6.5A1.5 1.5 0 0 1 8.5 5h9A1.5 1.5 0 0 1 19 6.5v11a1.5 1.5 0 0 1-1.5 1.5h-9A1.5 1.5 0 0 1 7 17.5v-1.056a1 1 0 0 0-2 0V17.5A3.5 3.5 0 0 0 8.5 21h9a3.5 3.5 0 0 0 3.5-3.5v-11A3.5 3.5 0 0 0 17.5 3h-9Z" style="color: inherit"/>
<path _ngcontent-ng-c1909134112="" d="M12.707 8.293a1 1 0 1 0-1.414 1.414L12.586 11H3a1 1 0 1 0 0 2h9.586l-1.293 1.293a1 1 0 0 0 1.414 1.414l3-3a1 1 0 0 0 0-1.414l-3-3Z" style="color: inherit"/>
</svg>