<?xml version="1.0" encoding="utf-8"?>
<svg fill="#FFFFFF" viewBox="0 0 24 24" xmlns="http://www.w3.org/2000/svg">
<path _ngcontent-ng-c1909134112="" clip-rule="evenodd" d="M8.896 3.49a1 1 0 0 1-.451 1.341 7.989 7.989 0 0 0-.772.439A1 1 0 1 1 6.59 3.589c.31-.2.632-.384.965-.549a1 1 0 0 1 1.34.45ZM5.543 5.652a1 1 0 0 1 .167 1.404c-.365.464-.68.969-.936 1.506a1 1 0 1 1-1.805-.86 9.952 9.952 0 0 1 1.17-1.883 1 1 0 0 1 1.404-.167Zm-2.379 4.356a1 1 0 0 1 .885 1.104 8.098 8.098 0 0 0-.006 1.726 1 1 0 0 1-1.99.206 10.105 10.105 0 0 1 .008-2.151 1 1 0 0 1 1.103-.885Zm.205 4.74a1 1 0 0 1 1.32.506c.114.256.241.504.38.745a1 1 0 1 1-1.73 1.002 9.961 9.961 0 0 1-.477-.933 1 1 0 0 1 .507-1.32ZM11 3a1 1 0 0 1 1-1c5.523 0 10 4.477 10 10s-4.477 10-10 10a9.967 9.967 0 0 1-6.667-2.547 1 1 0 0 1 1.334-1.49A8 8 0 1 0 12 4a1 1 0 0 1-1-1Zm1 4a1 1 0 0 1 1 1v5a1 1 0 1 1-2 0V8a1 1 0 0 1 1-1Zm0 8a1 1 0 0 1 1 1v.5a1 1 0 1 1-2 0V16a1 1 0 0 1 1-1Z" fill-rule="evenodd" style="color: inherit"/>
</svg>