<?xml version="1.0" encoding="utf-8"?>
<svg fill="#FFFFFF" viewBox="0 0 24 24" xmlns="http://www.w3.org/2000/svg">
<path _ngcontent-ng-c1909134112="" d="m21.76 11.412-8.898-9.037L12 1.5l-9.76 9.912a.84.84 0 0 0 0 1.175l6.12 6.215L12 22.5l9.76-9.913a.84.84 0 0 0 0-1.175ZM12 15.104 8.943 12 12 8.895 15.057 12 12 15.104Z" fill="#FFFFFF" style="color: inherit"/>
<path _ngcontent-ng-c1909134112="" d="M11.999 8.895c-2.001-2.033-2.011-5.326-.021-7.37l-6.69 6.79 3.641 3.698 3.07-3.118Z" fill="#FFFFFF" style="color: inherit"/>
<path _ngcontent-ng-c1909134112="" d="M15.066 11.991 12 15.104a5.27 5.27 0 0 1 1.51 3.698A5.271 5.271 0 0 1 12 22.5l6.706-6.81-3.64-3.699Z" fill="#FFFFFF" style="color: inherit"/>
</svg>