<?xml version="1.0" encoding="utf-8"?>
<svg fill="#FFFFFF" viewBox="0 0 24 24" xmlns="http://www.w3.org/2000/svg">
<path _ngcontent-ng-c1909134112="" d="M6.71 10.29a1.15 1.15 0 0 0-.33-.21 1 1 0 0 0-1.09.21 1 1 0 0 0-.21.33 1 1 0 0 0 .21 1.09c.097.088.209.16.33.21a1 1 0 0 0 1.3-1.3 1 1 0 0 0-.21-.33Zm2.58-2.58a1 1 0 0 0 1.09.21 1.15 1.15 0 0 0 .33-.21 1.15 1.15 0 0 0 .21-.33.94.94 0 0 0 0-.76 1.15 1.15 0 0 0-.21-.33 1 1 0 0 0-1.42 0 1.15 1.15 0 0 0-.21.33.94.94 0 0 0 0 .76c.05.121.122.233.21.33ZM6.71 6.29a1 1 0 0 0-1.63 1.09c.05.121.122.233.21.33a1 1 0 0 0 1.09.21 1.15 1.15 0 0 0 .33-.21 1.15 1.15 0 0 0 .21-.33.94.94 0 0 0 0-.76 1.15 1.15 0 0 0-.21-.33Zm6.58 12L12 19.59l-1.29-1.3a1.004 1.004 0 0 0-1.42 1.42l2 2a1.002 1.002 0 0 0 1.42 0l2-2a1.004 1.004 0 1 0-1.42-1.42Zm5.42-12A1 1 0 0 0 17 7a.84.84 0 0 0 .08.38c.05.121.122.233.21.33a1 1 0 0 0 1.42 0 1.15 1.15 0 0 0 .21-.33A.84.84 0 0 0 19 7a1.001 1.001 0 0 0-.08-.38 1.15 1.15 0 0 0-.21-.33ZM14 10h-4a1 1 0 0 0 0 2h4a1 1 0 0 0 0-2Zm6-8H4a3 3 0 0 0-3 3v8a3 3 0 0 0 3 3h16a3 3 0 0 0 3-3V5a3 3 0 0 0-3-3Zm1 11a1 1 0 0 1-1 1H4a1 1 0 0 1-1-1V5a1 1 0 0 1 1-1h16a1 1 0 0 1 1 1v8Zm-2.29-2.71a1 1 0 0 0-.33-.21.92.92 0 0 0-.76 0 1.15 1.15 0 0 0-.33.21A1.05 1.05 0 0 0 17 11a1 1 0 1 0 1.92-.38 1 1 0 0 0-.21-.33Zm-5.09-4.21a1.15 1.15 0 0 0-.33.21A1.05 1.05 0 0 0 13 7c.002.13.029.26.08.38.05.121.122.233.21.33A1 1 0 0 0 14 8a.84.84 0 0 0 .38-.08 1.15 1.15 0 0 0 .33-.21 1.15 1.15 0 0 0 .21-.33A.84.84 0 0 0 15 7a1.05 1.05 0 0 0-.29-.71 1 1 0 0 0-1.09-.21Z" style="color: inherit"/>
</svg>