<?xml version="1.0" encoding="utf-8"?>
<svg fill="#FFFFFF" viewBox="0 0 24 24" xmlns="http://www.w3.org/2000/svg">
<path _ngcontent-ng-c1909134112="" clip-rule="evenodd" d="M18 20a2 2 0 0 0 2-2V6a2 2 0 0 0-2-2H6a2 2 0 0 0-2 2v12a2 2 0 0 0 2 2h12Zm4-2a4 4 0 0 1-4 4H6a4 4 0 0 1-4-4V6a4 4 0 0 1 4-4h12a4 4 0 0 1 4 4v12ZM12.854 7.854A.5.5 0 0 1 13.207 7H16.5a.5.5 0 0 1 .5.5v3.293a.5.5 0 0 1-.854.353l-3.292-3.292ZM10.793 17a.5.5 0 0 0 .353-.854l-3.292-3.292a.5.5 0 0 0-.854.353V16.5a.5.5 0 0 0 .5.5h3.293Z" fill="#FFFFFF" fill-rule="evenodd" style="color: inherit"/>
</svg>