<?xml version="1.0" encoding="utf-8"?>
<svg fill="#FFFFFF" viewBox="0 0 24 24" xmlns="http://www.w3.org/2000/svg">
<path _ngcontent-ng-c1909134112="" clip-rule="evenodd" d="M10 4a1 1 0 1 0 2 0V3a1 1 0 1 0-2 0v1Zm7.364 2.05a1 1 0 1 0-1.414-1.414l-.707.707a1 1 0 0 0 1.414 1.414l.707-.707ZM20 11a1 1 0 0 1-1 1h-1a1 1 0 1 1 0-2h1a1 1 0 0 1 1 1ZM2 11a1 1 0 0 1 1-1h1a1 1 0 1 1 0 2H3a1 1 0 0 1-1-1Zm2.636-6.364a1 1 0 0 1 1.414 0l.707.707a1 1 0 0 1-1.414 1.414l-.707-.707a1 1 0 0 1 0-1.414ZM9 21a1 1 0 0 1 1-1h2a1 1 0 1 1 0 2h-2a1 1 0 0 1-1-1Zm2-13a3 3 0 0 0-1.5 5.6 1 1 0 0 1 .5.888V16a1 1 0 1 0 2 0v-1.512a1 1 0 0 1 .5-.889A3 3 0 0 0 11 8Zm-5 3a4.99 4.99 0 0 0 2 4v1a3 3 0 1 0 6 0v-1a5 5 0 1 0-8-4Z" fill="#FFFFFF" fill-rule="evenodd" style="color: inherit"/>
</svg>