<?xml version="1.0" encoding="utf-8"?>
<svg fill="#FFFFFF" viewBox="0 0 24 24" xmlns="http://www.w3.org/2000/svg">
<path _ngcontent-ng-c1909134112="" clip-rule="evenodd" d="M12.264 5.785a1.5 1.5 0 1 1 2.598 1.5C14.165 8.492 15.035 10 16.428 10h1.602a2 2 0 0 1 1.852 2.757l-2.046 5A2 2 0 0 1 15.986 19H11a2 2 0 0 1-2-2v-5c0-.462.156-.885.418-1.224.271-.35.474-.733.624-1.11.027-.068.059-.135.097-.2l2.125-3.681ZM8.267 8.732c.043-.09.089-.18.14-.267l2.124-3.68A3.5 3.5 0 0 1 16.741 8h1.29c2.844 0 4.78 2.883 3.703 5.514l-2.046 5A4 4 0 0 1 15.986 21H11a3.984 3.984 0 0 1-2.558-.925A2.495 2.495 0 0 1 6.5 21H5.25A3.25 3.25 0 0 1 2 17.75v-6.5A3.25 3.25 0 0 1 5.25 8H6.5c.69 0 1.315.28 1.767.732ZM7 12v-1.5a.5.5 0 0 0-.5-.5H5.25C4.56 10 4 10.56 4 11.25v6.5c0 .69.56 1.25 1.25 1.25H6.5a.5.5 0 0 0 .5-.5V12Z" fill-rule="evenodd" style="color: inherit"/>
</svg>