<?xml version="1.0" encoding="utf-8"?>
<svg fill="#FFFFFF" viewBox="0 0 24 24" xmlns="http://www.w3.org/2000/svg">
<path _ngcontent-ng-c1909134112="" clip-rule="evenodd" d="M17.183 7a5 5 0 0 1 5 5v.486a5 5 0 0 1-5 5H13.91a1 1 0 0 1 0-2h3.273a3 3 0 0 0 3-3V12a3 3 0 0 0-3-3H13.91a1 1 0 1 1 0-2h3.273ZM2 12a5 5 0 0 1 5-5h3.273a1 1 0 1 1 0 2H7a3 3 0 0 0-3 3v.486a3 3 0 0 0 3 3h3.273a1 1 0 1 1 0 2H7a5 5 0 0 1-5-5V12Zm4.849.243a1 1 0 0 1 1-1h8.485a1 1 0 1 1 0 2H7.85a1 1 0 0 1-1-1Z" fill-rule="evenodd" style="color: inherit"/>
</svg>