<?xml version="1.0" encoding="utf-8"?>
<svg fill="#FFFFFF" viewBox="0 0 24 24" xmlns="http://www.w3.org/2000/svg">
<path _ngcontent-ng-c1909134112="" clip-rule="evenodd" d="M11.843 3.743a5.95 5.95 0 1 1 8.414 8.414l-2.55 2.55a1 1 0 0 1-1.414-1.414l2.55-2.55a3.95 3.95 0 1 0-5.586-5.586l-2.55 2.55a1 1 0 1 1-1.414-1.414l2.55-2.55Zm2.45 4.55a1 1 0 1 1 1.414 1.414l-6 6a1 1 0 0 1-1.414-1.414l6-6Zm-6.586 1a1 1 0 0 1 0 1.414l-2.55 2.55a3.95 3.95 0 0 0 5.586 5.586l2.55-2.55a1 1 0 1 1 1.414 1.414l-2.55 2.55a5.95 5.95 0 1 1-8.414-8.414l2.55-2.55a1 1 0 0 1 1.414 0Z" fill-rule="evenodd" style="color: inherit"/>
</svg>