<?xml version="1.0" encoding="utf-8"?>
<svg fill="#FFFFFF" viewBox="0 0 24 24" xmlns="http://www.w3.org/2000/svg">
<path _ngcontent-ng-c1909134112="" d="M2.883 4.073c0-.712.596-1.29 1.33-1.29h15.34c.735 0 1.33.578 1.33 1.29v15.421c0 .712-.595 1.29-1.33 1.29H4.213c-.734 0-1.33-.578-1.33-1.29V4.073Z" fill="#FFFFFF" style="color: inherit"/>
<path _ngcontent-ng-c1909134112="" clip-rule="evenodd" d="M8.34 17.851V9.723H5.62v8.128h2.72ZM6.98 8.614c.948 0 1.538-.625 1.538-1.405-.017-.797-.59-1.404-1.52-1.404S5.46 6.412 5.46 7.21c0 .78.59 1.405 1.503 1.405h.017Zm2.864 9.237h2.719v-4.539c0-.243.017-.485.09-.659.196-.485.643-.988 1.394-.988.984 0 1.377.745 1.377 1.838v4.348h2.719v-4.66c0-2.497-1.341-3.658-3.13-3.658-1.467 0-2.092.814-2.45 1.37v-1.18H9.844c.036.763 0 8.128 0 8.128Z" fill="#FFFFFF" fill-rule="evenodd" style="color: inherit"/>
</svg>