<?xml version="1.0" encoding="utf-8"?>
<svg fill="#FFFFFF" viewBox="0 0 24 24" xmlns="http://www.w3.org/2000/svg">
<path _ngcontent-ng-c1909134112="" clip-rule="evenodd" d="M7 4a1 1 0 1 0 0 2 1 1 0 0 0 0-2ZM4 5a3 3 0 0 1 5.83-1h4.34a3.001 3.001 0 1 1 0 2H9.83A3.001 3.001 0 0 1 4 5Zm13-1a1 1 0 1 0 0 2 1 1 0 0 0 0-2ZM4 11a1 1 0 1 0 0 2 1 1 0 0 0 0-2Zm-3 1a3 3 0 0 1 5.83-1h10.34a3.001 3.001 0 1 1 0 2H6.83A3.001 3.001 0 0 1 1 12Zm19-1a1 1 0 1 0 0 2 1 1 0 0 0 0-2ZM7 18a1 1 0 1 0 0 2 1 1 0 0 0 0-2Zm-3 1a3 3 0 0 1 5.83-1h4.34a3.001 3.001 0 1 1 0 2H9.83A3.001 3.001 0 0 1 4 19Zm13-1a1 1 0 1 0 0 2 1 1 0 0 0 0-2Z" fill="#FFFFFF" fill-rule="evenodd" style="color: inherit"/>
</svg>