<?xml version="1.0" encoding="utf-8"?>
<svg fill="#FFFFFF" viewBox="0 0 24 24" xmlns="http://www.w3.org/2000/svg">
<path _ngcontent-ng-c1909134112="" clip-rule="evenodd" d="M3 11a9 9 0 0 1 18 0c0 3.399-1.976 6.145-3.943 7.981a16.81 16.81 0 0 1-2.878 2.162 9.93 9.93 0 0 1-1.16.595c-.286.12-.671.262-1.019.262-.348 0-.733-.142-1.02-.262a10.066 10.066 0 0 1-1.159-.595 16.81 16.81 0 0 1-2.878-2.162C4.975 17.145 3 14.4 3 11Zm9-7a7 7 0 0 0-7 7c0 2.601 1.525 4.855 3.307 6.519.88.822 1.79 1.466 2.528 1.9.37.218.685.376.923.476.119.05.198.077.242.09.044-.013.123-.04.242-.09.238-.1.553-.258.923-.476a14.803 14.803 0 0 0 2.528-1.9C17.476 15.855 19 13.6 19 11a7 7 0 0 0-7-7Zm-3 7a3 3 0 1 1 6 0 3 3 0 0 1-6 0Zm3-1a1 1 0 1 0 0 2 1 1 0 0 0 0-2Z" fill-rule="evenodd" style="color: inherit"/>
</svg>