<?xml version="1.0" encoding="utf-8"?>
<svg fill="#FFFFFF" viewBox="0 0 24 24" xmlns="http://www.w3.org/2000/svg">
<path _ngcontent-ng-c1909134112="" clip-rule="evenodd" d="M2 7.727A2.727 2.727 0 0 1 4.727 5h14.546A2.727 2.727 0 0 1 22 7.727v9.091a2.727 2.727 0 0 1-2.727 2.727H4.727A2.727 2.727 0 0 1 2 16.819v-9.09Zm2.727-.909a.91.91 0 0 0-.909.91v9.09c0 .502.407.91.91.91h14.545a.91.91 0 0 0 .909-.91v-9.09a.91.91 0 0 0-.91-.91H4.728Z" fill-rule="evenodd" style="color: inherit"/>
<path _ngcontent-ng-c1909134112="" d="M5.818 15a.182.182 0 0 1-.182-.182v-5.09c0-.101.082-.183.182-.183h1.374c.055 0 .107.025.141.067L8.78 11.38a.182.182 0 0 0 .281 0l1.447-1.767a.182.182 0 0 1 .141-.067h1.375c.1 0 .181.082.181.182v5.091c0 .1-.081.182-.181.182h-1.28a.182.182 0 0 1-.181-.182v-2.437a.182.182 0 0 0-.322-.116l-1.18 1.44a.182.182 0 0 1-.28 0l-1.18-1.44a.182.182 0 0 0-.322.116v2.437c0 .1-.082.182-.182.182H5.818Zm10.215-.143a.182.182 0 0 1-.266 0l-2.046-2.198a.182.182 0 0 1 .133-.306h1.043c.1 0 .182-.082.182-.182V9.727c0-.1.082-.182.182-.182h1.279c.1 0 .181.082.181.182v2.444c0 .1.082.182.182.182h1.043c.159 0 .241.19.133.306l-2.046 2.198Z" style="color: inherit"/>
</svg>