<?xml version="1.0" encoding="utf-8"?>
<svg fill="#FFFFFF" viewBox="0 0 24 24" xmlns="http://www.w3.org/2000/svg">
<path _ngcontent-ng-c1909134112="" clip-rule="evenodd" d="M9.18 1.798a.667.667 0 0 1 .912.244l.217.377a.643.643 0 0 1 .039.067l3.975 6.885a.67.67 0 0 1 .037.064l.217.376a.667.667 0 0 1-1.143.687l-4.02.933c.094.362.104.76-.029 1.153a2.318 2.318 0 0 1-4.239.552l-.001-.003-.362-.626-1.924.446a.667.667 0 0 1-.728-.316l-.709-1.226a.667.667 0 0 1 .09-.789l7.415-7.93a.667.667 0 0 1 .254-.894ZM6.14 12.191l.158.273a.986.986 0 0 0 1.805-.246.711.711 0 0 0 .012-.485l-1.974.458Z" fill-rule="evenodd" style="color: inherit"/>
</svg>