<?xml version="1.0" encoding="utf-8"?>
<svg fill="#FFFFFF" viewBox="0 0 24 24" xmlns="http://www.w3.org/2000/svg">
<path _ngcontent-ng-c1909134112="" d="M166.747 113.557c-1.339-2.403-4.491-3.309-7.012-2.009-8.195 4.255-16.311 6.855-24.348 7.801 4.176-2.404 7.013-6.777 7.013-11.78 0-7.604-6.461-13.79-14.42-13.79-7.958 0-14.38 6.186-14.38 13.79 0 4.964 2.758 9.298 6.855 11.74-7.761-1.063-15.562-3.624-23.402-7.722-2.521-1.339-5.673-.433-7.052 1.931-1.379 2.443-.433 5.437 2.049 6.737 11.977 6.303 24.072 9.455 36.206 9.455 12.134 0 24.308-3.152 36.403-9.416 2.522-1.3 3.467-4.333 2.088-6.737Zm58.978-50.586a50.38 50.38 0 0 0-27.538-8.155H57.813c-10.243 0-19.698 3.033-27.538 8.116C51.746 33.422 87.519 14 128.02 14c40.5 0 76.194 19.383 97.666 48.892l.039.079ZM79.64 87.752c0 3.152-1.025 6.225-2.876 8.825a16.117 16.117 0 0 1-7.762 5.792l-56.26 19.659h-.039l-3.506 1.221c.946-13.946 4.373-26.2 8.155-35.93l6.343-2.207 34.158-11.897c8.392-2.955 17.729 1.181 20.802 9.218.67 1.773.985 3.546.985 5.32Zm166.887 35.379-4.058-1.418-55.353-19.345c-6.579-2.324-10.677-8.273-10.677-14.616 0-1.773.315-3.546.985-5.319 3.073-8.037 12.41-12.174 20.841-9.258l33.725 11.78 5.87 2.048c3.821 9.89 7.407 22.26 8.667 36.128Zm.394 14.144v78.282c0 14.38-12.134 26.003-27.145 26.003H39.415c-16.784 0-30.376-13.002-30.376-29.036v-78.165c5.28 17.611 22.3 30.533 42.431 30.533H207.8c18.399 0 34-11.74 39.083-27.775v.158h.039Z" fill="#FFFFFF" style="color: inherit"/>
<path _ngcontent-ng-c1909134112="" d="m246.527 123.131-4.058-1.418-55.353-19.345c-6.579-2.324-10.677-8.273-10.677-14.616 0-1.773.315-3.546.985-5.319 3.073-8.037 12.41-12.174 20.841-9.258l33.725 11.78 5.87 2.048c-5.398-13.907-11.347-22.89-12.095-23.993h-.04c-7.879-5.16-17.334-8.194-27.538-8.194H57.813c-10.243 0-19.698 3.033-27.538 8.116 0 0-6.934 9.14-12.923 24.387l6.343-2.207 34.158-11.898c8.392-2.954 17.729 1.182 20.802 9.22.67 1.772.985 3.545.985 5.318 0 3.152-1.025 6.225-2.876 8.825a16.109 16.109 0 0 1-7.762 5.791l-56.26 19.66h-.039l-3.506 1.221a129.237 129.237 0 0 0-.158 11.11c5.28 17.611 22.3 30.533 42.431 30.533H207.8c18.398 0 34-11.74 39.082-27.775 0-.039.039-.079.039-.118.158-4.728 0-9.377-.394-13.868Zm-81.868-2.837c-12.095 6.264-24.268 9.416-36.403 9.416-12.134 0-24.229-3.152-36.206-9.455-2.482-1.3-3.428-4.294-2.049-6.698 1.38-2.403 4.53-3.309 7.052-1.97 7.84 4.098 15.641 6.659 23.402 7.722-4.097-2.442-6.855-6.776-6.855-11.74 0-7.604 6.422-13.79 14.38-13.79 7.959 0 14.42 6.186 14.42 13.79 0 5.003-2.837 9.376-7.013 11.78 8.037-.946 16.153-3.546 24.348-7.801 2.521-1.3 5.673-.394 7.012 2.009 1.379 2.404.434 5.437-2.088 6.737Z" fill="#FFFFFF" style="color: inherit"/>
</svg>