<?xml version="1.0" encoding="utf-8"?>
<svg fill="#FFFFFF" viewBox="0 0 24 24" xmlns="http://www.w3.org/2000/svg">
<path _ngcontent-ng-c1909134112="" clip-rule="evenodd" d="M10.996 4.418a1.42 1.42 0 0 1 2.008 0l6.578 6.578a1.42 1.42 0 0 1 0 2.008l-6.578 6.578a1.42 1.42 0 0 1-2.008 0l-6.578-6.578a1.42 1.42 0 0 1 0-2.008l6.578-6.578Zm3.422-1.414a3.42 3.42 0 0 0-4.836 0L3.004 9.582a3.42 3.42 0 0 0 0 4.836l6.578 6.578a3.42 3.42 0 0 0 4.836 0l6.578-6.578a3.42 3.42 0 0 0 0-4.836l-6.578-6.578Zm1.79 8.203a1 1 0 0 0-1.415-1.414L11.5 13.086l-1.293-1.293a1 1 0 0 0-1.414 1.414l2 2a1 1 0 0 0 1.414 0l4-4Z" fill-rule="evenodd" style="color: inherit"/>
</svg>