<?xml version="1.0" encoding="utf-8"?>
<svg fill="#FFFFFF" viewBox="0 0 24 24" xmlns="http://www.w3.org/2000/svg">
<path _ngcontent-ng-c1909134112="" clip-rule="evenodd" d="M6.366 11.118c-.19.223-.265.36-.3.47a1.332 1.332 0 0 0 0 .824c.035.11.11.247.3.47.195.23.469.504.872.908l2.972 2.972c.404.403.678.677.907.872.224.19.36.265.471.3.268.088.556.088.824 0 .11-.035.247-.11.47-.3.23-.195.504-.469.908-.872l2.972-2.972c.403-.404.677-.678.872-.908.19-.223.265-.36.3-.47a1.333 1.333 0 0 0 0-.824c-.035-.11-.11-.247-.3-.47-.195-.23-.469-.504-.872-.908L13.79 7.238c-.404-.403-.678-.677-.907-.872-.224-.19-.36-.265-.471-.3a1.332 1.332 0 0 0-.824 0c-.11.035-.247.11-.47.3-.23.195-.504.469-.908.872L7.238 10.21c-.403.404-.677.678-.872.908Z" fill="#FFFFFF" fill-rule="evenodd" style="color: inherit"/>
<path _ngcontent-ng-c1909134112="" clip-rule="evenodd" d="M3.414 7.93 7.93 3.415c.569-.57 1.038-1.039 1.452-1.39.43-.365.864-.66 1.382-.828a3.997 3.997 0 0 1 2.47 0c.518.168.953.463 1.382.828.414.351.883.82 1.452 1.39l4.518 4.517c.568.569 1.038 1.038 1.389 1.452.365.43.66.864.828 1.382a3.994 3.994 0 0 1 0 2.47c-.168.518-.463.953-.828 1.382-.351.414-.82.883-1.39 1.452l-4.517 4.518c-.568.568-1.038 1.038-1.452 1.389-.43.365-.864.66-1.382.828a3.994 3.994 0 0 1-2.47 0c-.518-.168-.953-.463-1.382-.828-.414-.351-.883-.82-1.452-1.39L3.414 16.07c-.57-.568-1.039-1.038-1.39-1.452-.365-.43-.66-.864-.828-1.382a3.997 3.997 0 0 1 0-2.47c.168-.518.463-.953.828-1.382.351-.414.82-.883 1.39-1.452Zm.134 2.746c-.285.335-.397.54-.452.706-.13.402-.13.834 0 1.236.055.166.167.37.452.706.292.344.703.756 1.308 1.361l4.459 4.459c.605.605 1.017 1.016 1.361 1.308.335.285.54.397.706.451.402.13.834.13 1.236 0 .166-.054.37-.166.706-.45.344-.293.756-.704 1.361-1.309l4.459-4.459c.605-.605 1.016-1.017 1.308-1.361.285-.335.397-.54.451-.706a1.993 1.993 0 0 0 0-1.236c-.054-.166-.166-.37-.45-.706-.293-.344-.704-.756-1.309-1.361l-4.459-4.459c-.605-.605-1.017-1.016-1.361-1.308-.335-.285-.54-.397-.706-.452a1.999 1.999 0 0 0-1.236 0c-.166.055-.37.167-.706.452-.344.292-.756.703-1.361 1.308L4.856 9.315c-.605.605-1.016 1.017-1.308 1.361Z" fill="#FFFFFF" fill-rule="evenodd" style="color: inherit"/>
</svg>