<?xml version="1.0" encoding="utf-8"?>
<svg fill="#FFFFFF" viewBox="0 0 24 24" xmlns="http://www.w3.org/2000/svg">
<path _ngcontent-ng-c1909134112="" clip-rule="evenodd" d="M14.81 2.164a3.974 3.974 0 0 0-5.62 0L2.164 9.19a3.974 3.974 0 0 0 0 5.62l7.026 7.026a3.974 3.974 0 0 0 5.62 0l7.026-7.026a3.974 3.974 0 0 0 0-5.62L14.81 2.164Zm2.364 6.65a.994.994 0 0 1 0 1.405l-5.962 5.961a.994.994 0 0 1-1.405 0l-2.98-2.98a.994.994 0 0 1 1.405-1.406l2.278 2.278 5.259-5.259a.994.994 0 0 1 1.405 0Z" fill-rule="evenodd" style="color: inherit"/>
</svg>