<?xml version="1.0" encoding="utf-8"?>
<svg fill="#FFFFFF" viewBox="0 0 24 24" xmlns="http://www.w3.org/2000/svg">
<path _ngcontent-ng-c1909134112="" clip-rule="evenodd" d="M18.483 4.26a.889.889 0 0 1 1.257 1.257l-3.816 3.816h1.854a.889.889 0 0 1 0 1.778h-4a.889.889 0 0 1-.89-.889v-4a.889.889 0 0 1 1.779 0v1.854l3.816-3.816ZM5.517 19.74a.889.889 0 0 1-1.257-1.257l3.816-3.816H6.222a.889.889 0 0 1 0-1.778h4a.89.89 0 0 1 .89.889v4a.889.889 0 0 1-1.779 0v-1.854L5.517 19.74Z" fill-rule="evenodd" style="color: inherit"/>
</svg>