<?xml version="1.0" encoding="utf-8"?>
<svg fill="#FFFFFF" viewBox="0 0 24 24" xmlns="http://www.w3.org/2000/svg">
<path _ngcontent-ng-c1909134112="" clip-rule="evenodd" d="M5 20c-1.657 0-3-1.342-3-2.999V6.996A2.997 2.997 0 0 1 5 4h5a1 1 0 0 1 .707.293L12.414 6H19a3 3 0 0 1 3 3v3a1 1 0 1 1-2 0V9a1 1 0 0 0-1-1h-7a1 1 0 0 1-.707-.293L9.586 6H5c-.555 0-1 .446-1 .996v10.005c0 .552.447.999 1 .999h7v2H5Zm7-1v1a1 1 0 0 0 0-2v1Zm1.293-5.707a1 1 0 0 1 1.414 0L20 18.586V17a1 1 0 1 1 2 0v4a1 1 0 0 1-1 1h-4a1 1 0 1 1 0-2h1.586l-5.293-5.293a1 1 0 0 1 0-1.414Z" fill="#FFFFFF" fill-rule="evenodd" style="color: inherit"/>
</svg>