<?xml version="1.0" encoding="utf-8"?>
<svg fill="#FFFFFF" viewBox="0 0 24 24" xmlns="http://www.w3.org/2000/svg">
<path _ngcontent-ng-c1909134112="" d="M6.5 3A3.5 3.5 0 0 0 3 6.5v11A3.5 3.5 0 0 0 6.5 21h9a3.5 3.5 0 0 0 3.5-3.5h-2a1.5 1.5 0 0 1-1.5 1.5h-9A1.5 1.5 0 0 1 5 17.5v-11A1.5 1.5 0 0 1 6.5 5h9A1.5 1.5 0 0 1 17 6.5h2A3.5 3.5 0 0 0 15.5 3h-9Z" style="color: inherit"/>
<path _ngcontent-ng-c1909134112="" d="M16.707 9.293a1 1 0 0 0-1.414 1.414L16.586 12l-1.293 1.293a1 1 0 0 0 1.414 1.414L18 13.414l1.293 1.293a1 1 0 0 0 1.414-1.414L19.414 12l1.293-1.293a1 1 0 0 0-1.414-1.414L18 10.586l-1.293-1.293Z" style="color: inherit"/>
</svg>