<?xml version="1.0" encoding="utf-8"?>
<svg fill="#FFFFFF" viewBox="0 0 24 24" xmlns="http://www.w3.org/2000/svg">
<path _ngcontent-ng-c1909134112="" clip-rule="evenodd" d="M4.108 15.893A8.333 8.333 0 1 0 15.893 4.108 8.333 8.333 0 0 0 4.108 15.893Zm8.773-7.595a.833.833 0 0 0-1.179-1.179L10 8.822 8.298 7.119a.833.833 0 1 0-1.179 1.179L8.822 10l-1.834 1.833a.833.833 0 1 0 1.179 1.179L10 11.179l1.833 1.833a.833.833 0 1 0 1.179-1.179L11.179 10l1.702-1.702Z" fill="#FFFFFF" fill-rule="evenodd" style="color: inherit"/>
</svg>