<?xml version="1.0" encoding="utf-8"?>
<svg fill="#FFFFFF" viewBox="0 0 24 24" xmlns="http://www.w3.org/2000/svg">
<path _ngcontent-ng-c1909134112="" d="M15.26 6.844c-.84-.568-1.618-.904-2.319-1.07v2.982l-1.882-2V5.739c-.263.06-.502.15-.715.257L8.964 4.53a4.757 4.757 0 0 1 2.095-.824V3c0-.552.421-1 .941-1s.941.448.941 1v.744c1.059.185 2.189.641 3.329 1.412.439.297.568.915.289 1.38-.28.467-.861.604-1.3.308Z" fill="#FFFFFF" style="color: inherit"/>
<path _ngcontent-ng-c1909134112="" clip-rule="evenodd" d="M5.607 3.793a.903.903 0 0 0-1.331 0 1.045 1.045 0 0 0 0 1.414l2.89 3.07c.047.77.299 1.547.757 2.278.6.957 1.56 1.405 2.432 1.675.231.071.468.133.704.19v5.297a6.59 6.59 0 0 1-2.682-1.476.903.903 0 0 0-1.327.108c-.338.42-.292 1.05.102 1.41a8.413 8.413 0 0 0 3.907 2.009V21c0 .552.421 1 .941 1s.941-.448.941-1v-1.082c.181-.01.36-.027.536-.052 1.026-.145 2.007-.555 2.744-1.296.108-.11.21-.225.306-.346l1.866 1.983c.368.39.964.39 1.331 0a1.045 1.045 0 0 0 0-1.414l-14.117-15Zm7.334 10.621 2.244 2.384a1.98 1.98 0 0 1-.259.32c-.38.383-.958.661-1.697.766-.095.013-.19.023-.288.03v-3.5Z" fill="#FFFFFF" fill-rule="evenodd" style="color: inherit"/>
</svg>