<?xml version="1.0" encoding="utf-8"?>
<svg fill="#FFFFFF" viewBox="0 0 24 24" xmlns="http://www.w3.org/2000/svg">
<path _ngcontent-ng-c1909134112="" clip-rule="evenodd" d="M13.5 3a1 1 0 0 1 1-1h7a1 1 0 1 1 0 2h-.18l-.34 1.696a1 1 0 0 1-.38.604l-.933.7.933.7a1 1 0 0 1 .38.604L21.32 10h.18a1 1 0 1 1 0 2h-7a1 1 0 1 1 0-2h.18l.34-1.696a1 1 0 0 1 .38-.604l.933-.7-.933-.7a1 1 0 0 1-.38-.604L14.68 4h-.18a1 1 0 0 1-1-1Zm3.22 1 .186.93L18 5.75l1.094-.82.186-.93h-2.56ZM18 8.25l-1.094.82-.186.93h2.56l-.186-.93L18 8.25ZM7 6a2 2 0 0 0-2 2v10a2 2 0 0 0 2 2h10a2 2 0 0 0 2-2v-4a1 1 0 1 1 2 0v4a4 4 0 0 1-4 4H7a4 4 0 0 1-4-4V8a4 4 0 0 1 4-4h5a1 1 0 1 1 0 2H7Zm2.5 4a.5.5 0 0 0-.5.5v5a.5.5 0 0 0 .5.5h5a.5.5 0 0 0 .5-.5V14a1 1 0 1 1 2 0v1.5a2.5 2.5 0 0 1-2.5 2.5h-5A2.5 2.5 0 0 1 7 15.5v-5A2.5 2.5 0 0 1 9.5 8H12a1 1 0 1 1 0 2H9.5Z" fill-rule="evenodd" style="color: inherit"/>
</svg>