<?xml version="1.0" encoding="utf-8"?>
<svg fill="#FFFFFF" viewBox="0 0 24 24" xmlns="http://www.w3.org/2000/svg">
<path _ngcontent-ng-c1909134112="" d="M10.985 3.165a1 1 0 1 0-1.973-.33l-.86 5.163L3.998 8A1 1 0 1 0 4 10l3.817-.002-.667 4L3 14a1 1 0 0 0 0 2l3.817-.002-.807 4.838a1 1 0 1 0 1.973.329l.862-5.167 4.975-.003-.806 4.84a.999.999 0 0 0 1.572.996 1 1 0 0 0 .4-.666l.862-5.17L20 15.992a1 1 0 0 0 0-2h-3.819l.667-4L21 9.99a1 1 0 1 0 0-2l-3.818.002.804-4.827a.998.998 0 0 0-1.213-1.162 1 1 0 0 0-.759.832l-.86 5.159-4.975.003.806-4.832Zm-1.14 6.832 4.976-.003-.667 4-4.976.003.667-4Z" style="color: inherit"/>
</svg>