<?xml version="1.0" encoding="utf-8"?>
<svg fill="#FFFFFF" viewBox="0 0 24 24" xmlns="http://www.w3.org/2000/svg">
<path _ngcontent-ng-c1909134112="" clip-rule="evenodd" d="M8.015 5A1.985 1.985 0 0 0 6.03 6.985v1.213l.002.01.001.008a1.982 1.982 0 0 1 .005.577v.004a4.869 4.869 0 0 0-.007.084v.896c0 .084-.006.16-.011.215l-.007.075-.006.055a1.114 1.114 0 0 0-.002.03c.009.054.025.163.025.28v3.136c0 .12-.016.228-.025.28l.002.03.006.054.007.076c.005.056.01.13.01.215v.897a.962.962 0 0 0 .008.083v.004l.007.07c.009.1.024.292-.012.507l-.001.008-.002.01v1.213a1.985 1.985 0 0 0 3.97 0v-.527a1 1 0 1 1 2 0v.527a3.985 3.985 0 1 1-7.97 0v-1.25c0-.119.017-.228.025-.28a1.074 1.074 0 0 0-.007-.084l-.008-.076a2.451 2.451 0 0 1-.01-.215v-.896a.955.955 0 0 0-.008-.084v-.004l-.007-.07c-.009-.1-.024-.291.012-.507l.001-.007.002-.01v-3.063l-.003-.018a1.978 1.978 0 0 1-.005-.577V9.87a4.893 4.893 0 0 0 .008-.084V8.89a2.45 2.45 0 0 1 .018-.29l.005-.055.002-.03a1.746 1.746 0 0 1-.025-.28v-1.25a3.985 3.985 0 0 1 7.97 0v.527a1 1 0 1 1-2 0v-.527A1.985 1.985 0 0 0 8.015 5Zm7.309 3.293a1 1 0 0 1 1.414 0l3 3a1 1 0 0 1 0 1.414l-3 3a1 1 0 0 1-1.414-1.414L16.616 13H9.031a1 1 0 1 1 0-2h7.585l-1.292-1.293a1 1 0 0 1 0-1.414Z" fill-rule="evenodd" style="color: inherit"/>
</svg>