<?xml version="1.0" encoding="utf-8"?>
<svg fill="#FFFFFF" viewBox="0 0 24 24" xmlns="http://www.w3.org/2000/svg">
<path _ngcontent-ng-c1909134112="" clip-rule="evenodd" d="M7 22a1 1 0 0 1-1-1v-9.145a3.502 3.502 0 0 1 0-6.71V3a1 1 0 0 1 2 0v2.145a3.502 3.502 0 0 1 0 6.71V21a1 1 0 0 1-1 1ZM5.5 8.5a1.5 1.5 0 1 1 3 0 1.5 1.5 0 0 1-3 0ZM17 22a1 1 0 0 1-1-1v-2.145a3.502 3.502 0 0 1 0-6.71V3a1 1 0 1 1 2 0v9.145a3.502 3.502 0 0 1 0 6.71V21a1 1 0 0 1-1 1Zm0-5a1.5 1.5 0 1 0 0-3 1.5 1.5 0 0 0 0 3Z" fill-rule="evenodd" style="color: inherit"/>
</svg>