<?xml version="1.0" encoding="utf-8"?>
<svg fill="#FFFFFF" viewBox="0 0 24 24" xmlns="http://www.w3.org/2000/svg">
<path _ngcontent-ng-c1909134112="" clip-rule="evenodd" d="M12 2a.95.95 0 0 1 .95.95v3.62a.95.95 0 1 1-1.9 0V2.95A.95.95 0 0 1 12 2ZM4.929 4.929a.95.95 0 0 1 1.344 0l2.56 2.56a.95.95 0 1 1-1.345 1.343L4.93 6.272a.95.95 0 0 1 0-1.343Zm14.142 0a.95.95 0 0 1 0 1.344l-2.56 2.56a.95.95 0 1 1-1.343-1.345l2.56-2.559a.95.95 0 0 1 1.343 0ZM2 12a.95.95 0 0 1 .95-.95h3.62a.95.95 0 1 1 0 1.9H2.95A.95.95 0 0 1 2 12Zm14.48 0a.95.95 0 0 1 .95-.95h3.62a.95.95 0 1 1 0 1.9h-3.62a.95.95 0 0 1-.95-.95Zm-7.648 3.168a.95.95 0 0 1 0 1.344L6.274 19.07a.95.95 0 1 1-1.344-1.344l2.558-2.558a.95.95 0 0 1 1.344 0Zm6.336 0a.95.95 0 0 1 1.344 0l2.559 2.56a.95.95 0 1 1-1.344 1.343l-2.56-2.56a.95.95 0 0 1 0-1.343ZM12 16.48a.95.95 0 0 1 .95.95v3.62a.95.95 0 1 1-1.9 0v-3.62a.95.95 0 0 1 .95-.95Z" fill="#FFFFFF" fill-rule="evenodd" style="color: inherit"/>
</svg>