<?xml version="1.0" encoding="utf-8"?>
<svg fill="#FFFFFF" viewBox="0 0 24 24" xmlns="http://www.w3.org/2000/svg">
<path _ngcontent-ng-c1909134112="" d="M15 10.124a6.485 6.485 0 0 0 2 1.063V16a1 1 0 0 1-1 1h-6a1 1 0 1 1 0-2h3.586L4.793 6.207a1 1 0 0 1 1.414-1.414L15 13.586v-3.462ZM3 20a1 1 0 0 1 1-1h16a1 1 0 1 1 0 2H4a1 1 0 0 1-1-1Z" fill="#FFFFFF" style="color: inherit"/>
<path _ngcontent-ng-c1909134112="" clip-rule="evenodd" d="M18.983 10a5 5 0 1 0 .034-10 5 5 0 0 0-.034 10ZM17.53 2.47a.75.75 0 1 0-1.06 1.06L17.94 5l-1.47 1.47a.75.75 0 0 0 1.06 1.06L19 6.06l1.47 1.47a.75.75 0 1 0 1.06-1.06L20.06 5l1.47-1.47a.75.75 0 0 0-1.06-1.06L19 3.94l-1.47-1.47Z" fill="#FFFFFF" fill-rule="evenodd" style="color: inherit"/>
</svg>