<?xml version="1.0" encoding="utf-8"?>
<svg fill="#FFFFFF" viewBox="0 0 24 24" xmlns="http://www.w3.org/2000/svg">
<path _ngcontent-ng-c1909134112="" d="M2.667 6a5.333 5.333 0 1 1 10.666 0v4a5.333 5.333 0 1 1-10.666 0V6Z" fill="#FFFFFF" fill-opacity=".055" style="color: inherit"/>
<path _ngcontent-ng-c1909134112="" clip-rule="evenodd" d="M12 10V6a4 4 0 0 0-8 0v4a4 4 0 1 0 8 0ZM8 .667A5.333 5.333 0 0 0 2.667 6v4a5.333 5.333 0 1 0 10.666 0V6A5.333 5.333 0 0 0 8 .667Z" fill="#FFFFFF" fill-rule="evenodd" style="color: inherit"/>
</svg>