<?xml version="1.0" encoding="utf-8"?>
<svg fill="#FFFFFF" viewBox="0 0 24 24" xmlns="http://www.w3.org/2000/svg">
<path _ngcontent-ng-c1909134112="" clip-rule="evenodd" d="M12 6.115a1 1 0 0 1 1 1v4.47l2.207 2.208a1 1 0 0 1-1.414 1.414l-2.5-2.5A1 1 0 0 1 11 12V7.115a1 1 0 0 1 1-1Z" fill-rule="evenodd" style="color: inherit"/>
<path _ngcontent-ng-c1909134112="" clip-rule="evenodd" d="M13.025 3a1 1 0 0 1 1.198-.752 10.003 10.003 0 0 1 0 19.504 1 1 0 0 1-.446-1.95 8.004 8.004 0 0 0 0-15.604 1 1 0 0 1-.752-1.197Zm-2.05.002a1 1 0 0 1-.753 1.197 7.954 7.954 0 0 0-2.748 1.204A1 1 0 0 1 6.34 3.756 9.954 9.954 0 0 1 9.78 2.248a1 1 0 0 1 1.197.754ZM4.679 6.646a1 1 0 0 1 .39 1.359l-.163.294a7.976 7.976 0 0 0-.795 2.367 1 1 0 0 1-1.972-.332 9.975 9.975 0 0 1 1-2.973l.011-.02.17-.305a1 1 0 0 1 1.359-.39ZM3.074 13.54a1 1 0 0 1 1.239.684 7.96 7.96 0 0 0 1.09 2.302 1 1 0 0 1-1.648 1.134 9.962 9.962 0 0 1-1.363-2.881 1 1 0 0 1 .682-1.239Zm3.58 5.77a1 1 0 0 1 1.365-.368c.687.395 1.43.685 2.202.86a1 1 0 1 1-.442 1.95 9.942 9.942 0 0 1-2.757-1.077 1 1 0 0 1-.369-1.365Z" fill-rule="evenodd" style="color: inherit"/>
</svg>