<?xml version="1.0" encoding="utf-8"?>
<svg fill="#FFFFFF" viewBox="0 0 24 24" xmlns="http://www.w3.org/2000/svg">
<path _ngcontent-ng-c1909134112="" clip-rule="evenodd" d="M20 10.45V17a1 1 0 0 1-1 1H5a1 1 0 0 1-1-1v-6.576c0-.234.19-.424.424-.424 1.282 0 2.468-.68 3.118-1.785l1.01-1.721A1 1 0 0 1 9.415 6h5.122a1 1 0 0 1 .86.489l1.03 1.735A3.633 3.633 0 0 0 19.552 10a.45.45 0 0 1 .449.45Zm-18-.026A2.424 2.424 0 0 1 4.424 8c.573 0 1.103-.304 1.393-.798l1.01-1.721A3 3 0 0 1 9.416 4h5.122a3 3 0 0 1 2.579 1.467l1.031 1.735c.294.495.828.798 1.404.798A2.45 2.45 0 0 1 22 10.45V17a3 3 0 0 1-3 3H5a3 3 0 0 1-3-3v-6.576ZM14 13a2 2 0 1 1-4 0 2 2 0 0 1 4 0Zm2 0a4 4 0 1 1-8 0 4 4 0 0 1 8 0Z" fill-rule="evenodd" style="color: inherit"/>
<path _ngcontent-ng-c1909134112="" clip-rule="evenodd" d="M20 10.45V17a1 1 0 0 1-1 1H5a1 1 0 0 1-1-1v-6.576c0-.234.19-.424.424-.424 1.282 0 2.468-.68 3.118-1.785l1.01-1.721A1 1 0 0 1 9.415 6h5.122a1 1 0 0 1 .86.489l1.03 1.735A3.633 3.633 0 0 0 19.552 10a.45.45 0 0 1 .449.45Zm-18-.026A2.424 2.424 0 0 1 4.424 8c.573 0 1.103-.304 1.393-.798l1.01-1.721A3 3 0 0 1 9.416 4h5.122a3 3 0 0 1 2.579 1.467l1.031 1.735c.294.495.828.798 1.404.798A2.45 2.45 0 0 1 22 10.45V17a3 3 0 0 1-3 3H5a3 3 0 0 1-3-3v-6.576ZM14 13a2 2 0 1 1-4 0 2 2 0 0 1 4 0Zm2 0a4 4 0 1 1-8 0 4 4 0 0 1 8 0Z" fill-rule="evenodd" style="color: inherit"/>
</svg>