<?xml version="1.0" encoding="utf-8"?>
<svg fill="#FFFFFF" viewBox="0 0 24 24" xmlns="http://www.w3.org/2000/svg">
<path _ngcontent-ng-c1909134112="" clip-rule="evenodd" d="M6.42 2.82A2.8 2.8 0 0 1 8.4 2h10.8A2.8 2.8 0 0 1 22 4.8v14.4a2.8 2.8 0 0 1-2.8 2.8H4.8A2.8 2.8 0 0 1 2 19.2v-8.1c0-1.542 1.258-2.8 2.8-2.8h.8V4.8a2.8 2.8 0 0 1 .82-1.98ZM5.6 10.3h-.8c-.438 0-.8.362-.8.8v8.1a.8.8 0 1 0 1.6 0v-8.9ZM7.483 20a2.79 2.79 0 0 0 .117-.8V4.8a.8.8 0 0 1 .8-.8h10.8a.8.8 0 0 1 .8.8v14.4a.8.8 0 0 1-.8.8H7.483ZM9.2 6.6a1 1 0 0 1 1-1h7.2a1 1 0 0 1 1 1v3.6a1 1 0 0 1-1 1h-7.2a1 1 0 0 1-1-1V6.6Zm2 1v1.6h5.2V7.6h-5.2Zm-2 6.2a1 1 0 0 1 1-1h7.2a1 1 0 1 1 0 2h-7.2a1 1 0 0 1-1-1Zm0 3.6a1 1 0 0 1 1-1h4.5a1 1 0 1 1 0 2h-4.5a1 1 0 0 1-1-1Z" fill="#FFFFFF" fill-rule="evenodd" style="color: inherit"/>
</svg>