<?xml version="1.0" encoding="utf-8"?>
<svg fill="#FFFFFF" viewBox="0 0 24 24" xmlns="http://www.w3.org/2000/svg">
<path _ngcontent-ng-c1909134112="" clip-rule="evenodd" d="m12.554 2.167.015.01.081.05c.077.045.197.114.36.199.324.17.815.4 1.457.634C15.75 3.527 17.634 4 20 4a1 1 0 0 1 1 1v8c0 3.477-2.314 5.986-4.4 7.55a19.242 19.242 0 0 1-4.216 2.374l-.022.008-.007.003h-.002S12.35 22.937 12 22l-.448.894-.002-.001-.007-.003-.02-.01a24.535 24.535 0 0 1-1.29-.726 25.617 25.617 0 0 1-2.864-2.003c-1.041-.846-2.118-1.882-2.94-3.064C3.608 15.906 3 14.52 3 13V5a1 1 0 0 1 1-1c2.365 0 4.25-.473 5.533-.94a12.146 12.146 0 0 0 1.458-.634 7.366 7.366 0 0 0 .44-.249l.016-.01a.999.999 0 0 1 1.105 0h.002ZM12 22l-.448.894a1 1 0 0 0 .8.042L12 22Zm.053-1.105A17.242 17.242 0 0 0 15.4 18.95C17.314 17.514 19 15.523 19 13V5.974a17.983 17.983 0 0 1-5.217-1.034A14.132 14.132 0 0 1 12 4.155c0 5.345 0 11.845.053 16.74Zm-.606-18.728.001-.001Zm0 0 .001-.001Z" fill-rule="evenodd" style="color: inherit"/>
</svg>