<?xml version="1.0" encoding="utf-8"?>
<svg fill="#FFFFFF" viewBox="0 0 24 24" xmlns="http://www.w3.org/2000/svg">
<path _ngcontent-ng-c1909134112="" d="M12 22a9.738 9.738 0 0 1-3.9-.788 10.099 10.099 0 0 1-3.175-2.137c-.9-.9-1.612-1.958-2.137-3.175A9.738 9.738 0 0 1 2 12a9.74 9.74 0 0 1 .788-3.9 10.099 10.099 0 0 1 2.137-3.175c.9-.9 1.958-1.612 3.175-2.137A9.738 9.738 0 0 1 12 2a9.74 9.74 0 0 1 3.9.788 10.098 10.098 0 0 1 3.175 2.137c.9.9 1.613 1.958 2.137 3.175A9.738 9.738 0 0 1 22 12a9.738 9.738 0 0 1-.788 3.9 10.098 10.098 0 0 1-2.137 3.175c-.9.9-1.958 1.613-3.175 2.137A9.738 9.738 0 0 1 12 22Zm-1.075-1.525v-2.05a1.93 1.93 0 0 1-1.475-.65c-.4-.433-.6-.942-.6-1.525v-1.1l-5.125-5.125a7.024 7.024 0 0 0-.175.987c-.033.325-.05.655-.05.988 0 2.167.704 4.058 2.112 5.675 1.409 1.617 3.18 2.55 5.313 2.8Zm7.35-2.7c.367-.4.688-.825.963-1.275.274-.45.508-.92.7-1.412.191-.492.333-.996.425-1.513A8.996 8.996 0 0 0 20.5 12c0-1.767-.483-3.37-1.45-4.813a8.435 8.435 0 0 0-3.875-3.162v.45c0 .583-.2 1.092-.6 1.525-.4.433-.892.65-1.475.65h-2.175v2.175a.864.864 0 0 1-.338.7 1.174 1.174 0 0 1-.762.275H7.75V12h6.45c.283 0 .517.108.7.325.183.217.275.467.275.75v3.175h1.075c.483 0 .908.142 1.275.425.367.283.617.65.75 1.1Z" style="color: inherit"/>
</svg>