<?xml version="1.0" encoding="utf-8"?>
<svg fill="#FFFFFF" viewBox="0 0 24 24" xmlns="http://www.w3.org/2000/svg">
<path _ngcontent-ng-c1909134112="" clip-rule="evenodd" d="M7.12 4.371a1 1 0 0 1-.148 1.406A7.983 7.983 0 0 0 4 12a7.983 7.983 0 0 0 2.972 6.223 1 1 0 1 1-1.258 1.554A9.983 9.983 0 0 1 2 12a9.983 9.983 0 0 1 3.714-7.777 1 1 0 0 1 1.406.148Zm9.76 0a1 1 0 0 1 1.406-.148A9.983 9.983 0 0 1 22 12a9.983 9.983 0 0 1-3.714 7.777 1 1 0 0 1-1.258-1.554A7.983 7.983 0 0 0 20 12a7.983 7.983 0 0 0-2.972-6.223 1 1 0 0 1-.148-1.406ZM9.634 7.482a1 1 0 0 1-.148 1.407A3.99 3.99 0 0 0 8 12a3.99 3.99 0 0 0 1.486 3.112 1 1 0 1 1-1.258 1.554A5.99 5.99 0 0 1 6 12a5.99 5.99 0 0 1 2.228-4.666 1 1 0 0 1 1.406.148Zm4.732 0a1 1 0 0 1 1.406-.148A5.99 5.99 0 0 1 18 12a5.99 5.99 0 0 1-2.228 4.666 1 1 0 0 1-1.258-1.554A3.99 3.99 0 0 0 16 12a3.99 3.99 0 0 0-1.486-3.111 1 1 0 0 1-.148-1.407Zm-3.78 3.104a2 2 0 1 1 2.828 2.828 2 2 0 0 1-2.828-2.828Z" fill-rule="evenodd" style="color: inherit"/>
</svg>