<?xml version="1.0" encoding="utf-8"?>
<svg fill="#FFFFFF" viewBox="0 0 24 24" xmlns="http://www.w3.org/2000/svg">
<path _ngcontent-ng-c1909134112="" clip-rule="evenodd" d="M1.807 7.998a6.19 6.19 0 1 1 12.381 0 6.19 6.19 0 0 1-12.38 0ZM7.997.474a7.524 7.524 0 1 0 0 15.048 7.524 7.524 0 0 0 0-15.048Zm-1.618 6c0-.894.725-1.62 1.619-1.62h.3A1.319 1.319 0 0 1 9.03 7.27l-.384.256a2.952 2.952 0 0 0-1.315 2.457v.3h1.334v-.3c0-.541.27-1.047.72-1.347l.384-.256A2.652 2.652 0 0 0 8.3 3.52h-.301a2.952 2.952 0 0 0-2.952 2.953H6.38Zm1.62 6.094a.762.762 0 1 0 0-1.523.762.762 0 0 0 0 1.523Z" style="color: inherit"/>
<path _ngcontent-ng-c1909134112="" clip-rule="evenodd" d="M8 15.617A7.619 7.619 0 1 0 8 .38a7.619 7.619 0 0 0 0 15.239ZM8 4.951c-.84 0-1.523.682-1.523 1.524H4.953a3.048 3.048 0 0 1 3.048-3.048h.3A2.747 2.747 0 0 1 9.825 8.46l-.384.256a1.524 1.524 0 0 0-.678 1.268v.3H7.239v-.3c0-1.02.51-1.97 1.357-2.536l.384-.256a1.223 1.223 0 0 0-.679-2.241h-.3Zm.763 6.857a.762.762 0 1 1-1.524 0 .762.762 0 0 1 1.524 0Z" fill="#FFFFFF" fill-rule="evenodd" style="color: inherit"/>
</svg>