<?xml version="1.0" encoding="utf-8"?>
<svg fill="#FFFFFF" viewBox="0 0 24 24" xmlns="http://www.w3.org/2000/svg">
<path _ngcontent-ng-c1909134112="" clip-rule="evenodd" d="M18.424 2.456c.515.688.579 1.653.466 2.469a55.027 55.027 0 0 0-.198 1.638 2.02 2.02 0 0 1-2.204 1.8l-1.992-.2a.667.667 0 0 1 .133-1.327l1.992.2a.687.687 0 0 0 .745-.615c.056-.522.126-1.127.203-1.68.094-.678-.008-1.213-.212-1.485a.582.582 0 0 0-.364-.231c-.178-.039-.461-.034-.886.107a.667.667 0 0 1-.422-1.265c.575-.191 1.11-.249 1.588-.146.494.106.88.372 1.151.735Z" fill="#FFFFFF" fill-rule="evenodd" style="color: inherit"/>
<path _ngcontent-ng-c1909134112="" d="M14.563 5c.603-2.833 2.5-2.667 2.5-2.667s-1.653-1-7.334-1c-1.816 0-3.186.115-4.205.268-1.765.264-3.013 1.626-3.297 3.387A15.34 15.34 0 0 0 2.097 6c-.106 1.13-.381 7.642.969 12.02.146.472.638.734 1.121.626l.04-.009c.392-.087.723-.346.903-.705l.883-1.765 1.19 2.162a.667.667 0 0 0 1.191-.047l.952-2.116.904 1.808a.667.667 0 0 0 1.193 0l.903-1.808 1.51 2.081c.1.139.234.25.388.322a.769.769 0 0 0 1.088-.791C14.942 14.663 14.09 7.22 14.563 5Z" fill="#FFFFFF" opacity=".12" style="color: inherit"/>
<path _ngcontent-ng-c1909134112="" clip-rule="evenodd" d="M9.73 2c-1.79 0-3.126.113-4.107.26-1.449.217-2.495 1.329-2.738 2.835-.05.305-.092.63-.124.967-.05.532-.145 2.413-.06 4.705.087 2.298.353 4.95 1.002 7.056.035.114.168.21.34.172l.039-.008a.667.667 0 0 0 .452-.353l.883-1.766a.666.666 0 0 1 1.18-.023l1.19 2.163.951-2.115a.667.667 0 0 1 1.204-.025l.904 1.808.904-1.808a.667.667 0 0 1 1.136-.093l1.509 2.08a.34.34 0 0 0 .133.111.09.09 0 0 0 .051.01.107.107 0 0 0 .05-.02.11.11 0 0 0 .035-.042.093.093 0 0 0 .007-.053 160.333 160.333 0 0 1-.712-6.754 60.551 60.551 0 0 1-.197-3.6c-.02-1.06.013-2.01.148-2.646.25-1.17.715-1.937 1.241-2.426C14.065 2.214 12.34 2 9.73 2Zm7.332.333.345-.57-.001-.001-.002-.001-.004-.003-.01-.006a1.506 1.506 0 0 0-.118-.061 4.088 4.088 0 0 0-.317-.136 9.119 9.119 0 0 0-1.284-.373C14.491.92 12.608.667 9.73.667c-1.844 0-3.248.117-4.303.274-2.082.312-3.532 1.924-3.857 3.941-.054.332-.1.686-.135 1.056-.056.597-.152 2.537-.065 4.879.088 2.335.359 5.126 1.06 7.399.256.83 1.108 1.258 1.903 1.081l.04-.009a2 2 0 0 0 1.354-1.058l.315-.629.577 1.05c.53.963 1.933.907 2.384-.096l.376-.834.276.551c.491.983 1.893.983 2.385 0l.412-.825.865 1.192c.166.229.388.413.644.533 1.024.483 2.174-.36 2.034-1.477A159.158 159.158 0 0 1 15.288 11a59.191 59.191 0 0 1-.193-3.517c-.02-1.057.019-1.87.12-2.344.268-1.26.794-1.751 1.153-1.955.192-.11.367-.155.49-.174a1.03 1.03 0 0 1 .157-.012.667.667 0 0 0 .393-1.235l-.346.57Z" fill="#FFFFFF" fill-rule="evenodd" style="color: inherit"/>
<path _ngcontent-ng-c1909134112="" clip-rule="evenodd" d="m5.346 5.333-.147-.65a.667.667 0 0 0 .295 1.3h.002l.01-.002.044-.01.176-.035c.154-.03.375-.07.644-.11.54-.08 1.254-.16 1.976-.16s1.437.08 1.976.16a15.338 15.338 0 0 1 .82.145l.044.01.01.002h.002a.667.667 0 0 0 .296-1.3l-.148.65.148-.65h-.002l-.005-.001-.015-.003-.054-.012-.198-.04c-.17-.033-.41-.076-.7-.12a15.09 15.09 0 0 0-2.174-.173c-.81 0-1.596.087-2.173.173a16.7 16.7 0 0 0-.899.16l-.054.012-.015.003h-.004l-.002.001.147.65Zm5.536 3.457a11.85 11.85 0 0 0-4.674.012 8.154 8.154 0 0 0-.618.154l-.028.009-.004.001a.667.667 0 0 1-.424-1.264l.212.632-.212-.632h.002l.001-.001.004-.002.014-.004a3.578 3.578 0 0 1 .203-.06c.136-.037.33-.087.577-.138a13.182 13.182 0 0 1 5.209-.014.667.667 0 1 1-.262 1.307Zm-5.325.176Zm2.456 2.914-.132-.653a.667.667 0 0 0 .264 1.307h.002l.011-.003.05-.01.192-.032c.166-.027.403-.062.68-.092.562-.06 1.253-.096 1.851-.022a.667.667 0 1 0 .164-1.323c-.747-.093-1.556-.045-2.158.02a14.034 14.034 0 0 0-1.031.15l-.017.003-.005.001H7.88l.132.654Z" fill="#FFFFFF" fill-rule="evenodd" style="color: inherit"/>
</svg>