<?xml version="1.0" encoding="utf-8"?>
<svg fill="#FFFFFF" viewBox="0 0 24 24" xmlns="http://www.w3.org/2000/svg">
<path _ngcontent-ng-c1909134112="" clip-rule="evenodd" d="M10.293 2.293a1 1 0 0 1 1.414 0l3 3a1 1 0 0 1 0 1.414l-3 3a1 1 0 0 1-1.414-1.414L11.586 7H9a5 5 0 0 0-3.536 8.536A1 1 0 1 1 4.05 16.95 7 7 0 0 1 9 5h2.586l-1.293-1.293a1 1 0 0 1 0-1.414Zm8.242 4.757a1 1 0 0 1 1.415 0A7 7 0 0 1 15 19h-2.586l1.293 1.293a1 1 0 0 1-1.414 1.414l-3-3a1 1 0 0 1 0-1.414l3-3a1 1 0 0 1 1.414 1.414L12.414 17H15a5 5 0 0 0 3.535-8.536 1 1 0 0 1 0-1.414Z" fill="#FFFFFF" fill-rule="evenodd" style="color: inherit"/>
</svg>