<?xml version="1.0" encoding="utf-8"?>
<svg fill="#FFFFFF" viewBox="0 0 24 24" xmlns="http://www.w3.org/2000/svg">
<path _ngcontent-ng-c1909134112="" clip-rule="evenodd" d="M9.528 2.196c.26-.26.682-.26.943 0l3.333 3.333c.26.26.26.683 0 .943L10.47 9.805a.667.667 0 0 1-.943-.943l2.861-2.861-2.861-2.862a.667.667 0 0 1 0-.943Z" fill="#FFFFFF" fill-rule="evenodd" style="color: inherit"/>
<path _ngcontent-ng-c1909134112="" clip-rule="evenodd" d="M3.269 6.603a4.333 4.333 0 0 1 3.064-1.269h7a.667.667 0 1 1 0 1.333h-7a3 3 0 1 0 0 6h2.333a.667.667 0 0 1 0 1.333H6.333a4.333 4.333 0 0 1-3.064-7.397Z" fill="#FFFFFF" fill-rule="evenodd" style="color: inherit"/>
</svg>