<?xml version="1.0" encoding="utf-8"?>
<svg fill="#FFFFFF" viewBox="0 0 24 24" xmlns="http://www.w3.org/2000/svg">
<path _ngcontent-ng-c1909134112="" clip-rule="evenodd" d="M11.217.28A11.333 11.333 0 0 0 .279 11.216C.13 15.419 0 20.163 0 24c0 3.837.13 8.581.28 12.783a11.333 11.333 0 0 0 10.937 10.938C15.419 47.87 20.163 48 24 48c3.837 0 8.581-.13 12.783-.28a11.333 11.333 0 0 0 10.938-10.937C47.87 32.581 48 27.836 48 24c0-3.837-.13-8.581-.28-12.783A11.333 11.333 0 0 0 36.784.279C32.581.13 27.836 0 24 0c-3.837 0-8.581.13-12.783.28Zm8.076 13.736a3.769 3.769 0 0 1-.057.155c.196.091.433.182.72.265 1.213.352 2.866.426 4.43.368a30.765 30.765 0 0 0 3.18-.287c1.457-.216 2.615 1.269 2.02 2.666l-5.223 12.26c-.895 3.34.911 5.302 2.425 5.741 1.381.402 3.704-.218 4.714-3.784l.448-1.582-1.36.734a1.451 1.451 0 0 1-1.976-.609 1.49 1.49 0 0 1 .602-2.001l4.863-2.628c.74-.4 1.66-.123 2.065.622l2.674 4.915a1.49 1.49 0 0 1-.574 2.01 1.451 1.451 0 0 1-1.984-.582l-.795-1.46-.453 1.6c-1.459 5.154-5.559 7.387-9.23 6.32-3.523-1.022-6.404-5.109-4.9-10.424l.033-.114 4.143-9.725a29.1 29.1 0 0 1-.537.024c-1.67.062-3.79.009-5.57-.508a8.004 8.004 0 0 1-1.774-.74l-2.113 7.465c.595.82.822 1.9.524 2.955-.511 1.806-2.371 2.85-4.154 2.333-1.783-.518-2.814-2.402-2.303-4.208a3.376 3.376 0 0 1 2.503-2.385l2.11-7.455a3.788 3.788 0 0 1-1.648-2.489 3.82 3.82 0 0 1 .486-2.659 3.739 3.739 0 0 1 2.114-1.65 3.688 3.688 0 0 1 2.662.202 3.76 3.76 0 0 1 1.848 1.952c.357.86.388 1.822.087 2.703Z" fill="#FFFFFF" fill-rule="evenodd" style="color: inherit"/>
</svg>