<?xml version="1.0" encoding="utf-8"?>
<svg fill="#FFFFFF" viewBox="0 0 24 24" xmlns="http://www.w3.org/2000/svg">
<path _ngcontent-ng-c1909134112="" d="M3.179 3.024C4.597 1.652 6.86 1.673 8.32 3.001a.47.47 0 0 1-.159.789 9.968 9.968 0 0 0-4.827 3.802.469.469 0 0 1-.794-.023 3.72 3.72 0 0 1 .638-4.545Zm17.851-.032c-1.44-1.35-3.703-1.294-5.142.057a.47.47 0 0 0 .17.785 9.968 9.968 0 0 1 4.886 3.728.469.469 0 0 0 .793-.035 3.72 3.72 0 0 0-.707-4.535ZM13 10a1 1 0 1 0-2 0v3.5a1 1 0 0 0 .293.707l2.293 2.207A1 1 0 0 0 15 15l-2-1.914V10Z" style="color: inherit"/>
<path _ngcontent-ng-c1909134112="" clip-rule="evenodd" d="M3.557 13.381a8.619 8.619 0 1 1 15.65 4.985l1.885 1.885a1.024 1.024 0 1 1-1.449 1.449l-1.813-1.814A8.585 8.585 0 0 1 12.176 22a8.585 8.585 0 0 1-5.66-2.118L4.7 21.7a1.025 1.025 0 0 1-1.45-1.45l1.891-1.89a8.579 8.579 0 0 1-1.583-4.979Zm8.619-6.583a6.584 6.584 0 1 0 0 13.167 6.584 6.584 0 0 0 0-13.167Z" fill-rule="evenodd" style="color: inherit"/>
</svg>