<?xml version="1.0" encoding="utf-8"?>
<svg fill="#FFFFFF" viewBox="0 0 24 24" xmlns="http://www.w3.org/2000/svg">
<path _ngcontent-ng-c1909134112="" clip-rule="evenodd" d="M3 4a1 1 0 0 0 0 2h16a1 1 0 1 0 0-2H3Zm0 6a1 1 0 1 0 0 2h16a1 1 0 1 0 0-2H3Zm0 6a1 1 0 1 0 0 2h8a1 1 0 1 0 0-2H3Zm14.707.293a1 1 0 0 0-1.414 1.414L17.586 19l-1.293 1.293a1 1 0 0 0 1.414 1.414L19 20.414l1.293 1.293a1 1 0 0 0 1.414-1.414L20.414 19l1.293-1.293a1 1 0 0 0-1.414-1.414L19 17.586l-1.293-1.293Z" fill-rule="evenodd" style="color: inherit"/>
</svg>