<?xml version="1.0" encoding="utf-8"?>
<svg fill="#FFFFFF" viewBox="0 0 24 24" xmlns="http://www.w3.org/2000/svg">
<path _ngcontent-ng-c1909134112="" d="M3.669 3.122a2 2 0 0 1 1.94-1.515h9.496a2 2 0 0 1 1.94 2.485L14.331 14.95a2 2 0 0 1-1.94 1.515H2.895a2 2 0 0 1-1.94-2.486L3.668 3.123Z" fill="#FFFFFF" fill-opacity=".055" style="color: inherit"/>
<path _ngcontent-ng-c1909134112="" clip-rule="evenodd" d="M15.105 2.94H5.609a.667.667 0 0 0-.647.506L2.248 14.303a.667.667 0 0 0 .647.828h9.496a.667.667 0 0 0 .646-.505L15.752 3.77a.667.667 0 0 0-.647-.828ZM5.609 1.608a2 2 0 0 0-1.94 1.515L.954 13.98a2 2 0 0 0 1.94 2.485h9.497a2 2 0 0 0 1.94-1.515l2.714-10.858a2 2 0 0 0-1.94-2.485H5.609Z" fill="#FFFFFF" fill-rule="evenodd" style="color: inherit"/>
</svg>