<?xml version="1.0" encoding="utf-8"?>
<svg fill="#FFFFFF" viewBox="0 0 24 24" xmlns="http://www.w3.org/2000/svg">
<path _ngcontent-ng-c1909134112="" clip-rule="evenodd" d="M3.4 5.333c0-.69.56-1.25 1.25-1.25h6.667a4.583 4.583 0 0 1 3.777 7.18 4.583 4.583 0 0 1-2.11 8.653H4.65a1.25 1.25 0 1 1 0-2.5h.417V6.585H4.65c-.69 0-1.25-.56-1.25-1.25Zm4.167 1.25v4.167h3.75a2.083 2.083 0 0 0 0-4.167h-3.75Zm0 6.667v4.167h5.416a2.083 2.083 0 1 0 0-4.167H7.567ZM21.9 4.917c0-.46.373-.833.833-.833h5a.833.833 0 0 1 0 1.666h-1.84l-2.941 12.5H24.4a.833.833 0 1 1 0 1.667h-5a.833.833 0 0 1 0-1.667h1.84l2.94-12.5h-1.447a.833.833 0 0 1-.833-.833Zm8.5 0c0-.46.373-.833.833-.833h3.333a.833.833 0 0 1 0 1.666h-.833v6.667a3.333 3.333 0 1 0 6.667 0V5.75h-.834a.833.833 0 0 1 0-1.667H42.9a.833.833 0 1 1 0 1.667h-.834v6.667a5 5 0 1 1-10 0V5.75h-.833a.833.833 0 0 1-.833-.833Zm-.834 14.166c0-.46.373-.833.834-.833h13.333a.833.833 0 0 1 0 1.667H30.4a.833.833 0 0 1-.834-.834Z" fill="#FFFFFF" fill-rule="evenodd" style="color: inherit"/>
</svg>