<?xml version="1.0" encoding="utf-8"?>
<svg fill="#FFFFFF" viewBox="0 0 24 24" xmlns="http://www.w3.org/2000/svg">
<path _ngcontent-ng-c1909134112="" d="M16.68 10.64a2.534 2.534 0 0 1-3.588 0 2.54 2.54 0 0 1 0-3.591 2.534 2.534 0 0 1 3.587 0 2.54 2.54 0 0 1 0 3.59Z" fill="#FFFFFF" style="color: inherit"/>
<path _ngcontent-ng-c1909134112="" clip-rule="evenodd" d="M10.748 4.01a8.874 8.874 0 0 1 5.389-2.558l5.275-.53a1.269 1.269 0 0 1 1.389 1.39l-.53 5.28a8.89 8.89 0 0 1-2.556 5.394l-4.83 4.834a2.535 2.535 0 0 1-3.586 0l-5.38-5.386a2.54 2.54 0 0 1 0-3.59l4.829-4.834Zm6.828 7.527a3.802 3.802 0 0 1-5.38 0 3.81 3.81 0 0 1 0-5.386 3.802 3.802 0 0 1 5.38 0 3.81 3.81 0 0 1 0 5.386Z" fill="#FFFFFF" fill-rule="evenodd" style="color: inherit"/>
<path _ngcontent-ng-c1909134112="" d="M7.526 5.44a.635.635 0 0 0-.448-1.084l-5.005.903a.635.635 0 0 0-.448 1.084l2.052 2.052c.248.248.65.248.897 0L7.526 5.44Zm10.761 10.77a.634.634 0 0 1 1.082.45l-.9 5.008a.634.634 0 0 1-1.083.449l-2.052-2.053a.635.635 0 0 1 0-.898l2.953-2.955Zm-10.489-.292c-1.23-1.232-3.268-1.188-4.55.096-1.354 1.355-1.867 4.25-2.045 5.71a.706.706 0 0 0 .794.795c1.458-.178 4.35-.691 5.704-2.046 1.284-1.285 1.327-3.324.097-4.555Z" fill="#FFFFFF" style="color: inherit"/>
</svg>