<?xml version="1.0" encoding="utf-8"?>
<svg fill="#FFFFFF" viewBox="0 0 24 24" xmlns="http://www.w3.org/2000/svg">
<path _ngcontent-ng-c1909134112="" clip-rule="evenodd" d="M6.294 2.293a1 1 0 0 1 1.415 0l3.998 4a1 1 0 1 1-1.414 1.414L8 5.415V17a1 1 0 1 1-2 0V5.414L3.707 7.707a1 1 0 1 1-1.414-1.414l4.001-4ZM17.001 6a1 1 0 0 1 1 1v11.585l2.292-2.292a1 1 0 0 1 1.414 1.414l-3.999 4a1 1 0 0 1-1.414 0l-4.001-4a1 1 0 0 1 1.414-1.414l2.294 2.293V7a1 1 0 0 1 1-1Z" fill="#FFFFFF" fill-rule="evenodd" style="color: inherit"/>
</svg>