<?xml version="1.0" encoding="utf-8"?>
<svg fill="#FFFFFF" viewBox="0 0 24 24" xmlns="http://www.w3.org/2000/svg">
<path _ngcontent-ng-c1909134112="" clip-rule="evenodd" d="M4.8 5c-.488 0-.8.365-.8.714v2.572c0 .349.312.714.8.714h14.4c.488 0 .8-.365.8-.714V5.714c0-.349-.312-.714-.8-.714H4.8ZM2 5.714C2 4.17 3.3 3 4.8 3h14.4C20.7 3 22 4.17 22 5.714v2.572C22 9.83 20.7 11 19.2 11H4.8C3.3 11 2 9.83 2 8.286V5.714ZM4.8 15c-.488 0-.8.365-.8.714v2.572c0 .349.312.714.8.714h14.4c.488 0 .8-.365.8-.714v-2.572c0-.349-.312-.714-.8-.714H4.8Zm-2.8.714C2 14.17 3.3 13 4.8 13h14.4c1.5 0 2.8 1.17 2.8 2.714v2.572C22 19.83 20.7 21 19.2 21H4.8C3.3 21 2 19.83 2 18.286v-2.572Z" fill="#FFFFFF" fill-rule="evenodd" style="color: inherit"/>
</svg>