<?xml version="1.0" encoding="utf-8"?>
<svg fill="#FFFFFF" viewBox="0 0 24 24" xmlns="http://www.w3.org/2000/svg">
<path _ngcontent-ng-c1909134112="" clip-rule="evenodd" d="M12 4a2 2 0 1 0 0 4 2 2 0 0 0 0-4ZM8 6a4 4 0 1 1 6.646 3H21.5a1 1 0 0 1 .588 1.809l-4.894 3.56 2.248 6.295a1 1 0 0 1-1.51 1.158L12 17.716l-5.93 4.106a1 1 0 0 1-1.511-1.158l2.248-6.296-4.895-3.56A1 1 0 0 1 2.5 9h6.854A3.99 3.99 0 0 1 8 6Zm-2.425 5 3.013 2.191a1 1 0 0 1 .354 1.145l-1.454 4.072 3.943-2.73a1 1 0 0 1 1.139 0l3.943 2.73-1.454-4.072a1 1 0 0 1 .353-1.145L18.425 11H5.575Z" fill-rule="evenodd" style="color: inherit"/>
</svg>