<?xml version="1.0" encoding="utf-8"?>
<svg fill="#FFFFFF" viewBox="0 0 24 24" xmlns="http://www.w3.org/2000/svg">
<path _ngcontent-ng-c1909134112="" d="M10.155 6.636a3.904 3.904 0 0 1 2.79-1.167c1.452 0 2.72.789 3.394 1.96a4.796 4.796 0 0 1 1.918-.397c2.62 0 4.743 2.086 4.743 4.66 0 2.574-2.123 4.66-4.743 4.66a4.792 4.792 0 0 1-.934-.09 3.482 3.482 0 0 1-3.026 1.73 3.526 3.526 0 0 1-1.517-.34C12.178 19.032 10.774 20 9.139 20c-1.704 0-3.155-1.05-3.712-2.522a3.72 3.72 0 0 1-.755.076C2.644 17.554 1 15.937 1 13.94c0-1.337.739-2.505 1.836-3.13a4.046 4.046 0 0 1-.351-1.653C2.485 6.86 4.398 5 6.758 5c1.385 0 2.616.642 3.397 1.636Z" fill="#FFFFFF" style="color: inherit"/>
<path _ngcontent-ng-c1909134112="" d="M4.186 12.779c-.013.035.006.042.01.048.041.03.083.05.126.074.224.116.436.15.657.15.452 0 .732-.234.732-.61v-.008c0-.348-.316-.474-.613-.565l-.039-.013c-.223-.07-.416-.131-.416-.275v-.008c0-.122.112-.213.287-.213.195 0 .425.063.574.143 0 0 .043.028.06-.013l.091-.241c.009-.023-.006-.04-.022-.05-.17-.1-.404-.169-.646-.169H4.94c-.413 0-.7.244-.7.592v.007c0 .368.317.487.615.57l.048.014c.217.065.405.12.405.27v.007c0 .136-.122.238-.318.238-.076 0-.32-.002-.582-.163-.031-.018-.05-.031-.074-.046-.013-.008-.045-.022-.06.02l-.089.24Zm6.607 0c-.014.035.005.042.01.048.04.03.083.05.125.074.224.116.436.15.658.15.451 0 .731-.234.731-.61v-.008c0-.348-.316-.474-.613-.565l-.038-.013c-.224-.07-.417-.131-.417-.275v-.008c0-.122.113-.213.288-.213.194 0 .425.063.573.143 0 0 .044.028.06-.013l.092-.241c.008-.023-.007-.04-.022-.05-.17-.1-.404-.169-.647-.169h-.045c-.413 0-.701.244-.701.592v.007c0 .368.318.487.616.57l.048.014c.217.065.404.12.404.27v.007c0 .136-.122.238-.318.238-.076 0-.319-.002-.581-.163a.998.998 0 0 1-.074-.046c-.008-.005-.047-.02-.06.02l-.089.24Zm4.51-.738c0 .213-.04.38-.12.5-.08.116-.2.173-.367.173-.168 0-.288-.056-.366-.174-.079-.118-.119-.286-.119-.499 0-.212.04-.38.12-.497.077-.116.197-.172.365-.172.167 0 .287.056.367.172.08.118.12.285.12.497Zm.377-.394a.827.827 0 0 0-.46-.533.973.973 0 0 0-.404-.079.974.974 0 0 0-.404.079.832.832 0 0 0-.461.533 1.364 1.364 0 0 0-.056.394c0 .141.019.274.056.395a.882.882 0 0 0 .171.319c.077.09.175.161.29.212a.995.995 0 0 0 .404.077.994.994 0 0 0 .403-.077.807.807 0 0 0 .46-.531c.038-.121.056-.254.056-.395 0-.14-.018-.273-.055-.394Zm3.093 1.01c-.012-.035-.048-.022-.048-.022a.88.88 0 0 1-.175.05 1.461 1.461 0 0 1-.206.014.582.582 0 0 1-.431-.158c-.104-.104-.163-.273-.162-.501 0-.208.052-.364.144-.483s.232-.18.419-.18c.155 0 .273.018.398.056 0 0 .03.012.043-.025.033-.09.058-.153.093-.251.01-.028-.015-.04-.023-.043a1.488 1.488 0 0 0-.534-.08c-.159 0-.3.025-.42.078a.867.867 0 0 0-.487.533 1.24 1.24 0 0 0-.061.395c0 .304.084.55.25.73.167.181.417.273.744.273.193 0 .391-.038.533-.093 0 0 .028-.013.016-.043l-.093-.25Zm.66-.82a.708.708 0 0 1 .102-.293c.078-.116.198-.18.365-.18.167 0 .278.064.357.18.053.077.076.18.085.293h-.91Zm1.268-.26a.767.767 0 0 0-.405-.47.953.953 0 0 0-.366-.072c-.16 0-.304.026-.42.08a.834.834 0 0 0-.467.54 1.36 1.36 0 0 0-.056.397c0 .143.02.277.058.397a.815.815 0 0 0 .505.522c.128.049.284.073.463.073.368-.001.562-.081.642-.124.014-.008.028-.021.01-.06l-.082-.227c-.013-.034-.048-.021-.048-.021-.092.033-.221.092-.524.091-.197 0-.344-.057-.436-.146-.094-.09-.14-.224-.149-.413l1.276.001s.033 0 .037-.032c0-.014.043-.255-.038-.535Zm-11.481.26a.714.714 0 0 1 .103-.293c.078-.116.197-.18.365-.18a.4.4 0 0 1 .357.18c.053.077.075.18.084.293H9.22Zm1.268-.26a.765.765 0 0 0-.405-.47.953.953 0 0 0-.365-.072 1.02 1.02 0 0 0-.421.08.835.835 0 0 0-.467.54 1.37 1.37 0 0 0-.056.397c0 .143.02.277.058.397a.815.815 0 0 0 .506.522c.128.049.284.073.463.073.368-.001.562-.081.642-.124.014-.008.027-.021.01-.06l-.082-.227c-.013-.034-.049-.021-.049-.021-.091.033-.22.092-.523.091-.198 0-.345-.057-.436-.146-.095-.09-.14-.224-.149-.413l1.275.001s.034 0 .037-.032c.001-.014.044-.255-.038-.535Zm-4.024 1.074a.255.255 0 0 1-.074-.074.294.294 0 0 1-.038-.161c0-.11.037-.188.114-.24-.001 0 .11-.094.37-.09.182.002.346.028.346.028v.565s-.162.034-.344.044c-.26.016-.375-.072-.374-.072Zm.507-.873a2.885 2.885 0 0 0-.199-.006c-.11 0-.215.014-.314.04a.83.83 0 0 0-.266.12.604.604 0 0 0-.185.205.587.587 0 0 0-.068.286c0 .11.02.206.058.284a.515.515 0 0 0 .166.194c.071.05.159.087.26.11.1.022.214.033.338.033.13 0 .26-.01.387-.031a9.91 9.91 0 0 0 .321-.06l.09-.023c.031-.008.029-.04.029-.04v-1.137c0-.249-.07-.434-.204-.548-.133-.114-.33-.172-.585-.172-.096 0-.25.013-.342.031 0 0-.279.053-.393.14 0 0-.025.015-.012.05l.09.236c.012.03.042.02.042.02l.021-.01c.246-.13.556-.126.556-.126.138 0 .244.026.315.08.07.052.105.13.105.296v.052a4.661 4.661 0 0 0-.21-.024Zm10.285-.64a.033.033 0 0 0-.02-.044 1.126 1.126 0 0 0-.213-.036.65.65 0 0 0-.544.206v-.151a.037.037 0 0 0-.037-.038h-.327c-.021 0-.036.017-.036.038v1.853c0 .02.017.038.038.038h.335a.04.04 0 0 0 .028-.012.037.037 0 0 0 .011-.026v-.926c0-.124.014-.248.042-.326a.468.468 0 0 1 .112-.183.393.393 0 0 1 .157-.092.63.63 0 0 1 .312-.007c.024.003.038-.012.046-.033l.096-.261Z" fill="#FFFFFF" style="color: inherit"/>
<path _ngcontent-ng-c1909134112="" d="M14.111 10.28a1.02 1.02 0 0 0-.3-.042c-.23 0-.411.063-.539.188-.127.124-.213.314-.256.563l-.016.084h-.29s-.035 0-.042.036l-.047.259c-.004.024.007.04.04.04h.283l-.286 1.554a1.866 1.866 0 0 1-.077.307.619.619 0 0 1-.089.176.236.236 0 0 1-.116.088.487.487 0 0 1-.321-.012s-.033-.012-.046.02l-.095.253c-.009.024.004.044.02.05a.793.793 0 0 0 .303.05.958.958 0 0 0 .313-.047.59.59 0 0 0 .236-.16.814.814 0 0 0 .165-.279 2.29 2.29 0 0 0 .112-.417l.288-1.583h.42s.035.001.042-.036l.048-.259c.003-.024-.008-.04-.042-.04h-.408c.003-.008.021-.148.068-.28a.364.364 0 0 1 .09-.132.269.269 0 0 1 .106-.065.548.548 0 0 1 .307.007c.042.012.047 0 .055-.02l.098-.26c.01-.028-.015-.04-.024-.044Zm-5.696 2.686c0 .02-.016.037-.037.037H8.04a.035.035 0 0 1-.036-.037v-2.651c0-.021.015-.038.036-.038h.338c.021 0 .037.017.037.038v2.65Z" fill="#FFFFFF" style="color: inherit"/>
</svg>