<?xml version="1.0" encoding="utf-8"?>
<svg fill="#FFFFFF" viewBox="0 0 24 24" xmlns="http://www.w3.org/2000/svg">
<path _ngcontent-ng-c1909134112="" clip-rule="evenodd" d="M12 2a1 1 0 0 1 .916.6l3.022 6.906 5.007-3.338a1 1 0 0 1 1.519 1.1L20 16.136V19a2 2 0 0 1-2 2H6a2 2 0 0 1-2-2v-2.864L1.537 7.268a1 1 0 0 1 1.518-1.1l5.007 3.338L11.084 2.6A1 1 0 0 1 12 2ZM6 17v2h12v-2H6Zm12.24-2 1.577-5.676-3.762 2.508a1 1 0 0 1-1.471-.431L12 5.495 9.416 11.4a1 1 0 0 1-1.47.431L4.183 9.324 5.76 15h12.48Z" fill-rule="evenodd" style="color: inherit"/>
</svg>