<?xml version="1.0" encoding="utf-8"?>
<svg fill="#FFFFFF" viewBox="0 0 24 24" xmlns="http://www.w3.org/2000/svg">
<path _ngcontent-ng-c1909134112="" clip-rule="evenodd" d="M5 4a1 1 0 0 0-1 1v14a1 1 0 0 0 1 1h14a1 1 0 0 0 1-1V7.828a1 1 0 0 0-.293-.707L16.88 4.293A1 1 0 0 0 16.172 4H16v3a2 2 0 0 1-2 2H8a2 2 0 0 1-2-2V4H5Zm3 0v3h6V4H8ZM2 5a3 3 0 0 1 3-3h11.172a3 3 0 0 1 2.12.879l2.83 2.828A3 3 0 0 1 22 7.828V19a3 3 0 0 1-3 3H5a3 3 0 0 1-3-3V5Zm6.5 9.5a3.5 3.5 0 1 1 7 0 3.5 3.5 0 0 1-7 0ZM12 13a1.5 1.5 0 1 0 0 3 1.5 1.5 0 0 0 0-3Z" fill-rule="evenodd" style="color: inherit"/>
</svg>