<?xml version="1.0" encoding="utf-8"?>
<svg fill="#FFFFFF" viewBox="0 0 24 24" xmlns="http://www.w3.org/2000/svg">
<path _ngcontent-ng-c1909134112="" d="M11.719 1.242h.61l.421.024.516.046.445.06.55.093.481.105.445.117.47.141.468.164.41.164.352.153.258.117.187.094.34.175.281.164.188.106.445.281.187.129.211.152.13.094.187.14.176.141.164.13.117.105.129.105.187.176.094.082.2.188.269.269.082.094.093.094.082.093.118.13.105.128.14.164.13.164.164.211.164.223.152.21.2.305.14.223.152.258.153.27.129.234.093.187.164.34.211.492.176.457.152.446.141.48.129.516.105.527.082.527.06.516.046.516v1.078l-.059.703-.07.563-.07.433-.07.352-.106.445-.105.387-.106.351-.164.469-.129.328-.152.363-.14.305-.165.34-.14.258-.13.234-.152.258-.14.223-.13.199-.128.187-.164.235-.117.152-.141.188-.164.199-.106.129-.105.117-.106.129-.175.187-.141.153-.41.41-.13.105-.198.14-.176.106-.211.094-.281.094-.293.058-.246.024h-.2l-.293-.035-.257-.059-.235-.082-.246-.117-.222-.14-.211-.153-.235-.164-.199-.13-.293-.175-.187-.105-.317-.164-.293-.141-.363-.152-.422-.153-.422-.129-.375-.093-.457-.094-.41-.059-.328-.035-.375-.023h-.785l-.457.035-.387.047-.34.058-.387.082-.445.117L9 21.07l-.352.14-.316.142-.34.164-.27.152-.187.105-.281.176-.188.13-.398.28-.223.13-.222.093-.211.07-.282.059-.21.023h-.317l-.281-.035-.234-.058-.258-.094-.188-.094-.164-.094-.164-.117-.176-.152-.492-.492-.082-.094-.14-.152-.106-.13-.106-.117-.105-.128-.152-.188-.164-.223-.141-.187-.164-.235-.176-.269-.14-.223-.153-.258-.152-.269-.2-.387-.14-.281-.2-.457-.175-.445-.152-.434-.141-.457-.129-.492-.094-.422-.093-.527-.07-.528-.06-.597-.011-.13V12.68l.059-.586.046-.399.07-.445.083-.422.105-.457.106-.387.14-.457.141-.398.152-.387.176-.41.188-.387.164-.328.152-.27.129-.222.129-.21.105-.165.094-.14.152-.223.153-.211.14-.188.164-.21.13-.153.105-.129.14-.164.141-.152.082-.094.07-.082h.024l.023-.047.375-.375.094-.082.094-.094.129-.105.164-.153.129-.105.199-.164.21-.164.235-.176.188-.129.117-.082.176-.117.199-.129.328-.2.293-.163.539-.281.328-.153.504-.21.41-.153.54-.176.421-.117.434-.106.469-.093.433-.07.363-.048.352-.035.363-.023.27-.012Zm.011 5.871-.34.024-.374.047-.364.07-.28.07-.34.106-.294.105-.293.13-.222.105-.258.14-.246.152-.14.094-.165.117-.14.106-.13.105-.164.141-.14.129-.094.094-.023.011v.024h-.024v.023h-.023L7.594 9l-.094.094-.105.129-.094.105-.13.164-.151.211-.176.27-.13.222-.14.258-.176.387-.117.316-.105.328-.094.375-.059.317-.035.234-.035.422v.914l.035.422.059.398.082.364.082.293.129.375.14.328.141.293.152.27.141.222.129.187.152.2.106.129.129.152.164.176.246.246.094.082.164.14.21.165.2.14.176.117.28.164.317.164.258.118.305.117.316.105.363.094.446.082.445.047.211.012h.645l.398-.024.445-.058.34-.07.352-.094.422-.141.304-.129.293-.14.258-.141.281-.176.235-.164.164-.129.187-.152.13-.117.093-.082.258-.258.105-.13.117-.128.13-.164.163-.223.13-.2.093-.151.129-.223.094-.188.129-.28.14-.364.106-.34.093-.375.059-.328.035-.258.024-.305v-1.054l-.036-.364-.058-.386-.082-.364-.082-.293-.106-.316-.105-.258-.106-.234-.093-.188-.118-.222-.14-.235-.176-.257-.164-.223-.129-.152-.105-.13-.176-.187-.27-.27-.129-.105-.117-.105-.2-.153-.21-.152-.234-.152-.282-.164-.293-.153-.316-.14-.316-.118-.329-.105-.386-.094-.387-.07-.457-.047-.21-.012h-.434Z" fill="#FFFFFF" style="color: inherit"/>
</svg>