<?xml version="1.0" encoding="utf-8"?>
<svg fill="#FFFFFF" viewBox="0 0 24 24" xmlns="http://www.w3.org/2000/svg">
<path _ngcontent-ng-c1909134112="" clip-rule="evenodd" d="M12.002 8.429a3.571 3.571 0 1 0 0 7.143 3.571 3.571 0 0 0 0-7.143ZM10.432 12a1.571 1.571 0 1 1 3.142 0 1.571 1.571 0 0 1-3.143 0Z" fill-rule="evenodd" style="color: inherit"/>
<path _ngcontent-ng-c1909134112="" clip-rule="evenodd" d="M10.016 2a1 1 0 0 0-.96.718l-.714 2.428-.45.26-2.473-.586a1 1 0 0 0-1.097.473l-1.98 3.426a1 1 0 0 0 .142 1.191l1.748 1.832v.516L2.484 14.09a1 1 0 0 0-.142 1.19l1.98 3.428a1 1 0 0 0 1.097.472l2.473-.586.45.26.714 2.428a1 1 0 0 0 .96.718h3.96a1 1 0 0 0 .959-.713l.728-2.432.45-.26 2.463.597a1 1 0 0 0 1.101-.472l1.981-3.427a1 1 0 0 0-.139-1.187l-1.744-1.846v-.52l1.744-1.846a1 1 0 0 0 .139-1.187l-1.98-3.427a1 1 0 0 0-1.102-.472l-2.463.597-.45-.26-.728-2.432A1 1 0 0 0 13.977 2h-3.961Zm.132 4.095L10.764 4h2.468l.629 2.1a1 1 0 0 0 .458.579l1.141.658a1 1 0 0 0 .735.105l2.125-.514 1.233 2.134-1.505 1.593a1 1 0 0 0-.273.687v1.316a1 1 0 0 0 .273.687l1.505 1.593-1.233 2.134-2.125-.514a1 1 0 0 0-.735.105l-1.14.658a1 1 0 0 0-.46.58L13.233 20h-2.468l-.616-2.095a1 1 0 0 0-.46-.584l-1.141-.658a1 1 0 0 0-.73-.107l-2.135.506-1.234-2.134 1.508-1.58a1 1 0 0 0 .276-.69v-1.316a1 1 0 0 0-.276-.69l-1.508-1.58 1.234-2.134 2.135.506a1 1 0 0 0 .73-.107l1.14-.658a1 1 0 0 0 .46-.584Z" fill-rule="evenodd" style="color: inherit"/>
</svg>