<?xml version="1.0" encoding="utf-8"?>
<svg fill="#FFFFFF" viewBox="0 0 24 24" xmlns="http://www.w3.org/2000/svg">
<path _ngcontent-ng-c1909134112="" clip-rule="evenodd" d="M18 5.5a1.5 1.5 0 1 1-3 0 1.5 1.5 0 0 1 3 0Zm2 0a3.5 3.5 0 0 1-5.634 2.775l-3.56 2.571a3.499 3.499 0 0 1-.001 2.308l3.561 2.571a3.5 3.5 0 1 1-1.172 1.62l-3.56-2.57a3.5 3.5 0 1 1 0-5.55l3.56-2.571A3.5 3.5 0 1 1 20 5.5ZM16.5 20a1.5 1.5 0 1 0 0-3 1.5 1.5 0 0 0 0 3ZM9 12a1.5 1.5 0 1 1-3 0 1.5 1.5 0 0 1 3 0Z" fill-rule="evenodd" style="color: inherit"/>
</svg>