<?xml version="1.0" encoding="utf-8"?>
<svg fill="#FFFFFF" viewBox="0 0 24 24" xmlns="http://www.w3.org/2000/svg">
<path _ngcontent-ng-c1909134112="" clip-rule="evenodd" d="M5 19.83A2.83 2.83 0 0 1 2.17 17V7A2.83 2.83 0 0 1 5 4.17h7.171c.751 0 1.47.298 2.002.829l2.17 2.171H19A2.83 2.83 0 0 1 21.83 10v2a.83.83 0 1 1-1.66 0v-2A1.17 1.17 0 0 0 19 8.83H3.83V17c0 .646.524 1.17 1.17 1.17h3a.83.83 0 1 1 0 1.66H5ZM3.83 7.17h10.166L13 6.173a1.17 1.17 0 0 0-.828-.343H5A1.17 1.17 0 0 0 3.83 7v.17Zm9 9.33c0 .922.748 1.67 1.67 1.67h6.496l-1.583-1.583a.83.83 0 0 1 1.174-1.174l3 3a.83.83 0 0 1 0 1.174l-3 3a.83.83 0 0 1-1.174-1.174l1.583-1.583H14.5a3.33 3.33 0 1 1 3.33-3.33h-1.66a1.67 1.67 0 0 0-3.34 0Z" fill-rule="evenodd" style="color: inherit"/>
</svg>