<?xml version="1.0" encoding="utf-8"?>
<svg fill="#FFFFFF" viewBox="0 0 24 24" xmlns="http://www.w3.org/2000/svg">
<path _ngcontent-ng-c1909134112="" clip-rule="evenodd" d="M5.4 2.343c1.37-.089 3.49-.173 6.6-.173 3.11 0 5.23.084 6.601.173 1.656.108 2.9 1.406 3.035 3.022.1 1.193.2 2.721.203 4.026.002 1.393-.11 3.042-.212 4.267-.123 1.457-1.167 2.705-2.688 2.92-1.299.182-3.296.37-6.114.401l-.093.002a29.658 29.658 0 0 1-2.428 2.394 29.54 29.54 0 0 1-2.173 1.732 20.261 20.261 0 0 1-.817.558l-.048.03-.014.008-.006.004L6.813 21l.433.708a.83.83 0 0 1-1.256-.821v-.002l.002-.01.005-.037.018-.152a21.01 21.01 0 0 0 .141-2.282c0-.654-.043-1.265-.086-1.706-.36-.039-.683-.08-.972-.12-1.521-.214-2.569-1.462-2.695-2.92-.106-1.225-.221-2.872-.223-4.264-.002-1.306.095-2.836.192-4.03.131-1.615 1.372-2.913 3.027-3.02ZM7.793 19.29a27.959 27.959 0 0 0 3.887-3.624l.035-.04.009-.01.001-.001a.831.831 0 0 1 .623-.29l.46-.005c-.001 0 0 0 0 0 2.751-.03 4.678-.214 5.9-.386.682-.095 1.2-.655 1.264-1.414.102-1.213.209-2.805.207-4.125-.002-1.237-.1-2.712-.198-3.891-.07-.835-.69-1.451-1.488-1.503-1.33-.087-3.411-.17-6.493-.17-3.082 0-5.165.083-6.494.17-.796.052-1.413.666-1.48 1.499-.096 1.18-.19 2.655-.187 3.892.002 1.32.112 2.912.217 4.124.066.76.588 1.323 1.272 1.419.349.049.755.099 1.22.146.268.027.516.14.709.302.192.163.383.424.423.772a20.1 20.1 0 0 1 .135 2.25c0 .304-.008.603-.022.885ZM6.85 7.499a.83.83 0 0 1 .83-.83h8.64a.83.83 0 0 1 0 1.66H7.68a.83.83 0 0 1-.83-.83Zm0 3.6a.83.83 0 0 1 .83-.83h5.04a.83.83 0 1 1 0 1.66H7.68a.83.83 0 0 1-.83-.83Z" fill-rule="evenodd" style="color: inherit"/>
</svg>