<?xml version="1.0" encoding="utf-8"?>
<svg fill="#FFFFFF" viewBox="0 0 24 24" xmlns="http://www.w3.org/2000/svg">
<path _ngcontent-ng-c1909134112="" clip-rule="evenodd" d="M6.988 4.478a.83.83 0 0 1-.123 1.167A8.153 8.153 0 0 0 3.83 12a8.153 8.153 0 0 0 3.035 6.355.83.83 0 0 1-1.045 1.29A9.813 9.813 0 0 1 2.17 12a9.813 9.813 0 0 1 3.65-7.645.83.83 0 0 1 1.168.123Zm10.024 0a.83.83 0 0 1 1.167-.123A9.813 9.813 0 0 1 21.83 12a9.813 9.813 0 0 1-3.65 7.645.83.83 0 0 1-1.044-1.29A8.152 8.152 0 0 0 20.17 12a8.153 8.153 0 0 0-3.035-6.355.83.83 0 0 1-.123-1.167Zm-7.51 3.111a.83.83 0 0 1-.123 1.167A4.16 4.16 0 0 0 7.83 12a4.16 4.16 0 0 0 1.55 3.244.83.83 0 0 1-1.044 1.29A5.82 5.82 0 0 1 6.17 12a5.82 5.82 0 0 1 2.165-4.534.83.83 0 0 1 1.167.123Zm4.996 0a.83.83 0 0 1 1.167-.123A5.82 5.82 0 0 1 17.83 12a5.82 5.82 0 0 1-2.165 4.534.83.83 0 0 1-1.044-1.29A4.16 4.16 0 0 0 16.17 12a4.16 4.16 0 0 0-1.55-3.244.83.83 0 0 1-.122-1.167Zm-3.792 3.117a1.83 1.83 0 1 1 2.588 2.588 1.83 1.83 0 0 1-2.588-2.588Z" fill-rule="evenodd" style="color: inherit"/>
</svg>