<?xml version="1.0" encoding="utf-8"?>
<svg fill="#FFFFFF" viewBox="0 0 24 24" xmlns="http://www.w3.org/2000/svg">
<path _ngcontent-ng-c1909134112="" clip-rule="evenodd" d="M6.17 5c0-1.01.82-1.83 1.83-1.83h8c1.011 0 1.83.82 1.83 1.83v.17H19c1.01 0 1.83.82 1.83 1.83v1.5a4.33 4.33 0 0 1-3.707 4.285 5.834 5.834 0 0 1-4.293 2.986v1.425c.816.054 1.614.196 2.278.477.911.386 1.722 1.119 1.722 2.327h-1.66c0-.292-.144-.559-.71-.798-.588-.25-1.458-.372-2.46-.372-1.226 0-2.076.128-2.594.363-.245.111-.378.23-.452.336-.07.1-.124.241-.124.47H7.17c0-.52.133-1.003.422-1.419.286-.41.684-.697 1.127-.898.666-.303 1.51-.444 2.45-.492v-1.42a5.834 5.834 0 0 1-4.268-2.942 3.83 3.83 0 0 1-3.731-3.83V7c0-1.01.82-1.83 1.83-1.83h1.17V5Zm0 1.83H5a.17.17 0 0 0-.17.17v2c0 .94.597 1.74 1.433 2.042A5.864 5.864 0 0 1 6.17 10V6.83Zm11.599 4.02a2.67 2.67 0 0 0 1.4-2.35V7a.17.17 0 0 0-.17-.17H17.83V10c0 .289-.02.572-.061.85ZM8 4.83a.17.17 0 0 0-.17.17v5a4.17 4.17 0 0 0 8.34 0V5a.17.17 0 0 0-.17-.17H8Z" fill-rule="evenodd" style="color: inherit"/>
</svg>