<?xml version="1.0" encoding="utf-8"?>
<svg fill="#FFFFFF" viewBox="0 0 24 24" xmlns="http://www.w3.org/2000/svg">
<path _ngcontent-ng-c1909134112="" clip-rule="evenodd" d="M16.733 5.762a7.873 7.873 0 0 1 1.505 1.505c.594-.86 1.034-1.612 1.305-2.218.176-.395.262-.686.288-.88-.194.026-.486.111-.88.288-.606.27-1.358.71-2.218 1.305Zm3.264-1.598-.006-.001.006.001Zm-.16-.155a.024.024 0 0 1-.002-.006l.002.006Zm-.675 4.822c.845-1.156 1.501-2.22 1.897-3.105.219-.49.38-.972.426-1.412.045-.427-.003-.976-.413-1.386-.41-.41-.959-.459-1.386-.413-.44.047-.922.207-1.413.426-.885.396-1.948 1.052-3.104 1.897a7.83 7.83 0 0 0-10.33 10.33c-.846 1.157-1.502 2.22-1.898 3.105-.219.49-.38.973-.426 1.413-.046.427.003.976.413 1.386.41.41.959.458 1.386.413.44-.047.922-.207 1.412-.426.886-.396 1.949-1.052 3.105-1.897a7.83 7.83 0 0 0 10.33-10.33Zm-1.963-.155a6.204 6.204 0 0 0-2.326-2.138 6.17 6.17 0 0 0-6.197 10.661c1.395-1.087 2.942-2.456 4.505-4.018 1.562-1.563 2.93-3.11 4.018-4.505Zm-6.811 9.281a53.384 53.384 0 0 0 3.967-3.602 53.361 53.361 0 0 0 3.602-3.967 6.17 6.17 0 0 1-7.57 7.57Zm-3.121.28a7.872 7.872 0 0 1-1.505-1.504c-.594.86-1.035 1.612-1.305 2.218-.177.394-.262.686-.288.88.194-.026.485-.112.88-.288.606-.27 1.358-.711 2.218-1.305Zm-3.264 1.599h.006a.024.024 0 0 1-.006 0Zm.16.155a.024.024 0 0 1 .001.006l-.001-.006Z" fill-rule="evenodd" style="color: inherit"/>
</svg>