<?xml version="1.0" encoding="utf-8"?>
<svg fill="#FFFFFF" viewBox="0 0 24 24" xmlns="http://www.w3.org/2000/svg">
<path _ngcontent-ng-c1909134112="" clip-rule="evenodd" d="M8 2.192a2.642 2.642 0 1 0 0 5.283 2.642 2.642 0 0 0 0-5.283Zm2.566 5.743a4.025 4.025 0 1 0-5.131 0 7.361 7.361 0 0 0-4.787 7.21.693.693 0 0 0 .414.605 17.303 17.303 0 0 0 8.088 1.404.692.692 0 1 0-.09-1.38c-.35.023-.704.034-1.06.034a15.93 15.93 0 0 1-5.972-1.153 5.975 5.975 0 0 1 10.079-4.162.692.692 0 0 0 .95-1.004 7.36 7.36 0 0 0-2.492-1.554Zm3.267 3.707c.382 0 .692.31.692.691v1.809h1.808a.692.692 0 1 1 0 1.383h-1.808v1.808a.692.692 0 1 1-1.383 0v-1.808h-1.809a.692.692 0 0 1 0-1.383h1.809v-1.809c0-.382.31-.691.691-.691Z" fill="#FFFFFF" fill-rule="evenodd" style="color: inherit"/>
</svg>