<?xml version="1.0" encoding="utf-8"?>
<svg fill="#FFFFFF" viewBox="0 0 24 24" xmlns="http://www.w3.org/2000/svg">
<path _ngcontent-ng-c1909134112="" d="M16.25 7a.75.75 0 0 0 0 1.5h2a.75.75 0 0 0 0-1.5h-2Zm-.75 3.25a.75.75 0 0 1 .75-.75h2a.75.75 0 0 1 0 1.5h-2a.75.75 0 0 1-.75-.75Zm.75 1.75a.75.75 0 0 0 0 1.5h2a.75.75 0 0 0 0-1.5h-2Z" fill="#FFFFFF" style="color: inherit"/>
<path _ngcontent-ng-c1909134112="" clip-rule="evenodd" d="M5 3a3 3 0 0 0-3 3v12a3 3 0 0 0 3 3h14a3 3 0 0 0 3-3V6a3 3 0 0 0-3-3H5ZM4 6a1 1 0 0 1 1-1h7.5v14H5a1 1 0 0 1-1-1V6Zm10.5 13V5H19a1 1 0 0 1 1 1v12a1 1 0 0 1-1 1h-4.5Z" fill="#FFFFFF" fill-rule="evenodd" style="color: inherit"/>
</svg>