<?xml version="1.0" encoding="utf-8"?>
<svg fill="#FFFFFF" viewBox="0 0 24 24" xmlns="http://www.w3.org/2000/svg">
<path _ngcontent-ng-c1909134112="" clip-rule="evenodd" d="M12 4a8 8 0 0 0-.89 15.951 1 1 0 0 1-.22 1.988C5.89 21.386 2 17.148 2 12 2 6.477 6.477 2 12 2c5.148 0 9.386 3.89 9.939 8.89a1 1 0 1 1-1.988.22A8.001 8.001 0 0 0 12 4Zm0 2a1 1 0 0 1 1 1v5a1 1 0 0 1-.293.707l-3.5 3.5a1 1 0 0 1-1.414-1.414L11 11.586V7a1 1 0 0 1 1-1Zm3.5 8a1 1 0 1 0 0 2h2.865l-3.633 4.36A1 1 0 0 0 15.5 22h5a1 1 0 1 0 0-2h-2.865l3.633-4.36A1 1 0 0 0 20.5 14h-5Z" fill-rule="evenodd" style="color: inherit"/>
</svg>