<?xml version="1.0" encoding="utf-8"?>
<svg fill="#FFFFFF" viewBox="0 0 24 24" xmlns="http://www.w3.org/2000/svg">
<path _ngcontent-ng-c1909134112="" clip-rule="evenodd" d="M6 2a1 1 0 0 1 .936.649l3 8a1 1 0 1 1-1.872.702L7.557 10H4.443l-.507 1.351a1 1 0 0 1-1.872-.702l3-8A1 1 0 0 1 6 2Zm-.807 6h1.614L6 5.848 5.193 8Zm11.1-3.707a1 1 0 0 1 1.414 0l4 4a1 1 0 1 1-1.414 1.414L18 7.414V19a1 1 0 1 1-2 0V7.414l-2.293 2.293a1 1 0 0 1-1.414-1.414l4-4ZM2 14a1 1 0 0 1 1-1h6a1 1 0 0 1 .76 1.65L5.173 20H9a1 1 0 1 1 0 2H3a1 1 0 0 1-.76-1.65L6.827 15H3a1 1 0 0 1-1-1Z" fill="#FFFFFF" fill-rule="evenodd" style="color: inherit"/>
</svg>