<?xml version="1.0" encoding="utf-8"?>
<svg fill="#FFFFFF" viewBox="0 0 24 24" xmlns="http://www.w3.org/2000/svg">
<path _ngcontent-ng-c1909134112="" clip-rule="evenodd" d="M17 4a1 1 0 0 1 1 1v11.586l2.293-2.293a1 1 0 0 1 1.414 1.414l-4 4a1 1 0 0 1-1.414 0l-4-4a1 1 0 0 1 1.414-1.414L16 16.586V5a1 1 0 0 1 1-1ZM2 6a1 1 0 0 1 1-1h6a1 1 0 0 1 0 2H3a1 1 0 0 1-1-1Zm0 6a1 1 0 0 1 1-1h6a1 1 0 1 1 0 2H3a1 1 0 0 1-1-1Zm0 6a1 1 0 0 1 1-1h6a1 1 0 1 1 0 2H3a1 1 0 0 1-1-1Z" fill-rule="evenodd" style="color: inherit"/>
</svg>