<?xml version="1.0" encoding="utf-8"?>
<svg fill="#FFFFFF" viewBox="0 0 24 24" xmlns="http://www.w3.org/2000/svg">
<path _ngcontent-ng-c1909134112="" clip-rule="evenodd" d="M2 4a1 1 0 0 1 1-1h10a1 1 0 1 1 0 2H3a1 1 0 0 1-1-1Zm0 5.333a1 1 0 0 1 1-1h10a1 1 0 1 1 0 2H3a1 1 0 0 1-1-1Zm0 5.334a1 1 0 0 1 1-1h6.943a1 1 0 0 1 0 2H3a1 1 0 0 1-1-1ZM2 20a1 1 0 0 1 1-1h6.943a1 1 0 0 1 0 2H3a1 1 0 0 1-1-1ZM17.828 3a1 1 0 0 1 1 1v13.556l1.122-1.121a1 1 0 0 1 1.414 1.414l-2.829 2.829a1 1 0 0 1-1.414 0l-2.828-2.829a1 1 0 0 1 1.414-1.414l1.121 1.121V4a1 1 0 0 1 1-1Z" fill-rule="evenodd" style="color: inherit"/>
</svg>