<?xml version="1.0" encoding="utf-8"?>
<svg fill="#FFFFFF" viewBox="0 0 24 24" xmlns="http://www.w3.org/2000/svg">
<path _ngcontent-ng-c1909134112="" clip-rule="evenodd" d="m10.998 5.02.002.023v13.914c0 .01 0 .019-.002.024l-2.956-3.33-.014-.017A1.982 1.982 0 0 0 6.58 15H3.012A.064.064 0 0 1 3 14.959V9.04c0-.02.007-.033.012-.04H6.59a1.98 1.98 0 0 0 1.452-.642l2.956-3.339ZM9.572 3.613C10.886 2.245 13 3.304 13 5.043v13.914c0 1.753-2.141 2.804-3.446 1.41a.865.865 0 0 1-.018-.02L6.566 17H3c-1.142 0-2-.952-2-2.041V9.04C1 7.951 1.86 7 3 7h3.573l2.971-3.356a.988.988 0 0 1 .028-.03Zm8.705.695a1 1 0 0 1 1.414-.032c4.396 4.198 4.43 11.269-.005 15.45a1 1 0 1 1-1.372-1.455c3.59-3.384 3.575-9.13-.005-12.549a1 1 0 0 1-.032-1.414ZM15.684 7.55a1 1 0 0 1 1.116.35c.836 1.114 1.2 2.655 1.2 4.1 0 1.445-.364 2.985-1.2 4.1a1 1 0 0 1-1.8-.6v-7a1 1 0 0 1 .684-.949Z" fill="#FFFFFF" fill-rule="evenodd" style="color: inherit"/>
</svg>