<?xml version="1.0" encoding="utf-8"?>
<svg fill="#FFFFFF" viewBox="0 0 24 24" xmlns="http://www.w3.org/2000/svg">
<path _ngcontent-ng-c1909134112="" d="M2.546 21.455a1.904 1.904 0 0 0 1.387.544c1.443 0 3.184-1.088 3.864-1.524l1.17-.789c.948.36 1.953.545 2.967.544a8.164 8.164 0 0 0 8.163-8.163 8.326 8.326 0 0 0-.544-2.966l.79-1.17c.598-.953 2.394-3.837.979-5.252-1.415-1.416-3.211-.518-6.422 1.768A8.19 8.19 0 0 0 4.314 15.033c-2.286 3.21-2.884 5.333-1.768 6.422Zm15.375-9.388a5.959 5.959 0 0 1-5.987 5.986l-.79-.054a46.985 46.985 0 0 0 3.511-3.211 46.985 46.985 0 0 0 3.211-3.51c.032.261.05.525.055.789Zm1.741-7.729c-.082.49-.517 1.415-1.333 2.667a7.75 7.75 0 0 0-.626-.707 5.064 5.064 0 0 0-.708-.626c1.388-.898 2.232-1.252 2.667-1.334ZM7.689 7.822a6.041 6.041 0 0 1 8.49 0c.302.33.575.685.816 1.06a48.002 48.002 0 0 1-3.864 4.382 48.002 48.002 0 0 1-4.381 3.864 7.833 7.833 0 0 1-1.061-.816 6.068 6.068 0 0 1 0-8.49Zm-2.15 9.306c.186.255.396.492.626.708l.707.626c-1.252.816-2.177 1.251-2.667 1.333.082-.435.436-1.279 1.334-2.667Z" style="color: inherit"/>
</svg>