<?xml version="1.0" encoding="utf-8"?>
<svg fill="#FFFFFF" viewBox="0 0 24 24" xmlns="http://www.w3.org/2000/svg">
<path _ngcontent-ng-c1909134112="" d="M2 17.001A2.995 2.995 0 0 0 4.995 20H9a5 5 0 0 1 7.894-6.137 3 3 0 0 1 4.227.016l.879.878V9a3 3 0 0 0-3-3h-6.586l-1.707-1.707A1 1 0 0 0 10 4H5C3.346 4 2 5.337 2 6.996v10.005Z" fill="#FFFFFF" style="color: inherit"/>
<path _ngcontent-ng-c1909134112="" d="M2 17.001A2.995 2.995 0 0 0 4.995 20H9a4.977 4.977 0 0 1-.9-2H4.995A.995.995 0 0 1 4 17.001V6.996C4 6.446 4.445 6 5 6h4.586l1.707 1.707A1 1 0 0 0 12 8h7a1 1 0 0 1 1 1v4.17c.41.145.794.381 1.121.709l.879.878V9a3 3 0 0 0-3-3h-6.586l-1.707-1.707A1 1 0 0 0 10 4H5C3.346 4 2 5.337 2 6.996v10.005Z" fill="#FFFFFF" style="color: inherit"/>
<path _ngcontent-ng-c1909134112="" clip-rule="evenodd" d="M13 16a1 1 0 1 0 0 2h6.586l-1.293-1.293a1 1 0 0 1 1.414-1.414l3 3a1 1 0 0 1 0 1.414l-3 3a1 1 0 0 1-1.414-1.414L19.586 20H13a3 3 0 1 1 3-3h-2a1 1 0 0 0-1-1Z" fill="#FFFFFF" fill-rule="evenodd" style="color: inherit"/>
</svg>