<?xml version="1.0" encoding="utf-8"?>
<svg fill="#FFFFFF" viewBox="0 0 24 24" xmlns="http://www.w3.org/2000/svg">
<path _ngcontent-ng-c1909134112="" clip-rule="evenodd" d="M14.665 8c0 .357-.028.709-.082 1.052a2.253 2.253 0 0 0-1.312-.245 5.333 5.333 0 1 0-4.508 4.47c.036.042.074.082.113.122l.999.999a6.666 6.666 0 1 1 4.79-6.399Zm-.602 2.512a.75.75 0 0 1 0 1.06l-1.916 1.916a.75.75 0 0 1-1.061 0l-1.149-1.15A.75.75 0 1 1 11 11.278l.005.006.613.613 1.385-1.385a.75.75 0 0 1 1.06 0Zm-3.275-1.607.068.687a2.257 2.257 0 0 0-1.323.169l-.1-1a.7.7 0 0 1 .174-.535l.94-1.055-1.38-.3a.7.7 0 0 1-.455-.331l-.713-1.22-.712 1.22a.7.7 0 0 1-.455.33l-1.38.301.94 1.055a.7.7 0 0 1 .173.535l-.14 1.405 1.293-.568a.7.7 0 0 1 .563 0l.873.384a2.266 2.266 0 0 0-.815 1.098l-.34-.15-2.03.892a.7.7 0 0 1-.978-.71l.22-2.207L3.736 7.25a.7.7 0 0 1 .373-1.15l2.167-.472 1.119-1.915a.7.7 0 0 1 1.209 0l1.119 1.915 2.167.473a.7.7 0 0 1 .373 1.15l-1.475 1.655Z" fill-rule="evenodd" style="color: inherit"/>
</svg>