<?xml version="1.0" encoding="utf-8"?>
<svg fill="#FFFFFF" viewBox="0 0 24 24" xmlns="http://www.w3.org/2000/svg">
<path _ngcontent-ng-c1909134112="" clip-rule="evenodd" d="M2.667 3.607a2 2 0 0 0-2 2v6.667a2 2 0 0 0 2 2h6.666a2 2 0 0 0 2-2V9.607h3.334a.667.667 0 0 0 0-1.333h-3.334V5.607a2 2 0 0 0-2-2H2.667ZM10 8.931V5.607a.667.667 0 0 0-.667-.666H2.667A.667.667 0 0 0 2 5.607v6.667c0 .368.299.667.667.667h6.666a.667.667 0 0 0 .667-.667V8.931Z" fill="#FFFFFF" fill-rule="evenodd" style="color: inherit"/>
</svg>