<?xml version="1.0" encoding="utf-8"?>
<svg fill="#FFFFFF" viewBox="0 0 24 24" xmlns="http://www.w3.org/2000/svg">
<path _ngcontent-ng-c1909134112="" d="M9.525 2.44c1.192-1.74 3.758-1.74 4.95 0l1.86 2.713a3 3 0 0 0 1.626 1.182l3.155.93c2.022.596 2.815 3.036 1.53 4.707l-2.007 2.607a3 3 0 0 0-.62 1.912l.09 3.288c.058 2.107-2.018 3.616-4.004 2.91l-3.1-1.103a3 3 0 0 0-2.01 0l-3.1 1.102c-1.986.707-4.062-.802-4.004-2.909l.09-3.288a3 3 0 0 0-.62-1.912l-2.006-2.607C.069 10.302.862 7.86 2.884 7.265l3.155-.93a3 3 0 0 0 1.627-1.182l1.86-2.713Z" fill="#FFFFFF" fill-opacity=".055" style="color: inherit"/>
<path _ngcontent-ng-c1909134112="" clip-rule="evenodd" d="m14.685 6.284-1.86-2.714a1 1 0 0 0-1.65 0l-1.86 2.714a5 5 0 0 1-2.71 1.97l-3.156.93a1 1 0 0 0-.51 1.568l2.007 2.607a5 5 0 0 1 1.035 3.187l-.09 3.288a1 1 0 0 0 1.334.97l3.1-1.102a5 5 0 0 1 3.35 0l3.1 1.102a1 1 0 0 0 1.334-.97l-.09-3.288a5 5 0 0 1 1.035-3.187l2.006-2.607a1 1 0 0 0-.51-1.569l-3.155-.93a5 5 0 0 1-2.71-1.97Zm-.21-3.844C13.283.7 10.717.7 9.525 2.44l-1.86 2.713A3 3 0 0 1 6.04 6.335l-3.155.93C.862 7.86.069 10.3 1.354 11.972l2.007 2.607a3 3 0 0 1 .62 1.912l-.09 3.288c-.058 2.107 2.018 3.616 4.004 2.91l3.1-1.103a3 3 0 0 1 2.01 0l3.1 1.102c1.986.707 4.062-.802 4.004-2.909l-.09-3.288a3 3 0 0 1 .62-1.912l2.006-2.607c1.286-1.67.493-4.111-1.529-4.707l-3.155-.93a3 3 0 0 1-1.627-1.182l-1.86-2.713Z" fill="#FFFFFF" fill-rule="evenodd" style="color: inherit"/>
</svg>