<?xml version="1.0" encoding="utf-8"?>
<svg fill="#FFFFFF" viewBox="0 0 24 24" xmlns="http://www.w3.org/2000/svg">
<path _ngcontent-ng-c1909134112="" clip-rule="evenodd" d="M6.041 5.5A3 3 0 0 1 9 3h8a3 3 0 0 1 3 3v1a3 3 0 0 1-3 3H9a3 3 0 0 1-2.959-2.5H5a1 1 0 0 0-1 1v6a2 2 0 0 0 2 2h2.041A3 3 0 0 1 11 14h8a3 3 0 0 1 3 3v1a3 3 0 0 1-3 3h-8a3 3 0 0 1-2.959-2.5H6a4 4 0 0 1-4-4v-6a3 3 0 0 1 3-3h1.041ZM9 5a1 1 0 0 0-1 1v1a1 1 0 0 0 1 1h8a1 1 0 0 0 1-1V6a1 1 0 0 0-1-1H9Zm2 11a1 1 0 0 0-1 1v1a1 1 0 0 0 1 1h8a1 1 0 0 0 1-1v-1a1 1 0 0 0-1-1h-8Z" fill-rule="evenodd" style="color: inherit"/>
</svg>