<?xml version="1.0" encoding="utf-8"?>
<svg fill="#FFFFFF" viewBox="0 0 24 24" xmlns="http://www.w3.org/2000/svg">
<path _ngcontent-ng-c1909134112="" d="m4.818 20.43-.62-16.51a1.006 1.006 0 0 1 .942-1.04l14.042-.878a1.005 1.005 0 0 1 1.068 1.004v17.989a1.006 1.006 0 0 1-1.05 1.004l-13.423-.603a1.006 1.006 0 0 1-.96-.967Z" fill="#FFFFFF" style="color: inherit"/>
<path _ngcontent-ng-c1909134112="" d="m16.051 4.458.096-2.306L18.076 2l.083 2.379a.15.15 0 0 1-.243.123l-.744-.586-.88.668a.15.15 0 0 1-.24-.126Zm-2.466 5.08c0 .391 2.635.204 2.989-.07 0-2.665-1.43-4.065-4.047-4.065-2.618 0-4.084 1.422-4.084 3.554 0 3.715 5.012 3.786 5.012 5.812 0 .568-.278.906-.891.906-.798 0-1.114-.408-1.077-1.794 0-.3-3.044-.394-3.137 0-.237 3.36 1.856 4.328 4.251 4.328 2.32 0 4.14-1.237 4.14-3.476 0-3.98-5.087-3.874-5.087-5.847 0-.8.594-.906.947-.906.371 0 1.04.065.984 1.558Z" fill="#FFFFFF" style="color: inherit"/>
</svg>