<?xml version="1.0" encoding="utf-8"?>
<svg fill="#FFFFFF" viewBox="0 0 24 24" xmlns="http://www.w3.org/2000/svg">
<path _ngcontent-ng-c1909134112="" clip-rule="evenodd" d="M8.75 6a2 2 0 1 1-4 0 2 2 0 0 1 4 0Zm2 0a4.002 4.002 0 0 1-3 3.874V13a4 4 0 0 0 4 4h1.626a4.002 4.002 0 0 1 7.874 1 4 4 0 0 1-7.874 1H11.75a6 6 0 0 1-6-6V9.874A4.002 4.002 0 0 1 6.75 2a4 4 0 0 1 4 4Zm8.5 12a2 2 0 1 1-4 0 2 2 0 0 1 4 0ZM18 2a1 1 0 0 1 1 1v2h2a1 1 0 1 1 0 2h-2v2a1 1 0 1 1-2 0V7h-2a1 1 0 1 1 0-2h2V3a1 1 0 0 1 1-1Z" fill-rule="evenodd" style="color: inherit"/>
</svg>