<?xml version="1.0" encoding="utf-8"?>
<svg fill="#FFFFFF" viewBox="0 0 24 24" xmlns="http://www.w3.org/2000/svg">
<path _ngcontent-ng-c1909134112="" d="M2 21a1 1 0 1 0 2 0H2Zm2-2a1 1 0 1 0-2 0h2Zm-2-3a1 1 0 1 0 2 0H2Zm2-2a1 1 0 1 0-2 0h2Zm16 7a1 1 0 1 0 2 0h-2Zm2-2a1 1 0 1 0-2 0h2Zm-2-3a1 1 0 1 0 2 0h-2Zm2-2a1 1 0 1 0-2 0h2ZM7 2a1 1 0 0 0-2 0h2Zm12 0a1 1 0 1 0-2 0h2ZM2 11a1 1 0 1 0 2 0H2Zm18 0a1 1 0 1 0 2 0h-2ZM4 21v-2H2v2h2Zm0-5v-2H2v2h2Zm18 5v-2h-2v2h2Zm0-5v-2h-2v2h2ZM6 5h12V3H6v2Zm14 2v2h2V7h-2ZM4 9V7H2v2h2Zm14-4a2 2 0 0 1 2 2h2a4 4 0 0 0-4-4v2ZM6 3a4 4 0 0 0-4 4h2a2 2 0 0 1 2-2V3Zm-3 7h18V8H3v2Zm4-6V2H5v2h2Zm12 0V2h-2v2h2ZM2 9v2h2V9H2Zm18 0v2h2V9h-2Z" fill="#FFFFFF" style="color: inherit"/>
<path _ngcontent-ng-c1909134112="" d="M6 13h4m0 3h4m0 3h4" stroke="currentColor" stroke-linecap="round" stroke-linejoin="round" stroke-width="2" style="color: inherit"/>
</svg>