<?xml version="1.0" encoding="utf-8"?>
<svg fill="#FFFFFF" viewBox="0 0 24 24" xmlns="http://www.w3.org/2000/svg">
<path _ngcontent-ng-c1909134112="" clip-rule="evenodd" d="M4.5 11.5a1 1 0 1 0 2 0v-3a2 2 0 0 1 2-2h9.586l-1.293 1.293a1 1 0 0 0 1.414 1.414l3-3a1 1 0 0 0 0-1.414l-3-3a1 1 0 1 0-1.414 1.414L18.086 4.5H8.5a4 4 0 0 0-4 4v3Zm15 1a1 1 0 1 0-2 0v3a2 2 0 0 1-2 2H5.914l1.293-1.293a1 1 0 1 0-1.414-1.414l-3 3a1 1 0 0 0 0 1.414l3 3a1 1 0 0 0 1.414-1.414L5.914 19.5H15.5a4 4 0 0 0 4-4v-3Z" fill-rule="evenodd" style="color: inherit"/>
</svg>