<?xml version="1.0" encoding="utf-8"?>
<svg fill="#FFFFFF" viewBox="0 0 24 24" xmlns="http://www.w3.org/2000/svg">
<path _ngcontent-ng-c1909134112="" d="m15.376 14.022 2.3.32a1.087 1.087 0 0 0 1.232-.98l.146-1.64c.04-.44.017-.884-.066-1.319-.256-1.346-1.079-2.528-2.357-3.025-1.48-.575-3.68-1.211-6.158-1.211-2.397 0-4.532.595-6.01 1.155-1.373.52-2.25 1.794-2.508 3.24-.08.45-.1.907-.057 1.362l.136 1.444c.058.617.618 1.06 1.232.975l2.305-.321c.552-.077.957-.56.936-1.117l-.075-2.028s.981-.67 4.041-.67c3.06 0 4.041.67 4.041.67l-.074 2.028c-.021.558.383 1.04.936 1.117Z" fill="#FFFFFF" stroke="currentColor" stroke-linecap="round" stroke-linejoin="round" style="color: inherit"/>
</svg>