<?xml version="1.0" encoding="utf-8"?>
<svg fill="#FFFFFF" viewBox="0 0 24 24" xmlns="http://www.w3.org/2000/svg">
<path _ngcontent-ng-c1909134112="" d="M8 3.334 1.333 10V8c0-3 .334-4.333.334-4.333S3 3.334 6 3.334h2ZM10.667 6 4 12.667h2c3 0 4.333-.334 4.333-.334S10.667 11 10.667 8V6Z" fill="#FFFFFF" fill-opacity=".1" style="color: inherit"/>
<path _ngcontent-ng-c1909134112="" d="M11.377 3.377a.533.533 0 0 0-.754-.754l-10 10a.533.533 0 0 0 .754.754l10-10Z" fill="#FFFFFF" stroke="currentcolor" stroke-width=".333" style="color: inherit"/>
<path _ngcontent-ng-c1909134112="" d="M3.297 3.976A30.41 30.41 0 0 1 6 3.867h2A.533.533 0 0 0 8 2.8H6c-1.175 0-2.101.05-2.798.113A2.49 2.49 0 0 0 .913 5.202 31.468 31.468 0 0 0 .8 8v2a.533.533 0 0 0 1.067 0V8c0-1.144.049-2.039.109-2.703a1.423 1.423 0 0 1 1.32-1.321Z" fill="#FFFFFF" stroke="currentcolor" stroke-width=".25" style="color: inherit"/>
<path _ngcontent-ng-c1909134112="" clip-rule="evenodd" d="M10.133 6.687a.533.533 0 0 1 .265-.48l2.797-1.632A1.333 1.333 0 0 1 15.2 5.726v4.548c0 1.03-1.116 1.67-2.005 1.152l-2.063-1.204c-.014.208-.029.4-.045.577A2.49 2.49 0 0 1 8.8 13.087c-.7.063-1.625.113-2.8.113H4a.533.533 0 0 1 0-1.066h2c1.144 0 2.04-.05 2.703-.11a1.424 1.424 0 0 0 1.322-1.32c.06-.665.108-1.56.108-2.704V6.687Zm1.067.286V8c0 .364-.005.703-.013 1.02l2.545 1.485a.267.267 0 0 0 .401-.23v-4.55a.267.267 0 0 0-.4-.23L11.2 6.973Z" fill="#FFFFFF" fill-rule="evenodd" stroke="currentcolor" stroke-width=".25" style="color: inherit"/>
</svg>