<?xml version="1.0" encoding="utf-8"?>
<svg fill="#FFFFFF" viewBox="0 0 24 24" xmlns="http://www.w3.org/2000/svg">
<path _ngcontent-ng-c1909134112="" d="M14.933 8c0-1.24-.043-2.29-.104-3.16-.143-2.017-1.653-3.526-3.669-3.669A44.925 44.925 0 0 0 8 1.067c-1.24 0-2.29.043-3.16.104-2.017.143-3.527 1.652-3.67 3.668-.06.87-.104 1.922-.104 3.161 0 1.304.048 2.4.115 3.296.144 1.944 1.577 3.394 3.52 3.531.883.063 1.973.106 3.299.106 1.325 0 2.416-.043 3.298-.106 1.943-.137 3.376-1.588 3.52-3.53.068-.896.115-1.993.115-3.297Z" style="color: inherit"/>
<path _ngcontent-ng-c1909134112="" d="M14.933 8c0-1.24-.043-2.29-.104-3.16-.143-2.017-1.653-3.526-3.669-3.669A44.925 44.925 0 0 0 8 1.067c-1.24 0-2.29.043-3.16.104-2.017.143-3.527 1.652-3.67 3.668-.06.87-.104 1.922-.104 3.161 0 1.304.048 2.4.115 3.296.144 1.944 1.577 3.394 3.52 3.531.883.063 1.973.106 3.299.106 1.325 0 2.416-.043 3.298-.106 1.943-.137 3.376-1.588 3.52-3.53.068-.896.115-1.993.115-3.297Z" stroke="currentColor" stroke-linecap="round" stroke-linejoin="round" stroke-width="1.6" style="color: inherit"/>
<path _ngcontent-ng-c1909134112="" clip-rule="evenodd" d="M6.5 3.5a.5.5 0 0 0 0 1h1.293L3.646 8.646a.5.5 0 1 0 .708.708L8.5 5.207V6.5a.5.5 0 0 0 1 0V4a.5.5 0 0 0-.5-.5H6.5Zm3 9a.5.5 0 0 0 0-1H8.207l4.147-4.146a.5.5 0 0 0-.708-.708L7.5 10.793V9.5a.5.5 0 0 0-1 0V12a.5.5 0 0 0 .5.5h2.5Z" fill="#FFFFFF" fill-rule="evenodd" stroke="currentColor" stroke-linecap="round" stroke-linejoin="round" stroke-width=".2" style="color: inherit"/>
</svg>