<?xml version="1.0" encoding="utf-8"?>
<svg fill="#FFFFFF" viewBox="0 0 24 24" xmlns="http://www.w3.org/2000/svg">
<path _ngcontent-ng-c1909134112="" d="M11.453 15.513h1.094v-3.026H15.3v-1.075h-2.753V8.387h-1.094v3.025h-2.72v1.075h2.72v3.026Z" fill="#FFFFFF" style="color: inherit"/>
<path _ngcontent-ng-c1909134112="" d="M6.378 19.882h.929v-2.689H9.76v-.84H7.307V13.63h-.929v2.723H3.924v.84h2.454v2.69Z" fill="#FFFFFF" style="color: inherit"/>
<path _ngcontent-ng-c1909134112="" d="M16.693 10.168h.929V7.48h2.488v-.807h-2.488V3.95h-.929v2.722H14.24v.807h2.454v2.69Z" fill="#FFFFFF" style="color: inherit"/>
<path _ngcontent-ng-c1909134112="" d="M11.619 22h.796v-1.916h1.691v-.706h-1.691v-1.916h-.796v1.916H9.96v.706h1.659V22Z" fill="#FFFFFF" style="color: inherit"/>
<path _ngcontent-ng-c1909134112="" d="M6.411 10.168h.863V7.445H9.76v-.773H7.274V3.95H6.41v2.722H3.924v.773H6.41v2.723Z" fill="#FFFFFF" style="color: inherit"/>
<path _ngcontent-ng-c1909134112="" d="M19.512 14.202h.796v-1.883H22v-.74h-1.692V9.698h-.796v1.883h-1.658v.74h1.658v1.882Z" fill="#FFFFFF" style="color: inherit"/>
<path _ngcontent-ng-c1909134112="" clip-rule="evenodd" d="M16.693 19.882h.929v-2.689h2.488v-.84h-2.488V13.63h-.929v2.723H14.24v.84h2.454v2.69Z" fill="#FFFFFF" fill-rule="evenodd" style="color: inherit"/>
<path _ngcontent-ng-c1909134112="" d="M13.973 4.42v-.57h-1.658V2h-.597v1.849H10.06v.571h1.658v1.85h.597V4.42h1.659ZM3.659 14.067h.597V12.22h1.659v-.572h-1.66V9.832h-.597v1.815H2v.605l1.658-.034v1.85Z" fill="#FFFFFF" style="color: inherit"/>
</svg>