<?xml version="1.0" encoding="utf-8"?>
<svg fill="#FFFFFF" viewBox="0 0 24 24" xmlns="http://www.w3.org/2000/svg">
<path _ngcontent-ng-c1909134112="" d="M14.933 8c0-.563-.017-1.072-.044-1.53-.118-1.976-1.688-3.352-3.664-3.457A61.136 61.136 0 0 0 8 2.933c-1.27 0-2.343.033-3.225.08-1.977.105-3.547 1.481-3.665 3.457-.027.458-.044.967-.044 1.53 0 .604.02 1.147.05 1.63.124 1.92 1.635 3.257 3.556 3.358.887.046 1.988.079 3.328.079 1.34 0 2.44-.033 3.327-.08 1.922-.1 3.433-1.436 3.556-3.357.031-.483.05-1.026.05-1.63ZM11.2 6.667H4.8M7.733 9.067H4.8" stroke="currentColor" stroke-linecap="round" stroke-linejoin="round" stroke-width="1.6" style="color: inherit"/>
</svg>