<?xml version="1.0" encoding="utf-8"?>
<svg fill="#FFFFFF" viewBox="0 0 24 24" xmlns="http://www.w3.org/2000/svg">
<path _ngcontent-ng-c1909134112="" clip-rule="evenodd" d="M12.084 4C8.734 4 6.04 6.679 6.04 9.957c0 3.277 2.694 5.956 6.044 5.956 2.884 0 5.287-1.989 5.894-4.635a1 1 0 0 1 1.95.448c-.816 3.55-4.024 6.187-7.844 6.187-4.43 0-8.044-3.55-8.044-7.956C4.04 5.55 7.653 2 12.084 2c.944 0 1.852.172 2.694.482a1 1 0 0 1-.692 1.877A5.774 5.774 0 0 0 12.084 4Zm7.576.612a1 1 0 0 1 0 1.414l-6.956 6.957a1 1 0 0 1-1.415 0l-2.318-2.32a1 1 0 1 1 1.414-1.414l1.611 1.612 6.25-6.25a1 1 0 0 1 1.414 0ZM4.11 20a1 1 0 1 0 0 2h15.778a1 1 0 0 0 0-2H4.11Z" fill-rule="evenodd" style="color: inherit"/>
</svg>