<?xml version="1.0" encoding="utf-8"?>
<svg fill="#FFFFFF" viewBox="0 0 24 24" xmlns="http://www.w3.org/2000/svg">
<path _ngcontent-ng-c1909134112="" clip-rule="evenodd" d="M16.086 3.5a2 2 0 0 1 2.828 0L20.5 5.086a2 2 0 0 1 0 2.828L7.914 20.5a2 2 0 0 1-2.828 0L3.5 18.914a2 2 0 0 1 0-2.828L16.086 3.5ZM15.414 7 17 8.586 19.086 6.5 17.5 4.914 15.414 7Zm.172 3L14 8.414 4.914 17.5 6.5 19.086 15.586 10Z" fill="#FFFFFF" fill-rule="evenodd" style="color: inherit"/>
<path _ngcontent-ng-c1909134112="" d="M10.446 5.111a.2.2 0 0 0 .358 0l.479-.958a.2.2 0 0 1 .09-.089l.957-.479a.2.2 0 0 0 0-.358l-.958-.478a.2.2 0 0 1-.09-.09l-.478-.957a.2.2 0 0 0-.358 0l-.479.957a.2.2 0 0 1-.09.09l-.957.478a.2.2 0 0 0 0 .358l.958.479a.2.2 0 0 1 .09.09l.478.957ZM5.211 8.773a.25.25 0 0 0 .447-.003l.86-1.753a.25.25 0 0 1 .112-.113l1.79-.895a.25.25 0 0 0-.004-.449l-1.782-.858a.25.25 0 0 1-.117-.117l-.858-1.782a.25.25 0 0 0-.45-.004l-.894 1.79a.25.25 0 0 1-.113.112l-1.753.86a.25.25 0 0 0-.003.447l1.759.897a.25.25 0 0 1 .11.109l.896 1.76Zm13.573 6.405a.25.25 0 0 0-.45-.004l-.894 1.79a.249.249 0 0 1-.113.112l-1.753.86a.25.25 0 0 0-.003.447l1.759.896a.251.251 0 0 1 .11.11l.896 1.76a.25.25 0 0 0 .447-.004l.86-1.753a.25.25 0 0 1 .112-.113l1.79-.895a.25.25 0 0 0-.004-.449l-1.782-.858a.25.25 0 0 1-.117-.117l-.858-1.782Z" fill="#FFFFFF" style="color: inherit"/>
</svg>