<?xml version="1.0" encoding="utf-8"?>
<svg fill="#FFFFFF" viewBox="0 0 24 24" xmlns="http://www.w3.org/2000/svg">
<path _ngcontent-ng-c1909134112="" d="M2.507 18h2.476l.836-2.734h3.977L10.632 18h2.484L9.194 6.727H6.421L2.507 18ZM7.74 8.977h.14L9.258 13.5h-2.9l1.383-4.523Zm8.963 9.156c1.125 0 2.03-.477 2.468-1.274h.14V18h2.25v-5.875c0-1.836-1.288-2.914-3.57-2.914-2.163 0-3.585 1-3.765 2.508l-.008.07h2.11l.015-.031c.18-.508.703-.797 1.523-.797.938 0 1.446.422 1.446 1.164v.71l-2.078.126c-2.14.125-3.336 1.031-3.336 2.578v.016c0 1.562 1.164 2.578 2.805 2.578Zm-.579-2.719v-.016c0-.625.477-.992 1.454-1.054l1.734-.11v.633c0 .906-.79 1.602-1.844 1.602-.789 0-1.344-.399-1.344-1.055Z" fill="#FFFFFF" style="color: inherit"/>
</svg>