<?xml version="1.0" encoding="utf-8"?>
<svg fill="#FFFFFF" viewBox="0 0 24 24" xmlns="http://www.w3.org/2000/svg">
<path _ngcontent-ng-c1909134112="" d="M12 22c5.523 0 10-4.477 10-10S17.523 2 12 2 2 6.477 2 12s4.477 10 10 10Z" fill="#FFFFFF" style="color: inherit"/>
<path _ngcontent-ng-c1909134112="" d="M12.676 5.963h-1.404v7.021h1.404v-7.02Zm-.696 11.24a4.917 4.917 0 0 1-4.9-4.933 4.905 4.905 0 0 1 3.641-4.73V9a3.512 3.512 0 1 0 4.541 2.015A3.558 3.558 0 0 0 13.247 9V7.538c2.618.709 4.18 3.406 3.47 6.024a4.934 4.934 0 0 1-4.737 3.641Z" fill="#FFFFFF" style="color: inherit"/>
</svg>