<?xml version="1.0" encoding="utf-8"?>
<svg fill="#FFFFFF" viewBox="0 0 24 24" xmlns="http://www.w3.org/2000/svg">
<path _ngcontent-ng-c1909134112="" clip-rule="evenodd" d="M2 5a3 3 0 0 1 3-3h10a3 3 0 0 1 3 3v1a3 3 0 0 1-3 3H8v7a1 1 0 0 0 1 1h9.586l-1.293-1.293a1 1 0 0 1 1.414-1.414l3 3a1 1 0 0 1 0 1.414l-3 3a1 1 0 0 1-1.414-1.414L18.586 19H9a3 3 0 0 1-3-3V9H5a3 3 0 0 1-3-3V5Zm3-1a1 1 0 0 0-1 1v1a1 1 0 0 0 1 1h10a1 1 0 0 0 1-1V5a1 1 0 0 0-1-1H5Z" fill-rule="evenodd" style="color: inherit"/>
</svg>