<?xml version="1.0" encoding="utf-8"?>
<svg fill="#FFFFFF" viewBox="0 0 24 24" xmlns="http://www.w3.org/2000/svg">
<path _ngcontent-ng-c1909134112="" clip-rule="evenodd" d="M11.5 5.06a8.443 8.443 0 0 1 2.504.696l-1.128 1.13a3.02 3.02 0 0 0-.36.435 6.5 6.5 0 1 0 4.165 4.163 3.1 3.1 0 0 0 .433-.359l1.13-1.13A8.5 8.5 0 1 1 9.5 5.061V4H8.001a1 1 0 0 1 0-2h5a1 1 0 1 1 0 2h-1.5v1.06Zm-1 3.44a1 1 0 0 1 1 1v3.488l3.08 2.198a1 1 0 0 1-1.16 1.628l-3.5-2.498a1 1 0 0 1-.42-.814V9.5a1 1 0 0 1 1-1ZM17 2a1 1 0 0 0 0 2h1.586L14.29 8.3a.995.995 0 0 0 0 1.41c.39.39 1.02.39 1.41 0L20 5.414V7a1 1 0 0 0 2 0V3a1 1 0 0 0-1-1h-4Z" fill-rule="evenodd" style="color: inherit"/>
</svg>