<?xml version="1.0" encoding="utf-8"?>
<svg fill="#FFFFFF" viewBox="0 0 24 24" xmlns="http://www.w3.org/2000/svg">
<path _ngcontent-ng-c1909134112="" d="M3.928 23h16.144a3 3 0 0 0 2.895-3.79l-4.364-16A3 3 0 0 0 15.709 1H8.29a3 3 0 0 0-2.894 2.21l-4.364 16A3 3 0 0 0 3.928 23Z" fill="#FFFFFF" fill-opacity=".055" style="color: inherit"/>
<path _ngcontent-ng-c1909134112="" clip-rule="evenodd" d="M3.928 21h16.144a1 1 0 0 0 .965-1.263l-4.364-16A1 1 0 0 0 15.71 3H8.29a1 1 0 0 0-.964.737l-4.364 16A1 1 0 0 0 3.928 21Zm16.144 2H3.928a3 3 0 0 1-2.895-3.79l4.364-16A3 3 0 0 1 8.291 1h7.418a3 3 0 0 1 2.894 2.21l4.363 16A3 3 0 0 1 20.072 23Z" fill="#FFFFFF" fill-rule="evenodd" style="color: inherit"/>
</svg>