<?xml version="1.0" encoding="utf-8"?>
<svg fill="#FFFFFF" viewBox="0 0 24 24" xmlns="http://www.w3.org/2000/svg">
<path _ngcontent-ng-c1909134112="" clip-rule="evenodd" d="M5 4a1 1 0 1 1 2 0c0 1.278.322 2.044.727 2.565.425.547 1.014.922 1.738 1.302.125.066.26.135.402.206.358.181.755.382 1.133.613V4a1 1 0 1 1 2 0v4.686a16.05 16.05 0 0 1 1.133-.613c.141-.071.277-.14.402-.206.724-.38 1.313-.755 1.738-1.302C16.678 6.044 17 5.278 17 4a1 1 0 1 1 2 0c0 1.649-.428 2.866-1.148 3.792-.7.901-1.611 1.439-2.387 1.846-.195.102-.376.194-.544.28-.564.287-.991.505-1.34.798C13.22 11.02 13 11.365 13 12s.22.98.581 1.284c.349.293.776.511 1.34.798.168.086.35.178.544.28.776.407 1.687.945 2.387 1.846C18.572 17.134 19 18.35 19 20a1 1 0 1 1-2 0c0-1.278-.322-2.044-.727-2.565-.425-.547-1.014-.922-1.738-1.302-.126-.066-.26-.134-.402-.206A16.08 16.08 0 0 1 13 15.314V20a1 1 0 1 1-2 0v-4.686a16.05 16.05 0 0 1-1.133.613c-.141.072-.277.14-.402.206-.724.38-1.313.755-1.738 1.302C7.322 17.956 7 18.722 7 20a1 1 0 1 1-2 0c0-1.649.428-2.866 1.148-3.792.7-.901 1.611-1.439 2.387-1.846.195-.102.376-.194.544-.28.564-.287.991-.505 1.34-.798.362-.304.581-.649.581-1.284s-.22-.98-.581-1.284c-.349-.293-.776-.511-1.34-.798-.168-.086-.35-.178-.544-.28-.776-.407-1.687-.945-2.387-1.846C5.428 6.866 5 5.65 5 4Z" fill-rule="evenodd" style="color: inherit"/>
</svg>