<?xml version="1.0" encoding="utf-8"?>
<svg fill="#FFFFFF" viewBox="0 0 24 24" xmlns="http://www.w3.org/2000/svg">
<path _ngcontent-ng-c1909134112="" d="M12 19.365a7.365 7.365 0 1 1 0-14.73 7.365 7.365 0 0 1 0 14.73ZM12 2C6.477 2 2 6.477 2 12s4.477 10 10 10 10-4.477 10-10S17.523 2 12 2Z" fill="#FFFFFF" style="color: inherit"/>
<path _ngcontent-ng-c1909134112="" d="M12.411 9.51a2.08 2.08 0 1 1 4.159 0 2.08 2.08 0 0 1-4.159 0Zm0 4.98a2.08 2.08 0 1 1 4.159 0 2.08 2.08 0 0 1-4.159 0Zm-4.98 0a2.08 2.08 0 1 1 4.158 0 2.08 2.08 0 0 1-4.159 0Zm0-4.98a2.08 2.08 0 1 1 4.158 0 2.08 2.08 0 0 1-4.159 0Z" fill="#FFFFFF" style="color: inherit"/>
</svg>