<?xml version="1.0" encoding="utf-8"?>
<svg fill="#FFFFFF" viewBox="0 0 24 24" xmlns="http://www.w3.org/2000/svg">
<path _ngcontent-ng-c1909134112="" clip-rule="evenodd" d="M6.47 2.195c.261.26.261.682 0 .943L3.61 5.999l2.86 2.862a.667.667 0 0 1-.942.943L2.195 6.47a.667.667 0 0 1 0-.943l3.333-3.333c.26-.26.683-.26.943 0Z" fill="#FFFFFF" fill-rule="evenodd" style="color: inherit"/>
<path _ngcontent-ng-c1909134112="" clip-rule="evenodd" d="M2 6c0-.369.298-.667.666-.667h7a4.333 4.333 0 0 1 0 8.666H7.333a.667.667 0 1 1 0-1.334h2.333a2.999 2.999 0 1 0 0-5.999h-7A.667.667 0 0 1 2 5.999Z" fill="#FFFFFF" fill-rule="evenodd" style="color: inherit"/>
</svg>