<?xml version="1.0" encoding="utf-8"?>
<svg fill="#FFFFFF" viewBox="0 0 24 24" xmlns="http://www.w3.org/2000/svg">
<path _ngcontent-ng-c1909134112="" clip-rule="evenodd" d="M12 2.72a1 1 0 0 1 .901.567l1.803 3.751-1.482 1.535L12 6.029l-1.701 3.542a1 1 0 0 1-.768.558l-3.894.523 2.842 2.713c.02.019.04.039.058.06L6.51 15.523l.198-1.084-3.958-3.777a1 1 0 0 1 .557-1.714l5.422-.73 2.37-4.931A1 1 0 0 1 12 2.72Zm6.48 5.93 2.098-2.172a1 1 0 1 0-1.439-1.39L5.681 19.025a1 1 0 0 0 .217 1.56.998.998 0 0 0 1.287.296L12 18.284l4.815 2.597a1 1 0 0 0 1.459-1.06l-.982-5.382 3.958-3.777a1 1 0 0 0-.557-1.714L18.48 8.65Zm-1.725 1.786-6.067 6.284.837-.452a1 1 0 0 1 .95 0l3.458 1.865-.706-3.865a1 1 0 0 1 .294-.903l2.842-2.713-1.608-.216Z" fill="#FFFFFF" fill-rule="evenodd" style="color: inherit"/>
</svg>