<?xml version="1.0" encoding="utf-8"?>
<svg fill="#FFFFFF" viewBox="0 0 24 24" xmlns="http://www.w3.org/2000/svg">
<path _ngcontent-ng-c1909134112="" clip-rule="evenodd" d="M10.419 4.473a5 5 0 0 1 3.162 0l7.889 2.63c1.823.607 1.823 3.187 0 3.794l-1.108.37-.862.383v3.558A2.5 2.5 0 0 1 21 17.5v2a2.5 2.5 0 0 1-5 0v-2a2.5 2.5 0 0 1 1.5-2.292v-2.854l-3.98 1.225a5 5 0 0 1-3.053-.036L7 12.387v3.144C7.64 16.005 9.302 17 12 17c.49 0 .947-.033 1.367-.09a1 1 0 0 1 .266 1.983A12.29 12.29 0 0 1 12 19c-3.357 0-5.461-1.298-6.296-1.941A1.845 1.845 0 0 1 5 15.586V11.72l-2.47-.824C.706 10.29.706 7.71 2.53 7.103l7.889-2.63Zm8.017 5.461 1.158-.515a1.1 1.1 0 0 1 .09-.034L20.838 9l-7.89-2.63a3 3 0 0 0-1.897 0L3.162 9l7.938 2.646a3 3 0 0 0 1.83.021L15.1 11l-3.394-1.044a1 1 0 0 1 .588-1.912l6.142 1.89ZM18.5 17a.5.5 0 0 0-.5.5v2a.5.5 0 1 0 1 0v-2a.5.5 0 0 0-.5-.5Z" fill="#FFFFFF" fill-rule="evenodd" style="color: inherit"/>
</svg>