<?xml version="1.0" encoding="utf-8"?>
<svg fill="#FFFFFF" viewBox="0 0 24 24" xmlns="http://www.w3.org/2000/svg">
<path _ngcontent-ng-c1909134112="" clip-rule="evenodd" d="M8 4h.336l-.458 4.08C6.564 8.935 4 10.91 4 15a1 1 0 0 0 1 1h1.75a1 1 0 1 0 0-2h-.68c.389-2.67 2.291-3.866 3.241-4.462l.04-.025a1 1 0 0 0 .46-.735L10.349 4h3.303l.181 1.612a1 1 0 0 0 1.988-.224L15.664 4H16a1 1 0 1 0 0-2H8a1 1 0 0 0 0 2Zm9.888 5.526 1.82-1.819a1 1 0 0 0-1.415-1.414l-13 13a1 1 0 1 0 1.414 1.414L11 16.414V21a1 1 0 1 0 2 0v-5h6a1 1 0 0 0 1-1c0-2.572-1.018-4.318-2.112-5.474Zm-1.414 1.415L13.414 14h4.516a5.545 5.545 0 0 0-1.456-3.06Z" fill-rule="evenodd" style="color: inherit"/>
</svg>