<?xml version="1.0" encoding="utf-8"?>
<svg fill="#FFFFFF" viewBox="0 0 24 24" xmlns="http://www.w3.org/2000/svg">
<path _ngcontent-ng-c1909134112="" clip-rule="evenodd" d="M10 4a2.937 2.937 0 1 0 0 5.875A2.937 2.937 0 0 0 10 4Zm3.326 6.587a4.938 4.938 0 1 0-6.652 0c-2.495 1.125-4.313 3.478-4.666 6.288a1 1 0 0 0 1.984.25c.371-2.954 2.915-5.25 6.008-5.25a6.06 6.06 0 0 1 4.294 1.77 1 1 0 0 0 1.412-1.416 8.079 8.079 0 0 0-2.38-1.642Zm5.967.706a1 1 0 0 1 1.414 0l1 1a1 1 0 0 1-1.414 1.414L20 13.414 18.914 14.5l.793.793a1 1 0 0 1-1.414 1.414l-.793-.793-1.792 1.793a3 3 0 1 1-1.414-1.414l4.999-5ZM13 18a1 1 0 1 0 0 2 1 1 0 0 0 0-2Z" fill-rule="evenodd" style="color: inherit"/>
</svg>