<?xml version="1.0" encoding="utf-8"?>
<svg fill="#FFFFFF" viewBox="0 0 24 24" xmlns="http://www.w3.org/2000/svg">
<path _ngcontent-ng-c1909134112="" clip-rule="evenodd" d="M17 4a1.25 1.25 0 1 0 0 2.5A1.25 1.25 0 0 0 17 4Zm2.59 3.213a3.25 3.25 0 1 0-5.18 0 4.999 4.999 0 0 0-2.402 3.662 1 1 0 1 0 1.984.25A3.021 3.021 0 0 1 17 8.5a3.021 3.021 0 0 1 3.008 2.625 1 1 0 1 0 1.984-.25 4.999 4.999 0 0 0-2.402-3.662ZM3 9a6 6 0 0 1 6-6 1 1 0 0 1 0 2 4 4 0 0 0-4 4 1 1 0 0 1-2 0Zm4 5a1.25 1.25 0 1 0 0 2.5A1.25 1.25 0 0 0 7 14Zm2.59 3.213a3.25 3.25 0 1 0-5.181 0 4.999 4.999 0 0 0-2.401 3.662 1 1 0 0 0 1.984.25A3.021 3.021 0 0 1 7 18.5a3.021 3.021 0 0 1 3.008 2.625 1 1 0 1 0 1.984-.25 4.999 4.999 0 0 0-2.401-3.662ZM20 14a1 1 0 0 1 1 1 6 6 0 0 1-6 6 1 1 0 1 1 0-2 4 4 0 0 0 4-4 1 1 0 0 1 1-1Z" fill-rule="evenodd" style="color: inherit"/>
</svg>