<?xml version="1.0" encoding="utf-8"?>
<svg fill="#FFFFFF" viewBox="0 0 24 24" xmlns="http://www.w3.org/2000/svg">
<path _ngcontent-ng-c1909134112="" clip-rule="evenodd" d="M9 6a2.938 2.938 0 1 0 0 5.875A2.938 2.938 0 0 0 9 6Zm3.326 6.587a4.937 4.937 0 1 0-6.652 0c-2.495 1.125-4.313 3.478-4.666 6.288a1 1 0 0 0 1.984.25c.371-2.953 2.915-5.25 6.008-5.25s5.637 2.297 6.008 5.25a1 1 0 1 0 1.984-.25c-.353-2.81-2.17-5.163-4.666-6.288ZM19 7a1 1 0 0 1 1 1v2h2a1 1 0 1 1 0 2h-2v2a1 1 0 1 1-2 0v-2h-2a1 1 0 1 1 0-2h2V8a1 1 0 0 1 1-1Z" fill-rule="evenodd" style="color: inherit"/>
</svg>