<?xml version="1.0" encoding="utf-8"?>
<svg fill="#FFFFFF" viewBox="0 0 24 24" xmlns="http://www.w3.org/2000/svg">
<path _ngcontent-ng-c1909134112="" clip-rule="evenodd" d="M36 27c0 9.941-8.059 18-18 18S0 36.941 0 27 8.059 9 18 9s18 8.059 18 18Z" fill="#FFFFFF" fill-rule="evenodd" style="color: inherit"/>
<path _ngcontent-ng-c1909134112="" d="m42.6 13.95-.85 1.134A8.25 8.25 0 0 1 36 29.25h-9a8.25 8.25 0 0 1-7.348-4.5l-.061-.121a8.25 8.25 0 0 1 .809-8.579l.85-1.134A8.25 8.25 0 0 1 27 .75h9a8.25 8.25 0 0 1 7.349 4.5l.06.121a8.25 8.25 0 0 1-.809 8.579Z" fill="#FFFFFF" style="color: inherit"/>
<path _ngcontent-ng-c1909134112="" clip-rule="evenodd" d="M24.75 9A2.25 2.25 0 0 1 27 6.75h9a2.25 2.25 0 0 1 1.8 3.6l-6.3 8.4H36a2.25 2.25 0 1 1 0 4.5h-9a2.25 2.25 0 0 1-1.8-3.6l6.3-8.4H27A2.25 2.25 0 0 1 24.75 9Z" fill="#FFFFFF" fill-rule="evenodd" style="color: inherit"/>
</svg>