<?xml version="1.0" encoding="utf-8"?>
<svg fill="#FFFFFF" viewBox="0 0 24 24" xmlns="http://www.w3.org/2000/svg">
<path _ngcontent-ng-c1909134112="" clip-rule="evenodd" d="M0 7a3 3 0 0 1 3-3h18a3 3 0 0 1 3 3v10a3 3 0 0 1-3 3H3a3 3 0 0 1-3-3V7Zm3-1a1 1 0 0 0-1 1v10a1 1 0 0 0 1 1h18a1 1 0 0 0 1-1V7a1 1 0 0 0-1-1H3Zm5 3a1.24 1.24 0 0 0-1.25 1.25c0 .722.493 1.25 1.25 1.25s1.25-.528 1.25-1.25A1.24 1.24 0 0 0 8 9Zm2.606 3.23a3.3 3.3 0 0 0 .644-1.98A3.24 3.24 0 0 0 8 7a3.24 3.24 0 0 0-3.25 3.25 3.3 3.3 0 0 0 .644 1.98 4.99 4.99 0 0 0-2.386 3.646 1 1 0 1 0 1.984.248C5.178 14.638 6.491 13.5 8 13.5s2.822 1.138 3.008 2.624a1 1 0 1 0 1.984-.248 4.99 4.99 0 0 0-2.386-3.645ZM15 10a1 1 0 0 1 1-1h4a1 1 0 1 1 0 2h-4a1 1 0 0 1-1-1Zm0 4a1 1 0 0 1 1-1h2a1 1 0 1 1 0 2h-2a1 1 0 0 1-1-1Z" fill-rule="evenodd" style="color: inherit"/>
</svg>