<?xml version="1.0" encoding="utf-8"?>
<svg fill="#FFFFFF" viewBox="0 0 24 24" xmlns="http://www.w3.org/2000/svg">
<path _ngcontent-ng-c1909134112="" clip-rule="evenodd" d="M10 4a2.937 2.937 0 1 0 0 5.875A2.937 2.937 0 0 0 10 4Zm3.326 6.587a4.938 4.938 0 1 0-6.652 0c-2.495 1.125-4.313 3.478-4.666 6.288a1 1 0 0 0 1.984.25c.371-2.954 2.915-5.25 6.008-5.25a6.074 6.074 0 0 1 3.435 1.059 1 1 0 0 0 1.13-1.651 8.052 8.052 0 0 0-1.24-.696ZM14 16a3 3 0 0 1 3-3h3a3 3 0 0 1 3 3v3a3 3 0 0 1-3 3h-3a3 3 0 0 1-3-3v-3Zm3-1a1 1 0 0 0-1 1v3a1 1 0 0 0 1 1h3a1 1 0 0 0 1-1v-3a1 1 0 0 0-1-1h-3Z" fill-rule="evenodd" style="color: inherit"/>
</svg>