<?xml version="1.0" encoding="utf-8"?>
<svg fill="#FFFFFF" viewBox="0 0 24 24" xmlns="http://www.w3.org/2000/svg">
<path _ngcontent-ng-c1909134112="" clip-rule="evenodd" d="M7 4a1.25 1.25 0 1 0 0 2.5A1.25 1.25 0 0 0 7 4Zm2.59 3.213a3.25 3.25 0 1 0-5.181 0 4.999 4.999 0 0 0-2.401 3.662 1 1 0 0 0 1.984.25A3.021 3.021 0 0 1 7 8.5a3.021 3.021 0 0 1 3.008 2.625 1 1 0 1 0 1.984-.25 4.999 4.999 0 0 0-2.401-3.662ZM13 6a1 1 0 0 1 1-1c1.325 0 2.567.653 3.457 1.543C18.347 7.433 19 8.675 19 10a1 1 0 1 1-2 0c0-.675-.347-1.433-.957-2.043C15.433 7.347 14.675 7 14 7a1 1 0 0 1-1-1Zm4 8a1.25 1.25 0 1 0 0 2.5 1.25 1.25 0 0 0 0-2.5Zm2.59 3.213a3.25 3.25 0 1 0-5.18 0 4.999 4.999 0 0 0-2.402 3.662 1 1 0 1 0 1.984.25A3.021 3.021 0 0 1 17 18.5a3.021 3.021 0 0 1 3.008 2.625 1 1 0 1 0 1.984-.25 4.999 4.999 0 0 0-2.402-3.662ZM6 13a1 1 0 0 1 1 1c0 .675.348 1.433.957 2.043.61.61 1.368.957 2.043.957a1 1 0 1 1 0 2c-1.325 0-2.567-.652-3.457-1.543C5.653 16.567 5 15.325 5 14a1 1 0 0 1 1-1Z" fill-rule="evenodd" style="color: inherit"/>
</svg>