<?xml version="1.0" encoding="utf-8"?>
<svg fill="#FFFFFF" viewBox="0 0 24 24" xmlns="http://www.w3.org/2000/svg">
<path _ngcontent-ng-c1909134112="" clip-rule="evenodd" d="M12 7a5 5 0 1 0 0 10 5 5 0 0 0 0-10Zm-3 5a3 3 0 1 1 6 0 3 3 0 0 1-6 0Z" fill-rule="evenodd" style="color: inherit"/>
<path _ngcontent-ng-c1909134112="" clip-rule="evenodd" d="M12 2C6.477 2 2 6.477 2 12s4.477 10 10 10 10-4.477 10-10S17.523 2 12 2ZM4 12a8 8 0 1 1 16 0 8 8 0 0 1-16 0Z" fill-rule="evenodd" style="color: inherit"/>
</svg>