<?xml version="1.0" encoding="utf-8"?>
<svg fill="#FFFFFF" viewBox="0 0 24 24" xmlns="http://www.w3.org/2000/svg">
<path _ngcontent-ng-c1909134112="" clip-rule="evenodd" d="M12 4a8 8 0 0 0-6.395 12.807A7.049 7.049 0 0 1 8.9 13.462a4.375 4.375 0 1 1 6.2 0 7.049 7.049 0 0 1 3.295 3.345A8 8 0 0 0 12 4Zm4.85 14.363A5.043 5.043 0 0 0 12 14.75a5.043 5.043 0 0 0-4.85 3.613A7.96 7.96 0 0 0 12 20a7.96 7.96 0 0 0 4.85-1.637ZM2 12C2 6.477 6.477 2 12 2s10 4.477 10 10a9.978 9.978 0 0 1-3.375 7.491A9.966 9.966 0 0 1 12 22a9.966 9.966 0 0 1-6.625-2.509A9.978 9.978 0 0 1 2 12Zm10-4a2.375 2.375 0 1 0 0 4.75A2.375 2.375 0 0 0 12 8Z" fill-rule="evenodd" style="color: inherit"/>
</svg>