<?xml version="1.0" encoding="utf-8"?>
<svg fill="#FFFFFF" viewBox="0 0 24 24" xmlns="http://www.w3.org/2000/svg">
<path _ngcontent-ng-c1909134112="" clip-rule="evenodd" d="M5.667 5.014C5.682 2.554 7.519.666 10 .666c2.48 0 4.317 1.889 4.332 4.348a33.052 33.052 0 0 1 0 .475c-.011 1.308-.347 2.656-1.047 3.698C12.572 10.248 11.47 11 10 11c-1.47 0-2.573-.75-3.286-1.812-.7-1.042-1.035-2.39-1.046-3.698a32.116 32.116 0 0 1-.001-.475Z" fill="#FFFFFF" fill-rule="evenodd" style="color: inherit"/>
<path _ngcontent-ng-c1909134112="" d="M2.06 19.33a.667.667 0 0 1-.724-.603l-.08-.882c-.318-3.493 3.134-5.951 6.395-5.192.926.215 1.747.347 2.349.347.601 0 1.423-.132 2.348-.347 3.262-.76 6.713 1.699 6.396 5.192l-.08.882a.667.667 0 0 1-.725.603c-6.212-.821-9.685-.82-15.879 0Z" fill="#FFFFFF" style="color: inherit"/>
</svg>