<?xml version="1.0" encoding="utf-8"?>
<svg fill="#FFFFFF" viewBox="0 0 24 24" xmlns="http://www.w3.org/2000/svg">
<path _ngcontent-ng-c1909134112="" d="M18.666 10c0-1.96-.085-3.543-.196-4.767-.18-2.013-1.69-3.523-3.703-3.704A53.466 53.466 0 0 0 10 1.333c-1.96 0-3.543.086-4.768.196C3.22 1.71 1.71 3.22 1.53 5.233A53.467 53.467 0 0 0 1.333 10c0 2.031.092 3.658.208 4.9.181 1.94 1.613 3.397 3.554 3.571 1.218.11 2.832.196 4.905.196 2.073 0 3.687-.086 4.905-.196 1.94-.174 3.372-1.63 3.553-3.57A52.99 52.99 0 0 0 18.666 10Z" fill="#FFFFFF" fill-opacity=".069" style="color: inherit"/>
<path _ngcontent-ng-c1909134112="" d="M5.667 10h8.666M10 14.333V5.667" style="color: inherit"/>
</svg>