<?xml version="1.0" encoding="utf-8"?>
<svg fill="#FFFFFF" viewBox="0 0 24 24" xmlns="http://www.w3.org/2000/svg">
<path _ngcontent-ng-c1909134112="" d="M9.5 1.668a8.832 8.832 0 1 0 0 17.664 8.832 8.832 0 0 0 0-17.664Zm.165 4.665a.665.665 0 1 0-1.33 0v4.08c0 .778.34 1.518.93 2.024l1.635 1.401a.665.665 0 0 0 .866-1.01l-1.635-1.4a1.335 1.335 0 0 1-.466-1.015v-4.08Zm4.732-4.338h.002l.015-.001.068-.005a7.26 7.26 0 0 1 1.134.022c.715.073 1.386.265 1.747.626.36.36.553 1.031.625 1.747a7.24 7.24 0 0 1 .018 1.202l-.001.015v.002a.666.666 0 0 0 1.323.127l-.633-.06.633.06v-.004l.002-.008.002-.026a5.686 5.686 0 0 0 .02-.408 8.58 8.58 0 0 0-.04-1.034c-.078-.768-.302-1.847-1.009-2.554C17.597.99 16.517.766 15.75.688a8.59 8.59 0 0 0-1.443-.02l-.026.002-.007.001h-.004l.063.662-.063-.662a.665.665 0 0 0 .127 1.324Z" style="color: inherit"/>
</svg>