<?xml version="1.0" encoding="utf-8"?>
<svg fill="#FFFFFF" viewBox="0 0 24 24" xmlns="http://www.w3.org/2000/svg">
<path _ngcontent-ng-c1909134112="" d="M18.667 10c0-2.262-.114-4.023-.248-5.31-.175-1.675-1.434-2.934-3.11-3.108-1.286-.134-3.047-.249-5.309-.249s-4.022.115-5.31.249c-1.674.174-2.933 1.433-3.108 3.108-.134 1.287-.248 3.048-.248 5.31 0 2.329.12 4.126.26 5.422.173 1.614 1.367 2.83 2.982 2.999 1.266.133 3.042.246 5.424.246 2.383 0 4.16-.113 5.425-.246 1.614-.17 2.808-1.385 2.982-3 .139-1.295.26-3.092.26-5.421Z" opacity=".1" style="color: inherit"/>
<path _ngcontent-ng-c1909134112="" clip-rule="evenodd" d="M10 2c-2.24 0-3.977.113-5.24.245-1.362.142-2.373 1.153-2.515 2.515C2.114 6.023 2 7.76 2 10c0 2.305.12 4.079.257 5.35.14 1.31 1.093 2.272 2.389 2.408 1.24.13 2.993.242 5.354.242 2.362 0 4.115-.112 5.355-.242 1.296-.136 2.248-1.099 2.389-2.407C17.88 14.079 18 12.305 18 10c0-2.24-.113-3.977-.244-5.24-.142-1.362-1.154-2.373-2.515-2.515C13.978 2.113 12.24 2 10 2ZM4.622.919C5.932.782 7.716.667 10 .667c2.285 0 4.069.115 5.379.252 1.989.207 3.496 1.714 3.703 3.702.136 1.31.252 3.094.252 5.379 0 2.352-.123 4.173-.264 5.493-.207 1.92-1.642 3.388-3.576 3.591-1.29.136-3.09.25-5.494.25-2.403 0-4.203-.114-5.494-.25-1.933-.203-3.369-1.67-3.575-3.591C.79 14.173.667 12.352.667 10c0-2.285.116-4.068.252-5.379C1.126 2.633 2.633 1.126 4.622.92Z" fill-rule="evenodd" style="color: inherit"/>
<path _ngcontent-ng-c1909134112="" clip-rule="evenodd" d="M4.782 10.88a.665.665 0 0 1 .924-.179 16.346 16.346 0 0 1 2.48 2.035 24.67 24.67 0 0 1 2.248-3.542c.957-1.251 1.795-2.12 2.401-2.68.303-.28.548-.484.721-.62a6.589 6.589 0 0 1 .26-.193l.018-.012.006-.004.002-.001a.666.666 0 0 1 .74 1.105l-.002.001-.006.004-.036.026a10.396 10.396 0 0 0-.8.67c-.552.51-1.338 1.322-2.247 2.512A23.33 23.33 0 0 0 9.59 12.93a19.662 19.662 0 0 0-.62 1.236l-.007.015-.001.003a.666.666 0 0 1-1.148.132l-.004-.006a9.28 9.28 0 0 0-.652-.722 15.025 15.025 0 0 0-2.196-1.785.665.665 0 0 1-.18-.923Z" fill-rule="evenodd" style="color: inherit"/>
</svg>