<?xml version="1.0" encoding="utf-8"?>
<svg fill="#FFFFFF" viewBox="0 0 24 24" xmlns="http://www.w3.org/2000/svg">
<path _ngcontent-ng-c1909134112="" clip-rule="evenodd" d="M9.717 5.093c.856-.072 1.453-.629 1.706-1.333.794.185 1.348.81 1.425 1.64.072.78.13 1.847.13 3.267a41.13 41.13 0 0 1-.143 3.576c-.093 1.05-.85 1.828-1.882 1.93-.789.076-1.813.137-3.085.137-1.282 0-2.276-.062-3.02-.14-.921-.095-1.584-.78-1.672-1.726a41.276 41.276 0 0 1-.152-3.777c0-1.651.07-2.802.151-3.583.077-.738.592-1.253 1.342-1.337l.029-.003c.221.698.793 1.262 1.63 1.34.458.042 1.056.073 1.825.073a20.6 20.6 0 0 0 1.716-.064ZM5.334 8.977a.623.623 0 0 0 0 1.246h4a.623.623 0 1 0 0-1.246h-4ZM4.711 12c0-.344.279-.623.623-.623h2.133a.623.623 0 1 1 0 1.246H5.334A.623.623 0 0 1 4.711 12Zm.623-5.423a.623.623 0 0 0 0 1.246h5.334a.623.623 0 0 0 0-1.246H5.334Z" fill-opacity=".1" fill-rule="evenodd" style="color: inherit"/>
<path _ngcontent-ng-c1909134112="" d="m4.474 2.497-.097.011c-1.32.148-2.303 1.114-2.442 2.447-.087.833-.158 2.027-.158 3.712s.071 2.962.157 3.892c.14 1.513 1.247 2.691 2.784 2.852.79.082 1.828.146 3.15.146 1.311 0 2.376-.063 3.206-.144 1.646-.161 2.859-1.431 3.002-3.06.082-.929.148-2.152.148-3.686 0-1.454-.06-2.56-.135-3.382-.134-1.444-1.17-2.53-2.561-2.776.02.124.029.249.029.372v.098c0 .268-.046.534-.134.78A1.815 1.815 0 0 1 12.848 5.4c.072.78.13 1.847.13 3.267a41.13 41.13 0 0 1-.143 3.576c-.093 1.05-.85 1.828-1.882 1.93-.789.076-1.813.137-3.085.137-1.282 0-2.276-.062-3.02-.14-.921-.095-1.584-.78-1.672-1.726a41.276 41.276 0 0 1-.152-3.777c0-1.651.07-2.802.151-3.583.077-.738.592-1.253 1.342-1.337l.029-.003a2.195 2.195 0 0 1-.103-.662v-.2c0-.128.01-.257.031-.385Z" style="color: inherit"/>
<path _ngcontent-ng-c1909134112="" d="M5.69 3.038a.63.63 0 0 1 0 .044v-.044Z" style="color: inherit"/>
<path _ngcontent-ng-c1909134112="" clip-rule="evenodd" d="M5.72.878A6.33 6.33 0 0 1 8 .443a6.33 6.33 0 0 1 2.28.435c.874.34 1.277 1.201 1.277 2.003v.098c0 1.034-.684 2.017-1.84 2.114a20.6 20.6 0 0 1-1.716.064c-.77 0-1.367-.031-1.825-.073-1.09-.101-1.733-1.03-1.733-2.002v-.2c0-.803.403-1.664 1.277-2.004ZM8 1.69c-.733 0-1.367.17-1.829.35-.275.107-.481.413-.481.841v.2c0 .453.267.73.6.761.414.038.974.068 1.71.068.68 0 1.208-.025 1.612-.06.39-.032.698-.358.698-.871V2.88c0-.428-.206-.734-.481-.84a5.084 5.084 0 0 0-1.83-.351ZM4.71 9.6c0-.344.28-.623.624-.623h4a.623.623 0 0 1 0 1.246h-4a.623.623 0 0 1-.623-.623Zm0 2.4c0-.344.28-.623.624-.623h2.133a.623.623 0 1 1 0 1.246H5.334A.623.623 0 0 1 4.711 12Zm0-4.8c0-.344.28-.623.624-.623h5.334a.623.623 0 0 1 0 1.246H5.334a.623.623 0 0 1-.623-.623Z" fill-rule="evenodd" style="color: inherit"/>
</svg>