<?xml version="1.0" encoding="utf-8"?>
<svg fill="#FFFFFF" viewBox="0 0 24 24" xmlns="http://www.w3.org/2000/svg">
<path _ngcontent-ng-c1909134112="" clip-rule="evenodd" d="M4.416 3.2a.667.667 0 0 1-.01.943A7.974 7.974 0 0 0 2 9.861c0 2.241.92 4.266 2.406 5.719a.667.667 0 0 1-.933.953A9.307 9.307 0 0 1 .667 9.86a9.307 9.307 0 0 1 2.806-6.67.667.667 0 0 1 .943.01Zm11.169 0a.667.667 0 0 1 .943-.01 9.307 9.307 0 0 1 2.806 6.671 9.308 9.308 0 0 1-2.806 6.672.667.667 0 0 1-.933-.953A7.974 7.974 0 0 0 18 9.86c0-2.24-.92-4.265-2.405-5.718a.667.667 0 0 1-.01-.943Z" fill-rule="evenodd" style="color: inherit"/>
<path _ngcontent-ng-c1909134112="" clip-rule="evenodd" d="M6.365 5.514a.667.667 0 0 1 .03.942A5.158 5.158 0 0 0 5 10c0 1.378.532 2.625 1.394 3.544a.667.667 0 1 1-.971.912A6.491 6.491 0 0 1 3.667 10c0-1.727.667-3.298 1.756-4.456a.667.667 0 0 1 .942-.03Zm7.27 0a.667.667 0 0 1 .943.03A6.491 6.491 0 0 1 16.334 10a6.491 6.491 0 0 1-1.756 4.456.667.667 0 0 1-.972-.912A5.158 5.158 0 0 0 15 10a5.158 5.158 0 0 0-1.394-3.544.667.667 0 0 1 .03-.942Z" fill-rule="evenodd" style="color: inherit"/>
<path _ngcontent-ng-c1909134112="" d="M12.334 10a2.331 2.331 0 0 1-3.635 1.937 2.331 2.331 0 0 1 0-3.874c.372-.25.82-.396 1.301-.396A2.331 2.331 0 0 1 12.333 10Z" opacity=".1" style="color: inherit"/>
<path _ngcontent-ng-c1909134112="" clip-rule="evenodd" d="M10 8.333a1.664 1.664 0 0 0-.929 3.05c.265.18.584.284.93.284A1.664 1.664 0 0 0 11.667 10a1.664 1.664 0 0 0-1.668-1.667ZM8.327 7.51A2.99 2.99 0 0 1 10 7a2.998 2.998 0 0 1 3 3 2.998 2.998 0 0 1-3 3 2.998 2.998 0 0 1-3-3c0-1.038.528-1.953 1.327-2.49Z" fill-rule="evenodd" style="color: inherit"/>
</svg>