<?xml version="1.0" encoding="utf-8"?>
<svg fill="#FFFFFF" viewBox="0 0 24 24" xmlns="http://www.w3.org/2000/svg">
<path _ngcontent-ng-c1909134112="" clip-rule="evenodd" d="M10 .667a7.8 7.8 0 0 0-2.81.536c-.903.35-1.388 1.174-1.498 2.021l-.208.023c-1.598.18-2.785 1.345-2.954 2.958-.108 1.036-.196 2.525-.196 4.628 0 2.104.088 3.696.196 4.855.17 1.84 1.514 3.269 3.378 3.463.984.103 2.278.182 3.926.182 1.636 0 2.964-.078 3.997-.179 2.003-.196 3.477-1.74 3.652-3.724.102-1.156.184-2.682.184-4.597 0-1.814-.073-3.192-.168-4.217-.166-1.78-1.458-3.111-3.188-3.382.008.061.013.122.017.183-.058-.912-.546-1.837-1.518-2.214A7.8 7.8 0 0 0 10 .667ZM7.673 2.445A6.467 6.467 0 0 1 10 2c.934 0 1.74.217 2.327.445.397.155.673.586.673 1.156v.122c0 .691-.42 1.156-.976 1.202C11.517 4.968 10.852 5 10 5c-.923 0-1.626-.037-2.148-.085C7.37 4.87 7 4.466 7 3.852v-.25c0-.57.276-1.002.673-1.157ZM6.667 8.333a.667.667 0 0 0 0 1.334h6.666a.667.667 0 1 0 0-1.334H6.667ZM6 12c0-.368.298-.667.667-.667h5a.667.667 0 0 1 0 1.334h-5A.667.667 0 0 1 6 12Zm0 3c0-.368.298-.667.667-.667h2.666a.667.667 0 0 1 0 1.334H6.667A.667.667 0 0 1 6 15Z" fill-rule="evenodd" style="color: inherit"/>
</svg>