<?xml version="1.0" encoding="utf-8"?>
<svg fill="#FFFFFF" viewBox="0 0 24 24" xmlns="http://www.w3.org/2000/svg">
<path _ngcontent-ng-c1909134112="" clip-rule="evenodd" d="M2.927 3.66v.193c.004.434.117.835.3 1.107.171.254.387.384.67.384.284 0 .5-.13.67-.384.184-.272.297-.673.3-1.107l.001-.11V3.66c-.004-.581-.408-.983-.97-.983-.563 0-.967.401-.971.982Zm-1.25-.008c.008-1.25.952-2.225 2.22-2.225 1.27 0 2.213.976 2.221 2.225v.212c-.005.619-.163 1.273-.513 1.793-.36.538-.938.937-1.707.937-.77 0-1.347-.4-1.708-.937-.35-.52-.508-1.174-.513-1.793v-.212Z" fill-rule="evenodd" style="color: inherit"/>
<path _ngcontent-ng-c1909134112="" d="M5.683 7.898c.185-.734-1.578.341-3.46-.157-.578-.153-.81.194-1.254.872-.562.856-.371 2.723-.371 2.723s2.347.87 2.629-.108c.752-2.615 2.205-2.333 2.456-3.33Z" opacity=".1" style="color: inherit"/>
<path _ngcontent-ng-c1909134112="" clip-rule="evenodd" d="M2.206 8.211c-.215-.091-.268-.074-.32-.05-.389.179-.571.627-.585 1.281a4.508 4.508 0 0 0 .13 1.136l.004.016m0 0a.625.625 0 0 1-1.206.33l.603-.165-.603.164v-.004l-.003-.009-.007-.027a5.859 5.859 0 0 1-.086-.42 5.755 5.755 0 0 1-.081-1.046c.015-.759.229-1.893 1.312-2.392.534-.246 1.005-.102 1.331.036.082.035.196.089.292.134l.137.064c.127.057.233.097.333.119.373.081.697.012.936-.082a1.717 1.717 0 0 0 .34-.183l.01-.007a.625.625 0 0 1 .79.97l-.38-.463.38.463H5.53v.001l-.003.002-.005.004-.013.01a1.707 1.707 0 0 1-.178.123 2.966 2.966 0 0 1-.478.241A2.84 2.84 0 0 1 3.19 8.6a2.937 2.937 0 0 1-.58-.2l-.21-.1c-.064-.03-.118-.056-.194-.089m7.817-4.926c-1.02 0-1.76.745-1.767 1.783a19.474 19.474 0 0 0 0 .294c.006.697.187 1.36.503 1.83.304.452.718.714 1.264.714.545 0 .96-.262 1.263-.714.316-.47.497-1.133.503-1.83a18.994 18.994 0 0 0 0-.294c-.006-1.038-.747-1.783-1.766-1.783ZM7.006 5.06c.01-1.706 1.29-3.025 3.017-3.025 1.725 0 3.005 1.319 3.016 3.025a19.13 19.13 0 0 1 0 .313c-.008.881-.233 1.8-.715 2.517-.494.735-1.27 1.266-2.301 1.266-1.033 0-1.808-.531-2.302-1.266-.482-.718-.707-1.636-.715-2.517a21.01 21.01 0 0 1 0-.313Z" fill-rule="evenodd" style="color: inherit"/>
<path _ngcontent-ng-c1909134112="" d="m15.02 14.55.504-2.604-1.23-.8a3.044 3.044 0 0 0-2.061-.465l-2.145.286s-2.239-.276-3.262-.434l-.501.325a3.044 3.044 0 0 0-1.344 3.056l.101.601s1.792-.503 5.006-.503c3.214 0 4.932.539 4.932.539Z" opacity=".1" style="color: inherit"/>
<path _ngcontent-ng-c1909134112="" clip-rule="evenodd" d="M14.494 10.59c.905.651 1.517 1.713 1.409 2.975l-.04.456a.625.625 0 0 1-1.245-.107l.04-.456c.065-.763-.294-1.422-.894-1.854a2.672 2.672 0 0 0-2.228-.406c-.527.14-1.058.242-1.514.242-.456 0-.988-.102-1.514-.242a2.672 2.672 0 0 0-2.228.406c-.6.432-.959 1.091-.893 1.854l.039.456a.625.625 0 0 1-1.246.107l-.039-.456c-.108-1.262.504-2.324 1.409-2.975a3.922 3.922 0 0 1 3.28-.6c.49.13.897.2 1.192.2.294 0 .703-.07 1.192-.2a3.921 3.921 0 0 1 3.28.6Z" fill-rule="evenodd" style="color: inherit"/>
</svg>