<?xml version="1.0" encoding="utf-8"?>
<svg fill="#FFFFFF" viewBox="0 0 24 24" xmlns="http://www.w3.org/2000/svg">
<path _ngcontent-ng-c1909134112="" d="M1.333 10.5a8.167 8.167 0 1 1 16.333 0 8.167 8.167 0 0 1-16.333 0Z" opacity=".1" style="color: inherit"/>
<path _ngcontent-ng-c1909134112="" clip-rule="evenodd" d="M.668 10.5a8.832 8.832 0 1 1 17.663 0 8.832 8.832 0 0 1-17.663 0ZM9.5 2.998a7.502 7.502 0 1 0 0 15.004 7.502 7.502 0 0 0 0-15.004Z" fill-rule="evenodd" style="color: inherit"/>
<path _ngcontent-ng-c1909134112="" clip-rule="evenodd" d="M8.495 10.9a.665.665 0 0 1 .938-.072l2.333 2a.665.665 0 0 1-.866 1.01l-2.333-2a.665.665 0 0 1-.072-.938Z" fill-rule="evenodd" style="color: inherit"/>
<path _ngcontent-ng-c1909134112="" clip-rule="evenodd" d="M9 11.998a.665.665 0 0 1-.665-.665v-5a.665.665 0 1 1 1.33 0v5a.665.665 0 0 1-.665.665Zm5.397-10.003h.002l.015-.001a6.43 6.43 0 0 1 .33-.016 7.26 7.26 0 0 1 .872.033c.716.073 1.386.265 1.747.626.36.36.553 1.031.626 1.747a7.258 7.258 0 0 1 .017 1.202l-.001.015v.002a.666.666 0 0 0 1.324.127l-.634-.06.634.06v-.012l.003-.026.006-.09a8.58 8.58 0 0 0-.026-1.352c-.078-.768-.302-1.847-1.008-2.554C17.596.99 16.517.766 15.75.688a8.59 8.59 0 0 0-1.443-.02l-.025.002-.008.001h-.004l.063.662-.063-.662a.665.665 0 0 0 .127 1.324Z" fill-rule="evenodd" style="color: inherit"/>
</svg>