<?xml version="1.0" encoding="utf-8"?>
<svg fill="#FFFFFF" viewBox="0 0 24 24" xmlns="http://www.w3.org/2000/svg">
<path _ngcontent-ng-c1909134112="" d="M14.769 13.995a40.68 40.68 0 0 0 .164-3.728c0-1.252-.053-2.332-.111-3.146-.075-1.032-.635-1.952-1.48-2.55L8.614 1.235a1.067 1.067 0 0 0-1.23 0L2.657 4.572c-.845.597-1.406 1.517-1.48 2.55a44.083 44.083 0 0 0-.112 3.145c0 1.624.09 2.922.165 3.728.049.528.495.916 1.025.916H5.2a.533.533 0 0 0 .533-.533V9.6c0-.59.478-1.067 1.067-1.067h2.4c.589 0 1.066.478 1.066 1.067v4.778c0 .294.24.533.534.533h2.944c.53 0 .976-.388 1.025-.916Z" opacity=".1" style="color: inherit"/>
<path _ngcontent-ng-c1909134112="" clip-rule="evenodd" d="M8.255 1.745a.442.442 0 0 0-.51 0L3.019 5.082C2.313 5.581 1.86 6.337 1.8 7.166c-.057.801-.11 1.866-.11 3.1 0 1.603.088 2.881.162 3.671.018.191.18.349.403.349h2.852V9.6c0-.934.757-1.692 1.692-1.692h2.4c.934 0 1.691.758 1.691 1.692v4.686h2.853a.392.392 0 0 0 .403-.349c.073-.79.161-2.068.161-3.67 0-1.235-.052-2.3-.11-3.1-.06-.83-.511-1.586-1.217-2.085L8.255 1.745ZM7.024.724a1.692 1.692 0 0 1 1.952 0l4.726 3.337c.984.696 1.654 1.78 1.743 3.016.06.825.113 1.92.113 3.19 0 1.647-.09 2.964-.167 3.786a1.641 1.641 0 0 1-1.647 1.483H10.8c-.64 0-1.159-.519-1.159-1.158V9.6a.442.442 0 0 0-.441-.442H6.8a.442.442 0 0 0-.442.442v4.778c0 .64-.519 1.158-1.158 1.158H2.256a1.641 1.641 0 0 1-1.648-1.483 41.313 41.313 0 0 1-.167-3.786c0-1.27.054-2.365.113-3.19.09-1.235.76-2.32 1.744-3.016L7.024.724Z" fill-rule="evenodd" style="color: inherit"/>
</svg>