<?xml version="1.0" encoding="utf-8"?>
<svg fill="#FFFFFF" viewBox="0 0 24 24" xmlns="http://www.w3.org/2000/svg">
<path _ngcontent-ng-c1909134112="" d="M14.933 8c0-1.81-.091-3.218-.199-4.248a2.747 2.747 0 0 0-2.487-2.487A41.223 41.223 0 0 0 8 1.067c-1.81 0-3.219.091-4.248.198a2.747 2.747 0 0 0-2.487 2.487A41.224 41.224 0 0 0 1.066 8c0 1.863.097 3.3.209 4.337.138 1.292 1.093 2.264 2.385 2.4 1.013.106 2.434.196 4.34.196 1.906 0 3.327-.09 4.34-.196 1.291-.136 2.246-1.108 2.385-2.4.111-1.036.208-2.474.208-4.337Z" opacity=".1" style="color: inherit"/>
<path _ngcontent-ng-c1909134112="" clip-rule="evenodd" d="M8 1.692c-1.789 0-3.176.09-4.183.195a2.122 2.122 0 0 0-1.93 1.93A40.603 40.603 0 0 0 1.69 8c0 1.841.096 3.257.205 4.27.108 1.005.837 1.741 1.83 1.845.988.104 2.387.193 4.274.193 1.886 0 3.285-.089 4.274-.193.993-.104 1.722-.84 1.83-1.844.108-1.014.204-2.43.204-4.271 0-1.789-.09-3.176-.195-4.183a2.122 2.122 0 0 0-1.93-1.93A40.604 40.604 0 0 0 8 1.692ZM3.687.644A41.843 41.843 0 0 1 8 .442c1.83 0 3.26.092 4.312.202a3.372 3.372 0 0 1 3.044 3.044A41.85 41.85 0 0 1 15.558 8a41.5 41.5 0 0 1-.212 4.404c-.17 1.578-1.35 2.787-2.941 2.954-1.037.11-2.48.2-4.405.2-1.926 0-3.369-.09-4.405-.2-1.59-.167-2.772-1.376-2.942-2.954A41.505 41.505 0 0 1 .441 8c0-1.83.093-3.261.203-4.312A3.372 3.372 0 0 1 3.687.644Z" fill-rule="evenodd" style="color: inherit"/>
<path _ngcontent-ng-c1909134112="" d="M3.9 10.4c0 .66.01 1.166.022 1.526.014.453.226.874.678.874.453 0 .665-.42.68-.873.01-.352.02-.851.02-1.527 0-.676-.01-1.175-.02-1.527C5.264 8.42 5.052 8 4.6 8c-.452 0-.664.421-.678.873-.012.361-.022.867-.022 1.527Zm3.4-.933c0 1.069.014 1.847.028 2.353.013.478.194.98.672.98.478 0 .66-.501.674-.98.013-.491.026-1.255.026-2.353a88.53 88.53 0 0 0-.026-2.354c-.013-.478-.196-.98-.674-.98-.478 0-.66.502-.672.98A87.981 87.981 0 0 0 7.3 9.467Zm4.1-5.734a.978.978 0 0 0-.216.023c-.362.082-.438.514-.447.886-.016.637-.037 1.83-.037 3.625s.021 2.987.037 3.624c.01.372.085.805.447.886a.978.978 0 0 0 .216.023.97.97 0 0 0 .227-.025c.354-.085.427-.508.437-.872.015-.61.036-1.766.036-3.636s-.02-3.026-.036-3.637c-.01-.364-.083-.786-.437-.871a.969.969 0 0 0-.227-.026Z" style="color: inherit"/>
</svg>