<?xml version="1.0" encoding="utf-8"?>
<svg fill="#FFFFFF" viewBox="0 0 24 24" xmlns="http://www.w3.org/2000/svg">
<path _ngcontent-ng-c1909134112="" d="M4.998 2.999a1 1 0 0 1 1-1H14a1 1 0 0 1 1 1v5A5 5 0 1 1 4.998 8V3Z" opacity=".1" style="color: inherit"/>
<path _ngcontent-ng-c1909134112="" clip-rule="evenodd" d="M4.333 2.999c0-.92.745-1.666 1.665-1.666H14c.92 0 1.665.746 1.665 1.666v.335H17c.92 0 1.665.745 1.665 1.665v1.5a4.166 4.166 0 0 1-3.648 4.134 5.67 5.67 0 0 1-4.353 2.994v1.726c.858.045 1.696.184 2.379.473.877.371 1.621 1.058 1.621 2.175h-1.33c0-.383-.21-.696-.81-.95-.618-.262-1.515-.385-2.526-.385-1.23 0-2.11.127-2.662.378-.265.12-.424.256-.52.392-.09.131-.153.307-.153.565h-1.33c0-.491.125-.941.393-1.326.264-.379.636-.65 1.06-.842.675-.307 1.552-.445 2.547-.485v-1.721a5.67 5.67 0 0 1-4.335-2.962 3.666 3.666 0 0 1-3.666-3.666V5c0-.92.746-1.665 1.665-1.665h1.336V3Zm0 1.665H2.997a.335.335 0 0 0-.335.335v2c0 1.111.776 2.041 1.815 2.278A5.683 5.683 0 0 1 4.333 8V4.664Zm11.218 4.47a2.836 2.836 0 0 0 1.784-2.635V5A.335.335 0 0 0 17 4.664h-1.335V8c0 .388-.04.767-.114 1.133Zm-9.553-6.47a.335.335 0 0 0-.335.335v5a4.336 4.336 0 0 0 8.671 0V3A.335.335 0 0 0 14 2.664H6Z" fill-rule="evenodd" style="color: inherit"/>
</svg>