<?xml version="1.0" encoding="utf-8"?>
<svg fill="#FFFFFF" viewBox="0 0 24 24" xmlns="http://www.w3.org/2000/svg">
<path _ngcontent-ng-c1909134112="" d="M18.462 17.494a50.89 50.89 0 0 0 .205-4.66c0-1.565-.066-2.915-.14-3.932-.093-1.29-.793-2.441-1.85-3.187l-5.908-4.172a1.333 1.333 0 0 0-1.538 0L3.323 5.715c-1.056.746-1.757 1.897-1.85 3.187a55.114 55.114 0 0 0-.14 3.931c0 2.031.112 3.653.206 4.661A1.27 1.27 0 0 0 2.82 18.64H6.5a.667.667 0 0 0 .667-.667V12c0-.736.597-1.333 1.333-1.333h3c.736 0 1.334.597 1.334 1.333v5.972c0 .368.298.667.666.667h3.68a1.27 1.27 0 0 0 1.282-1.145Z" style="color: inherit"/>
<path _ngcontent-ng-c1909134112="" clip-rule="evenodd" d="M10.45 1.996a.78.78 0 0 0-.9 0L3.644 6.168c-.933.658-1.537 1.663-1.617 2.774a54.554 54.554 0 0 0-.138 3.891c0 2.011.11 3.616.202 4.61.034.36.34.642.73.642H6.5c.062 0 .113-.05.113-.113V12c0-1.042.845-1.887 1.887-1.887h3c1.043 0 1.888.845 1.888 1.887v5.972c0 .062.05.113.112.113h3.68c.39 0 .696-.281.73-.642.092-.994.203-2.599.203-4.61a54.8 54.8 0 0 0-.138-3.891c-.08-1.11-.685-2.116-1.618-2.774L10.45 1.996Zm.639-.906 5.908 4.172c1.18.834 1.977 2.13 2.083 3.6a55.7 55.7 0 0 1 .141 3.971c0 2.051-.112 3.69-.208 4.713-.089.957-.898 1.647-1.833 1.647H13.5a1.22 1.22 0 0 1-1.22-1.22V12a.78.78 0 0 0-.78-.78h-3a.78.78 0 0 0-.779.78v5.972a1.22 1.22 0 0 1-1.22 1.221H2.82c-.935 0-1.745-.69-1.834-1.647a51.418 51.418 0 0 1-.208-4.713c0-1.58.067-2.943.141-3.97.106-1.47.903-2.767 2.084-3.6L8.91 1.09a1.888 1.888 0 0 1 2.178 0Z" fill-rule="evenodd" style="color: inherit"/>
</svg>