<?xml version="1.0" encoding="utf-8"?>
<svg fill="#FFFFFF" viewBox="0 0 24 24" xmlns="http://www.w3.org/2000/svg">
<path _ngcontent-ng-c1909134112="" d="M1.066 8.4a6.533 6.533 0 1 1 13.067 0 6.533 6.533 0 0 1-13.067 0Z" opacity=".1" style="color: inherit"/>
<path _ngcontent-ng-c1909134112="" clip-rule="evenodd" d="M.441 8.4a7.158 7.158 0 1 1 14.317 0 7.158 7.158 0 0 1-14.317 0ZM7.6 2.492a5.908 5.908 0 1 0 0 11.816 5.908 5.908 0 0 0 0-11.816Zm3.926-.803.013-.001a3.132 3.132 0 0 1 .258-.012 5.62 5.62 0 0 1 .686.026c.57.057 1.077.209 1.342.473.264.265.416.773.473 1.341a5.712 5.712 0 0 1 .014.945v.012a.626.626 0 0 0 1.243.12l-.585-.056.585.056V4.59l.001-.006.002-.022.005-.074a6.98 6.98 0 0 0-.021-1.097c-.062-.617-.244-1.51-.833-2.099-.59-.59-1.482-.77-2.1-.833a6.965 6.965 0 0 0-1.17-.016l-.022.002h-.01l.06.623-.06-.623a.625.625 0 0 0 .12 1.245Z" fill-rule="evenodd" style="color: inherit"/>
<path _ngcontent-ng-c1909134112="" clip-rule="evenodd" d="M6.726 8.66a.625.625 0 0 1 .881-.068l1.867 1.6a.625.625 0 0 1-.814.95l-1.867-1.6a.625.625 0 0 1-.067-.882Z" fill-rule="evenodd" style="color: inherit"/>
<path _ngcontent-ng-c1909134112="" clip-rule="evenodd" d="M7.2 9.692a.625.625 0 0 1-.625-.625v-4a.625.625 0 1 1 1.25 0v4c0 .345-.28.625-.625.625Z" fill-rule="evenodd" style="color: inherit"/>
</svg>