<?xml version="1.0" encoding="utf-8"?>
<svg fill="#FFFFFF" viewBox="0 0 24 24" xmlns="http://www.w3.org/2000/svg">
<path _ngcontent-ng-c1909134112="" clip-rule="evenodd" d="M8 1.692c-1.789 0-3.176.09-4.183.195a2.122 2.122 0 0 0-1.93 1.93A40.603 40.603 0 0 0 1.69 8c0 1.841.096 3.257.205 4.27.108 1.005.837 1.741 1.83 1.845.988.104 2.387.193 4.274.193 1.886 0 3.285-.089 4.274-.193.993-.104 1.722-.84 1.83-1.844.108-1.014.204-2.43.204-4.271a.625.625 0 1 1 1.25 0 41.5 41.5 0 0 1-.212 4.404c-.17 1.578-1.35 2.787-2.941 2.954-1.037.11-2.48.2-4.405.2-1.926 0-3.369-.09-4.405-.2-1.59-.167-2.772-1.376-2.942-2.954A41.505 41.505 0 0 1 .441 8c0-1.83.093-3.261.203-4.312A3.372 3.372 0 0 1 3.687.644 41.843 41.843 0 0 1 8 .442a.625.625 0 1 1 0 1.25Z" fill-rule="evenodd" style="color: inherit"/>
<path _ngcontent-ng-c1909134112="" clip-rule="evenodd" d="M11.57.882a1.692 1.692 0 0 1 2.2.078l1.175 1.082c.618.57.724 1.507.249 2.2l-3.909 5.699a.625.625 0 0 1-.35.249l-3.134.853-.587.795a.625.625 0 0 1-.503.254H3.734a.625.625 0 0 1-.508-.99L4.925 8.73l-.096-.152a.625.625 0 0 1-.03-.615l1.354-2.685a.625.625 0 0 1 .168-.207L11.57.882ZM5.758 9.714l-.808 1.128h1.446l.208-.283-.846-.845Zm1.854.085 1.95-.53-2.68-2.66-.807 1.6.094.15 1.443 1.44Zm.037-4.19 3.03 3.007 3.484-5.08a.442.442 0 0 0-.065-.575L12.924 1.88a.442.442 0 0 0-.575-.02l-4.7 3.75Z" fill-rule="evenodd" style="color: inherit"/>
<path _ngcontent-ng-c1909134112="" d="m7.093 5.567 3.687 3.316 3.791-5.492-.67-1.172-1.618-.67-5.19 4.018Z" style="color: inherit"/>
<path _ngcontent-ng-c1909134112="" clip-rule="evenodd" d="m12.187.833 2.15.89.972 1.7-4.418 6.4-4.772-4.292L12.187.833Zm.192 1.432L8.068 5.603l2.601 2.34 3.164-4.584-.368-.644-1.086-.45Z" fill-rule="evenodd" style="color: inherit"/>
</svg>