<?xml version="1.0" encoding="utf-8"?>
<svg fill="#FFFFFF" viewBox="0 0 24 24" xmlns="http://www.w3.org/2000/svg">
<path _ngcontent-ng-c1909134112="" clip-rule="evenodd" d="M14.225 8c0 1.833-.077 3.264-.167 4.312-.14 1.61-1.311 2.905-2.956 3.085-.835.09-1.91.161-3.235.161a27.59 27.59 0 0 1-3.182-.165c-1.533-.179-2.598-1.38-2.733-2.872-.095-1.04-.177-2.518-.177-4.521s.082-3.481.177-4.521C2.087 1.987 3.152.786 4.685.607A27.574 27.574 0 0 1 7.867.442c.762 0 1.44.023 2.039.06.442.028.84.063 1.195.101 1.645.18 2.818 1.475 2.957 3.086.034.394.066.841.093 1.344.044.836.074 1.823.074 2.967ZM5.334 4.708a.625.625 0 0 0 0 1.25h2a.625.625 0 1 0 0-1.25h-2Zm-.625 3.559c0-.345.28-.625.625-.625h5.334a.625.625 0 1 1 0 1.25H5.334a.625.625 0 0 1-.625-.625Zm0 3.2c0 .345.28.625.625.625h5.333a.625.625 0 1 0 0-1.25H5.334a.625.625 0 0 0-.625.625Z" fill-rule="evenodd" style="color: inherit"/>
</svg>