<?xml version="1.0" encoding="utf-8"?>
<svg fill="#FFFFFF" viewBox="0 0 24 24" xmlns="http://www.w3.org/2000/svg">
<path _ngcontent-ng-c1909134112="" d="M14.933 8c0-1.81-.091-3.218-.199-4.248a2.747 2.747 0 0 0-2.487-2.487A41.223 41.223 0 0 0 8 1.067c-1.81 0-3.219.091-4.248.198a2.747 2.747 0 0 0-2.487 2.487A41.224 41.224 0 0 0 1.066 8c0 1.863.097 3.3.209 4.337.138 1.292 1.093 2.264 2.385 2.4 1.013.106 2.434.196 4.34.196 1.906 0 3.327-.09 4.34-.196 1.291-.136 2.246-1.108 2.385-2.4.111-1.036.208-2.474.208-4.337Z" opacity=".1" style="color: inherit"/>
<path _ngcontent-ng-c1909134112="" clip-rule="evenodd" d="M8 1.692c-1.789 0-3.176.09-4.183.195a2.122 2.122 0 0 0-1.93 1.93A40.603 40.603 0 0 0 1.69 8c0 1.841.096 3.257.205 4.27.108 1.005.837 1.741 1.83 1.845.988.104 2.387.193 4.274.193 1.886 0 3.285-.089 4.274-.193.993-.104 1.722-.84 1.83-1.844.108-1.014.204-2.43.204-4.271 0-1.789-.09-3.176-.195-4.183a2.122 2.122 0 0 0-1.93-1.93A40.604 40.604 0 0 0 8 1.692ZM3.687.644A41.843 41.843 0 0 1 8 .442c1.83 0 3.26.092 4.312.202a3.372 3.372 0 0 1 3.044 3.044A41.85 41.85 0 0 1 15.558 8a41.5 41.5 0 0 1-.212 4.404c-.17 1.578-1.35 2.787-2.941 2.954-1.037.11-2.48.2-4.405.2-1.926 0-3.369-.09-4.405-.2-1.59-.167-2.772-1.376-2.942-2.954A41.505 41.505 0 0 1 .441 8c0-1.83.093-3.261.203-4.312A3.372 3.372 0 0 1 3.687.644Z" fill-rule="evenodd" style="color: inherit"/>
<path _ngcontent-ng-c1909134112="" clip-rule="evenodd" d="M3.749 8.652a.625.625 0 0 1 .868-.168 12.34 12.34 0 0 1 1.886 1.547A21.571 21.571 0 0 1 8.273 7.3a16.944 16.944 0 0 1 1.932-2.158 9.486 9.486 0 0 1 .748-.624L11 4.484l.015-.01.005-.003.002-.001v-.001a.625.625 0 0 1 .695 1.04m0 0-.005.003a8.207 8.207 0 0 0-.659.549 15.706 15.706 0 0 0-1.787 1.997 20.326 20.326 0 0 0-1.93 3.074 10.78 10.78 0 0 0-.12.25l-.006.011v.002a.625.625 0 0 1-1.082.1l-.003-.003-.018-.024a6.568 6.568 0 0 0-.472-.537A11.048 11.048 0 0 0 3.917 9.52a.625.625 0 0 1-.168-.868" fill-rule="evenodd" style="color: inherit"/>
</svg>