<?xml version="1.0" encoding="utf-8"?>
<svg fill="#FFFFFF" viewBox="0 0 24 24" xmlns="http://www.w3.org/2000/svg">
<path _ngcontent-ng-c1909134112="" d="M7.6 1.242a7.158 7.158 0 1 0 0 14.316 7.158 7.158 0 0 0 0-14.316Zm-1.025 7.82V5.068a.625.625 0 1 1 1.25 0V8.78l1.649 1.413a.625.625 0 1 1-.814.95l-1.863-1.6a.638.638 0 0 1-.165-.216.622.622 0 0 1-.057-.244v-.021Zm4.951-7.373.013-.001a3.132 3.132 0 0 1 .258-.012 5.62 5.62 0 0 1 .686.026c.57.057 1.077.209 1.342.473.264.265.416.773.473 1.341a5.712 5.712 0 0 1 .014.945v.012a.626.626 0 0 0 1.243.12l-.585-.056.585.056V4.59l.001-.006.002-.022.005-.074a6.98 6.98 0 0 0-.021-1.097c-.062-.617-.244-1.509-.833-2.099-.59-.59-1.482-.77-2.1-.833a6.965 6.965 0 0 0-1.17-.016l-.022.002h-.01l.06.623-.06-.622a.625.625 0 0 0 .12 1.244Z" style="color: inherit"/>
</svg>