<?xml version="1.0" encoding="utf-8"?>
<svg fill="#FFFFFF" viewBox="0 0 24 24" xmlns="http://www.w3.org/2000/svg">
<path _ngcontent-ng-c1909134112="" d="M1.467 12.533a2 2 0 1 1 4 0 2 2 0 0 1-4 0Z" opacity=".1" style="color: inherit"/>
<path _ngcontent-ng-c1909134112="" clip-rule="evenodd" d="M3.467 11.158a1.375 1.375 0 1 0 0 2.75 1.375 1.375 0 0 0 0-2.75ZM.842 12.533a2.625 2.625 0 1 1 5.25 0 2.625 2.625 0 0 1-5.25 0Z" fill="#FFFFFF" fill-rule="evenodd" style="color: inherit"/>
<path _ngcontent-ng-c1909134112="" d="M4.556 1.262S8.77.82 11.986 4.035c3.217 3.216 2.773 7.43 2.773 7.43M4.534 4.02s2.976-.19 5.354 2.187c2.377 2.378 2.188 5.354 2.188 5.354M4.535 6.9s1.8-.078 3.268 1.39c1.468 1.469 1.39 3.269 1.39 3.269" stroke="currentColor" stroke-linecap="round" stroke-linejoin="round" stroke-width="1.25" style="color: inherit"/>
</svg>