<?xml version="1.0" encoding="utf-8"?>
<svg fill="#FFFFFF" viewBox="0 0 24 24" xmlns="http://www.w3.org/2000/svg">
<path _ngcontent-ng-c1909134112="" d="M18.406 15.422c.14-1.296.26-3.094.26-5.422h-2.47A2.232 2.232 0 0 0 14 11.833a2.233 2.233 0 0 1-2.197 1.834H8.196A2.233 2.233 0 0 1 6 11.833 2.233 2.233 0 0 0 3.803 10h-2.47c0 2.329.121 4.126.26 5.422.174 1.614 1.368 2.83 2.982 2.999 1.266.133 3.042.246 5.425.246 2.382 0 4.159-.113 5.424-.246 1.615-.17 2.809-1.385 2.982-3Z" style="color: inherit"/>
<path _ngcontent-ng-c1909134112="" clip-rule="evenodd" d="M10 1.998c-1.579 0-2.728.176-3.455.338-.53.119-.993.452-1.327.936a23.778 23.778 0 0 0-2.99 6.063h1.575c1.4 0 2.6 1.001 2.85 2.38a1.568 1.568 0 0 0 1.543 1.287h3.607c.758 0 1.407-.542 1.542-1.288a2.898 2.898 0 0 1 2.851-2.379h1.576a23.78 23.78 0 0 0-2.99-6.063c-.335-.484-.798-.817-1.327-.936-.728-.162-1.877-.338-3.455-.338Zm7.998 8.667h-1.802c-.757 0-1.407.542-1.542 1.287a2.898 2.898 0 0 1-2.851 2.38H8.196c-1.4 0-2.6-1.002-2.85-2.38a1.568 1.568 0 0 0-1.543-1.287H2c.02 1.985.13 3.54.254 4.686.14 1.31 1.093 2.272 2.39 2.409 1.24.13 2.993.242 5.355.242 2.361 0 4.114-.112 5.354-.242 1.297-.137 2.25-1.1 2.39-2.41.124-1.146.233-2.7.254-4.685ZM6.254 1.038C7.075.855 8.322.668 10 .668c1.677 0 2.924.187 3.745.37.9.202 1.633.758 2.13 1.478.904 1.307 2.49 3.919 3.432 7.306a.666.666 0 0 1 .024.178c0 2.352-.122 4.173-.264 5.493-.206 1.92-1.64 3.386-3.574 3.59-1.29.135-3.09.249-5.493.249-2.404 0-4.203-.114-5.494-.25-1.933-.203-3.368-1.67-3.574-3.59C.79 14.173.668 12.353.668 10c0-.06.008-.12.024-.178.942-3.387 2.529-5.999 3.432-7.306.497-.72 1.23-1.276 2.13-1.478Z" fill-rule="evenodd" style="color: inherit"/>
</svg>