<?xml version="1.0" encoding="utf-8"?>
<svg fill="#FFFFFF" viewBox="0 0 24 24" xmlns="http://www.w3.org/2000/svg">
<path _ngcontent-ng-c1909134112="" d="M14.286 4.24c-.193 1.037-.967 1.915-2.15 2.014-.55.046-1.252.08-2.136.08a25 25 0 0 1-2.271-.092c-1.027-.094-1.723-.809-1.966-1.684l-.13.014c-.99.111-1.675.795-1.777 1.772-.102.98-.189 2.422-.189 4.49 0 2.066.087 3.617.19 4.73.114 1.234.983 2.135 2.19 2.261A36.54 36.54 0 0 0 9.834 18a39.87 39.87 0 0 0 3.867-.173c1.345-.132 2.333-1.149 2.454-2.514.098-1.116.179-2.603.179-4.48 0-1.778-.073-3.115-.163-4.093-.104-1.122-.876-1.96-1.967-2.171a2.79 2.79 0 0 0 .082-.33Z" fill-opacity=".1" style="color: inherit"/>
<path _ngcontent-ng-c1909134112="" d="m5.692 3.224-.208.023c-1.598.18-2.785 1.345-2.954 2.958-.108 1.036-.196 2.526-.196 4.628 0 2.104.088 3.697.196 4.855.17 1.84 1.514 3.269 3.378 3.463a38.02 38.02 0 0 0 3.926.182 41.2 41.2 0 0 0 3.997-.179c2.003-.196 3.477-1.739 3.652-3.724.102-1.156.184-2.682.184-4.597 0-1.813-.073-3.192-.168-4.216-.166-1.781-1.458-3.112-3.188-3.383.015.123.023.246.023.368v.121c0 .29-.045.577-.13.846 1.091.211 1.863 1.05 1.967 2.17.09.979.163 2.316.163 4.094 0 1.877-.08 3.364-.18 4.48-.12 1.365-1.108 2.382-2.453 2.514A39.87 39.87 0 0 1 9.834 18c-1.606 0-2.853-.077-3.788-.175-1.206-.126-2.075-1.027-2.189-2.26-.103-1.114-.19-2.665-.19-4.732s.087-3.508.19-4.49c.101-.976.787-1.66 1.776-1.771l.13-.014a2.638 2.638 0 0 1-.096-.706v-.25c0-.126.008-.252.025-.378ZM7 3.827v.014-.014Z" style="color: inherit"/>
<path _ngcontent-ng-c1909134112="" clip-rule="evenodd" d="M7.19 1.203A7.8 7.8 0 0 1 10 .667a7.8 7.8 0 0 1 2.81.536c1.037.403 1.524 1.43 1.524 2.399v.121c0 1.248-.823 2.415-2.198 2.531-.55.046-1.252.08-2.136.08a25 25 0 0 1-2.271-.092c-1.294-.119-2.062-1.22-2.062-2.39v-.25c0-.97.486-1.996 1.523-2.4ZM10 2c-.934 0-1.74.218-2.327.446C7.276 2.6 7 3.03 7 3.602v.25c0 .614.37 1.018.852 1.063C8.374 4.963 9.077 5 10 5c.852 0 1.516-.032 2.024-.074.557-.047.976-.512.976-1.203v-.121c0-.57-.276-1.002-.673-1.156A6.466 6.466 0 0 0 10 2ZM6 12c0-.368.298-.667.667-.667h5a.667.667 0 1 1 0 1.334h-5A.667.667 0 0 1 6 12Zm0 3c0-.368.298-.667.667-.667h2.666a.667.667 0 1 1 0 1.334H6.667A.667.667 0 0 1 6 15Zm0-6c0-.368.298-.667.667-.667h6.666a.667.667 0 1 1 0 1.334H6.667A.667.667 0 0 1 6 9Z" fill-rule="evenodd" style="color: inherit"/>
</svg>