<?xml version="1.0" encoding="utf-8"?>
<svg fill="#FFFFFF" viewBox="0 0 24 24" xmlns="http://www.w3.org/2000/svg">
<path _ngcontent-ng-c1909134112="" d="M3.998 2.4a.8.8 0 0 1 .8-.801H11.2a.8.8 0 0 1 .8.8v4a4 4 0 0 1-8.002 0v-4Z" opacity=".1" style="color: inherit"/>
<path _ngcontent-ng-c1909134112="" clip-rule="evenodd" d="M3.373 2.4c0-.788.638-1.426 1.425-1.426H11.2c.787 0 1.425.638 1.425 1.425v.175h.975c.787 0 1.425.638 1.425 1.425v1.2a3.426 3.426 0 0 1-2.952 3.393 4.629 4.629 0 0 1-3.45 2.391v1.211c.663.041 1.311.154 1.847.381.721.305 1.354.88 1.354 1.826h-1.25c0-.255-.13-.48-.591-.675-.478-.202-1.18-.3-1.984-.3-.982 0-1.67.102-2.092.294-.2.091-.313.19-.377.282a.667.667 0 0 0-.107.399h-1.25c0-.41.105-.788.331-1.114.224-.32.536-.546.886-.705.535-.244 1.218-.356 1.984-.392v-1.207a4.629 4.629 0 0 1-3.431-2.359A3.025 3.025 0 0 1 .973 5.6V4c0-.788.638-1.426 1.425-1.426h.975V2.4Zm0 1.424h-.975A.175.175 0 0 0 2.223 4v1.6c0 .793.52 1.465 1.236 1.693a4.649 4.649 0 0 1-.086-.892V3.824Zm9.191 3.326a2.176 2.176 0 0 0 1.21-1.95V4a.175.175 0 0 0-.174-.176h-.975V6.4c0 .255-.021.506-.06.75ZM4.798 2.224a.175.175 0 0 0-.175.175v4a3.376 3.376 0 0 0 6.752 0v-4a.175.175 0 0 0-.175-.175H4.798Z" fill-rule="evenodd" style="color: inherit"/>
</svg>