<?xml version="1.0" encoding="utf-8"?>
<svg fill="#FFFFFF" viewBox="0 0 24 24" xmlns="http://www.w3.org/2000/svg">
<path _ngcontent-ng-c1909134112="" clip-rule="evenodd" d="M7 5.25A3.25 3.25 0 0 1 10.25 2h8.5A3.25 3.25 0 0 1 22 5.25v8.5A3.25 3.25 0 0 1 18.75 17H17v1.75A3.25 3.25 0 0 1 13.75 22h-8.5A3.25 3.25 0 0 1 2 18.75v-8.5A3.25 3.25 0 0 1 5.25 7H7V5.25ZM7 9H5.25C4.56 9 4 9.56 4 10.25v8.5c0 .69.56 1.25 1.25 1.25h8.5c.69 0 1.25-.56 1.25-1.25V17h-4.75A3.25 3.25 0 0 1 7 13.75V9Zm8 6h-4.75C9.56 15 9 14.44 9 13.75V9h4.75c.69 0 1.25.56 1.25 1.25V15Zm2 0v-4.75A3.25 3.25 0 0 0 13.75 7H9V5.25C9 4.56 9.56 4 10.25 4h8.5c.69 0 1.25.56 1.25 1.25v8.5c0 .69-.56 1.25-1.25 1.25H17Z" fill-rule="evenodd" style="color: inherit"/>
</svg>