<?xml version="1.0" encoding="utf-8"?>
<svg fill="#FFFFFF" viewBox="0 0 24 24" xmlns="http://www.w3.org/2000/svg">
<path _ngcontent-ng-c1909134112="" clip-rule="evenodd" d="M12.89 5.51a1.03 1.03 0 0 0-1.78 0L4.144 17.45a1.03 1.03 0 0 0 .89 1.55h13.931c.795 0 1.29-.862.89-1.549L12.89 5.51ZM9.383 4.502c1.169-2.004 4.065-2.004 5.234 0l6.966 11.941C22.76 18.463 21.304 21 18.966 21H5.033c-2.338 0-3.795-2.537-2.617-4.557L9.383 4.502ZM12 7.5a1 1 0 0 1 1 1V13a1 1 0 1 1-2 0V8.5a1 1 0 0 1 1-1Zm0 8a1 1 0 0 1 1 1v.5a1 1 0 1 1-2 0v-.5a1 1 0 0 1 1-1Z" fill-rule="evenodd" style="color: inherit"/>
</svg>