<?xml version="1.0" encoding="utf-8"?>
<svg fill="#FFFFFF" viewBox="0 0 24 24" xmlns="http://www.w3.org/2000/svg">
<path _ngcontent-ng-c1909134112="" clip-rule="evenodd" d="M3 11a1 1 0 0 1 1-1c1.286 0 1.96.846 2.34 1.325l.04.05c.427.533.553.625.82.625.268 0 .393-.092.82-.625l.04-.05C8.44 10.845 9.114 10 10.4 10c1.286 0 1.96.846 2.34 1.325l.04.05c.427.533.553.625.82.625.268 0 .393-.092.82-.625l.04-.05c.38-.48 1.054-1.325 2.34-1.325 1.286 0 1.96.846 2.34 1.325l.04.05c.427.533.553.625.82.625a1 1 0 1 1 0 2c-1.286 0-1.96-.846-2.34-1.325l-.04-.05c-.427-.533-.553-.625-.82-.625-.268 0-.393.092-.82.625l-.04.05c-.38.48-1.054 1.325-2.34 1.325-1.286 0-1.96-.846-2.34-1.325l-.04-.05c-.427-.533-.553-.625-.82-.625-.268 0-.393.092-.82.625l-.04.05C9.16 13.155 8.486 14 7.2 14c-1.286 0-1.96-.846-2.34-1.325a47.176 47.176 0 0 0-.04-.05C4.392 12.092 4.266 12 4 12a1 1 0 0 1-1-1Z" fill="#FFFFFF" fill-rule="evenodd" style="color: inherit"/>
</svg>