<?xml version="1.0" encoding="utf-8"?>
<svg fill="#FFFFFF" viewBox="0 0 24 24" xmlns="http://www.w3.org/2000/svg">
<path _ngcontent-ng-c1909134112="" clip-rule="evenodd" d="M18.142 4.291a3 3 0 0 1 4.242 4.243l-4.455 4.455a2 2 0 0 1-1.158.57l-1.624.209a2 2 0 0 1-2.24-2.24l.21-1.623a2 2 0 0 1 .57-1.159l4.455-4.455Zm2.828 1.414a1 1 0 0 0-1.414 0L15.1 10.16l-.21 1.624 1.624-.21L20.97 7.12a1 1 0 0 0 0-1.415Zm-16.4-.12a1.25 1.25 0 0 0-1.25 1.25v2.522l1.585-1.409a3.097 3.097 0 0 1 4.114 4.63l-.903.803a1.059 1.059 0 1 0 1.452 1.54l1.044-1.044a1 1 0 0 1 1.415 1.414l-1.045 1.044a3.059 3.059 0 1 1-4.195-4.45l.904-.802a1.097 1.097 0 1 0-1.458-1.64l-2.914 2.59v5.301c0 .69.56 1.25 1.25 1.25h13.5c.69 0 1.25-.56 1.25-1.25V14.21a1 1 0 0 1 2 0v3.125a3.25 3.25 0 0 1-3.25 3.25H4.57a3.25 3.25 0 0 1-3.25-3.25V11.59a.72.72 0 0 1 0-.01V6.835a3.25 3.25 0 0 1 3.25-3.25h9.023a1 1 0 1 1 0 2H4.57Z" fill-rule="evenodd" style="color: inherit"/>
</svg>