<?xml version="1.0" encoding="utf-8"?>
<svg fill="#FFFFFF" viewBox="0 0 24 24" xmlns="http://www.w3.org/2000/svg">
<path _ngcontent-ng-c1909134112="" clip-rule="evenodd" d="M2 5.118C2 3.45 3.29 2 5 2h14c1.71 0 3 1.45 3 3.118v13.764C22 20.55 20.71 22 19 22h-5c-1.71 0-3-1.45-3-3.118V16H5c-1.71 0-3-1.45-3-3.118V5.118ZM11 14v-2h-1v-2h1V4H5c-.5 0-1 .446-1 1.118V10h1v2H4v.882C4 13.554 4.5 14 5 14h6Zm2-10v12h1v2h-1v.882c0 .672.5 1.118 1 1.118h5c.5 0 1-.446 1-1.118V18h-1v-2h1V5.118C20 4.446 19.5 4 19 4h-6Zm-4 8H6v-2h3v2Zm9 6h-3v-2h3v2Z" fill-rule="evenodd" style="color: inherit"/>
</svg>