<?xml version="1.0" encoding="utf-8"?>
<svg fill="#FFFFFF" viewBox="0 0 24 24" xmlns="http://www.w3.org/2000/svg">
<path _ngcontent-ng-c1909134112="" d="M2.963 9.714A10 10 0 0 1 12 4a9.958 9.958 0 0 1 6.553 2.447l-1.418 1.418A7.942 7.942 0 0 0 13 6.062v1.51a1 1 0 1 1-2 0v-1.51a8 8 0 0 0-5.777 3.684l1.472.805a1 1 0 0 1-.961 1.755l-1.356-.743A7.995 7.995 0 0 0 4 14c0 1.459.39 2.824 1.07 4H7a1 1 0 1 1 0 2H4.516a1 1 0 0 1-.831-.444A9.958 9.958 0 0 1 2 14c0-1.532.345-2.986.963-4.286Zm16.982 3.341 1.7-1.701A9.954 9.954 0 0 1 22 14a9.95 9.95 0 0 1-1.685 5.556 1 1 0 0 1-.83.444H17a1 1 0 1 1 0-2h1.93A7.958 7.958 0 0 0 20 14c0-.301-.017-.598-.049-.89l-.006-.055Zm.762-3.348a1 1 0 0 0-1.414-1.414l-8 8a1 1 0 0 0 1.414 1.414l8-8Z" style="color: inherit"/>
</svg>