<?xml version="1.0" encoding="utf-8"?>
<svg fill="#FFFFFF" viewBox="0 0 24 24" xmlns="http://www.w3.org/2000/svg">
<path _ngcontent-ng-c1909134112="" d="M19.606 6.995c-.076-.298-.292-.523-.539-.592C18.63 6.28 16.5 6 12 6s-6.628.28-7.069.403c-.244.068-.46.293-.537.592C4.285 7.419 4 9.196 4 12s.285 4.58.394 5.006c.076.297.292.522.538.59C5.372 17.72 7.5 18 12 18s6.629-.28 7.069-.403c.244-.068.46-.293.537-.592C19.715 16.581 20 14.8 20 12s-.285-4.58-.394-5.005Zm1.937-.497C22 8.28 22 12 22 12s0 3.72-.457 5.502c-.254.985-.997 1.76-1.938 2.022C17.896 20 12 20 12 20s-5.893 0-7.605-.476c-.945-.266-1.687-1.04-1.938-2.022C2 15.72 2 12 2 12s0-3.72.457-5.502c.254-.985.997-1.76 1.938-2.022C6.107 4 12 4 12 4s5.896 0 7.605.476c.945.266 1.687 1.04 1.938 2.022Zm-10.791 8.563A.5.5 0 0 1 10 14.63V9.37a.5.5 0 0 1 .752-.431l4.508 2.63a.5.5 0 0 1 0 .863l-4.508 2.63Z" style="color: inherit"/>
</svg>