<?xml version="1.0" encoding="utf-8"?>
<svg fill="#FFFFFF" viewBox="0 0 24 24" xmlns="http://www.w3.org/2000/svg">
<path _ngcontent-ng-c1909134112="" d="M172.32 19.36A22.11 22.11 0 0 0 156.76 3.7C143.04 0 88 0 88 0S32.96 0 19.24 3.7A22.11 22.11 0 0 0 3.68 19.36C0 33.18 0 62 0 62s0 28.82 3.68 42.64a22.12 22.12 0 0 0 15.56 15.66C32.96 124 88 124 88 124s55.04 0 68.76-3.7a22.12 22.12 0 0 0 15.56-15.66C176 90.82 176 62 176 62s0-28.82-3.68-42.64" fill="#FFFFFF" style="color: inherit"/>
<path _ngcontent-ng-c1909134112="" d="M70 88.17 116 62 70 35.83v52.34" fill="#FFFFFF" style="color: inherit"/>
</svg>