<?xml version="1.0" encoding="utf-8"?>
<svg fill="#FFFFFF" viewBox="0 0 24 24" xmlns="http://www.w3.org/2000/svg">
<path _ngcontent-ng-c1909134112="" clip-rule="evenodd" d="M1 7a2 2 0 0 1 2-2h9a4.999 4.999 0 0 1 4.395 2.614c.03-.02.062-.038.093-.057l3.88-2.263C21.535 4.614 23 5.455 23 6.806v9.388c0 1.35-1.465 2.192-2.632 1.512L17 15.74V16a2 2 0 0 1-2 2H6a5 5 0 0 1-5-5V7Zm14 3a3 3 0 0 0-3-3H3v6a3 3 0 0 0 3 3h9v-6Zm2 2.851a1 1 0 0 0 .496.864L21 15.759V7.24l-3.504 2.044a1 1 0 0 0-.496.864v2.702Z" fill-rule="evenodd" style="color: inherit"/>
</svg>