<?xml version="1.0" encoding="utf-8"?>
<svg fill="#FFFFFF" viewBox="0 0 24 24" xmlns="http://www.w3.org/2000/svg">
<path _ngcontent-ng-c1909134112="" d="M22 12a19.8 19.8 0 0 1-.25 3.14 8.002 8.002 0 0 1-6.61 6.61 19.79 19.79 0 0 1-6.28 0 8.002 8.002 0 0 1-6.61-6.61 19.79 19.79 0 0 1 0-6.28 8.002 8.002 0 0 1 6.61-6.61 19.79 19.79 0 0 1 6.28 0 8.002 8.002 0 0 1 6.61 6.61A19.79 19.79 0 0 1 22 12Z" fill="#FFFFFF" style="color: inherit"/>
<path _ngcontent-ng-c1909134112="" d="M10.503 15.055h-4.95a.853.853 0 0 1-.79-.528.853.853 0 0 1 .186-.932l3.428-3.428H5.92a1.222 1.222 0 0 1-1.222-1.222h4.564a.854.854 0 0 1 .605 1.46L6.44 13.833h2.842c.675 0 1.222.547 1.222 1.222Zm8.8-3.819a2.386 2.386 0 0 0-2.384-2.383c-.703 0-1.335.306-1.772.792a2.377 2.377 0 0 0-1.772-.792 2.386 2.386 0 0 0-2.383 2.383v3.82c.675 0 1.222-.548 1.222-1.223v-2.597a1.16 1.16 0 0 1 2.322 0v2.597c0 .675.547 1.222 1.222 1.222v-3.819a1.161 1.161 0 0 1 2.322 0v2.597c0 .675.547 1.222 1.222 1.222v-3.819Z" fill="#FFFFFF" style="color: inherit"/>
</svg>