<?xml version="1.0" standalone="no"?>
<!DOCTYPE svg PUBLIC "-//W3C//DTD SVG 20010904//EN"
 "http://www.w3.org/TR/2001/REC-SVG-20010904/DTD/svg10.dtd">
<svg version="1.0" xmlns="http://www.w3.org/2000/svg"
 width="103.000000pt" height="128.000000pt" viewBox="0 0 103.000000 128.000000"
 preserveAspectRatio="xMidYMid meet">

<g transform="translate(0.000000,128.000000) scale(0.100000,-0.100000)"
fill="#000000" stroke="none">
<path d="M460 1232 c-142 -120 -339 -290 -375 -324 -22 -20 -49 -44 -59 -51
-19 -14 -19 -16 -3 -38 41 -59 134 -164 145 -164 13 0 112 82 247 204 49 44
93 81 98 81 4 0 82 -65 174 -145 91 -80 169 -145 173 -145 14 0 150 169 149
187 0 11 -93 98 -230 218 -127 110 -238 205 -247 212 -14 9 -26 4 -72 -35z"/>
<path d="M800 399 c-92 -109 -219 -161 -340 -140 -84 15 -154 55 -225 128 -64
66 -53 68 -167 -24 -47 -37 -68 -61 -68 -76 0 -29 127 -152 206 -200 107 -64
172 -81 314 -81 112 1 132 3 195 28 94 36 166 85 248 168 49 49 67 75 65 91
-2 13 -37 47 -93 89 -49 37 -90 68 -91 68 0 0 -20 -23 -44 -51z"/>
</g>
</svg>
