<?xml version="1.0" standalone="no"?>
<!DOCTYPE svg PUBLIC "-//W3C//DTD SVG 20010904//EN"
 "http://www.w3.org/TR/2001/REC-SVG-20010904/DTD/svg10.dtd">
<svg version="1.0" xmlns="http://www.w3.org/2000/svg"
 width="107.000000pt" height="128.000000pt" viewBox="0 0 107.000000 128.000000"
 preserveAspectRatio="xMidYMid meet">

<g transform="translate(0.000000,128.000000) scale(0.100000,-0.100000)"
fill="#000000" stroke="none">
<path d="M0 640 l0 -640 268 1 c147 1 259 3 250 6 -16 4 -18 18 -18 117 l0
113 55 7 c101 12 161 42 242 122 l75 73 94 -70 c78 -58 93 -73 85 -88 -5 -9
-45 -51 -88 -92 -117 -112 -217 -162 -353 -179 -45 -5 17 -8 198 -9 l262 -1 0
640 0 640 -535 0 -535 0 0 -640z m785 419 c135 -116 247 -214 250 -219 5 -8
-141 -180 -154 -180 -5 0 -82 65 -172 145 -90 80 -169 145 -175 145 -6 0 -19
-9 -29 -20 -10 -11 -22 -20 -27 -20 -4 0 -8 68 -8 152 l0 152 33 27 c17 16 33
28 35 29 2 0 113 -95 247 -211z"/>
</g>
</svg>
